ISO-10303-21;
HEADER;
/* Generated by software containing ST-Developer
 * from STEP Tools, Inc. (www.steptools.com) 
 */

FILE_DESCRIPTION(
/* description */ ('blaze/ace-Adapter AMA'),
/* implementation_level */ '2;1');

FILE_NAME(
/* name */ 'lens_cover.step',
/* time_stamp */ '2026-03-25T11:43:25+01:00',
/* author */ (''),
/* organization */ (''),
/* preprocessor_version */ 'ST-DEVELOPER v20.1',
/* originating_system */ 'Autodesk Translation Framework v14.24.0.0',
/* authorisation */ '');

FILE_SCHEMA (('AUTOMOTIVE_DESIGN { 1 0 10303 214 3 1 1 }'));
ENDSEC;

DATA;
#10=MECHANICAL_DESIGN_GEOMETRIC_PRESENTATION_REPRESENTATION('',(#13),#751);
#11=SHAPE_REPRESENTATION_RELATIONSHIP('SRR','None',#758,#12);
#12=ADVANCED_BREP_SHAPE_REPRESENTATION('',(#14),#750);
#13=STYLED_ITEM('',(#768),#14);
#14=MANIFOLD_SOLID_BREP('Body2',#423);
#15=TOROIDAL_SURFACE('',#463,5.75,2.25);
#16=TOROIDAL_SURFACE('',#467,5.75,2.25);
#17=TOROIDAL_SURFACE('',#473,5.75,2.25);
#18=TOROIDAL_SURFACE('',#477,5.75,2.25);
#19=FACE_BOUND('',#66,.T.);
#20=FACE_BOUND('',#68,.T.);
#21=PLANE('',#440);
#22=PLANE('',#447);
#23=PLANE('',#451);
#24=PLANE('',#452);
#25=PLANE('',#453);
#26=PLANE('',#455);
#27=PLANE('',#482);
#28=PLANE('',#484);
#29=PLANE('',#485);
#30=PLANE('',#486);
#31=PLANE('',#487);
#32=FACE_OUTER_BOUND('',#58,.T.);
#33=FACE_OUTER_BOUND('',#59,.T.);
#34=FACE_OUTER_BOUND('',#60,.T.);
#35=FACE_OUTER_BOUND('',#61,.T.);
#36=FACE_OUTER_BOUND('',#62,.T.);
#37=FACE_OUTER_BOUND('',#63,.T.);
#38=FACE_OUTER_BOUND('',#64,.T.);
#39=FACE_OUTER_BOUND('',#65,.T.);
#40=FACE_OUTER_BOUND('',#67,.T.);
#41=FACE_OUTER_BOUND('',#69,.T.);
#42=FACE_OUTER_BOUND('',#70,.T.);
#43=FACE_OUTER_BOUND('',#71,.T.);
#44=FACE_OUTER_BOUND('',#72,.T.);
#45=FACE_OUTER_BOUND('',#73,.T.);
#46=FACE_OUTER_BOUND('',#74,.T.);
#47=FACE_OUTER_BOUND('',#75,.T.);
#48=FACE_OUTER_BOUND('',#76,.T.);
#49=FACE_OUTER_BOUND('',#77,.T.);
#50=FACE_OUTER_BOUND('',#78,.T.);
#51=FACE_OUTER_BOUND('',#79,.T.);
#52=FACE_OUTER_BOUND('',#80,.T.);
#53=FACE_OUTER_BOUND('',#81,.T.);
#54=FACE_OUTER_BOUND('',#82,.T.);
#55=FACE_OUTER_BOUND('',#83,.T.);
#56=FACE_OUTER_BOUND('',#84,.T.);
#57=FACE_OUTER_BOUND('',#85,.T.);
#58=EDGE_LOOP('',(#270,#271,#272,#273));
#59=EDGE_LOOP('',(#274,#275,#276,#277,#278,#279,#280,#281,#282,#283));
#60=EDGE_LOOP('',(#284,#285,#286,#287));
#61=EDGE_LOOP('',(#288));
#62=EDGE_LOOP('',(#289,#290,#291,#292));
#63=EDGE_LOOP('',(#293));
#64=EDGE_LOOP('',(#294,#295,#296,#297));
#65=EDGE_LOOP('',(#298,#299,#300,#301,#302,#303));
#66=EDGE_LOOP('',(#304));
#67=EDGE_LOOP('',(#305,#306,#307,#308,#309,#310));
#68=EDGE_LOOP('',(#311));
#69=EDGE_LOOP('',(#312,#313,#314,#315));
#70=EDGE_LOOP('',(#316,#317,#318,#319));
#71=EDGE_LOOP('',(#320,#321,#322,#323));
#72=EDGE_LOOP('',(#324,#325,#326,#327));
#73=EDGE_LOOP('',(#328,#329,#330,#331));
#74=EDGE_LOOP('',(#332,#333,#334,#335));
#75=EDGE_LOOP('',(#336,#337,#338,#339));
#76=EDGE_LOOP('',(#340,#341,#342,#343));
#77=EDGE_LOOP('',(#344,#345,#346,#347));
#78=EDGE_LOOP('',(#348,#349,#350,#351));
#79=EDGE_LOOP('',(#352,#353,#354,#355));
#80=EDGE_LOOP('',(#356,#357,#358,#359,#360,#361,#362,#363,#364,#365));
#81=EDGE_LOOP('',(#366,#367,#368,#369));
#82=EDGE_LOOP('',(#370,#371,#372,#373));
#83=EDGE_LOOP('',(#374,#375,#376,#377));
#84=EDGE_LOOP('',(#378,#379,#380,#381));
#85=EDGE_LOOP('',(#382,#383,#384,#385));
#86=LINE('',#633,#118);
#87=LINE('',#636,#119);
#88=LINE('',#639,#120);
#89=LINE('',#641,#121);
#90=LINE('',#645,#122);
#91=LINE('',#647,#123);
#92=LINE('',#649,#124);
#93=LINE('',#653,#125);
#94=LINE('',#659,#126);
#95=LINE('',#666,#127);
#96=LINE('',#672,#128);
#97=LINE('',#674,#129);
#98=LINE('',#676,#130);
#99=LINE('',#677,#131);
#100=LINE('',#680,#132);
#101=LINE('',#684,#133);
#102=LINE('',#685,#134);
#103=LINE('',#688,#135);
#104=LINE('',#690,#136);
#105=LINE('',#694,#137);
#106=LINE('',#698,#138);
#107=LINE('',#701,#139);
#108=LINE('',#706,#140);
#109=LINE('',#718,#141);
#110=LINE('',#721,#142);
#111=LINE('',#722,#143);
#112=LINE('',#732,#144);
#113=LINE('',#734,#145);
#114=LINE('',#737,#146);
#115=LINE('',#740,#147);
#116=LINE('',#744,#148);
#117=LINE('',#746,#149);
#118=VECTOR('',#495,10.);
#119=VECTOR('',#498,10.);
#120=VECTOR('',#501,1000.);
#121=VECTOR('',#502,1000.);
#122=VECTOR('',#505,1000.);
#123=VECTOR('',#506,1000.);
#124=VECTOR('',#507,10.);
#125=VECTOR('',#510,10.);
#126=VECTOR('',#517,1.75);
#127=VECTOR('',#526,1.75);
#128=VECTOR('',#533,10.);
#129=VECTOR('',#534,10.);
#130=VECTOR('',#535,10.);
#131=VECTOR('',#536,10.);
#132=VECTOR('',#539,1000.);
#133=VECTOR('',#542,1000.);
#134=VECTOR('',#543,1000.);
#135=VECTOR('',#546,1000.);
#136=VECTOR('',#547,10.);
#137=VECTOR('',#550,1000.);
#138=VECTOR('',#555,10.);
#139=VECTOR('',#558,10.);
#140=VECTOR('',#563,10.);
#141=VECTOR('',#582,10.);
#142=VECTOR('',#587,10.);
#143=VECTOR('',#588,10.);
#144=VECTOR('',#605,10.);
#145=VECTOR('',#608,10.);
#146=VECTOR('',#611,1000.);
#147=VECTOR('',#614,1000.);
#148=VECTOR('',#621,10.);
#149=VECTOR('',#624,10.);
#150=CIRCLE('',#438,2.25);
#151=CIRCLE('',#439,2.25);
#152=CIRCLE('',#441,18.);
#153=CIRCLE('',#442,5.75);
#154=CIRCLE('',#443,5.75);
#155=CIRCLE('',#445,1.75);
#156=CIRCLE('',#446,1.75);
#157=CIRCLE('',#449,1.75);
#158=CIRCLE('',#450,1.75);
#159=CIRCLE('',#454,2.25);
#160=CIRCLE('',#456,2.25);
#161=CIRCLE('',#457,2.25);
#162=CIRCLE('',#459,2.25);
#163=CIRCLE('',#461,2.25);
#164=CIRCLE('',#462,2.25);
#165=CIRCLE('',#464,2.25);
#166=CIRCLE('',#465,8.);
#167=CIRCLE('',#466,5.75);
#168=CIRCLE('',#468,8.);
#169=CIRCLE('',#469,5.75);
#170=CIRCLE('',#471,8.);
#171=CIRCLE('',#474,2.25);
#172=CIRCLE('',#476,2.25);
#173=CIRCLE('',#478,2.25);
#174=CIRCLE('',#479,8.);
#175=CIRCLE('',#483,18.);
#176=VERTEX_POINT('',#629);
#177=VERTEX_POINT('',#630);
#178=VERTEX_POINT('',#632);
#179=VERTEX_POINT('',#634);
#180=VERTEX_POINT('',#638);
#181=VERTEX_POINT('',#640);
#182=VERTEX_POINT('',#642);
#183=VERTEX_POINT('',#644);
#184=VERTEX_POINT('',#646);
#185=VERTEX_POINT('',#648);
#186=VERTEX_POINT('',#650);
#187=VERTEX_POINT('',#652);
#188=VERTEX_POINT('',#656);
#189=VERTEX_POINT('',#658);
#190=VERTEX_POINT('',#663);
#191=VERTEX_POINT('',#665);
#192=VERTEX_POINT('',#670);
#193=VERTEX_POINT('',#671);
#194=VERTEX_POINT('',#673);
#195=VERTEX_POINT('',#675);
#196=VERTEX_POINT('',#679);
#197=VERTEX_POINT('',#681);
#198=VERTEX_POINT('',#683);
#199=VERTEX_POINT('',#687);
#200=VERTEX_POINT('',#689);
#201=VERTEX_POINT('',#691);
#202=VERTEX_POINT('',#693);
#203=VERTEX_POINT('',#697);
#204=VERTEX_POINT('',#699);
#205=VERTEX_POINT('',#703);
#206=VERTEX_POINT('',#705);
#207=VERTEX_POINT('',#709);
#208=VERTEX_POINT('',#710);
#209=VERTEX_POINT('',#728);
#210=VERTEX_POINT('',#736);
#211=VERTEX_POINT('',#738);
#212=EDGE_CURVE('',#176,#177,#150,.T.);
#213=EDGE_CURVE('',#176,#178,#86,.T.);
#214=EDGE_CURVE('',#179,#178,#151,.T.);
#215=EDGE_CURVE('',#179,#177,#87,.T.);
#216=EDGE_CURVE('',#180,#176,#88,.T.);
#217=EDGE_CURVE('',#180,#181,#89,.T.);
#218=EDGE_CURVE('',#181,#182,#152,.T.);
#219=EDGE_CURVE('',#182,#183,#90,.T.);
#220=EDGE_CURVE('',#184,#183,#91,.T.);
#221=EDGE_CURVE('',#185,#184,#92,.T.);
#222=EDGE_CURVE('',#186,#185,#153,.T.);
#223=EDGE_CURVE('',#187,#186,#93,.T.);
#224=EDGE_CURVE('',#178,#187,#154,.T.);
#225=EDGE_CURVE('',#188,#188,#155,.T.);
#226=EDGE_CURVE('',#188,#189,#94,.T.);
#227=EDGE_CURVE('',#189,#189,#156,.T.);
#228=EDGE_CURVE('',#190,#190,#157,.T.);
#229=EDGE_CURVE('',#190,#191,#95,.T.);
#230=EDGE_CURVE('',#191,#191,#158,.T.);
#231=EDGE_CURVE('',#192,#193,#96,.T.);
#232=EDGE_CURVE('',#194,#192,#97,.T.);
#233=EDGE_CURVE('',#195,#194,#98,.T.);
#234=EDGE_CURVE('',#193,#195,#99,.T.);
#235=EDGE_CURVE('',#177,#196,#100,.T.);
#236=EDGE_CURVE('',#197,#196,#159,.T.);
#237=EDGE_CURVE('',#197,#198,#101,.T.);
#238=EDGE_CURVE('',#198,#180,#102,.T.);
#239=EDGE_CURVE('',#183,#199,#103,.T.);
#240=EDGE_CURVE('',#200,#199,#104,.T.);
#241=EDGE_CURVE('',#201,#200,#160,.T.);
#242=EDGE_CURVE('',#201,#202,#105,.T.);
#243=EDGE_CURVE('',#184,#202,#161,.T.);
#244=EDGE_CURVE('',#200,#203,#106,.T.);
#245=EDGE_CURVE('',#203,#204,#162,.T.);
#246=EDGE_CURVE('',#204,#201,#107,.T.);
#247=EDGE_CURVE('',#195,#205,#163,.T.);
#248=EDGE_CURVE('',#205,#206,#108,.T.);
#249=EDGE_CURVE('',#206,#193,#164,.T.);
#250=EDGE_CURVE('',#207,#208,#165,.T.);
#251=EDGE_CURVE('',#208,#193,#166,.T.);
#252=EDGE_CURVE('',#206,#207,#167,.T.);
#253=EDGE_CURVE('',#195,#204,#168,.T.);
#254=EDGE_CURVE('',#203,#205,#169,.T.);
#255=EDGE_CURVE('',#208,#179,#109,.T.);
#256=EDGE_CURVE('',#192,#179,#170,.T.);
#257=EDGE_CURVE('',#207,#197,#110,.T.);
#258=EDGE_CURVE('',#196,#208,#111,.T.);
#259=EDGE_CURVE('',#187,#192,#171,.T.);
#260=EDGE_CURVE('',#186,#194,#172,.T.);
#261=EDGE_CURVE('',#185,#209,#173,.T.);
#262=EDGE_CURVE('',#209,#194,#174,.T.);
#263=EDGE_CURVE('',#202,#209,#112,.T.);
#264=EDGE_CURVE('',#209,#204,#113,.T.);
#265=EDGE_CURVE('',#199,#210,#114,.T.);
#266=EDGE_CURVE('',#210,#211,#175,.T.);
#267=EDGE_CURVE('',#211,#198,#115,.T.);
#268=EDGE_CURVE('',#181,#211,#116,.F.);
#269=EDGE_CURVE('',#182,#210,#117,.T.);
#270=ORIENTED_EDGE('',*,*,#212,.F.);
#271=ORIENTED_EDGE('',*,*,#213,.T.);
#272=ORIENTED_EDGE('',*,*,#214,.F.);
#273=ORIENTED_EDGE('',*,*,#215,.T.);
#274=ORIENTED_EDGE('',*,*,#216,.F.);
#275=ORIENTED_EDGE('',*,*,#217,.T.);
#276=ORIENTED_EDGE('',*,*,#218,.T.);
#277=ORIENTED_EDGE('',*,*,#219,.T.);
#278=ORIENTED_EDGE('',*,*,#220,.F.);
#279=ORIENTED_EDGE('',*,*,#221,.F.);
#280=ORIENTED_EDGE('',*,*,#222,.F.);
#281=ORIENTED_EDGE('',*,*,#223,.F.);
#282=ORIENTED_EDGE('',*,*,#224,.F.);
#283=ORIENTED_EDGE('',*,*,#213,.F.);
#284=ORIENTED_EDGE('',*,*,#225,.F.);
#285=ORIENTED_EDGE('',*,*,#226,.T.);
#286=ORIENTED_EDGE('',*,*,#227,.T.);
#287=ORIENTED_EDGE('',*,*,#226,.F.);
#288=ORIENTED_EDGE('',*,*,#227,.F.);
#289=ORIENTED_EDGE('',*,*,#228,.F.);
#290=ORIENTED_EDGE('',*,*,#229,.T.);
#291=ORIENTED_EDGE('',*,*,#230,.T.);
#292=ORIENTED_EDGE('',*,*,#229,.F.);
#293=ORIENTED_EDGE('',*,*,#230,.F.);
#294=ORIENTED_EDGE('',*,*,#231,.F.);
#295=ORIENTED_EDGE('',*,*,#232,.F.);
#296=ORIENTED_EDGE('',*,*,#233,.F.);
#297=ORIENTED_EDGE('',*,*,#234,.F.);
#298=ORIENTED_EDGE('',*,*,#235,.T.);
#299=ORIENTED_EDGE('',*,*,#236,.F.);
#300=ORIENTED_EDGE('',*,*,#237,.T.);
#301=ORIENTED_EDGE('',*,*,#238,.T.);
#302=ORIENTED_EDGE('',*,*,#216,.T.);
#303=ORIENTED_EDGE('',*,*,#212,.T.);
#304=ORIENTED_EDGE('',*,*,#228,.T.);
#305=ORIENTED_EDGE('',*,*,#220,.T.);
#306=ORIENTED_EDGE('',*,*,#239,.T.);
#307=ORIENTED_EDGE('',*,*,#240,.F.);
#308=ORIENTED_EDGE('',*,*,#241,.F.);
#309=ORIENTED_EDGE('',*,*,#242,.T.);
#310=ORIENTED_EDGE('',*,*,#243,.F.);
#311=ORIENTED_EDGE('',*,*,#225,.T.);
#312=ORIENTED_EDGE('',*,*,#241,.T.);
#313=ORIENTED_EDGE('',*,*,#244,.T.);
#314=ORIENTED_EDGE('',*,*,#245,.T.);
#315=ORIENTED_EDGE('',*,*,#246,.T.);
#316=ORIENTED_EDGE('',*,*,#247,.T.);
#317=ORIENTED_EDGE('',*,*,#248,.T.);
#318=ORIENTED_EDGE('',*,*,#249,.T.);
#319=ORIENTED_EDGE('',*,*,#234,.T.);
#320=ORIENTED_EDGE('',*,*,#250,.T.);
#321=ORIENTED_EDGE('',*,*,#251,.T.);
#322=ORIENTED_EDGE('',*,*,#249,.F.);
#323=ORIENTED_EDGE('',*,*,#252,.T.);
#324=ORIENTED_EDGE('',*,*,#247,.F.);
#325=ORIENTED_EDGE('',*,*,#253,.T.);
#326=ORIENTED_EDGE('',*,*,#245,.F.);
#327=ORIENTED_EDGE('',*,*,#254,.T.);
#328=ORIENTED_EDGE('',*,*,#231,.T.);
#329=ORIENTED_EDGE('',*,*,#251,.F.);
#330=ORIENTED_EDGE('',*,*,#255,.T.);
#331=ORIENTED_EDGE('',*,*,#256,.F.);
#332=ORIENTED_EDGE('',*,*,#250,.F.);
#333=ORIENTED_EDGE('',*,*,#257,.T.);
#334=ORIENTED_EDGE('',*,*,#236,.T.);
#335=ORIENTED_EDGE('',*,*,#258,.T.);
#336=ORIENTED_EDGE('',*,*,#214,.T.);
#337=ORIENTED_EDGE('',*,*,#224,.T.);
#338=ORIENTED_EDGE('',*,*,#259,.T.);
#339=ORIENTED_EDGE('',*,*,#256,.T.);
#340=ORIENTED_EDGE('',*,*,#260,.T.);
#341=ORIENTED_EDGE('',*,*,#232,.T.);
#342=ORIENTED_EDGE('',*,*,#259,.F.);
#343=ORIENTED_EDGE('',*,*,#223,.T.);
#344=ORIENTED_EDGE('',*,*,#261,.T.);
#345=ORIENTED_EDGE('',*,*,#262,.T.);
#346=ORIENTED_EDGE('',*,*,#260,.F.);
#347=ORIENTED_EDGE('',*,*,#222,.T.);
#348=ORIENTED_EDGE('',*,*,#243,.T.);
#349=ORIENTED_EDGE('',*,*,#263,.T.);
#350=ORIENTED_EDGE('',*,*,#261,.F.);
#351=ORIENTED_EDGE('',*,*,#221,.T.);
#352=ORIENTED_EDGE('',*,*,#233,.T.);
#353=ORIENTED_EDGE('',*,*,#262,.F.);
#354=ORIENTED_EDGE('',*,*,#264,.T.);
#355=ORIENTED_EDGE('',*,*,#253,.F.);
#356=ORIENTED_EDGE('',*,*,#244,.F.);
#357=ORIENTED_EDGE('',*,*,#240,.T.);
#358=ORIENTED_EDGE('',*,*,#265,.T.);
#359=ORIENTED_EDGE('',*,*,#266,.T.);
#360=ORIENTED_EDGE('',*,*,#267,.T.);
#361=ORIENTED_EDGE('',*,*,#237,.F.);
#362=ORIENTED_EDGE('',*,*,#257,.F.);
#363=ORIENTED_EDGE('',*,*,#252,.F.);
#364=ORIENTED_EDGE('',*,*,#248,.F.);
#365=ORIENTED_EDGE('',*,*,#254,.F.);
#366=ORIENTED_EDGE('',*,*,#242,.F.);
#367=ORIENTED_EDGE('',*,*,#246,.F.);
#368=ORIENTED_EDGE('',*,*,#264,.F.);
#369=ORIENTED_EDGE('',*,*,#263,.F.);
#370=ORIENTED_EDGE('',*,*,#215,.F.);
#371=ORIENTED_EDGE('',*,*,#255,.F.);
#372=ORIENTED_EDGE('',*,*,#258,.F.);
#373=ORIENTED_EDGE('',*,*,#235,.F.);
#374=ORIENTED_EDGE('',*,*,#238,.F.);
#375=ORIENTED_EDGE('',*,*,#267,.F.);
#376=ORIENTED_EDGE('',*,*,#268,.F.);
#377=ORIENTED_EDGE('',*,*,#217,.F.);
#378=ORIENTED_EDGE('',*,*,#269,.T.);
#379=ORIENTED_EDGE('',*,*,#265,.F.);
#380=ORIENTED_EDGE('',*,*,#239,.F.);
#381=ORIENTED_EDGE('',*,*,#219,.F.);
#382=ORIENTED_EDGE('',*,*,#269,.F.);
#383=ORIENTED_EDGE('',*,*,#218,.F.);
#384=ORIENTED_EDGE('',*,*,#268,.T.);
#385=ORIENTED_EDGE('',*,*,#266,.F.);
#386=CYLINDRICAL_SURFACE('',#437,2.25);
#387=CYLINDRICAL_SURFACE('',#444,1.75);
#388=CYLINDRICAL_SURFACE('',#448,1.75);
#389=CYLINDRICAL_SURFACE('',#458,2.25);
#390=CYLINDRICAL_SURFACE('',#460,2.25);
#391=CYLINDRICAL_SURFACE('',#470,8.);
#392=CYLINDRICAL_SURFACE('',#472,2.25);
#393=CYLINDRICAL_SURFACE('',#475,2.25);
#394=CYLINDRICAL_SURFACE('',#480,2.25);
#395=CYLINDRICAL_SURFACE('',#481,8.);
#396=CYLINDRICAL_SURFACE('',#488,18.);
#397=ADVANCED_FACE('',(#32),#386,.T.);
#398=ADVANCED_FACE('',(#33),#21,.T.);
#399=ADVANCED_FACE('',(#34),#387,.F.);
#400=ADVANCED_FACE('',(#35),#22,.T.);
#401=ADVANCED_FACE('',(#36),#388,.F.);
#402=ADVANCED_FACE('',(#37),#23,.T.);
#403=ADVANCED_FACE('',(#38),#24,.F.);
#404=ADVANCED_FACE('',(#39,#19),#25,.T.);
#405=ADVANCED_FACE('',(#40,#20),#26,.T.);
#406=ADVANCED_FACE('',(#41),#389,.T.);
#407=ADVANCED_FACE('',(#42),#390,.T.);
#408=ADVANCED_FACE('',(#43),#15,.T.);
#409=ADVANCED_FACE('',(#44),#16,.T.);
#410=ADVANCED_FACE('',(#45),#391,.T.);
#411=ADVANCED_FACE('',(#46),#392,.T.);
#412=ADVANCED_FACE('',(#47),#17,.T.);
#413=ADVANCED_FACE('',(#48),#393,.T.);
#414=ADVANCED_FACE('',(#49),#18,.T.);
#415=ADVANCED_FACE('',(#50),#394,.T.);
#416=ADVANCED_FACE('',(#51),#395,.T.);
#417=ADVANCED_FACE('',(#52),#27,.T.);
#418=ADVANCED_FACE('',(#53),#28,.T.);
#419=ADVANCED_FACE('',(#54),#29,.T.);
#420=ADVANCED_FACE('',(#55),#30,.T.);
#421=ADVANCED_FACE('',(#56),#31,.T.);
#422=ADVANCED_FACE('',(#57),#396,.F.);
#423=CLOSED_SHELL('',(#397,#398,#399,#400,#401,#402,#403,#404,#405,#406,
#407,#408,#409,#410,#411,#412,#413,#414,#415,#416,#417,#418,#419,#420,#421,
#422));
#424=DERIVED_UNIT_ELEMENT(#426,1.);
#425=DERIVED_UNIT_ELEMENT(#753,-3.);
#426=(
MASS_UNIT()
NAMED_UNIT(*)
SI_UNIT(.KILO.,.GRAM.)
);
#427=DERIVED_UNIT((#424,#425));
#428=MEASURE_REPRESENTATION_ITEM('density measure',
POSITIVE_RATIO_MEASURE(7850.),#427);
#429=PROPERTY_DEFINITION_REPRESENTATION(#434,#431);
#430=PROPERTY_DEFINITION_REPRESENTATION(#435,#432);
#431=REPRESENTATION('material name',(#433),#750);
#432=REPRESENTATION('density',(#428),#750);
#433=DESCRIPTIVE_REPRESENTATION_ITEM('Steel','Steel');
#434=PROPERTY_DEFINITION('material property','material name',#760);
#435=PROPERTY_DEFINITION('material property','density of part',#760);
#436=AXIS2_PLACEMENT_3D('',#627,#489,#490);
#437=AXIS2_PLACEMENT_3D('',#628,#491,#492);
#438=AXIS2_PLACEMENT_3D('',#631,#493,#494);
#439=AXIS2_PLACEMENT_3D('',#635,#496,#497);
#440=AXIS2_PLACEMENT_3D('',#637,#499,#500);
#441=AXIS2_PLACEMENT_3D('',#643,#503,#504);
#442=AXIS2_PLACEMENT_3D('',#651,#508,#509);
#443=AXIS2_PLACEMENT_3D('',#654,#511,#512);
#444=AXIS2_PLACEMENT_3D('',#655,#513,#514);
#445=AXIS2_PLACEMENT_3D('',#657,#515,#516);
#446=AXIS2_PLACEMENT_3D('',#660,#518,#519);
#447=AXIS2_PLACEMENT_3D('',#661,#520,#521);
#448=AXIS2_PLACEMENT_3D('',#662,#522,#523);
#449=AXIS2_PLACEMENT_3D('',#664,#524,#525);
#450=AXIS2_PLACEMENT_3D('',#667,#527,#528);
#451=AXIS2_PLACEMENT_3D('',#668,#529,#530);
#452=AXIS2_PLACEMENT_3D('',#669,#531,#532);
#453=AXIS2_PLACEMENT_3D('',#678,#537,#538);
#454=AXIS2_PLACEMENT_3D('',#682,#540,#541);
#455=AXIS2_PLACEMENT_3D('',#686,#544,#545);
#456=AXIS2_PLACEMENT_3D('',#692,#548,#549);
#457=AXIS2_PLACEMENT_3D('',#695,#551,#552);
#458=AXIS2_PLACEMENT_3D('',#696,#553,#554);
#459=AXIS2_PLACEMENT_3D('',#700,#556,#557);
#460=AXIS2_PLACEMENT_3D('',#702,#559,#560);
#461=AXIS2_PLACEMENT_3D('',#704,#561,#562);
#462=AXIS2_PLACEMENT_3D('',#707,#564,#565);
#463=AXIS2_PLACEMENT_3D('',#708,#566,#567);
#464=AXIS2_PLACEMENT_3D('',#711,#568,#569);
#465=AXIS2_PLACEMENT_3D('',#712,#570,#571);
#466=AXIS2_PLACEMENT_3D('',#713,#572,#573);
#467=AXIS2_PLACEMENT_3D('',#714,#574,#575);
#468=AXIS2_PLACEMENT_3D('',#715,#576,#577);
#469=AXIS2_PLACEMENT_3D('',#716,#578,#579);
#470=AXIS2_PLACEMENT_3D('',#717,#580,#581);
#471=AXIS2_PLACEMENT_3D('',#719,#583,#584);
#472=AXIS2_PLACEMENT_3D('',#720,#585,#586);
#473=AXIS2_PLACEMENT_3D('',#723,#589,#590);
#474=AXIS2_PLACEMENT_3D('',#724,#591,#592);
#475=AXIS2_PLACEMENT_3D('',#725,#593,#594);
#476=AXIS2_PLACEMENT_3D('',#726,#595,#596);
#477=AXIS2_PLACEMENT_3D('',#727,#597,#598);
#478=AXIS2_PLACEMENT_3D('',#729,#599,#600);
#479=AXIS2_PLACEMENT_3D('',#730,#601,#602);
#480=AXIS2_PLACEMENT_3D('',#731,#603,#604);
#481=AXIS2_PLACEMENT_3D('',#733,#606,#607);
#482=AXIS2_PLACEMENT_3D('',#735,#609,#610);
#483=AXIS2_PLACEMENT_3D('',#739,#612,#613);
#484=AXIS2_PLACEMENT_3D('',#741,#615,#616);
#485=AXIS2_PLACEMENT_3D('',#742,#617,#618);
#486=AXIS2_PLACEMENT_3D('',#743,#619,#620);
#487=AXIS2_PLACEMENT_3D('',#745,#622,#623);
#488=AXIS2_PLACEMENT_3D('',#747,#625,#626);
#489=DIRECTION('axis',(0.,0.,1.));
#490=DIRECTION('refdir',(1.,0.,0.));
#491=DIRECTION('center_axis',(0.,0.,-1.));
#492=DIRECTION('ref_axis',(-0.707106781186548,0.707106781186547,0.));
#493=DIRECTION('center_axis',(0.,0.,-1.));
#494=DIRECTION('ref_axis',(-0.707106781186548,0.707106781186547,0.));
#495=DIRECTION('',(0.,0.,1.));
#496=DIRECTION('center_axis',(0.,0.,1.));
#497=DIRECTION('ref_axis',(0.,1.,0.));
#498=DIRECTION('',(0.,0.,-1.));
#499=DIRECTION('center_axis',(-1.,0.,0.));
#500=DIRECTION('ref_axis',(0.,0.,1.));
#501=DIRECTION('',(0.,1.,0.));
#502=DIRECTION('',(0.,-3.46944695195361E-16,1.));
#503=DIRECTION('center_axis',(1.,0.,0.));
#504=DIRECTION('ref_axis',(0.,0.,-1.));
#505=DIRECTION('',(0.,3.46944695195361E-16,-1.));
#506=DIRECTION('',(0.,1.,0.));
#507=DIRECTION('',(0.,0.,-1.));
#508=DIRECTION('center_axis',(1.,0.,0.));
#509=DIRECTION('ref_axis',(0.,-0.707106781186548,0.707106781186547));
#510=DIRECTION('',(0.,-1.,0.));
#511=DIRECTION('center_axis',(1.,0.,0.));
#512=DIRECTION('ref_axis',(0.,0.39034048716139,0.9206705730513));
#513=DIRECTION('center_axis',(0.,0.,1.));
#514=DIRECTION('ref_axis',(1.,0.,0.));
#515=DIRECTION('center_axis',(0.,0.,1.));
#516=DIRECTION('ref_axis',(1.,0.,0.));
#517=DIRECTION('',(0.,0.,1.));
#518=DIRECTION('center_axis',(0.,0.,1.));
#519=DIRECTION('ref_axis',(1.,0.,0.));
#520=DIRECTION('center_axis',(0.,0.,-1.));
#521=DIRECTION('ref_axis',(1.,0.,0.));
#522=DIRECTION('center_axis',(0.,0.,1.));
#523=DIRECTION('ref_axis',(1.,0.,0.));
#524=DIRECTION('center_axis',(0.,0.,1.));
#525=DIRECTION('ref_axis',(1.,0.,0.));
#526=DIRECTION('',(0.,0.,1.));
#527=DIRECTION('center_axis',(0.,0.,1.));
#528=DIRECTION('ref_axis',(1.,0.,0.));
#529=DIRECTION('center_axis',(0.,0.,-1.));
#530=DIRECTION('ref_axis',(1.,0.,0.));
#531=DIRECTION('center_axis',(0.,0.,-1.));
#532=DIRECTION('ref_axis',(-1.,0.,0.));
#533=DIRECTION('',(1.,0.,0.));
#534=DIRECTION('',(0.,1.,0.));
#535=DIRECTION('',(-1.,0.,0.));
#536=DIRECTION('',(0.,-1.,0.));
#537=DIRECTION('center_axis',(0.,0.,-1.));
#538=DIRECTION('ref_axis',(-1.,0.,0.));
#539=DIRECTION('',(1.,0.,0.));
#540=DIRECTION('center_axis',(0.,0.,1.));
#541=DIRECTION('ref_axis',(0.707106781186547,0.707106781186548,0.));
#542=DIRECTION('',(0.,-1.,0.));
#543=DIRECTION('',(-1.,0.,0.));
#544=DIRECTION('center_axis',(0.,0.,-1.));
#545=DIRECTION('ref_axis',(-1.,0.,0.));
#546=DIRECTION('',(1.,0.,0.));
#547=DIRECTION('',(0.,1.,0.));
#548=DIRECTION('center_axis',(0.,0.,1.));
#549=DIRECTION('ref_axis',(0.707106781186548,-0.707106781186547,0.));
#550=DIRECTION('',(-1.,0.,0.));
#551=DIRECTION('center_axis',(0.,0.,1.));
#552=DIRECTION('ref_axis',(-0.707106781186547,-0.707106781186548,0.));
#553=DIRECTION('center_axis',(0.,0.,-1.));
#554=DIRECTION('ref_axis',(0.707106781186548,-0.707106781186547,0.));
#555=DIRECTION('',(0.,0.,1.));
#556=DIRECTION('center_axis',(0.,0.,-1.));
#557=DIRECTION('ref_axis',(1.,0.,0.));
#558=DIRECTION('',(0.,0.,-1.));
#559=DIRECTION('center_axis',(0.,1.,0.));
#560=DIRECTION('ref_axis',(0.707106781186548,0.,0.707106781186547));
#561=DIRECTION('center_axis',(0.,1.,9.86864910777919E-16));
#562=DIRECTION('ref_axis',(0.,-9.86864910777919E-16,1.));
#563=DIRECTION('',(0.,1.,0.));
#564=DIRECTION('center_axis',(0.,-1.,0.));
#565=DIRECTION('ref_axis',(1.,0.,0.));
#566=DIRECTION('center_axis',(1.,0.,0.));
#567=DIRECTION('ref_axis',(0.,0.,-1.));
#568=DIRECTION('center_axis',(0.,0.,1.));
#569=DIRECTION('ref_axis',(1.,-1.97372982155583E-15,0.));
#570=DIRECTION('center_axis',(1.,0.,0.));
#571=DIRECTION('ref_axis',(0.,0.390340487161389,0.9206705730513));
#572=DIRECTION('center_axis',(-1.,0.,0.));
#573=DIRECTION('ref_axis',(0.,0.390340487161389,0.9206705730513));
#574=DIRECTION('center_axis',(-1.,0.,0.));
#575=DIRECTION('ref_axis',(0.,0.,1.));
#576=DIRECTION('center_axis',(1.,0.,0.));
#577=DIRECTION('ref_axis',(0.,-0.707106781186548,0.707106781186547));
#578=DIRECTION('center_axis',(-1.,0.,0.));
#579=DIRECTION('ref_axis',(0.,-0.707106781186548,0.707106781186547));
#580=DIRECTION('center_axis',(-1.,0.,0.));
#581=DIRECTION('ref_axis',(0.,0.707106781186548,0.707106781186548));
#582=DIRECTION('',(-1.,0.,0.));
#583=DIRECTION('center_axis',(-1.,0.,0.));
#584=DIRECTION('ref_axis',(0.,0.39034048716139,0.9206705730513));
#585=DIRECTION('center_axis',(0.,0.,1.));
#586=DIRECTION('ref_axis',(0.707106781186547,0.707106781186548,0.));
#587=DIRECTION('',(0.,0.,-1.));
#588=DIRECTION('',(0.,0.,1.));
#589=DIRECTION('center_axis',(1.,0.,0.));
#590=DIRECTION('ref_axis',(0.,0.,-1.));
#591=DIRECTION('center_axis',(0.,1.,9.86864910777919E-16));
#592=DIRECTION('ref_axis',(-1.,0.,0.));
#593=DIRECTION('center_axis',(0.,-1.,0.));
#594=DIRECTION('ref_axis',(-0.707106781186548,0.,0.707106781186547));
#595=DIRECTION('center_axis',(0.,1.,0.));
#596=DIRECTION('ref_axis',(-1.,0.,0.));
#597=DIRECTION('center_axis',(1.,0.,0.));
#598=DIRECTION('ref_axis',(0.,0.,-1.));
#599=DIRECTION('center_axis',(0.,0.,1.));
#600=DIRECTION('ref_axis',(-1.,0.,0.));
#601=DIRECTION('center_axis',(-1.,0.,0.));
#602=DIRECTION('ref_axis',(0.,-0.707106781186548,0.707106781186547));
#603=DIRECTION('center_axis',(0.,0.,1.));
#604=DIRECTION('ref_axis',(-0.707106781186547,-0.707106781186548,0.));
#605=DIRECTION('',(0.,0.,1.));
#606=DIRECTION('center_axis',(-1.,0.,0.));
#607=DIRECTION('ref_axis',(0.,-0.707106781186548,0.707106781186547));
#608=DIRECTION('',(1.,0.,0.));
#609=DIRECTION('center_axis',(1.,0.,0.));
#610=DIRECTION('ref_axis',(0.,0.,-1.));
#611=DIRECTION('',(0.,-3.46944695195361E-16,1.));
#612=DIRECTION('center_axis',(-1.,0.,0.));
#613=DIRECTION('ref_axis',(0.,0.,-1.));
#614=DIRECTION('',(0.,3.46944695195361E-16,-1.));
#615=DIRECTION('center_axis',(0.,-1.,0.));
#616=DIRECTION('ref_axis',(0.,0.,-1.));
#617=DIRECTION('center_axis',(0.,1.,0.));
#618=DIRECTION('ref_axis',(0.,0.,1.));
#619=DIRECTION('center_axis',(0.,-1.,-3.46944695195361E-16));
#620=DIRECTION('ref_axis',(0.,3.46944695195361E-16,-1.));
#621=DIRECTION('',(-1.,0.,0.));
#622=DIRECTION('center_axis',(0.,1.,3.46944695195361E-16));
#623=DIRECTION('ref_axis',(0.,-3.46944695195361E-16,1.));
#624=DIRECTION('',(1.,0.,0.));
#625=DIRECTION('center_axis',(1.,0.,0.));
#626=DIRECTION('ref_axis',(0.,-1.22464679914735E-16,1.));
#627=CARTESIAN_POINT('',(0.,0.,0.));
#628=CARTESIAN_POINT('Origin',(-9.5,25.65,41.));
#629=CARTESIAN_POINT('',(-11.75,25.65,0.));
#630=CARTESIAN_POINT('',(-9.5,27.9,0.));
#631=CARTESIAN_POINT('Origin',(-9.5,25.65,0.));
#632=CARTESIAN_POINT('',(-11.75,25.65,33.));
#633=CARTESIAN_POINT('',(-11.75,25.65,41.));
#634=CARTESIAN_POINT('',(-9.5,27.9,33.));
#635=CARTESIAN_POINT('Origin',(-9.5,25.65,33.));
#636=CARTESIAN_POINT('',(-9.5,27.9,41.));
#637=CARTESIAN_POINT('Origin',(-11.75,-37.9,41.));
#638=CARTESIAN_POINT('',(-11.75,11.4017542509914,0.));
#639=CARTESIAN_POINT('',(-11.75,-37.9,0.));
#640=CARTESIAN_POINT('',(-11.75,11.4017542509914,1.5716117228159));
#641=CARTESIAN_POINT('',(-11.75,11.4017542509914,41.));
#642=CARTESIAN_POINT('',(-11.75,-11.4017542509914,1.57161172281589));
#643=CARTESIAN_POINT('Origin',(-11.75,0.,15.5));
#644=CARTESIAN_POINT('',(-11.75,-11.4017542509914,0.));
#645=CARTESIAN_POINT('',(-11.75,-11.4017542509914,41.));
#646=CARTESIAN_POINT('',(-11.75,-25.65,0.));
#647=CARTESIAN_POINT('',(-11.75,-37.9,0.));
#648=CARTESIAN_POINT('',(-11.75,-25.65,33.));
#649=CARTESIAN_POINT('',(-11.75,-25.65,41.));
#650=CARTESIAN_POINT('',(-11.75,-19.9,38.75));
#651=CARTESIAN_POINT('Origin',(-11.75,-19.9,33.));
#652=CARTESIAN_POINT('',(-11.75,19.9,38.75));
#653=CARTESIAN_POINT('',(-11.75,-18.95,38.75));
#654=CARTESIAN_POINT('Origin',(-11.75,19.9,33.));
#655=CARTESIAN_POINT('Origin',(1.32869789389728E-15,-22.3,0.));
#656=CARTESIAN_POINT('',(-1.75,-22.3,0.));
#657=CARTESIAN_POINT('Origin',(1.32869789389728E-15,-22.3,0.));
#658=CARTESIAN_POINT('',(-1.75,-22.3,10.));
#659=CARTESIAN_POINT('',(-1.75,-22.3,0.));
#660=CARTESIAN_POINT('Origin',(1.32869789389728E-15,-22.3,10.));
#661=CARTESIAN_POINT('Origin',(1.38777878078145E-15,-22.3,10.));
#662=CARTESIAN_POINT('Origin',(1.32869789389728E-15,22.3,0.));
#663=CARTESIAN_POINT('',(-1.75,22.3,0.));
#664=CARTESIAN_POINT('Origin',(1.32869789389728E-15,22.3,0.));
#665=CARTESIAN_POINT('',(-1.75,22.3,10.));
#666=CARTESIAN_POINT('',(-1.75,22.3,0.));
#667=CARTESIAN_POINT('Origin',(1.32869789389728E-15,22.3,10.));
#668=CARTESIAN_POINT('Origin',(1.38777878078145E-15,22.3,10.));
#669=CARTESIAN_POINT('Origin',(0.,0.,41.));
#670=CARTESIAN_POINT('',(-9.5,19.9,41.));
#671=CARTESIAN_POINT('',(9.5,19.9,41.));
#672=CARTESIAN_POINT('',(-5.875,19.9,41.));
#673=CARTESIAN_POINT('',(-9.5,-19.9,41.));
#674=CARTESIAN_POINT('',(-9.5,-18.95,41.));
#675=CARTESIAN_POINT('',(9.5,-19.9,41.));
#676=CARTESIAN_POINT('',(5.875,-19.9,41.));
#677=CARTESIAN_POINT('',(9.5,18.95,41.));
#678=CARTESIAN_POINT('Origin',(0.,0.,0.));
#679=CARTESIAN_POINT('',(9.5,27.9,0.));
#680=CARTESIAN_POINT('',(-11.75,27.9,0.));
#681=CARTESIAN_POINT('',(11.75,25.65,0.));
#682=CARTESIAN_POINT('Origin',(9.5,25.65,0.));
#683=CARTESIAN_POINT('',(11.75,11.4017542509914,0.));
#684=CARTESIAN_POINT('',(11.75,37.9,0.));
#685=CARTESIAN_POINT('',(0.,11.4017542509914,0.));
#686=CARTESIAN_POINT('Origin',(0.,0.,0.));
#687=CARTESIAN_POINT('',(11.75,-11.4017542509914,0.));
#688=CARTESIAN_POINT('',(0.,-11.4017542509914,0.));
#689=CARTESIAN_POINT('',(11.75,-25.65,0.));
#690=CARTESIAN_POINT('',(11.75,18.95,0.));
#691=CARTESIAN_POINT('',(9.5,-27.9,0.));
#692=CARTESIAN_POINT('Origin',(9.5,-25.65,0.));
#693=CARTESIAN_POINT('',(-9.5,-27.9,0.));
#694=CARTESIAN_POINT('',(11.75,-27.9,0.));
#695=CARTESIAN_POINT('Origin',(-9.5,-25.65,0.));
#696=CARTESIAN_POINT('Origin',(9.5,-25.65,41.));
#697=CARTESIAN_POINT('',(11.75,-25.65,33.));
#698=CARTESIAN_POINT('',(11.75,-25.65,41.));
#699=CARTESIAN_POINT('',(9.5,-27.9,33.));
#700=CARTESIAN_POINT('Origin',(9.5,-25.65,33.));
#701=CARTESIAN_POINT('',(9.5,-27.9,41.));
#702=CARTESIAN_POINT('Origin',(9.5,18.95,38.75));
#703=CARTESIAN_POINT('',(11.75,-19.9,38.75));
#704=CARTESIAN_POINT('Origin',(9.5,-19.9,38.75));
#705=CARTESIAN_POINT('',(11.75,19.9,38.75));
#706=CARTESIAN_POINT('',(11.75,18.95,38.75));
#707=CARTESIAN_POINT('Origin',(9.5,19.9,38.75));
#708=CARTESIAN_POINT('Origin',(9.5,19.9,33.));
#709=CARTESIAN_POINT('',(11.75,25.65,33.));
#710=CARTESIAN_POINT('',(9.5,27.9,33.));
#711=CARTESIAN_POINT('Origin',(9.5,25.65,33.));
#712=CARTESIAN_POINT('Origin',(9.5,19.9,33.));
#713=CARTESIAN_POINT('Origin',(11.75,19.9,33.));
#714=CARTESIAN_POINT('Origin',(9.5,-19.9,33.));
#715=CARTESIAN_POINT('Origin',(9.5,-19.9,33.));
#716=CARTESIAN_POINT('Origin',(11.75,-19.9,33.));
#717=CARTESIAN_POINT('Origin',(-5.875,19.9,33.));
#718=CARTESIAN_POINT('',(-5.875,27.9,33.));
#719=CARTESIAN_POINT('Origin',(-9.5,19.9,33.));
#720=CARTESIAN_POINT('Origin',(9.5,25.65,41.));
#721=CARTESIAN_POINT('',(11.75,25.65,41.));
#722=CARTESIAN_POINT('',(9.5,27.9,41.));
#723=CARTESIAN_POINT('Origin',(-9.5,19.9,33.));
#724=CARTESIAN_POINT('Origin',(-9.5,19.9,38.75));
#725=CARTESIAN_POINT('Origin',(-9.5,-18.95,38.75));
#726=CARTESIAN_POINT('Origin',(-9.5,-19.9,38.75));
#727=CARTESIAN_POINT('Origin',(-9.5,-19.9,33.));
#728=CARTESIAN_POINT('',(-9.5,-27.9,33.));
#729=CARTESIAN_POINT('Origin',(-9.5,-25.65,33.));
#730=CARTESIAN_POINT('Origin',(-9.5,-19.9,33.));
#731=CARTESIAN_POINT('Origin',(-9.5,-25.65,41.));
#732=CARTESIAN_POINT('',(-9.5,-27.9,41.));
#733=CARTESIAN_POINT('Origin',(5.875,-19.9,33.));
#734=CARTESIAN_POINT('',(5.875,-27.9,33.));
#735=CARTESIAN_POINT('Origin',(11.75,37.9,41.));
#736=CARTESIAN_POINT('',(11.75,-11.4017542509914,1.57161172281589));
#737=CARTESIAN_POINT('',(11.75,-11.4017542509914,5.));
#738=CARTESIAN_POINT('',(11.75,11.4017542509914,1.5716117228159));
#739=CARTESIAN_POINT('Origin',(11.75,0.,15.5));
#740=CARTESIAN_POINT('',(11.75,11.4017542509914,5.));
#741=CARTESIAN_POINT('Origin',(11.75,-27.9,41.));
#742=CARTESIAN_POINT('Origin',(-11.75,27.9,41.));
#743=CARTESIAN_POINT('Origin',(-77.5746326608736,11.4017542509914,5.));
#744=CARTESIAN_POINT('',(-77.5746326608736,11.4017542509914,1.5716117228159));
#745=CARTESIAN_POINT('Origin',(-77.5746326608736,-11.4017542509914,5.));
#746=CARTESIAN_POINT('',(-77.5746326608736,-11.4017542509914,1.57161172281589));
#747=CARTESIAN_POINT('Origin',(-77.5746326608736,0.,15.5));
#748=UNCERTAINTY_MEASURE_WITH_UNIT(LENGTH_MEASURE(0.01),#752,
'DISTANCE_ACCURACY_VALUE',
'Maximum model space distance between geometric entities at asserted c
onnectivities');
#749=UNCERTAINTY_MEASURE_WITH_UNIT(LENGTH_MEASURE(0.01),#752,
'DISTANCE_ACCURACY_VALUE',
'Maximum model space distance between geometric entities at asserted c
onnectivities');
#750=(
GEOMETRIC_REPRESENTATION_CONTEXT(3)
GLOBAL_UNCERTAINTY_ASSIGNED_CONTEXT((#748))
GLOBAL_UNIT_ASSIGNED_CONTEXT((#752,#754,#755))
REPRESENTATION_CONTEXT('','3D')
);
#751=(
GEOMETRIC_REPRESENTATION_CONTEXT(3)
GLOBAL_UNCERTAINTY_ASSIGNED_CONTEXT((#749))
GLOBAL_UNIT_ASSIGNED_CONTEXT((#752,#754,#755))
REPRESENTATION_CONTEXT('','3D')
);
#752=(
LENGTH_UNIT()
NAMED_UNIT(*)
SI_UNIT(.MILLI.,.METRE.)
);
#753=(
LENGTH_UNIT()
NAMED_UNIT(*)
SI_UNIT($,.METRE.)
);
#754=(
NAMED_UNIT(*)
PLANE_ANGLE_UNIT()
SI_UNIT($,.RADIAN.)
);
#755=(
NAMED_UNIT(*)
SI_UNIT($,.STERADIAN.)
SOLID_ANGLE_UNIT()
);
#756=SHAPE_DEFINITION_REPRESENTATION(#757,#758);
#757=PRODUCT_DEFINITION_SHAPE('',$,#760);
#758=SHAPE_REPRESENTATION('',(#436),#750);
#759=PRODUCT_DEFINITION_CONTEXT('part definition',#764,'design');
#760=PRODUCT_DEFINITION('2026-03-09-20-46-17-914','lens_cover',#761,#759);
#761=PRODUCT_DEFINITION_FORMATION('',$,#766);
#762=PRODUCT_RELATED_PRODUCT_CATEGORY('lens_cover','lens_cover',(#766));
#763=APPLICATION_PROTOCOL_DEFINITION('international standard',
'automotive_design',2009,#764);
#764=APPLICATION_CONTEXT(
'Core Data for Automotive Mechanical Design Process');
#765=PRODUCT_CONTEXT('part definition',#764,'mechanical');
#766=PRODUCT('2026-03-09-20-46-17-914','lens_cover',
'blaze/ace-Adapter AMA',(#765));
#767=PRESENTATION_STYLE_ASSIGNMENT((#769));
#768=PRESENTATION_STYLE_ASSIGNMENT((#770));
#769=SURFACE_STYLE_USAGE(.BOTH.,#771);
#770=SURFACE_STYLE_USAGE(.BOTH.,#772);
#771=SURFACE_SIDE_STYLE('',(#773));
#772=SURFACE_SIDE_STYLE('',(#774));
#773=SURFACE_STYLE_FILL_AREA(#775);
#774=SURFACE_STYLE_FILL_AREA(#776);
#775=FILL_AREA_STYLE('Steel - Satin',(#777));
#776=FILL_AREA_STYLE('Opaque(128,128,128)',(#778));
#777=FILL_AREA_STYLE_COLOUR('Steel - Satin',#779);
#778=FILL_AREA_STYLE_COLOUR('Opaque(128,128,128)',#780);
#779=COLOUR_RGB('Steel - Satin',0.627450980392157,0.627450980392157,0.627450980392157);
#780=COLOUR_RGB('Opaque(128,128,128)',0.501960784313725,0.501960784313725,
0.501960784313725);
ENDSEC;
END-ISO-10303-21;
