ISO-10303-21;
HEADER;
/* Generated by software containing ST-Developer
 * from STEP Tools, Inc. (www.steptools.com) 
 */

FILE_DESCRIPTION(
/* description */ (''),
/* implementation_level */ '2;1');

FILE_NAME(
/* name */ 'sensors_modul_top.step',
/* time_stamp */ '2026-05-27T17:56:13+02:00',
/* author */ (''),
/* organization */ (''),
/* preprocessor_version */ 'ST-DEVELOPER v20.1',
/* originating_system */ 'Autodesk Translation Framework v15.8.0.0',
/* authorisation */ '');

FILE_SCHEMA (('AUTOMOTIVE_DESIGN { 1 0 10303 214 3 1 1 }'));
ENDSEC;

DATA;
#10=MECHANICAL_DESIGN_GEOMETRIC_PRESENTATION_REPRESENTATION('',(#13),#1921);
#11=SHAPE_REPRESENTATION_RELATIONSHIP('SRR','None',#1928,#12);
#12=ADVANCED_BREP_SHAPE_REPRESENTATION('',(#14),#1920);
#13=STYLED_ITEM('',(#1937),#14);
#14=MANIFOLD_SOLID_BREP('Body2',#1129);
#15=CONICAL_SURFACE('',#1205,2.45,0.785398163397459);
#16=CONICAL_SURFACE('',#1224,2.45,0.785398163397459);
#17=CONICAL_SURFACE('',#1228,2.45,0.785398163397459);
#18=CONICAL_SURFACE('',#1232,2.45,0.785398163397459);
#19=FACE_BOUND('',#163,.T.);
#20=FACE_BOUND('',#166,.T.);
#21=FACE_BOUND('',#191,.T.);
#22=FACE_BOUND('',#194,.T.);
#23=FACE_BOUND('',#197,.T.);
#24=FACE_BOUND('',#200,.T.);
#25=FACE_BOUND('',#207,.T.);
#26=FACE_BOUND('',#208,.T.);
#27=FACE_BOUND('',#209,.T.);
#28=FACE_BOUND('',#210,.T.);
#29=FACE_BOUND('',#211,.T.);
#30=FACE_BOUND('',#212,.T.);
#31=FACE_BOUND('',#213,.T.);
#32=FACE_BOUND('',#214,.T.);
#33=FACE_BOUND('',#215,.T.);
#34=FACE_BOUND('',#216,.T.);
#35=FACE_BOUND('',#217,.T.);
#36=FACE_BOUND('',#218,.T.);
#37=FACE_BOUND('',#219,.T.);
#38=FACE_BOUND('',#220,.T.);
#39=FACE_BOUND('',#221,.T.);
#40=FACE_BOUND('',#222,.T.);
#41=FACE_BOUND('',#223,.T.);
#42=FACE_BOUND('',#224,.T.);
#43=FACE_BOUND('',#225,.T.);
#44=FACE_BOUND('',#226,.T.);
#45=FACE_BOUND('',#255,.T.);
#46=FACE_BOUND('',#256,.T.);
#47=FACE_BOUND('',#257,.T.);
#48=FACE_BOUND('',#258,.T.);
#49=FACE_BOUND('',#259,.T.);
#50=FACE_BOUND('',#260,.T.);
#51=FACE_BOUND('',#261,.T.);
#52=FACE_BOUND('',#262,.T.);
#53=FACE_BOUND('',#263,.T.);
#54=FACE_BOUND('',#264,.T.);
#55=PLANE('',#1146);
#56=PLANE('',#1151);
#57=PLANE('',#1157);
#58=PLANE('',#1158);
#59=PLANE('',#1159);
#60=PLANE('',#1160);
#61=PLANE('',#1161);
#62=PLANE('',#1162);
#63=PLANE('',#1163);
#64=PLANE('',#1164);
#65=PLANE('',#1165);
#66=PLANE('',#1166);
#67=PLANE('',#1167);
#68=PLANE('',#1168);
#69=PLANE('',#1169);
#70=PLANE('',#1170);
#71=PLANE('',#1171);
#72=PLANE('',#1172);
#73=PLANE('',#1173);
#74=PLANE('',#1174);
#75=PLANE('',#1175);
#76=PLANE('',#1176);
#77=PLANE('',#1180);
#78=PLANE('',#1185);
#79=PLANE('',#1190);
#80=PLANE('',#1195);
#81=PLANE('',#1208);
#82=PLANE('',#1238);
#83=PLANE('',#1241);
#84=PLANE('',#1244);
#85=PLANE('',#1247);
#86=PLANE('',#1250);
#87=PLANE('',#1253);
#88=PLANE('',#1256);
#89=PLANE('',#1259);
#90=PLANE('',#1262);
#91=PLANE('',#1265);
#92=PLANE('',#1266);
#93=FACE_OUTER_BOUND('',#161,.T.);
#94=FACE_OUTER_BOUND('',#162,.T.);
#95=FACE_OUTER_BOUND('',#164,.T.);
#96=FACE_OUTER_BOUND('',#165,.T.);
#97=FACE_OUTER_BOUND('',#167,.T.);
#98=FACE_OUTER_BOUND('',#168,.T.);
#99=FACE_OUTER_BOUND('',#169,.T.);
#100=FACE_OUTER_BOUND('',#170,.T.);
#101=FACE_OUTER_BOUND('',#171,.T.);
#102=FACE_OUTER_BOUND('',#172,.T.);
#103=FACE_OUTER_BOUND('',#173,.T.);
#104=FACE_OUTER_BOUND('',#174,.T.);
#105=FACE_OUTER_BOUND('',#175,.T.);
#106=FACE_OUTER_BOUND('',#176,.T.);
#107=FACE_OUTER_BOUND('',#177,.T.);
#108=FACE_OUTER_BOUND('',#178,.T.);
#109=FACE_OUTER_BOUND('',#179,.T.);
#110=FACE_OUTER_BOUND('',#180,.T.);
#111=FACE_OUTER_BOUND('',#181,.T.);
#112=FACE_OUTER_BOUND('',#182,.T.);
#113=FACE_OUTER_BOUND('',#183,.T.);
#114=FACE_OUTER_BOUND('',#184,.T.);
#115=FACE_OUTER_BOUND('',#185,.T.);
#116=FACE_OUTER_BOUND('',#186,.T.);
#117=FACE_OUTER_BOUND('',#187,.T.);
#118=FACE_OUTER_BOUND('',#188,.T.);
#119=FACE_OUTER_BOUND('',#189,.T.);
#120=FACE_OUTER_BOUND('',#190,.T.);
#121=FACE_OUTER_BOUND('',#192,.T.);
#122=FACE_OUTER_BOUND('',#193,.T.);
#123=FACE_OUTER_BOUND('',#195,.T.);
#124=FACE_OUTER_BOUND('',#196,.T.);
#125=FACE_OUTER_BOUND('',#198,.T.);
#126=FACE_OUTER_BOUND('',#199,.T.);
#127=FACE_OUTER_BOUND('',#201,.T.);
#128=FACE_OUTER_BOUND('',#202,.T.);
#129=FACE_OUTER_BOUND('',#203,.T.);
#130=FACE_OUTER_BOUND('',#204,.T.);
#131=FACE_OUTER_BOUND('',#205,.T.);
#132=FACE_OUTER_BOUND('',#206,.T.);
#133=FACE_OUTER_BOUND('',#227,.T.);
#134=FACE_OUTER_BOUND('',#228,.T.);
#135=FACE_OUTER_BOUND('',#229,.T.);
#136=FACE_OUTER_BOUND('',#230,.T.);
#137=FACE_OUTER_BOUND('',#231,.T.);
#138=FACE_OUTER_BOUND('',#232,.T.);
#139=FACE_OUTER_BOUND('',#233,.T.);
#140=FACE_OUTER_BOUND('',#234,.T.);
#141=FACE_OUTER_BOUND('',#235,.T.);
#142=FACE_OUTER_BOUND('',#236,.T.);
#143=FACE_OUTER_BOUND('',#237,.T.);
#144=FACE_OUTER_BOUND('',#238,.T.);
#145=FACE_OUTER_BOUND('',#239,.T.);
#146=FACE_OUTER_BOUND('',#240,.T.);
#147=FACE_OUTER_BOUND('',#241,.T.);
#148=FACE_OUTER_BOUND('',#242,.T.);
#149=FACE_OUTER_BOUND('',#243,.T.);
#150=FACE_OUTER_BOUND('',#244,.T.);
#151=FACE_OUTER_BOUND('',#245,.T.);
#152=FACE_OUTER_BOUND('',#246,.T.);
#153=FACE_OUTER_BOUND('',#247,.T.);
#154=FACE_OUTER_BOUND('',#248,.T.);
#155=FACE_OUTER_BOUND('',#249,.T.);
#156=FACE_OUTER_BOUND('',#250,.T.);
#157=FACE_OUTER_BOUND('',#251,.T.);
#158=FACE_OUTER_BOUND('',#252,.T.);
#159=FACE_OUTER_BOUND('',#253,.T.);
#160=FACE_OUTER_BOUND('',#254,.T.);
#161=EDGE_LOOP('',(#743,#744,#745,#746));
#162=EDGE_LOOP('',(#747));
#163=EDGE_LOOP('',(#748));
#164=EDGE_LOOP('',(#749,#750,#751,#752));
#165=EDGE_LOOP('',(#753));
#166=EDGE_LOOP('',(#754));
#167=EDGE_LOOP('',(#755,#756,#757,#758));
#168=EDGE_LOOP('',(#759,#760,#761,#762));
#169=EDGE_LOOP('',(#763,#764,#765,#766));
#170=EDGE_LOOP('',(#767,#768,#769,#770));
#171=EDGE_LOOP('',(#771,#772,#773,#774));
#172=EDGE_LOOP('',(#775,#776,#777,#778));
#173=EDGE_LOOP('',(#779,#780,#781,#782));
#174=EDGE_LOOP('',(#783,#784,#785,#786));
#175=EDGE_LOOP('',(#787,#788,#789,#790));
#176=EDGE_LOOP('',(#791,#792,#793,#794));
#177=EDGE_LOOP('',(#795,#796,#797,#798));
#178=EDGE_LOOP('',(#799,#800,#801,#802));
#179=EDGE_LOOP('',(#803,#804,#805,#806));
#180=EDGE_LOOP('',(#807,#808,#809,#810));
#181=EDGE_LOOP('',(#811,#812,#813,#814));
#182=EDGE_LOOP('',(#815,#816,#817,#818));
#183=EDGE_LOOP('',(#819,#820,#821,#822));
#184=EDGE_LOOP('',(#823,#824,#825,#826));
#185=EDGE_LOOP('',(#827,#828,#829,#830));
#186=EDGE_LOOP('',(#831,#832,#833,#834));
#187=EDGE_LOOP('',(#835,#836,#837,#838));
#188=EDGE_LOOP('',(#839,#840,#841,#842));
#189=EDGE_LOOP('',(#843,#844,#845,#846));
#190=EDGE_LOOP('',(#847));
#191=EDGE_LOOP('',(#848));
#192=EDGE_LOOP('',(#849,#850,#851,#852));
#193=EDGE_LOOP('',(#853));
#194=EDGE_LOOP('',(#854));
#195=EDGE_LOOP('',(#855,#856,#857,#858));
#196=EDGE_LOOP('',(#859));
#197=EDGE_LOOP('',(#860));
#198=EDGE_LOOP('',(#861,#862,#863,#864));
#199=EDGE_LOOP('',(#865));
#200=EDGE_LOOP('',(#866));
#201=EDGE_LOOP('',(#867,#868,#869,#870));
#202=EDGE_LOOP('',(#871,#872,#873,#874));
#203=EDGE_LOOP('',(#875,#876,#877,#878));
#204=EDGE_LOOP('',(#879,#880,#881,#882));
#205=EDGE_LOOP('',(#883,#884,#885,#886));
#206=EDGE_LOOP('',(#887,#888,#889,#890,#891,#892,#893,#894));
#207=EDGE_LOOP('',(#895,#896,#897,#898));
#208=EDGE_LOOP('',(#899,#900,#901,#902));
#209=EDGE_LOOP('',(#903));
#210=EDGE_LOOP('',(#904));
#211=EDGE_LOOP('',(#905));
#212=EDGE_LOOP('',(#906));
#213=EDGE_LOOP('',(#907));
#214=EDGE_LOOP('',(#908));
#215=EDGE_LOOP('',(#909));
#216=EDGE_LOOP('',(#910));
#217=EDGE_LOOP('',(#911));
#218=EDGE_LOOP('',(#912));
#219=EDGE_LOOP('',(#913));
#220=EDGE_LOOP('',(#914));
#221=EDGE_LOOP('',(#915));
#222=EDGE_LOOP('',(#916));
#223=EDGE_LOOP('',(#917,#918,#919,#920));
#224=EDGE_LOOP('',(#921,#922,#923,#924));
#225=EDGE_LOOP('',(#925));
#226=EDGE_LOOP('',(#926));
#227=EDGE_LOOP('',(#927,#928,#929,#930));
#228=EDGE_LOOP('',(#931,#932,#933,#934));
#229=EDGE_LOOP('',(#935,#936,#937,#938));
#230=EDGE_LOOP('',(#939,#940,#941,#942));
#231=EDGE_LOOP('',(#943,#944,#945,#946));
#232=EDGE_LOOP('',(#947,#948,#949,#950));
#233=EDGE_LOOP('',(#951,#952,#953,#954));
#234=EDGE_LOOP('',(#955,#956,#957,#958));
#235=EDGE_LOOP('',(#959));
#236=EDGE_LOOP('',(#960,#961,#962,#963));
#237=EDGE_LOOP('',(#964));
#238=EDGE_LOOP('',(#965,#966,#967,#968));
#239=EDGE_LOOP('',(#969));
#240=EDGE_LOOP('',(#970,#971,#972,#973));
#241=EDGE_LOOP('',(#974));
#242=EDGE_LOOP('',(#975,#976,#977,#978));
#243=EDGE_LOOP('',(#979));
#244=EDGE_LOOP('',(#980,#981,#982,#983));
#245=EDGE_LOOP('',(#984));
#246=EDGE_LOOP('',(#985,#986,#987,#988));
#247=EDGE_LOOP('',(#989,#990,#991,#992));
#248=EDGE_LOOP('',(#993,#994,#995,#996));
#249=EDGE_LOOP('',(#997,#998,#999,#1000));
#250=EDGE_LOOP('',(#1001,#1002,#1003,#1004));
#251=EDGE_LOOP('',(#1005,#1006,#1007,#1008));
#252=EDGE_LOOP('',(#1009,#1010,#1011,#1012));
#253=EDGE_LOOP('',(#1013,#1014,#1015,#1016));
#254=EDGE_LOOP('',(#1017,#1018,#1019,#1020,#1021,#1022,#1023,#1024));
#255=EDGE_LOOP('',(#1025));
#256=EDGE_LOOP('',(#1026));
#257=EDGE_LOOP('',(#1027));
#258=EDGE_LOOP('',(#1028));
#259=EDGE_LOOP('',(#1029));
#260=EDGE_LOOP('',(#1030));
#261=EDGE_LOOP('',(#1031));
#262=EDGE_LOOP('',(#1032));
#263=EDGE_LOOP('',(#1033));
#264=EDGE_LOOP('',(#1034));
#265=LINE('',#1612,#355);
#266=LINE('',#1621,#356);
#267=LINE('',#1628,#357);
#268=LINE('',#1632,#358);
#269=LINE('',#1637,#359);
#270=LINE('',#1639,#360);
#271=LINE('',#1641,#361);
#272=LINE('',#1642,#362);
#273=LINE('',#1645,#363);
#274=LINE('',#1647,#364);
#275=LINE('',#1648,#365);
#276=LINE('',#1651,#366);
#277=LINE('',#1653,#367);
#278=LINE('',#1654,#368);
#279=LINE('',#1656,#369);
#280=LINE('',#1658,#370);
#281=LINE('',#1662,#371);
#282=LINE('',#1664,#372);
#283=LINE('',#1666,#373);
#284=LINE('',#1667,#374);
#285=LINE('',#1670,#375);
#286=LINE('',#1672,#376);
#287=LINE('',#1673,#377);
#288=LINE('',#1676,#378);
#289=LINE('',#1678,#379);
#290=LINE('',#1679,#380);
#291=LINE('',#1681,#381);
#292=LINE('',#1683,#382);
#293=LINE('',#1687,#383);
#294=LINE('',#1689,#384);
#295=LINE('',#1691,#385);
#296=LINE('',#1692,#386);
#297=LINE('',#1695,#387);
#298=LINE('',#1697,#388);
#299=LINE('',#1698,#389);
#300=LINE('',#1701,#390);
#301=LINE('',#1703,#391);
#302=LINE('',#1704,#392);
#303=LINE('',#1706,#393);
#304=LINE('',#1708,#394);
#305=LINE('',#1712,#395);
#306=LINE('',#1714,#396);
#307=LINE('',#1716,#397);
#308=LINE('',#1717,#398);
#309=LINE('',#1720,#399);
#310=LINE('',#1722,#400);
#311=LINE('',#1723,#401);
#312=LINE('',#1726,#402);
#313=LINE('',#1728,#403);
#314=LINE('',#1729,#404);
#315=LINE('',#1731,#405);
#316=LINE('',#1733,#406);
#317=LINE('',#1738,#407);
#318=LINE('',#1747,#408);
#319=LINE('',#1756,#409);
#320=LINE('',#1765,#410);
#321=LINE('',#1772,#411);
#322=LINE('',#1776,#412);
#323=LINE('',#1780,#413);
#324=LINE('',#1784,#414);
#325=LINE('',#1790,#415);
#326=LINE('',#1795,#416);
#327=LINE('',#1799,#417);
#328=LINE('',#1803,#418);
#329=LINE('',#1807,#419);
#330=LINE('',#1829,#420);
#331=LINE('',#1833,#421);
#332=LINE('',#1837,#422);
#333=LINE('',#1841,#423);
#334=LINE('',#1845,#424);
#335=LINE('',#1849,#425);
#336=LINE('',#1853,#426);
#337=LINE('',#1857,#427);
#338=LINE('',#1862,#428);
#339=LINE('',#1867,#429);
#340=LINE('',#1872,#430);
#341=LINE('',#1877,#431);
#342=LINE('',#1882,#432);
#343=LINE('',#1889,#433);
#344=LINE('',#1890,#434);
#345=LINE('',#1893,#435);
#346=LINE('',#1894,#436);
#347=LINE('',#1898,#437);
#348=LINE('',#1901,#438);
#349=LINE('',#1902,#439);
#350=LINE('',#1906,#440);
#351=LINE('',#1909,#441);
#352=LINE('',#1910,#442);
#353=LINE('',#1914,#443);
#354=LINE('',#1916,#444);
#355=VECTOR('',#1273,4.34999999999999);
#356=VECTOR('',#1284,4.34999999999999);
#357=VECTOR('',#1293,2.89999999999999);
#358=VECTOR('',#1298,2.89999999999999);
#359=VECTOR('',#1303,10.);
#360=VECTOR('',#1304,10.);
#361=VECTOR('',#1305,10.);
#362=VECTOR('',#1306,10.);
#363=VECTOR('',#1309,10.);
#364=VECTOR('',#1310,10.);
#365=VECTOR('',#1311,10.);
#366=VECTOR('',#1314,10.);
#367=VECTOR('',#1315,10.);
#368=VECTOR('',#1316,10.);
#369=VECTOR('',#1319,10.);
#370=VECTOR('',#1322,10.);
#371=VECTOR('',#1325,10.);
#372=VECTOR('',#1326,10.);
#373=VECTOR('',#1327,10.);
#374=VECTOR('',#1328,10.);
#375=VECTOR('',#1331,10.);
#376=VECTOR('',#1332,10.);
#377=VECTOR('',#1333,10.);
#378=VECTOR('',#1336,10.);
#379=VECTOR('',#1337,10.);
#380=VECTOR('',#1338,10.);
#381=VECTOR('',#1341,10.);
#382=VECTOR('',#1344,10.);
#383=VECTOR('',#1347,10.);
#384=VECTOR('',#1348,10.);
#385=VECTOR('',#1349,10.);
#386=VECTOR('',#1350,10.);
#387=VECTOR('',#1353,10.);
#388=VECTOR('',#1354,10.);
#389=VECTOR('',#1355,10.);
#390=VECTOR('',#1358,10.);
#391=VECTOR('',#1359,10.);
#392=VECTOR('',#1360,10.);
#393=VECTOR('',#1363,10.);
#394=VECTOR('',#1366,10.);
#395=VECTOR('',#1369,10.);
#396=VECTOR('',#1370,10.);
#397=VECTOR('',#1371,10.);
#398=VECTOR('',#1372,10.);
#399=VECTOR('',#1375,10.);
#400=VECTOR('',#1376,10.);
#401=VECTOR('',#1377,10.);
#402=VECTOR('',#1380,10.);
#403=VECTOR('',#1381,10.);
#404=VECTOR('',#1382,10.);
#405=VECTOR('',#1385,10.);
#406=VECTOR('',#1388,10.);
#407=VECTOR('',#1393,3.24999999999999);
#408=VECTOR('',#1404,3.25);
#409=VECTOR('',#1415,3.24999999999999);
#410=VECTOR('',#1426,3.25);
#411=VECTOR('',#1435,1.8);
#412=VECTOR('',#1440,1.80000000000001);
#413=VECTOR('',#1445,1.80000000000001);
#414=VECTOR('',#1450,1.8);
#415=VECTOR('',#1457,2.45);
#416=VECTOR('',#1462,10.);
#417=VECTOR('',#1465,10.);
#418=VECTOR('',#1468,10.);
#419=VECTOR('',#1471,10.);
#420=VECTOR('',#1494,2.35);
#421=VECTOR('',#1499,2.45);
#422=VECTOR('',#1504,2.35);
#423=VECTOR('',#1509,2.45);
#424=VECTOR('',#1514,2.35);
#425=VECTOR('',#1519,2.45);
#426=VECTOR('',#1524,2.35);
#427=VECTOR('',#1529,1.7);
#428=VECTOR('',#1536,1.7);
#429=VECTOR('',#1543,1.7);
#430=VECTOR('',#1550,1.7);
#431=VECTOR('',#1557,1.85);
#432=VECTOR('',#1564,1.85);
#433=VECTOR('',#1573,10.);
#434=VECTOR('',#1574,10.);
#435=VECTOR('',#1577,10.);
#436=VECTOR('',#1578,10.);
#437=VECTOR('',#1583,10.);
#438=VECTOR('',#1586,10.);
#439=VECTOR('',#1587,10.);
#440=VECTOR('',#1592,10.);
#441=VECTOR('',#1595,10.);
#442=VECTOR('',#1596,10.);
#443=VECTOR('',#1601,10.);
#444=VECTOR('',#1604,10.);
#445=CIRCLE('',#1144,4.34999999999999);
#446=CIRCLE('',#1145,4.34999999999999);
#447=CIRCLE('',#1147,2.89999999999999);
#448=CIRCLE('',#1149,4.34999999999999);
#449=CIRCLE('',#1150,4.34999999999999);
#450=CIRCLE('',#1152,2.89999999999999);
#451=CIRCLE('',#1154,2.89999999999999);
#452=CIRCLE('',#1156,2.89999999999999);
#453=CIRCLE('',#1178,3.24999999999999);
#454=CIRCLE('',#1179,3.24999999999999);
#455=CIRCLE('',#1181,1.80000000000001);
#456=CIRCLE('',#1183,3.25);
#457=CIRCLE('',#1184,3.25);
#458=CIRCLE('',#1186,1.80000000000001);
#459=CIRCLE('',#1188,3.24999999999999);
#460=CIRCLE('',#1189,3.24999999999999);
#461=CIRCLE('',#1191,1.8);
#462=CIRCLE('',#1193,3.25);
#463=CIRCLE('',#1194,3.25);
#464=CIRCLE('',#1196,1.8);
#465=CIRCLE('',#1198,1.8);
#466=CIRCLE('',#1200,1.80000000000001);
#467=CIRCLE('',#1202,1.80000000000001);
#468=CIRCLE('',#1204,1.8);
#469=CIRCLE('',#1206,2.55);
#470=CIRCLE('',#1207,2.35);
#471=CIRCLE('',#1209,15.);
#472=CIRCLE('',#1210,15.);
#473=CIRCLE('',#1211,15.);
#474=CIRCLE('',#1212,15.);
#475=CIRCLE('',#1213,2.55);
#476=CIRCLE('',#1214,1.7);
#477=CIRCLE('',#1215,1.7);
#478=CIRCLE('',#1216,1.7);
#479=CIRCLE('',#1217,1.7);
#480=CIRCLE('',#1218,1.85);
#481=CIRCLE('',#1219,1.85);
#482=CIRCLE('',#1220,2.55);
#483=CIRCLE('',#1221,2.55);
#484=CIRCLE('',#1223,2.35);
#485=CIRCLE('',#1225,2.35);
#486=CIRCLE('',#1227,2.35);
#487=CIRCLE('',#1229,2.35);
#488=CIRCLE('',#1231,2.35);
#489=CIRCLE('',#1233,2.35);
#490=CIRCLE('',#1235,2.35);
#491=CIRCLE('',#1237,1.7);
#492=CIRCLE('',#1240,1.7);
#493=CIRCLE('',#1243,1.7);
#494=CIRCLE('',#1246,1.7);
#495=CIRCLE('',#1249,1.85);
#496=CIRCLE('',#1252,1.85);
#497=CIRCLE('',#1255,15.);
#498=CIRCLE('',#1258,15.);
#499=CIRCLE('',#1261,15.);
#500=CIRCLE('',#1264,15.);
#501=VERTEX_POINT('',#1609);
#502=VERTEX_POINT('',#1611);
#503=VERTEX_POINT('',#1615);
#504=VERTEX_POINT('',#1618);
#505=VERTEX_POINT('',#1620);
#506=VERTEX_POINT('',#1624);
#507=VERTEX_POINT('',#1627);
#508=VERTEX_POINT('',#1631);
#509=VERTEX_POINT('',#1635);
#510=VERTEX_POINT('',#1636);
#511=VERTEX_POINT('',#1638);
#512=VERTEX_POINT('',#1640);
#513=VERTEX_POINT('',#1644);
#514=VERTEX_POINT('',#1646);
#515=VERTEX_POINT('',#1650);
#516=VERTEX_POINT('',#1652);
#517=VERTEX_POINT('',#1660);
#518=VERTEX_POINT('',#1661);
#519=VERTEX_POINT('',#1663);
#520=VERTEX_POINT('',#1665);
#521=VERTEX_POINT('',#1669);
#522=VERTEX_POINT('',#1671);
#523=VERTEX_POINT('',#1675);
#524=VERTEX_POINT('',#1677);
#525=VERTEX_POINT('',#1685);
#526=VERTEX_POINT('',#1686);
#527=VERTEX_POINT('',#1688);
#528=VERTEX_POINT('',#1690);
#529=VERTEX_POINT('',#1694);
#530=VERTEX_POINT('',#1696);
#531=VERTEX_POINT('',#1700);
#532=VERTEX_POINT('',#1702);
#533=VERTEX_POINT('',#1710);
#534=VERTEX_POINT('',#1711);
#535=VERTEX_POINT('',#1713);
#536=VERTEX_POINT('',#1715);
#537=VERTEX_POINT('',#1719);
#538=VERTEX_POINT('',#1721);
#539=VERTEX_POINT('',#1725);
#540=VERTEX_POINT('',#1727);
#541=VERTEX_POINT('',#1735);
#542=VERTEX_POINT('',#1737);
#543=VERTEX_POINT('',#1741);
#544=VERTEX_POINT('',#1744);
#545=VERTEX_POINT('',#1746);
#546=VERTEX_POINT('',#1750);
#547=VERTEX_POINT('',#1753);
#548=VERTEX_POINT('',#1755);
#549=VERTEX_POINT('',#1759);
#550=VERTEX_POINT('',#1762);
#551=VERTEX_POINT('',#1764);
#552=VERTEX_POINT('',#1768);
#553=VERTEX_POINT('',#1771);
#554=VERTEX_POINT('',#1775);
#555=VERTEX_POINT('',#1779);
#556=VERTEX_POINT('',#1783);
#557=VERTEX_POINT('',#1787);
#558=VERTEX_POINT('',#1789);
#559=VERTEX_POINT('',#1793);
#560=VERTEX_POINT('',#1794);
#561=VERTEX_POINT('',#1796);
#562=VERTEX_POINT('',#1798);
#563=VERTEX_POINT('',#1800);
#564=VERTEX_POINT('',#1802);
#565=VERTEX_POINT('',#1804);
#566=VERTEX_POINT('',#1806);
#567=VERTEX_POINT('',#1809);
#568=VERTEX_POINT('',#1811);
#569=VERTEX_POINT('',#1813);
#570=VERTEX_POINT('',#1815);
#571=VERTEX_POINT('',#1817);
#572=VERTEX_POINT('',#1819);
#573=VERTEX_POINT('',#1821);
#574=VERTEX_POINT('',#1823);
#575=VERTEX_POINT('',#1825);
#576=VERTEX_POINT('',#1828);
#577=VERTEX_POINT('',#1832);
#578=VERTEX_POINT('',#1836);
#579=VERTEX_POINT('',#1840);
#580=VERTEX_POINT('',#1844);
#581=VERTEX_POINT('',#1848);
#582=VERTEX_POINT('',#1852);
#583=VERTEX_POINT('',#1856);
#584=VERTEX_POINT('',#1861);
#585=VERTEX_POINT('',#1866);
#586=VERTEX_POINT('',#1871);
#587=VERTEX_POINT('',#1876);
#588=VERTEX_POINT('',#1881);
#589=VERTEX_POINT('',#1886);
#590=VERTEX_POINT('',#1887);
#591=VERTEX_POINT('',#1892);
#592=VERTEX_POINT('',#1896);
#593=VERTEX_POINT('',#1900);
#594=VERTEX_POINT('',#1904);
#595=VERTEX_POINT('',#1908);
#596=VERTEX_POINT('',#1912);
#597=EDGE_CURVE('',#501,#501,#445,.T.);
#598=EDGE_CURVE('',#501,#502,#265,.T.);
#599=EDGE_CURVE('',#502,#502,#446,.T.);
#600=EDGE_CURVE('',#503,#503,#447,.T.);
#601=EDGE_CURVE('',#504,#504,#448,.T.);
#602=EDGE_CURVE('',#504,#505,#266,.T.);
#603=EDGE_CURVE('',#505,#505,#449,.T.);
#604=EDGE_CURVE('',#506,#506,#450,.T.);
#605=EDGE_CURVE('',#503,#507,#267,.T.);
#606=EDGE_CURVE('',#507,#507,#451,.T.);
#607=EDGE_CURVE('',#506,#508,#268,.T.);
#608=EDGE_CURVE('',#508,#508,#452,.T.);
#609=EDGE_CURVE('',#509,#510,#269,.T.);
#610=EDGE_CURVE('',#510,#511,#270,.T.);
#611=EDGE_CURVE('',#511,#512,#271,.T.);
#612=EDGE_CURVE('',#509,#512,#272,.T.);
#613=EDGE_CURVE('',#510,#513,#273,.T.);
#614=EDGE_CURVE('',#514,#513,#274,.T.);
#615=EDGE_CURVE('',#514,#511,#275,.T.);
#616=EDGE_CURVE('',#515,#509,#276,.T.);
#617=EDGE_CURVE('',#512,#516,#277,.T.);
#618=EDGE_CURVE('',#515,#516,#278,.T.);
#619=EDGE_CURVE('',#513,#515,#279,.T.);
#620=EDGE_CURVE('',#516,#514,#280,.T.);
#621=EDGE_CURVE('',#517,#518,#281,.T.);
#622=EDGE_CURVE('',#517,#519,#282,.T.);
#623=EDGE_CURVE('',#519,#520,#283,.T.);
#624=EDGE_CURVE('',#518,#520,#284,.T.);
#625=EDGE_CURVE('',#521,#517,#285,.T.);
#626=EDGE_CURVE('',#521,#522,#286,.T.);
#627=EDGE_CURVE('',#522,#519,#287,.T.);
#628=EDGE_CURVE('',#523,#521,#288,.T.);
#629=EDGE_CURVE('',#524,#523,#289,.T.);
#630=EDGE_CURVE('',#524,#522,#290,.T.);
#631=EDGE_CURVE('',#523,#518,#291,.T.);
#632=EDGE_CURVE('',#520,#524,#292,.T.);
#633=EDGE_CURVE('',#525,#526,#293,.T.);
#634=EDGE_CURVE('',#525,#527,#294,.T.);
#635=EDGE_CURVE('',#527,#528,#295,.T.);
#636=EDGE_CURVE('',#526,#528,#296,.T.);
#637=EDGE_CURVE('',#529,#525,#297,.T.);
#638=EDGE_CURVE('',#530,#529,#298,.T.);
#639=EDGE_CURVE('',#530,#527,#299,.T.);
#640=EDGE_CURVE('',#531,#526,#300,.T.);
#641=EDGE_CURVE('',#528,#532,#301,.T.);
#642=EDGE_CURVE('',#531,#532,#302,.T.);
#643=EDGE_CURVE('',#529,#531,#303,.T.);
#644=EDGE_CURVE('',#532,#530,#304,.T.);
#645=EDGE_CURVE('',#533,#534,#305,.T.);
#646=EDGE_CURVE('',#534,#535,#306,.T.);
#647=EDGE_CURVE('',#535,#536,#307,.T.);
#648=EDGE_CURVE('',#533,#536,#308,.T.);
#649=EDGE_CURVE('',#537,#534,#309,.T.);
#650=EDGE_CURVE('',#537,#538,#310,.T.);
#651=EDGE_CURVE('',#538,#535,#311,.T.);
#652=EDGE_CURVE('',#539,#537,#312,.T.);
#653=EDGE_CURVE('',#540,#539,#313,.T.);
#654=EDGE_CURVE('',#540,#538,#314,.T.);
#655=EDGE_CURVE('',#539,#533,#315,.T.);
#656=EDGE_CURVE('',#536,#540,#316,.T.);
#657=EDGE_CURVE('',#541,#541,#453,.T.);
#658=EDGE_CURVE('',#541,#542,#317,.T.);
#659=EDGE_CURVE('',#542,#542,#454,.T.);
#660=EDGE_CURVE('',#543,#543,#455,.T.);
#661=EDGE_CURVE('',#544,#544,#456,.T.);
#662=EDGE_CURVE('',#544,#545,#318,.T.);
#663=EDGE_CURVE('',#545,#545,#457,.T.);
#664=EDGE_CURVE('',#546,#546,#458,.T.);
#665=EDGE_CURVE('',#547,#547,#459,.T.);
#666=EDGE_CURVE('',#547,#548,#319,.T.);
#667=EDGE_CURVE('',#548,#548,#460,.T.);
#668=EDGE_CURVE('',#549,#549,#461,.T.);
#669=EDGE_CURVE('',#550,#550,#462,.T.);
#670=EDGE_CURVE('',#550,#551,#320,.T.);
#671=EDGE_CURVE('',#551,#551,#463,.T.);
#672=EDGE_CURVE('',#552,#552,#464,.T.);
#673=EDGE_CURVE('',#552,#553,#321,.T.);
#674=EDGE_CURVE('',#553,#553,#465,.T.);
#675=EDGE_CURVE('',#543,#554,#322,.T.);
#676=EDGE_CURVE('',#554,#554,#466,.T.);
#677=EDGE_CURVE('',#546,#555,#323,.T.);
#678=EDGE_CURVE('',#555,#555,#467,.T.);
#679=EDGE_CURVE('',#549,#556,#324,.T.);
#680=EDGE_CURVE('',#556,#556,#468,.T.);
#681=EDGE_CURVE('',#557,#557,#469,.T.);
#682=EDGE_CURVE('',#557,#558,#325,.T.);
#683=EDGE_CURVE('',#558,#558,#470,.T.);
#684=EDGE_CURVE('',#559,#560,#326,.T.);
#685=EDGE_CURVE('',#560,#561,#471,.T.);
#686=EDGE_CURVE('',#561,#562,#327,.T.);
#687=EDGE_CURVE('',#562,#563,#472,.T.);
#688=EDGE_CURVE('',#563,#564,#328,.T.);
#689=EDGE_CURVE('',#564,#565,#473,.T.);
#690=EDGE_CURVE('',#565,#566,#329,.T.);
#691=EDGE_CURVE('',#566,#559,#474,.T.);
#692=EDGE_CURVE('',#567,#567,#475,.T.);
#693=EDGE_CURVE('',#568,#568,#476,.T.);
#694=EDGE_CURVE('',#569,#569,#477,.T.);
#695=EDGE_CURVE('',#570,#570,#478,.T.);
#696=EDGE_CURVE('',#571,#571,#479,.T.);
#697=EDGE_CURVE('',#572,#572,#480,.T.);
#698=EDGE_CURVE('',#573,#573,#481,.T.);
#699=EDGE_CURVE('',#574,#574,#482,.T.);
#700=EDGE_CURVE('',#575,#575,#483,.T.);
#701=EDGE_CURVE('',#558,#576,#330,.T.);
#702=EDGE_CURVE('',#576,#576,#484,.T.);
#703=EDGE_CURVE('',#575,#577,#331,.T.);
#704=EDGE_CURVE('',#577,#577,#485,.T.);
#705=EDGE_CURVE('',#577,#578,#332,.T.);
#706=EDGE_CURVE('',#578,#578,#486,.T.);
#707=EDGE_CURVE('',#567,#579,#333,.T.);
#708=EDGE_CURVE('',#579,#579,#487,.T.);
#709=EDGE_CURVE('',#579,#580,#334,.T.);
#710=EDGE_CURVE('',#580,#580,#488,.T.);
#711=EDGE_CURVE('',#574,#581,#335,.T.);
#712=EDGE_CURVE('',#581,#581,#489,.T.);
#713=EDGE_CURVE('',#581,#582,#336,.T.);
#714=EDGE_CURVE('',#582,#582,#490,.T.);
#715=EDGE_CURVE('',#568,#583,#337,.T.);
#716=EDGE_CURVE('',#583,#583,#491,.T.);
#717=EDGE_CURVE('',#569,#584,#338,.T.);
#718=EDGE_CURVE('',#584,#584,#492,.T.);
#719=EDGE_CURVE('',#570,#585,#339,.T.);
#720=EDGE_CURVE('',#585,#585,#493,.T.);
#721=EDGE_CURVE('',#571,#586,#340,.T.);
#722=EDGE_CURVE('',#586,#586,#494,.T.);
#723=EDGE_CURVE('',#572,#587,#341,.T.);
#724=EDGE_CURVE('',#587,#587,#495,.T.);
#725=EDGE_CURVE('',#573,#588,#342,.T.);
#726=EDGE_CURVE('',#588,#588,#496,.T.);
#727=EDGE_CURVE('',#589,#590,#497,.T.);
#728=EDGE_CURVE('',#590,#559,#343,.T.);
#729=EDGE_CURVE('',#589,#566,#344,.T.);
#730=EDGE_CURVE('',#589,#591,#345,.T.);
#731=EDGE_CURVE('',#591,#565,#346,.T.);
#732=EDGE_CURVE('',#592,#591,#498,.T.);
#733=EDGE_CURVE('',#592,#564,#347,.T.);
#734=EDGE_CURVE('',#592,#593,#348,.T.);
#735=EDGE_CURVE('',#593,#563,#349,.T.);
#736=EDGE_CURVE('',#594,#593,#499,.T.);
#737=EDGE_CURVE('',#594,#562,#350,.T.);
#738=EDGE_CURVE('',#594,#595,#351,.T.);
#739=EDGE_CURVE('',#595,#561,#352,.T.);
#740=EDGE_CURVE('',#596,#595,#500,.T.);
#741=EDGE_CURVE('',#596,#560,#353,.T.);
#742=EDGE_CURVE('',#596,#590,#354,.T.);
#743=ORIENTED_EDGE('',*,*,#597,.F.);
#744=ORIENTED_EDGE('',*,*,#598,.T.);
#745=ORIENTED_EDGE('',*,*,#599,.T.);
#746=ORIENTED_EDGE('',*,*,#598,.F.);
#747=ORIENTED_EDGE('',*,*,#599,.F.);
#748=ORIENTED_EDGE('',*,*,#600,.F.);
#749=ORIENTED_EDGE('',*,*,#601,.F.);
#750=ORIENTED_EDGE('',*,*,#602,.T.);
#751=ORIENTED_EDGE('',*,*,#603,.T.);
#752=ORIENTED_EDGE('',*,*,#602,.F.);
#753=ORIENTED_EDGE('',*,*,#603,.F.);
#754=ORIENTED_EDGE('',*,*,#604,.F.);
#755=ORIENTED_EDGE('',*,*,#600,.T.);
#756=ORIENTED_EDGE('',*,*,#605,.T.);
#757=ORIENTED_EDGE('',*,*,#606,.F.);
#758=ORIENTED_EDGE('',*,*,#605,.F.);
#759=ORIENTED_EDGE('',*,*,#604,.T.);
#760=ORIENTED_EDGE('',*,*,#607,.T.);
#761=ORIENTED_EDGE('',*,*,#608,.F.);
#762=ORIENTED_EDGE('',*,*,#607,.F.);
#763=ORIENTED_EDGE('',*,*,#609,.T.);
#764=ORIENTED_EDGE('',*,*,#610,.T.);
#765=ORIENTED_EDGE('',*,*,#611,.T.);
#766=ORIENTED_EDGE('',*,*,#612,.F.);
#767=ORIENTED_EDGE('',*,*,#613,.T.);
#768=ORIENTED_EDGE('',*,*,#614,.F.);
#769=ORIENTED_EDGE('',*,*,#615,.T.);
#770=ORIENTED_EDGE('',*,*,#610,.F.);
#771=ORIENTED_EDGE('',*,*,#616,.T.);
#772=ORIENTED_EDGE('',*,*,#612,.T.);
#773=ORIENTED_EDGE('',*,*,#617,.T.);
#774=ORIENTED_EDGE('',*,*,#618,.F.);
#775=ORIENTED_EDGE('',*,*,#616,.F.);
#776=ORIENTED_EDGE('',*,*,#619,.F.);
#777=ORIENTED_EDGE('',*,*,#613,.F.);
#778=ORIENTED_EDGE('',*,*,#609,.F.);
#779=ORIENTED_EDGE('',*,*,#617,.F.);
#780=ORIENTED_EDGE('',*,*,#611,.F.);
#781=ORIENTED_EDGE('',*,*,#615,.F.);
#782=ORIENTED_EDGE('',*,*,#620,.F.);
#783=ORIENTED_EDGE('',*,*,#621,.F.);
#784=ORIENTED_EDGE('',*,*,#622,.T.);
#785=ORIENTED_EDGE('',*,*,#623,.T.);
#786=ORIENTED_EDGE('',*,*,#624,.F.);
#787=ORIENTED_EDGE('',*,*,#625,.F.);
#788=ORIENTED_EDGE('',*,*,#626,.T.);
#789=ORIENTED_EDGE('',*,*,#627,.T.);
#790=ORIENTED_EDGE('',*,*,#622,.F.);
#791=ORIENTED_EDGE('',*,*,#628,.F.);
#792=ORIENTED_EDGE('',*,*,#629,.F.);
#793=ORIENTED_EDGE('',*,*,#630,.T.);
#794=ORIENTED_EDGE('',*,*,#626,.F.);
#795=ORIENTED_EDGE('',*,*,#631,.F.);
#796=ORIENTED_EDGE('',*,*,#628,.T.);
#797=ORIENTED_EDGE('',*,*,#625,.T.);
#798=ORIENTED_EDGE('',*,*,#621,.T.);
#799=ORIENTED_EDGE('',*,*,#632,.F.);
#800=ORIENTED_EDGE('',*,*,#623,.F.);
#801=ORIENTED_EDGE('',*,*,#627,.F.);
#802=ORIENTED_EDGE('',*,*,#630,.F.);
#803=ORIENTED_EDGE('',*,*,#633,.F.);
#804=ORIENTED_EDGE('',*,*,#634,.T.);
#805=ORIENTED_EDGE('',*,*,#635,.T.);
#806=ORIENTED_EDGE('',*,*,#636,.F.);
#807=ORIENTED_EDGE('',*,*,#637,.F.);
#808=ORIENTED_EDGE('',*,*,#638,.F.);
#809=ORIENTED_EDGE('',*,*,#639,.T.);
#810=ORIENTED_EDGE('',*,*,#634,.F.);
#811=ORIENTED_EDGE('',*,*,#640,.T.);
#812=ORIENTED_EDGE('',*,*,#636,.T.);
#813=ORIENTED_EDGE('',*,*,#641,.T.);
#814=ORIENTED_EDGE('',*,*,#642,.F.);
#815=ORIENTED_EDGE('',*,*,#640,.F.);
#816=ORIENTED_EDGE('',*,*,#643,.F.);
#817=ORIENTED_EDGE('',*,*,#637,.T.);
#818=ORIENTED_EDGE('',*,*,#633,.T.);
#819=ORIENTED_EDGE('',*,*,#641,.F.);
#820=ORIENTED_EDGE('',*,*,#635,.F.);
#821=ORIENTED_EDGE('',*,*,#639,.F.);
#822=ORIENTED_EDGE('',*,*,#644,.F.);
#823=ORIENTED_EDGE('',*,*,#645,.T.);
#824=ORIENTED_EDGE('',*,*,#646,.T.);
#825=ORIENTED_EDGE('',*,*,#647,.T.);
#826=ORIENTED_EDGE('',*,*,#648,.F.);
#827=ORIENTED_EDGE('',*,*,#649,.F.);
#828=ORIENTED_EDGE('',*,*,#650,.T.);
#829=ORIENTED_EDGE('',*,*,#651,.T.);
#830=ORIENTED_EDGE('',*,*,#646,.F.);
#831=ORIENTED_EDGE('',*,*,#652,.F.);
#832=ORIENTED_EDGE('',*,*,#653,.F.);
#833=ORIENTED_EDGE('',*,*,#654,.T.);
#834=ORIENTED_EDGE('',*,*,#650,.F.);
#835=ORIENTED_EDGE('',*,*,#655,.F.);
#836=ORIENTED_EDGE('',*,*,#652,.T.);
#837=ORIENTED_EDGE('',*,*,#649,.T.);
#838=ORIENTED_EDGE('',*,*,#645,.F.);
#839=ORIENTED_EDGE('',*,*,#656,.F.);
#840=ORIENTED_EDGE('',*,*,#647,.F.);
#841=ORIENTED_EDGE('',*,*,#651,.F.);
#842=ORIENTED_EDGE('',*,*,#654,.F.);
#843=ORIENTED_EDGE('',*,*,#657,.F.);
#844=ORIENTED_EDGE('',*,*,#658,.T.);
#845=ORIENTED_EDGE('',*,*,#659,.T.);
#846=ORIENTED_EDGE('',*,*,#658,.F.);
#847=ORIENTED_EDGE('',*,*,#659,.F.);
#848=ORIENTED_EDGE('',*,*,#660,.F.);
#849=ORIENTED_EDGE('',*,*,#661,.F.);
#850=ORIENTED_EDGE('',*,*,#662,.T.);
#851=ORIENTED_EDGE('',*,*,#663,.T.);
#852=ORIENTED_EDGE('',*,*,#662,.F.);
#853=ORIENTED_EDGE('',*,*,#663,.F.);
#854=ORIENTED_EDGE('',*,*,#664,.F.);
#855=ORIENTED_EDGE('',*,*,#665,.F.);
#856=ORIENTED_EDGE('',*,*,#666,.T.);
#857=ORIENTED_EDGE('',*,*,#667,.T.);
#858=ORIENTED_EDGE('',*,*,#666,.F.);
#859=ORIENTED_EDGE('',*,*,#667,.F.);
#860=ORIENTED_EDGE('',*,*,#668,.F.);
#861=ORIENTED_EDGE('',*,*,#669,.F.);
#862=ORIENTED_EDGE('',*,*,#670,.T.);
#863=ORIENTED_EDGE('',*,*,#671,.T.);
#864=ORIENTED_EDGE('',*,*,#670,.F.);
#865=ORIENTED_EDGE('',*,*,#671,.F.);
#866=ORIENTED_EDGE('',*,*,#672,.F.);
#867=ORIENTED_EDGE('',*,*,#672,.T.);
#868=ORIENTED_EDGE('',*,*,#673,.T.);
#869=ORIENTED_EDGE('',*,*,#674,.F.);
#870=ORIENTED_EDGE('',*,*,#673,.F.);
#871=ORIENTED_EDGE('',*,*,#660,.T.);
#872=ORIENTED_EDGE('',*,*,#675,.T.);
#873=ORIENTED_EDGE('',*,*,#676,.F.);
#874=ORIENTED_EDGE('',*,*,#675,.F.);
#875=ORIENTED_EDGE('',*,*,#664,.T.);
#876=ORIENTED_EDGE('',*,*,#677,.T.);
#877=ORIENTED_EDGE('',*,*,#678,.F.);
#878=ORIENTED_EDGE('',*,*,#677,.F.);
#879=ORIENTED_EDGE('',*,*,#668,.T.);
#880=ORIENTED_EDGE('',*,*,#679,.T.);
#881=ORIENTED_EDGE('',*,*,#680,.F.);
#882=ORIENTED_EDGE('',*,*,#679,.F.);
#883=ORIENTED_EDGE('',*,*,#681,.T.);
#884=ORIENTED_EDGE('',*,*,#682,.T.);
#885=ORIENTED_EDGE('',*,*,#683,.T.);
#886=ORIENTED_EDGE('',*,*,#682,.F.);
#887=ORIENTED_EDGE('',*,*,#684,.T.);
#888=ORIENTED_EDGE('',*,*,#685,.T.);
#889=ORIENTED_EDGE('',*,*,#686,.T.);
#890=ORIENTED_EDGE('',*,*,#687,.T.);
#891=ORIENTED_EDGE('',*,*,#688,.T.);
#892=ORIENTED_EDGE('',*,*,#689,.T.);
#893=ORIENTED_EDGE('',*,*,#690,.T.);
#894=ORIENTED_EDGE('',*,*,#691,.T.);
#895=ORIENTED_EDGE('',*,*,#618,.T.);
#896=ORIENTED_EDGE('',*,*,#620,.T.);
#897=ORIENTED_EDGE('',*,*,#614,.T.);
#898=ORIENTED_EDGE('',*,*,#619,.T.);
#899=ORIENTED_EDGE('',*,*,#629,.T.);
#900=ORIENTED_EDGE('',*,*,#631,.T.);
#901=ORIENTED_EDGE('',*,*,#624,.T.);
#902=ORIENTED_EDGE('',*,*,#632,.T.);
#903=ORIENTED_EDGE('',*,*,#681,.F.);
#904=ORIENTED_EDGE('',*,*,#692,.F.);
#905=ORIENTED_EDGE('',*,*,#693,.T.);
#906=ORIENTED_EDGE('',*,*,#694,.T.);
#907=ORIENTED_EDGE('',*,*,#695,.T.);
#908=ORIENTED_EDGE('',*,*,#696,.T.);
#909=ORIENTED_EDGE('',*,*,#697,.T.);
#910=ORIENTED_EDGE('',*,*,#698,.T.);
#911=ORIENTED_EDGE('',*,*,#699,.F.);
#912=ORIENTED_EDGE('',*,*,#700,.F.);
#913=ORIENTED_EDGE('',*,*,#680,.T.);
#914=ORIENTED_EDGE('',*,*,#678,.T.);
#915=ORIENTED_EDGE('',*,*,#676,.T.);
#916=ORIENTED_EDGE('',*,*,#674,.T.);
#917=ORIENTED_EDGE('',*,*,#653,.T.);
#918=ORIENTED_EDGE('',*,*,#655,.T.);
#919=ORIENTED_EDGE('',*,*,#648,.T.);
#920=ORIENTED_EDGE('',*,*,#656,.T.);
#921=ORIENTED_EDGE('',*,*,#642,.T.);
#922=ORIENTED_EDGE('',*,*,#644,.T.);
#923=ORIENTED_EDGE('',*,*,#638,.T.);
#924=ORIENTED_EDGE('',*,*,#643,.T.);
#925=ORIENTED_EDGE('',*,*,#601,.T.);
#926=ORIENTED_EDGE('',*,*,#597,.T.);
#927=ORIENTED_EDGE('',*,*,#683,.F.);
#928=ORIENTED_EDGE('',*,*,#701,.T.);
#929=ORIENTED_EDGE('',*,*,#702,.T.);
#930=ORIENTED_EDGE('',*,*,#701,.F.);
#931=ORIENTED_EDGE('',*,*,#700,.T.);
#932=ORIENTED_EDGE('',*,*,#703,.T.);
#933=ORIENTED_EDGE('',*,*,#704,.T.);
#934=ORIENTED_EDGE('',*,*,#703,.F.);
#935=ORIENTED_EDGE('',*,*,#704,.F.);
#936=ORIENTED_EDGE('',*,*,#705,.T.);
#937=ORIENTED_EDGE('',*,*,#706,.T.);
#938=ORIENTED_EDGE('',*,*,#705,.F.);
#939=ORIENTED_EDGE('',*,*,#692,.T.);
#940=ORIENTED_EDGE('',*,*,#707,.T.);
#941=ORIENTED_EDGE('',*,*,#708,.T.);
#942=ORIENTED_EDGE('',*,*,#707,.F.);
#943=ORIENTED_EDGE('',*,*,#708,.F.);
#944=ORIENTED_EDGE('',*,*,#709,.T.);
#945=ORIENTED_EDGE('',*,*,#710,.T.);
#946=ORIENTED_EDGE('',*,*,#709,.F.);
#947=ORIENTED_EDGE('',*,*,#699,.T.);
#948=ORIENTED_EDGE('',*,*,#711,.T.);
#949=ORIENTED_EDGE('',*,*,#712,.T.);
#950=ORIENTED_EDGE('',*,*,#711,.F.);
#951=ORIENTED_EDGE('',*,*,#712,.F.);
#952=ORIENTED_EDGE('',*,*,#713,.T.);
#953=ORIENTED_EDGE('',*,*,#714,.T.);
#954=ORIENTED_EDGE('',*,*,#713,.F.);
#955=ORIENTED_EDGE('',*,*,#693,.F.);
#956=ORIENTED_EDGE('',*,*,#715,.T.);
#957=ORIENTED_EDGE('',*,*,#716,.T.);
#958=ORIENTED_EDGE('',*,*,#715,.F.);
#959=ORIENTED_EDGE('',*,*,#716,.F.);
#960=ORIENTED_EDGE('',*,*,#694,.F.);
#961=ORIENTED_EDGE('',*,*,#717,.T.);
#962=ORIENTED_EDGE('',*,*,#718,.T.);
#963=ORIENTED_EDGE('',*,*,#717,.F.);
#964=ORIENTED_EDGE('',*,*,#718,.F.);
#965=ORIENTED_EDGE('',*,*,#695,.F.);
#966=ORIENTED_EDGE('',*,*,#719,.T.);
#967=ORIENTED_EDGE('',*,*,#720,.T.);
#968=ORIENTED_EDGE('',*,*,#719,.F.);
#969=ORIENTED_EDGE('',*,*,#720,.F.);
#970=ORIENTED_EDGE('',*,*,#696,.F.);
#971=ORIENTED_EDGE('',*,*,#721,.T.);
#972=ORIENTED_EDGE('',*,*,#722,.T.);
#973=ORIENTED_EDGE('',*,*,#721,.F.);
#974=ORIENTED_EDGE('',*,*,#722,.F.);
#975=ORIENTED_EDGE('',*,*,#697,.F.);
#976=ORIENTED_EDGE('',*,*,#723,.T.);
#977=ORIENTED_EDGE('',*,*,#724,.T.);
#978=ORIENTED_EDGE('',*,*,#723,.F.);
#979=ORIENTED_EDGE('',*,*,#724,.F.);
#980=ORIENTED_EDGE('',*,*,#698,.F.);
#981=ORIENTED_EDGE('',*,*,#725,.T.);
#982=ORIENTED_EDGE('',*,*,#726,.T.);
#983=ORIENTED_EDGE('',*,*,#725,.F.);
#984=ORIENTED_EDGE('',*,*,#726,.F.);
#985=ORIENTED_EDGE('',*,*,#727,.T.);
#986=ORIENTED_EDGE('',*,*,#728,.T.);
#987=ORIENTED_EDGE('',*,*,#691,.F.);
#988=ORIENTED_EDGE('',*,*,#729,.F.);
#989=ORIENTED_EDGE('',*,*,#730,.F.);
#990=ORIENTED_EDGE('',*,*,#729,.T.);
#991=ORIENTED_EDGE('',*,*,#690,.F.);
#992=ORIENTED_EDGE('',*,*,#731,.F.);
#993=ORIENTED_EDGE('',*,*,#732,.T.);
#994=ORIENTED_EDGE('',*,*,#731,.T.);
#995=ORIENTED_EDGE('',*,*,#689,.F.);
#996=ORIENTED_EDGE('',*,*,#733,.F.);
#997=ORIENTED_EDGE('',*,*,#734,.F.);
#998=ORIENTED_EDGE('',*,*,#733,.T.);
#999=ORIENTED_EDGE('',*,*,#688,.F.);
#1000=ORIENTED_EDGE('',*,*,#735,.F.);
#1001=ORIENTED_EDGE('',*,*,#736,.T.);
#1002=ORIENTED_EDGE('',*,*,#735,.T.);
#1003=ORIENTED_EDGE('',*,*,#687,.F.);
#1004=ORIENTED_EDGE('',*,*,#737,.F.);
#1005=ORIENTED_EDGE('',*,*,#738,.F.);
#1006=ORIENTED_EDGE('',*,*,#737,.T.);
#1007=ORIENTED_EDGE('',*,*,#686,.F.);
#1008=ORIENTED_EDGE('',*,*,#739,.F.);
#1009=ORIENTED_EDGE('',*,*,#740,.T.);
#1010=ORIENTED_EDGE('',*,*,#739,.T.);
#1011=ORIENTED_EDGE('',*,*,#685,.F.);
#1012=ORIENTED_EDGE('',*,*,#741,.F.);
#1013=ORIENTED_EDGE('',*,*,#742,.F.);
#1014=ORIENTED_EDGE('',*,*,#741,.T.);
#1015=ORIENTED_EDGE('',*,*,#684,.F.);
#1016=ORIENTED_EDGE('',*,*,#728,.F.);
#1017=ORIENTED_EDGE('',*,*,#742,.T.);
#1018=ORIENTED_EDGE('',*,*,#727,.F.);
#1019=ORIENTED_EDGE('',*,*,#730,.T.);
#1020=ORIENTED_EDGE('',*,*,#732,.F.);
#1021=ORIENTED_EDGE('',*,*,#734,.T.);
#1022=ORIENTED_EDGE('',*,*,#736,.F.);
#1023=ORIENTED_EDGE('',*,*,#738,.T.);
#1024=ORIENTED_EDGE('',*,*,#740,.F.);
#1025=ORIENTED_EDGE('',*,*,#657,.T.);
#1026=ORIENTED_EDGE('',*,*,#661,.T.);
#1027=ORIENTED_EDGE('',*,*,#665,.T.);
#1028=ORIENTED_EDGE('',*,*,#669,.T.);
#1029=ORIENTED_EDGE('',*,*,#702,.F.);
#1030=ORIENTED_EDGE('',*,*,#714,.F.);
#1031=ORIENTED_EDGE('',*,*,#710,.F.);
#1032=ORIENTED_EDGE('',*,*,#706,.F.);
#1033=ORIENTED_EDGE('',*,*,#608,.T.);
#1034=ORIENTED_EDGE('',*,*,#606,.T.);
#1035=CYLINDRICAL_SURFACE('',#1143,4.34999999999999);
#1036=CYLINDRICAL_SURFACE('',#1148,4.34999999999999);
#1037=CYLINDRICAL_SURFACE('',#1153,2.89999999999999);
#1038=CYLINDRICAL_SURFACE('',#1155,2.89999999999999);
#1039=CYLINDRICAL_SURFACE('',#1177,3.24999999999999);
#1040=CYLINDRICAL_SURFACE('',#1182,3.25);
#1041=CYLINDRICAL_SURFACE('',#1187,3.24999999999999);
#1042=CYLINDRICAL_SURFACE('',#1192,3.25);
#1043=CYLINDRICAL_SURFACE('',#1197,1.8);
#1044=CYLINDRICAL_SURFACE('',#1199,1.80000000000001);
#1045=CYLINDRICAL_SURFACE('',#1201,1.80000000000001);
#1046=CYLINDRICAL_SURFACE('',#1203,1.8);
#1047=CYLINDRICAL_SURFACE('',#1222,2.35);
#1048=CYLINDRICAL_SURFACE('',#1226,2.35);
#1049=CYLINDRICAL_SURFACE('',#1230,2.35);
#1050=CYLINDRICAL_SURFACE('',#1234,2.35);
#1051=CYLINDRICAL_SURFACE('',#1236,1.7);
#1052=CYLINDRICAL_SURFACE('',#1239,1.7);
#1053=CYLINDRICAL_SURFACE('',#1242,1.7);
#1054=CYLINDRICAL_SURFACE('',#1245,1.7);
#1055=CYLINDRICAL_SURFACE('',#1248,1.85);
#1056=CYLINDRICAL_SURFACE('',#1251,1.85);
#1057=CYLINDRICAL_SURFACE('',#1254,15.);
#1058=CYLINDRICAL_SURFACE('',#1257,15.);
#1059=CYLINDRICAL_SURFACE('',#1260,15.);
#1060=CYLINDRICAL_SURFACE('',#1263,15.);
#1061=ADVANCED_FACE('',(#93),#1035,.F.);
#1062=ADVANCED_FACE('',(#94,#19),#55,.T.);
#1063=ADVANCED_FACE('',(#95),#1036,.F.);
#1064=ADVANCED_FACE('',(#96,#20),#56,.T.);
#1065=ADVANCED_FACE('',(#97),#1037,.F.);
#1066=ADVANCED_FACE('',(#98),#1038,.F.);
#1067=ADVANCED_FACE('',(#99),#57,.F.);
#1068=ADVANCED_FACE('',(#100),#58,.F.);
#1069=ADVANCED_FACE('',(#101),#59,.F.);
#1070=ADVANCED_FACE('',(#102),#60,.F.);
#1071=ADVANCED_FACE('',(#103),#61,.F.);
#1072=ADVANCED_FACE('',(#104),#62,.F.);
#1073=ADVANCED_FACE('',(#105),#63,.F.);
#1074=ADVANCED_FACE('',(#106),#64,.F.);
#1075=ADVANCED_FACE('',(#107),#65,.F.);
#1076=ADVANCED_FACE('',(#108),#66,.F.);
#1077=ADVANCED_FACE('',(#109),#67,.F.);
#1078=ADVANCED_FACE('',(#110),#68,.F.);
#1079=ADVANCED_FACE('',(#111),#69,.F.);
#1080=ADVANCED_FACE('',(#112),#70,.F.);
#1081=ADVANCED_FACE('',(#113),#71,.F.);
#1082=ADVANCED_FACE('',(#114),#72,.F.);
#1083=ADVANCED_FACE('',(#115),#73,.F.);
#1084=ADVANCED_FACE('',(#116),#74,.F.);
#1085=ADVANCED_FACE('',(#117),#75,.F.);
#1086=ADVANCED_FACE('',(#118),#76,.F.);
#1087=ADVANCED_FACE('',(#119),#1039,.F.);
#1088=ADVANCED_FACE('',(#120,#21),#77,.T.);
#1089=ADVANCED_FACE('',(#121),#1040,.F.);
#1090=ADVANCED_FACE('',(#122,#22),#78,.T.);
#1091=ADVANCED_FACE('',(#123),#1041,.F.);
#1092=ADVANCED_FACE('',(#124,#23),#79,.T.);
#1093=ADVANCED_FACE('',(#125),#1042,.F.);
#1094=ADVANCED_FACE('',(#126,#24),#80,.T.);
#1095=ADVANCED_FACE('',(#127),#1043,.F.);
#1096=ADVANCED_FACE('',(#128),#1044,.F.);
#1097=ADVANCED_FACE('',(#129),#1045,.F.);
#1098=ADVANCED_FACE('',(#130),#1046,.F.);
#1099=ADVANCED_FACE('',(#131),#15,.F.);
#1100=ADVANCED_FACE('',(#132,#25,#26,#27,#28,#29,#30,#31,#32,#33,#34,#35,
#36,#37,#38,#39,#40,#41,#42,#43,#44),#81,.T.);
#1101=ADVANCED_FACE('',(#133),#1047,.F.);
#1102=ADVANCED_FACE('',(#134),#16,.F.);
#1103=ADVANCED_FACE('',(#135),#1048,.F.);
#1104=ADVANCED_FACE('',(#136),#17,.F.);
#1105=ADVANCED_FACE('',(#137),#1049,.F.);
#1106=ADVANCED_FACE('',(#138),#18,.F.);
#1107=ADVANCED_FACE('',(#139),#1050,.F.);
#1108=ADVANCED_FACE('',(#140),#1051,.F.);
#1109=ADVANCED_FACE('',(#141),#82,.T.);
#1110=ADVANCED_FACE('',(#142),#1052,.F.);
#1111=ADVANCED_FACE('',(#143),#83,.T.);
#1112=ADVANCED_FACE('',(#144),#1053,.F.);
#1113=ADVANCED_FACE('',(#145),#84,.T.);
#1114=ADVANCED_FACE('',(#146),#1054,.F.);
#1115=ADVANCED_FACE('',(#147),#85,.T.);
#1116=ADVANCED_FACE('',(#148),#1055,.F.);
#1117=ADVANCED_FACE('',(#149),#86,.T.);
#1118=ADVANCED_FACE('',(#150),#1056,.F.);
#1119=ADVANCED_FACE('',(#151),#87,.T.);
#1120=ADVANCED_FACE('',(#152),#1057,.T.);
#1121=ADVANCED_FACE('',(#153),#88,.T.);
#1122=ADVANCED_FACE('',(#154),#1058,.T.);
#1123=ADVANCED_FACE('',(#155),#89,.T.);
#1124=ADVANCED_FACE('',(#156),#1059,.T.);
#1125=ADVANCED_FACE('',(#157),#90,.T.);
#1126=ADVANCED_FACE('',(#158),#1060,.T.);
#1127=ADVANCED_FACE('',(#159),#91,.T.);
#1128=ADVANCED_FACE('',(#160,#45,#46,#47,#48,#49,#50,#51,#52,#53,#54),#92,
 .F.);
#1129=CLOSED_SHELL('',(#1061,#1062,#1063,#1064,#1065,#1066,#1067,#1068,
#1069,#1070,#1071,#1072,#1073,#1074,#1075,#1076,#1077,#1078,#1079,#1080,
#1081,#1082,#1083,#1084,#1085,#1086,#1087,#1088,#1089,#1090,#1091,#1092,
#1093,#1094,#1095,#1096,#1097,#1098,#1099,#1100,#1101,#1102,#1103,#1104,
#1105,#1106,#1107,#1108,#1109,#1110,#1111,#1112,#1113,#1114,#1115,#1116,
#1117,#1118,#1119,#1120,#1121,#1122,#1123,#1124,#1125,#1126,#1127,#1128));
#1130=DERIVED_UNIT_ELEMENT(#1132,1.);
#1131=DERIVED_UNIT_ELEMENT(#1923,-3.);
#1132=(
MASS_UNIT()
NAMED_UNIT(*)
SI_UNIT(.KILO.,.GRAM.)
);
#1133=DERIVED_UNIT((#1130,#1131));
#1134=MEASURE_REPRESENTATION_ITEM('density measure',
POSITIVE_RATIO_MEASURE(7850.),#1133);
#1135=PROPERTY_DEFINITION_REPRESENTATION(#1140,#1137);
#1136=PROPERTY_DEFINITION_REPRESENTATION(#1141,#1138);
#1137=REPRESENTATION('material name',(#1139),#1920);
#1138=REPRESENTATION('density',(#1134),#1920);
#1139=DESCRIPTIVE_REPRESENTATION_ITEM('Steel','Steel');
#1140=PROPERTY_DEFINITION('material property','material name',#1930);
#1141=PROPERTY_DEFINITION('material property','density of part',#1930);
#1142=AXIS2_PLACEMENT_3D('',#1607,#1267,#1268);
#1143=AXIS2_PLACEMENT_3D('',#1608,#1269,#1270);
#1144=AXIS2_PLACEMENT_3D('',#1610,#1271,#1272);
#1145=AXIS2_PLACEMENT_3D('',#1613,#1274,#1275);
#1146=AXIS2_PLACEMENT_3D('',#1614,#1276,#1277);
#1147=AXIS2_PLACEMENT_3D('',#1616,#1278,#1279);
#1148=AXIS2_PLACEMENT_3D('',#1617,#1280,#1281);
#1149=AXIS2_PLACEMENT_3D('',#1619,#1282,#1283);
#1150=AXIS2_PLACEMENT_3D('',#1622,#1285,#1286);
#1151=AXIS2_PLACEMENT_3D('',#1623,#1287,#1288);
#1152=AXIS2_PLACEMENT_3D('',#1625,#1289,#1290);
#1153=AXIS2_PLACEMENT_3D('',#1626,#1291,#1292);
#1154=AXIS2_PLACEMENT_3D('',#1629,#1294,#1295);
#1155=AXIS2_PLACEMENT_3D('',#1630,#1296,#1297);
#1156=AXIS2_PLACEMENT_3D('',#1633,#1299,#1300);
#1157=AXIS2_PLACEMENT_3D('',#1634,#1301,#1302);
#1158=AXIS2_PLACEMENT_3D('',#1643,#1307,#1308);
#1159=AXIS2_PLACEMENT_3D('',#1649,#1312,#1313);
#1160=AXIS2_PLACEMENT_3D('',#1655,#1317,#1318);
#1161=AXIS2_PLACEMENT_3D('',#1657,#1320,#1321);
#1162=AXIS2_PLACEMENT_3D('',#1659,#1323,#1324);
#1163=AXIS2_PLACEMENT_3D('',#1668,#1329,#1330);
#1164=AXIS2_PLACEMENT_3D('',#1674,#1334,#1335);
#1165=AXIS2_PLACEMENT_3D('',#1680,#1339,#1340);
#1166=AXIS2_PLACEMENT_3D('',#1682,#1342,#1343);
#1167=AXIS2_PLACEMENT_3D('',#1684,#1345,#1346);
#1168=AXIS2_PLACEMENT_3D('',#1693,#1351,#1352);
#1169=AXIS2_PLACEMENT_3D('',#1699,#1356,#1357);
#1170=AXIS2_PLACEMENT_3D('',#1705,#1361,#1362);
#1171=AXIS2_PLACEMENT_3D('',#1707,#1364,#1365);
#1172=AXIS2_PLACEMENT_3D('',#1709,#1367,#1368);
#1173=AXIS2_PLACEMENT_3D('',#1718,#1373,#1374);
#1174=AXIS2_PLACEMENT_3D('',#1724,#1378,#1379);
#1175=AXIS2_PLACEMENT_3D('',#1730,#1383,#1384);
#1176=AXIS2_PLACEMENT_3D('',#1732,#1386,#1387);
#1177=AXIS2_PLACEMENT_3D('',#1734,#1389,#1390);
#1178=AXIS2_PLACEMENT_3D('',#1736,#1391,#1392);
#1179=AXIS2_PLACEMENT_3D('',#1739,#1394,#1395);
#1180=AXIS2_PLACEMENT_3D('',#1740,#1396,#1397);
#1181=AXIS2_PLACEMENT_3D('',#1742,#1398,#1399);
#1182=AXIS2_PLACEMENT_3D('',#1743,#1400,#1401);
#1183=AXIS2_PLACEMENT_3D('',#1745,#1402,#1403);
#1184=AXIS2_PLACEMENT_3D('',#1748,#1405,#1406);
#1185=AXIS2_PLACEMENT_3D('',#1749,#1407,#1408);
#1186=AXIS2_PLACEMENT_3D('',#1751,#1409,#1410);
#1187=AXIS2_PLACEMENT_3D('',#1752,#1411,#1412);
#1188=AXIS2_PLACEMENT_3D('',#1754,#1413,#1414);
#1189=AXIS2_PLACEMENT_3D('',#1757,#1416,#1417);
#1190=AXIS2_PLACEMENT_3D('',#1758,#1418,#1419);
#1191=AXIS2_PLACEMENT_3D('',#1760,#1420,#1421);
#1192=AXIS2_PLACEMENT_3D('',#1761,#1422,#1423);
#1193=AXIS2_PLACEMENT_3D('',#1763,#1424,#1425);
#1194=AXIS2_PLACEMENT_3D('',#1766,#1427,#1428);
#1195=AXIS2_PLACEMENT_3D('',#1767,#1429,#1430);
#1196=AXIS2_PLACEMENT_3D('',#1769,#1431,#1432);
#1197=AXIS2_PLACEMENT_3D('',#1770,#1433,#1434);
#1198=AXIS2_PLACEMENT_3D('',#1773,#1436,#1437);
#1199=AXIS2_PLACEMENT_3D('',#1774,#1438,#1439);
#1200=AXIS2_PLACEMENT_3D('',#1777,#1441,#1442);
#1201=AXIS2_PLACEMENT_3D('',#1778,#1443,#1444);
#1202=AXIS2_PLACEMENT_3D('',#1781,#1446,#1447);
#1203=AXIS2_PLACEMENT_3D('',#1782,#1448,#1449);
#1204=AXIS2_PLACEMENT_3D('',#1785,#1451,#1452);
#1205=AXIS2_PLACEMENT_3D('',#1786,#1453,#1454);
#1206=AXIS2_PLACEMENT_3D('',#1788,#1455,#1456);
#1207=AXIS2_PLACEMENT_3D('',#1791,#1458,#1459);
#1208=AXIS2_PLACEMENT_3D('',#1792,#1460,#1461);
#1209=AXIS2_PLACEMENT_3D('',#1797,#1463,#1464);
#1210=AXIS2_PLACEMENT_3D('',#1801,#1466,#1467);
#1211=AXIS2_PLACEMENT_3D('',#1805,#1469,#1470);
#1212=AXIS2_PLACEMENT_3D('',#1808,#1472,#1473);
#1213=AXIS2_PLACEMENT_3D('',#1810,#1474,#1475);
#1214=AXIS2_PLACEMENT_3D('',#1812,#1476,#1477);
#1215=AXIS2_PLACEMENT_3D('',#1814,#1478,#1479);
#1216=AXIS2_PLACEMENT_3D('',#1816,#1480,#1481);
#1217=AXIS2_PLACEMENT_3D('',#1818,#1482,#1483);
#1218=AXIS2_PLACEMENT_3D('',#1820,#1484,#1485);
#1219=AXIS2_PLACEMENT_3D('',#1822,#1486,#1487);
#1220=AXIS2_PLACEMENT_3D('',#1824,#1488,#1489);
#1221=AXIS2_PLACEMENT_3D('',#1826,#1490,#1491);
#1222=AXIS2_PLACEMENT_3D('',#1827,#1492,#1493);
#1223=AXIS2_PLACEMENT_3D('',#1830,#1495,#1496);
#1224=AXIS2_PLACEMENT_3D('',#1831,#1497,#1498);
#1225=AXIS2_PLACEMENT_3D('',#1834,#1500,#1501);
#1226=AXIS2_PLACEMENT_3D('',#1835,#1502,#1503);
#1227=AXIS2_PLACEMENT_3D('',#1838,#1505,#1506);
#1228=AXIS2_PLACEMENT_3D('',#1839,#1507,#1508);
#1229=AXIS2_PLACEMENT_3D('',#1842,#1510,#1511);
#1230=AXIS2_PLACEMENT_3D('',#1843,#1512,#1513);
#1231=AXIS2_PLACEMENT_3D('',#1846,#1515,#1516);
#1232=AXIS2_PLACEMENT_3D('',#1847,#1517,#1518);
#1233=AXIS2_PLACEMENT_3D('',#1850,#1520,#1521);
#1234=AXIS2_PLACEMENT_3D('',#1851,#1522,#1523);
#1235=AXIS2_PLACEMENT_3D('',#1854,#1525,#1526);
#1236=AXIS2_PLACEMENT_3D('',#1855,#1527,#1528);
#1237=AXIS2_PLACEMENT_3D('',#1858,#1530,#1531);
#1238=AXIS2_PLACEMENT_3D('',#1859,#1532,#1533);
#1239=AXIS2_PLACEMENT_3D('',#1860,#1534,#1535);
#1240=AXIS2_PLACEMENT_3D('',#1863,#1537,#1538);
#1241=AXIS2_PLACEMENT_3D('',#1864,#1539,#1540);
#1242=AXIS2_PLACEMENT_3D('',#1865,#1541,#1542);
#1243=AXIS2_PLACEMENT_3D('',#1868,#1544,#1545);
#1244=AXIS2_PLACEMENT_3D('',#1869,#1546,#1547);
#1245=AXIS2_PLACEMENT_3D('',#1870,#1548,#1549);
#1246=AXIS2_PLACEMENT_3D('',#1873,#1551,#1552);
#1247=AXIS2_PLACEMENT_3D('',#1874,#1553,#1554);
#1248=AXIS2_PLACEMENT_3D('',#1875,#1555,#1556);
#1249=AXIS2_PLACEMENT_3D('',#1878,#1558,#1559);
#1250=AXIS2_PLACEMENT_3D('',#1879,#1560,#1561);
#1251=AXIS2_PLACEMENT_3D('',#1880,#1562,#1563);
#1252=AXIS2_PLACEMENT_3D('',#1883,#1565,#1566);
#1253=AXIS2_PLACEMENT_3D('',#1884,#1567,#1568);
#1254=AXIS2_PLACEMENT_3D('',#1885,#1569,#1570);
#1255=AXIS2_PLACEMENT_3D('',#1888,#1571,#1572);
#1256=AXIS2_PLACEMENT_3D('',#1891,#1575,#1576);
#1257=AXIS2_PLACEMENT_3D('',#1895,#1579,#1580);
#1258=AXIS2_PLACEMENT_3D('',#1897,#1581,#1582);
#1259=AXIS2_PLACEMENT_3D('',#1899,#1584,#1585);
#1260=AXIS2_PLACEMENT_3D('',#1903,#1588,#1589);
#1261=AXIS2_PLACEMENT_3D('',#1905,#1590,#1591);
#1262=AXIS2_PLACEMENT_3D('',#1907,#1593,#1594);
#1263=AXIS2_PLACEMENT_3D('',#1911,#1597,#1598);
#1264=AXIS2_PLACEMENT_3D('',#1913,#1599,#1600);
#1265=AXIS2_PLACEMENT_3D('',#1915,#1602,#1603);
#1266=AXIS2_PLACEMENT_3D('',#1917,#1605,#1606);
#1267=DIRECTION('axis',(0.,0.,1.));
#1268=DIRECTION('refdir',(1.,0.,0.));
#1269=DIRECTION('center_axis',(0.,0.,1.));
#1270=DIRECTION('ref_axis',(1.,0.,0.));
#1271=DIRECTION('center_axis',(0.,0.,1.));
#1272=DIRECTION('ref_axis',(1.,0.,0.));
#1273=DIRECTION('',(0.,0.,1.));
#1274=DIRECTION('center_axis',(0.,0.,1.));
#1275=DIRECTION('ref_axis',(1.,0.,0.));
#1276=DIRECTION('center_axis',(0.,0.,-1.));
#1277=DIRECTION('ref_axis',(1.,0.,0.));
#1278=DIRECTION('center_axis',(0.,0.,-1.));
#1279=DIRECTION('ref_axis',(1.,0.,0.));
#1280=DIRECTION('center_axis',(0.,0.,1.));
#1281=DIRECTION('ref_axis',(1.,0.,0.));
#1282=DIRECTION('center_axis',(0.,0.,1.));
#1283=DIRECTION('ref_axis',(1.,0.,0.));
#1284=DIRECTION('',(0.,0.,1.));
#1285=DIRECTION('center_axis',(0.,0.,1.));
#1286=DIRECTION('ref_axis',(1.,0.,0.));
#1287=DIRECTION('center_axis',(0.,0.,-1.));
#1288=DIRECTION('ref_axis',(1.,0.,0.));
#1289=DIRECTION('center_axis',(0.,0.,-1.));
#1290=DIRECTION('ref_axis',(1.,0.,0.));
#1291=DIRECTION('center_axis',(0.,0.,1.));
#1292=DIRECTION('ref_axis',(1.,0.,0.));
#1293=DIRECTION('',(0.,0.,1.));
#1294=DIRECTION('center_axis',(0.,0.,-1.));
#1295=DIRECTION('ref_axis',(1.,0.,0.));
#1296=DIRECTION('center_axis',(0.,0.,1.));
#1297=DIRECTION('ref_axis',(1.,0.,0.));
#1298=DIRECTION('',(0.,0.,1.));
#1299=DIRECTION('center_axis',(0.,0.,-1.));
#1300=DIRECTION('ref_axis',(1.,0.,0.));
#1301=DIRECTION('center_axis',(0.,0.,1.));
#1302=DIRECTION('ref_axis',(0.,-1.,0.));
#1303=DIRECTION('',(0.,1.,0.));
#1304=DIRECTION('',(1.,0.,0.));
#1305=DIRECTION('',(0.,-1.,0.));
#1306=DIRECTION('',(1.,0.,0.));
#1307=DIRECTION('center_axis',(0.,0.998752338877845,0.0499376169438914));
#1308=DIRECTION('ref_axis',(0.,-0.0499376169438914,0.998752338877845));
#1309=DIRECTION('',(0.,0.0499376169438914,-0.998752338877845));
#1310=DIRECTION('',(-1.,0.,0.));
#1311=DIRECTION('',(0.,-0.0499376169438914,0.998752338877845));
#1312=DIRECTION('center_axis',(0.,-0.998752338877845,0.0499376169438914));
#1313=DIRECTION('ref_axis',(0.,-0.0499376169438914,-0.998752338877845));
#1314=DIRECTION('',(0.,0.0499376169438914,0.998752338877845));
#1315=DIRECTION('',(0.,-0.0499376169438914,-0.998752338877845));
#1316=DIRECTION('',(1.,0.,0.));
#1317=DIRECTION('center_axis',(-1.,0.,0.));
#1318=DIRECTION('ref_axis',(0.,-1.,0.));
#1319=DIRECTION('',(0.,-1.,0.));
#1320=DIRECTION('center_axis',(1.,0.,0.));
#1321=DIRECTION('ref_axis',(0.,0.,-1.));
#1322=DIRECTION('',(0.,1.,0.));
#1323=DIRECTION('center_axis',(0.,-0.998752338877845,0.0499376169438914));
#1324=DIRECTION('ref_axis',(0.,-0.0499376169438914,-0.998752338877845));
#1325=DIRECTION('',(0.,-0.0499376169438914,-0.998752338877845));
#1326=DIRECTION('',(1.,0.,0.));
#1327=DIRECTION('',(0.,-0.0499376169438914,-0.998752338877845));
#1328=DIRECTION('',(1.,0.,0.));
#1329=DIRECTION('center_axis',(0.,0.,1.));
#1330=DIRECTION('ref_axis',(0.,-1.,0.));
#1331=DIRECTION('',(0.,-1.,0.));
#1332=DIRECTION('',(1.,0.,0.));
#1333=DIRECTION('',(0.,-1.,0.));
#1334=DIRECTION('center_axis',(0.,0.998752338877845,0.0499376169438914));
#1335=DIRECTION('ref_axis',(0.,-0.0499376169438914,0.998752338877845));
#1336=DIRECTION('',(0.,-0.0499376169438914,0.998752338877845));
#1337=DIRECTION('',(-1.,0.,0.));
#1338=DIRECTION('',(0.,-0.0499376169438914,0.998752338877845));
#1339=DIRECTION('center_axis',(-1.,0.,0.));
#1340=DIRECTION('ref_axis',(0.,-1.,0.));
#1341=DIRECTION('',(0.,-1.,0.));
#1342=DIRECTION('center_axis',(1.,0.,0.));
#1343=DIRECTION('ref_axis',(0.,0.,-1.));
#1344=DIRECTION('',(0.,1.,0.));
#1345=DIRECTION('center_axis',(1.61486985400024E-14,0.,1.));
#1346=DIRECTION('ref_axis',(1.,0.,-1.61486985400024E-14));
#1347=DIRECTION('',(1.,0.,-1.61486985400024E-14));
#1348=DIRECTION('',(0.,1.,0.));
#1349=DIRECTION('',(1.,0.,-1.61486985400024E-14));
#1350=DIRECTION('',(0.,1.,0.));
#1351=DIRECTION('center_axis',(-0.998752338877843,0.,0.0499376169439259));
#1352=DIRECTION('ref_axis',(0.0499376169439259,0.,0.998752338877843));
#1353=DIRECTION('',(0.0499376169439259,0.,0.998752338877843));
#1354=DIRECTION('',(0.,-1.,0.));
#1355=DIRECTION('',(0.0499376169439259,0.,0.998752338877843));
#1356=DIRECTION('center_axis',(0.998752338877846,0.,0.0499376169438745));
#1357=DIRECTION('ref_axis',(0.0499376169438745,0.,-0.998752338877846));
#1358=DIRECTION('',(-0.0499376169438745,0.,0.998752338877846));
#1359=DIRECTION('',(0.0499376169438745,0.,-0.998752338877846));
#1360=DIRECTION('',(0.,1.,0.));
#1361=DIRECTION('center_axis',(0.,-1.,0.));
#1362=DIRECTION('ref_axis',(-1.,0.,0.));
#1363=DIRECTION('',(1.,0.,0.));
#1364=DIRECTION('center_axis',(0.,1.,0.));
#1365=DIRECTION('ref_axis',(0.,0.,1.));
#1366=DIRECTION('',(-1.,0.,0.));
#1367=DIRECTION('center_axis',(0.998752338877845,0.,0.0499376169438914));
#1368=DIRECTION('ref_axis',(0.0499376169438914,0.,-0.998752338877845));
#1369=DIRECTION('',(-0.0499376169438914,0.,0.998752338877845));
#1370=DIRECTION('',(0.,1.,0.));
#1371=DIRECTION('',(0.0499376169438914,0.,-0.998752338877845));
#1372=DIRECTION('',(0.,1.,0.));
#1373=DIRECTION('center_axis',(0.,0.,1.));
#1374=DIRECTION('ref_axis',(1.,0.,0.));
#1375=DIRECTION('',(1.,0.,0.));
#1376=DIRECTION('',(0.,1.,0.));
#1377=DIRECTION('',(1.,0.,0.));
#1378=DIRECTION('center_axis',(-0.998752338877845,0.,0.0499376169438914));
#1379=DIRECTION('ref_axis',(0.0499376169438914,0.,0.998752338877845));
#1380=DIRECTION('',(0.0499376169438914,0.,0.998752338877845));
#1381=DIRECTION('',(0.,-1.,0.));
#1382=DIRECTION('',(0.0499376169438914,0.,0.998752338877845));
#1383=DIRECTION('center_axis',(0.,-1.,0.));
#1384=DIRECTION('ref_axis',(-1.,0.,0.));
#1385=DIRECTION('',(1.,0.,0.));
#1386=DIRECTION('center_axis',(0.,1.,0.));
#1387=DIRECTION('ref_axis',(0.,0.,1.));
#1388=DIRECTION('',(-1.,0.,0.));
#1389=DIRECTION('center_axis',(0.,0.,-1.));
#1390=DIRECTION('ref_axis',(-1.,0.,0.));
#1391=DIRECTION('center_axis',(0.,0.,-1.));
#1392=DIRECTION('ref_axis',(-1.,0.,0.));
#1393=DIRECTION('',(0.,0.,-1.));
#1394=DIRECTION('center_axis',(0.,0.,-1.));
#1395=DIRECTION('ref_axis',(-1.,0.,0.));
#1396=DIRECTION('center_axis',(0.,0.,1.));
#1397=DIRECTION('ref_axis',(-1.,0.,0.));
#1398=DIRECTION('center_axis',(0.,0.,1.));
#1399=DIRECTION('ref_axis',(-1.,0.,0.));
#1400=DIRECTION('center_axis',(0.,0.,-1.));
#1401=DIRECTION('ref_axis',(-1.,0.,0.));
#1402=DIRECTION('center_axis',(0.,0.,-1.));
#1403=DIRECTION('ref_axis',(-1.,0.,0.));
#1404=DIRECTION('',(0.,0.,-1.));
#1405=DIRECTION('center_axis',(0.,0.,-1.));
#1406=DIRECTION('ref_axis',(-1.,0.,0.));
#1407=DIRECTION('center_axis',(0.,0.,1.));
#1408=DIRECTION('ref_axis',(-1.,0.,0.));
#1409=DIRECTION('center_axis',(0.,0.,1.));
#1410=DIRECTION('ref_axis',(-1.,0.,0.));
#1411=DIRECTION('center_axis',(0.,0.,-1.));
#1412=DIRECTION('ref_axis',(-1.,0.,0.));
#1413=DIRECTION('center_axis',(0.,0.,-1.));
#1414=DIRECTION('ref_axis',(-1.,0.,0.));
#1415=DIRECTION('',(0.,0.,-1.));
#1416=DIRECTION('center_axis',(0.,0.,-1.));
#1417=DIRECTION('ref_axis',(-1.,0.,0.));
#1418=DIRECTION('center_axis',(0.,0.,1.));
#1419=DIRECTION('ref_axis',(-1.,0.,0.));
#1420=DIRECTION('center_axis',(0.,0.,1.));
#1421=DIRECTION('ref_axis',(-1.,0.,0.));
#1422=DIRECTION('center_axis',(0.,0.,-1.));
#1423=DIRECTION('ref_axis',(-1.,0.,0.));
#1424=DIRECTION('center_axis',(0.,0.,-1.));
#1425=DIRECTION('ref_axis',(-1.,0.,0.));
#1426=DIRECTION('',(0.,0.,-1.));
#1427=DIRECTION('center_axis',(0.,0.,-1.));
#1428=DIRECTION('ref_axis',(-1.,0.,0.));
#1429=DIRECTION('center_axis',(0.,0.,1.));
#1430=DIRECTION('ref_axis',(-1.,0.,0.));
#1431=DIRECTION('center_axis',(0.,0.,1.));
#1432=DIRECTION('ref_axis',(-1.,0.,0.));
#1433=DIRECTION('center_axis',(0.,0.,-1.));
#1434=DIRECTION('ref_axis',(-1.,0.,0.));
#1435=DIRECTION('',(0.,0.,-1.));
#1436=DIRECTION('center_axis',(0.,0.,1.));
#1437=DIRECTION('ref_axis',(-1.,0.,0.));
#1438=DIRECTION('center_axis',(0.,0.,-1.));
#1439=DIRECTION('ref_axis',(-1.,0.,0.));
#1440=DIRECTION('',(0.,0.,-1.));
#1441=DIRECTION('center_axis',(0.,0.,1.));
#1442=DIRECTION('ref_axis',(-1.,0.,0.));
#1443=DIRECTION('center_axis',(0.,0.,-1.));
#1444=DIRECTION('ref_axis',(-1.,0.,0.));
#1445=DIRECTION('',(0.,0.,-1.));
#1446=DIRECTION('center_axis',(0.,0.,1.));
#1447=DIRECTION('ref_axis',(-1.,0.,0.));
#1448=DIRECTION('center_axis',(0.,0.,-1.));
#1449=DIRECTION('ref_axis',(-1.,0.,0.));
#1450=DIRECTION('',(0.,0.,-1.));
#1451=DIRECTION('center_axis',(0.,0.,1.));
#1452=DIRECTION('ref_axis',(-1.,0.,0.));
#1453=DIRECTION('center_axis',(0.,0.,-1.));
#1454=DIRECTION('ref_axis',(1.,0.,0.));
#1455=DIRECTION('center_axis',(0.,0.,-1.));
#1456=DIRECTION('ref_axis',(1.,0.,0.));
#1457=DIRECTION('',(0.707106781186555,-8.65956056235503E-17,0.70710678118654));
#1458=DIRECTION('center_axis',(0.,0.,1.));
#1459=DIRECTION('ref_axis',(1.,0.,0.));
#1460=DIRECTION('center_axis',(0.,0.,-1.));
#1461=DIRECTION('ref_axis',(1.,0.,0.));
#1462=DIRECTION('',(1.,4.55476112666731E-17,0.));
#1463=DIRECTION('center_axis',(0.,0.,-1.));
#1464=DIRECTION('ref_axis',(0.,1.,0.));
#1465=DIRECTION('',(0.,-1.,0.));
#1466=DIRECTION('center_axis',(0.,0.,-1.));
#1467=DIRECTION('ref_axis',(1.,2.96059473233375E-16,0.));
#1468=DIRECTION('',(-1.,0.,0.));
#1469=DIRECTION('center_axis',(0.,0.,-1.));
#1470=DIRECTION('ref_axis',(0.,-1.,0.));
#1471=DIRECTION('',(0.,1.,0.));
#1472=DIRECTION('center_axis',(0.,0.,-1.));
#1473=DIRECTION('ref_axis',(-1.,0.,0.));
#1474=DIRECTION('center_axis',(0.,0.,-1.));
#1475=DIRECTION('ref_axis',(1.,0.,0.));
#1476=DIRECTION('center_axis',(0.,0.,1.));
#1477=DIRECTION('ref_axis',(1.,0.,0.));
#1478=DIRECTION('center_axis',(0.,0.,1.));
#1479=DIRECTION('ref_axis',(1.,0.,0.));
#1480=DIRECTION('center_axis',(0.,0.,1.));
#1481=DIRECTION('ref_axis',(1.,0.,0.));
#1482=DIRECTION('center_axis',(0.,0.,1.));
#1483=DIRECTION('ref_axis',(1.,0.,0.));
#1484=DIRECTION('center_axis',(0.,0.,1.));
#1485=DIRECTION('ref_axis',(1.,0.,0.));
#1486=DIRECTION('center_axis',(0.,0.,1.));
#1487=DIRECTION('ref_axis',(1.,0.,0.));
#1488=DIRECTION('center_axis',(0.,0.,-1.));
#1489=DIRECTION('ref_axis',(1.,0.,0.));
#1490=DIRECTION('center_axis',(0.,0.,-1.));
#1491=DIRECTION('ref_axis',(1.,0.,0.));
#1492=DIRECTION('center_axis',(0.,0.,-1.));
#1493=DIRECTION('ref_axis',(1.,0.,0.));
#1494=DIRECTION('',(0.,0.,1.));
#1495=DIRECTION('center_axis',(0.,0.,1.));
#1496=DIRECTION('ref_axis',(1.,0.,0.));
#1497=DIRECTION('center_axis',(0.,0.,-1.));
#1498=DIRECTION('ref_axis',(1.,0.,0.));
#1499=DIRECTION('',(0.707106781186555,-8.65956056235503E-17,0.70710678118654));
#1500=DIRECTION('center_axis',(0.,0.,1.));
#1501=DIRECTION('ref_axis',(1.,0.,0.));
#1502=DIRECTION('center_axis',(0.,0.,-1.));
#1503=DIRECTION('ref_axis',(1.,0.,0.));
#1504=DIRECTION('',(0.,0.,1.));
#1505=DIRECTION('center_axis',(0.,0.,1.));
#1506=DIRECTION('ref_axis',(1.,0.,0.));
#1507=DIRECTION('center_axis',(0.,0.,-1.));
#1508=DIRECTION('ref_axis',(1.,0.,0.));
#1509=DIRECTION('',(0.707106781186555,-8.65956056235503E-17,0.70710678118654));
#1510=DIRECTION('center_axis',(0.,0.,1.));
#1511=DIRECTION('ref_axis',(1.,0.,0.));
#1512=DIRECTION('center_axis',(0.,0.,-1.));
#1513=DIRECTION('ref_axis',(1.,0.,0.));
#1514=DIRECTION('',(0.,0.,1.));
#1515=DIRECTION('center_axis',(0.,0.,1.));
#1516=DIRECTION('ref_axis',(1.,0.,0.));
#1517=DIRECTION('center_axis',(0.,0.,-1.));
#1518=DIRECTION('ref_axis',(1.,0.,0.));
#1519=DIRECTION('',(0.707106781186555,-8.65956056235503E-17,0.70710678118654));
#1520=DIRECTION('center_axis',(0.,0.,1.));
#1521=DIRECTION('ref_axis',(1.,0.,0.));
#1522=DIRECTION('center_axis',(0.,0.,-1.));
#1523=DIRECTION('ref_axis',(1.,0.,0.));
#1524=DIRECTION('',(0.,0.,1.));
#1525=DIRECTION('center_axis',(0.,0.,1.));
#1526=DIRECTION('ref_axis',(1.,0.,0.));
#1527=DIRECTION('center_axis',(0.,0.,1.));
#1528=DIRECTION('ref_axis',(1.,0.,0.));
#1529=DIRECTION('',(0.,0.,1.));
#1530=DIRECTION('center_axis',(0.,0.,1.));
#1531=DIRECTION('ref_axis',(1.,0.,0.));
#1532=DIRECTION('center_axis',(0.,0.,-1.));
#1533=DIRECTION('ref_axis',(1.,0.,0.));
#1534=DIRECTION('center_axis',(0.,0.,1.));
#1535=DIRECTION('ref_axis',(1.,0.,0.));
#1536=DIRECTION('',(0.,0.,1.));
#1537=DIRECTION('center_axis',(0.,0.,1.));
#1538=DIRECTION('ref_axis',(1.,0.,0.));
#1539=DIRECTION('center_axis',(0.,0.,-1.));
#1540=DIRECTION('ref_axis',(1.,0.,0.));
#1541=DIRECTION('center_axis',(0.,0.,1.));
#1542=DIRECTION('ref_axis',(1.,0.,0.));
#1543=DIRECTION('',(0.,0.,1.));
#1544=DIRECTION('center_axis',(0.,0.,1.));
#1545=DIRECTION('ref_axis',(1.,0.,0.));
#1546=DIRECTION('center_axis',(0.,0.,-1.));
#1547=DIRECTION('ref_axis',(1.,0.,0.));
#1548=DIRECTION('center_axis',(0.,0.,1.));
#1549=DIRECTION('ref_axis',(1.,0.,0.));
#1550=DIRECTION('',(0.,0.,1.));
#1551=DIRECTION('center_axis',(0.,0.,1.));
#1552=DIRECTION('ref_axis',(1.,0.,0.));
#1553=DIRECTION('center_axis',(0.,0.,-1.));
#1554=DIRECTION('ref_axis',(1.,0.,0.));
#1555=DIRECTION('center_axis',(0.,0.,1.));
#1556=DIRECTION('ref_axis',(1.,0.,0.));
#1557=DIRECTION('',(0.,0.,1.));
#1558=DIRECTION('center_axis',(0.,0.,1.));
#1559=DIRECTION('ref_axis',(1.,0.,0.));
#1560=DIRECTION('center_axis',(0.,0.,-1.));
#1561=DIRECTION('ref_axis',(1.,0.,0.));
#1562=DIRECTION('center_axis',(0.,0.,1.));
#1563=DIRECTION('ref_axis',(1.,0.,0.));
#1564=DIRECTION('',(0.,0.,1.));
#1565=DIRECTION('center_axis',(0.,0.,1.));
#1566=DIRECTION('ref_axis',(1.,0.,0.));
#1567=DIRECTION('center_axis',(0.,0.,-1.));
#1568=DIRECTION('ref_axis',(1.,0.,0.));
#1569=DIRECTION('center_axis',(0.,0.,-1.));
#1570=DIRECTION('ref_axis',(-1.,0.,0.));
#1571=DIRECTION('center_axis',(0.,0.,-1.));
#1572=DIRECTION('ref_axis',(-1.,0.,0.));
#1573=DIRECTION('',(0.,0.,-1.));
#1574=DIRECTION('',(0.,0.,-1.));
#1575=DIRECTION('center_axis',(-1.,0.,0.));
#1576=DIRECTION('ref_axis',(0.,1.,0.));
#1577=DIRECTION('',(0.,-1.,0.));
#1578=DIRECTION('',(0.,0.,-1.));
#1579=DIRECTION('center_axis',(0.,0.,-1.));
#1580=DIRECTION('ref_axis',(0.,-1.,0.));
#1581=DIRECTION('center_axis',(0.,0.,-1.));
#1582=DIRECTION('ref_axis',(0.,-1.,0.));
#1583=DIRECTION('',(0.,0.,-1.));
#1584=DIRECTION('center_axis',(0.,-1.,0.));
#1585=DIRECTION('ref_axis',(-1.,0.,0.));
#1586=DIRECTION('',(1.,0.,0.));
#1587=DIRECTION('',(0.,0.,-1.));
#1588=DIRECTION('center_axis',(0.,0.,-1.));
#1589=DIRECTION('ref_axis',(1.,2.96059473233375E-16,0.));
#1590=DIRECTION('center_axis',(0.,0.,-1.));
#1591=DIRECTION('ref_axis',(1.,2.96059473233375E-16,0.));
#1592=DIRECTION('',(0.,0.,-1.));
#1593=DIRECTION('center_axis',(1.,0.,0.));
#1594=DIRECTION('ref_axis',(0.,-1.,0.));
#1595=DIRECTION('',(0.,1.,0.));
#1596=DIRECTION('',(0.,0.,-1.));
#1597=DIRECTION('center_axis',(0.,0.,-1.));
#1598=DIRECTION('ref_axis',(0.,1.,0.));
#1599=DIRECTION('center_axis',(0.,0.,-1.));
#1600=DIRECTION('ref_axis',(0.,1.,0.));
#1601=DIRECTION('',(0.,0.,-1.));
#1602=DIRECTION('center_axis',(-4.55476112666731E-17,1.,0.));
#1603=DIRECTION('ref_axis',(1.,4.55476112666731E-17,0.));
#1604=DIRECTION('',(-1.,-4.55476112666731E-17,0.));
#1605=DIRECTION('center_axis',(0.,0.,-1.));
#1606=DIRECTION('ref_axis',(1.,0.,0.));
#1607=CARTESIAN_POINT('',(0.,0.,0.));
#1608=CARTESIAN_POINT('Origin',(163.782937548563,47.8390159995411,95.));
#1609=CARTESIAN_POINT('',(159.432937548563,47.8390159995411,95.));
#1610=CARTESIAN_POINT('Origin',(163.782937548563,47.8390159995411,95.));
#1611=CARTESIAN_POINT('',(159.432937548563,47.8390159995411,99.9));
#1612=CARTESIAN_POINT('',(159.432937548563,47.8390159995411,95.));
#1613=CARTESIAN_POINT('Origin',(163.782937548563,47.8390159995411,99.9));
#1614=CARTESIAN_POINT('Origin',(163.782937548563,47.8390159995411,99.9));
#1615=CARTESIAN_POINT('',(160.882937548563,47.8390159995411,99.9));
#1616=CARTESIAN_POINT('Origin',(163.782937548563,47.8390159995411,99.9));
#1617=CARTESIAN_POINT('Origin',(164.,-42.1609840004589,95.));
#1618=CARTESIAN_POINT('',(159.65,-42.1609840004589,95.));
#1619=CARTESIAN_POINT('Origin',(164.,-42.1609840004589,95.));
#1620=CARTESIAN_POINT('',(159.65,-42.1609840004589,99.9));
#1621=CARTESIAN_POINT('',(159.65,-42.1609840004589,95.));
#1622=CARTESIAN_POINT('Origin',(164.,-42.1609840004589,99.9));
#1623=CARTESIAN_POINT('Origin',(164.,-42.1609840004589,99.9));
#1624=CARTESIAN_POINT('',(161.1,-42.1609840004589,99.9));
#1625=CARTESIAN_POINT('Origin',(164.,-42.1609840004589,99.9));
#1626=CARTESIAN_POINT('Origin',(163.782937548563,47.8390159995411,95.));
#1627=CARTESIAN_POINT('',(160.882937548563,47.8390159995411,105.));
#1628=CARTESIAN_POINT('',(160.882937548563,47.8390159995411,95.));
#1629=CARTESIAN_POINT('Origin',(163.782937548563,47.8390159995411,105.));
#1630=CARTESIAN_POINT('Origin',(164.,-42.1609840004589,95.));
#1631=CARTESIAN_POINT('',(161.1,-42.1609840004589,105.));
#1632=CARTESIAN_POINT('',(161.1,-42.1609840004589,95.));
#1633=CARTESIAN_POINT('Origin',(164.,-42.1609840004589,105.));
#1634=CARTESIAN_POINT('Origin',(-38.5,54.2999999999999,97.));
#1635=CARTESIAN_POINT('',(-38.5,52.0999999999999,97.));
#1636=CARTESIAN_POINT('',(-38.5,54.2999999999999,97.));
#1637=CARTESIAN_POINT('',(-38.5,52.0999999999999,97.));
#1638=CARTESIAN_POINT('',(110.5,54.2999999999999,97.));
#1639=CARTESIAN_POINT('',(-38.5,54.2999999999999,97.));
#1640=CARTESIAN_POINT('',(110.5,52.0999999999999,97.));
#1641=CARTESIAN_POINT('',(110.5,52.0999999999999,97.));
#1642=CARTESIAN_POINT('',(-38.5,52.0999999999999,97.));
#1643=CARTESIAN_POINT('Origin',(-38.5,54.3999999999999,95.));
#1644=CARTESIAN_POINT('',(-38.5,54.3999999999999,95.));
#1645=CARTESIAN_POINT('',(-38.5,54.2999999999999,97.));
#1646=CARTESIAN_POINT('',(110.5,54.3999999999999,95.));
#1647=CARTESIAN_POINT('',(11.25,54.3999999999999,95.));
#1648=CARTESIAN_POINT('',(110.5,54.2999999999999,97.));
#1649=CARTESIAN_POINT('Origin',(-38.5,52.0999999999999,97.));
#1650=CARTESIAN_POINT('',(-38.5,51.9999999999999,95.));
#1651=CARTESIAN_POINT('',(-38.5,51.9999999999999,95.));
#1652=CARTESIAN_POINT('',(110.5,51.9999999999999,95.));
#1653=CARTESIAN_POINT('',(110.5,51.9999999999999,95.));
#1654=CARTESIAN_POINT('',(11.25,51.9999999999999,95.));
#1655=CARTESIAN_POINT('Origin',(-38.5,53.1999999999999,96.));
#1656=CARTESIAN_POINT('',(-38.5,28.0249999999999,95.));
#1657=CARTESIAN_POINT('Origin',(110.5,53.1999999999999,96.));
#1658=CARTESIAN_POINT('',(110.5,28.0249999999999,95.));
#1659=CARTESIAN_POINT('Origin',(-38.5,-48.6000000000001,97.));
#1660=CARTESIAN_POINT('',(-38.5,-48.6000000000001,97.));
#1661=CARTESIAN_POINT('',(-38.5,-48.7000000000001,95.));
#1662=CARTESIAN_POINT('',(-38.5,-48.6000000000001,97.));
#1663=CARTESIAN_POINT('',(110.5,-48.6000000000001,97.));
#1664=CARTESIAN_POINT('',(-38.5,-48.6000000000001,97.));
#1665=CARTESIAN_POINT('',(110.5,-48.7000000000001,95.));
#1666=CARTESIAN_POINT('',(110.5,-48.6000000000001,97.));
#1667=CARTESIAN_POINT('',(11.25,-48.7000000000001,95.));
#1668=CARTESIAN_POINT('Origin',(-38.5,-46.4000000000001,97.));
#1669=CARTESIAN_POINT('',(-38.5,-46.4000000000001,97.));
#1670=CARTESIAN_POINT('',(-38.5,-46.4000000000001,97.));
#1671=CARTESIAN_POINT('',(110.5,-46.4000000000001,97.));
#1672=CARTESIAN_POINT('',(-38.5,-46.4000000000001,97.));
#1673=CARTESIAN_POINT('',(110.5,-46.4000000000001,97.));
#1674=CARTESIAN_POINT('Origin',(-38.5,-46.3000000000001,95.));
#1675=CARTESIAN_POINT('',(-38.5,-46.3000000000001,95.));
#1676=CARTESIAN_POINT('',(-38.5,-46.3000000000001,95.));
#1677=CARTESIAN_POINT('',(110.5,-46.3000000000001,95.));
#1678=CARTESIAN_POINT('',(11.25,-46.3000000000001,95.));
#1679=CARTESIAN_POINT('',(110.5,-46.3000000000001,95.));
#1680=CARTESIAN_POINT('Origin',(-38.5,-47.5000000000001,96.));
#1681=CARTESIAN_POINT('',(-38.5,-22.3250000000001,95.));
#1682=CARTESIAN_POINT('Origin',(110.5,-47.5000000000001,96.));
#1683=CARTESIAN_POINT('',(110.5,-22.3250000000001,95.));
#1684=CARTESIAN_POINT('Origin',(118.4,-38.5000000000001,97.));
#1685=CARTESIAN_POINT('',(118.4,-38.5000000000001,97.));
#1686=CARTESIAN_POINT('',(120.6,-38.5000000000001,97.));
#1687=CARTESIAN_POINT('',(118.4,-38.5000000000001,97.));
#1688=CARTESIAN_POINT('',(118.4,44.1999999999999,97.));
#1689=CARTESIAN_POINT('',(118.4,-38.5000000000001,97.));
#1690=CARTESIAN_POINT('',(120.6,44.1999999999999,97.));
#1691=CARTESIAN_POINT('',(118.4,44.1999999999999,97.));
#1692=CARTESIAN_POINT('',(120.6,-38.5000000000001,97.));
#1693=CARTESIAN_POINT('Origin',(118.3,-38.5000000000001,95.));
#1694=CARTESIAN_POINT('',(118.3,-38.5000000000001,95.));
#1695=CARTESIAN_POINT('',(118.3,-38.5000000000001,95.));
#1696=CARTESIAN_POINT('',(118.3,44.1999999999999,95.));
#1697=CARTESIAN_POINT('',(118.3,-17.8250000000001,95.));
#1698=CARTESIAN_POINT('',(118.3,44.1999999999999,95.));
#1699=CARTESIAN_POINT('Origin',(120.6,-38.5000000000001,97.));
#1700=CARTESIAN_POINT('',(120.7,-38.5000000000001,95.));
#1701=CARTESIAN_POINT('',(120.7,-38.5000000000001,95.));
#1702=CARTESIAN_POINT('',(120.7,44.1999999999999,95.));
#1703=CARTESIAN_POINT('',(120.7,44.1999999999999,95.));
#1704=CARTESIAN_POINT('',(120.7,-17.8250000000001,95.));
#1705=CARTESIAN_POINT('Origin',(119.5,-38.5000000000001,96.));
#1706=CARTESIAN_POINT('',(90.25,-38.5000000000001,95.));
#1707=CARTESIAN_POINT('Origin',(119.5,44.1999999999999,96.));
#1708=CARTESIAN_POINT('',(90.25,44.1999999999999,95.));
#1709=CARTESIAN_POINT('Origin',(-46.4,-38.5000000000001,97.));
#1710=CARTESIAN_POINT('',(-46.3,-38.5000000000001,95.));
#1711=CARTESIAN_POINT('',(-46.4,-38.5000000000001,97.));
#1712=CARTESIAN_POINT('',(-46.3,-38.5000000000001,95.));
#1713=CARTESIAN_POINT('',(-46.4,44.1999999999999,97.));
#1714=CARTESIAN_POINT('',(-46.4,-38.5000000000001,97.));
#1715=CARTESIAN_POINT('',(-46.3,44.1999999999999,95.));
#1716=CARTESIAN_POINT('',(-46.3,44.1999999999999,95.));
#1717=CARTESIAN_POINT('',(-46.3,-17.8250000000001,95.));
#1718=CARTESIAN_POINT('Origin',(-48.6,-38.5000000000001,97.));
#1719=CARTESIAN_POINT('',(-48.6,-38.5000000000001,97.));
#1720=CARTESIAN_POINT('',(-48.6,-38.5000000000001,97.));
#1721=CARTESIAN_POINT('',(-48.6,44.1999999999999,97.));
#1722=CARTESIAN_POINT('',(-48.6,-38.5000000000001,97.));
#1723=CARTESIAN_POINT('',(-48.6,44.1999999999999,97.));
#1724=CARTESIAN_POINT('Origin',(-48.7,-38.5000000000001,95.));
#1725=CARTESIAN_POINT('',(-48.7,-38.5000000000001,95.));
#1726=CARTESIAN_POINT('',(-48.7,-38.5000000000001,95.));
#1727=CARTESIAN_POINT('',(-48.7,44.1999999999999,95.));
#1728=CARTESIAN_POINT('',(-48.7,-17.8250000000001,95.));
#1729=CARTESIAN_POINT('',(-48.7,44.1999999999999,95.));
#1730=CARTESIAN_POINT('Origin',(-47.5,-38.5000000000001,96.));
#1731=CARTESIAN_POINT('',(6.75000000000002,-38.5000000000001,95.));
#1732=CARTESIAN_POINT('Origin',(-47.5,44.1999999999999,96.));
#1733=CARTESIAN_POINT('',(6.75000000000002,44.1999999999999,95.));
#1734=CARTESIAN_POINT('Origin',(115.,-43.5000000000001,105.));
#1735=CARTESIAN_POINT('',(118.25,-43.5000000000001,105.));
#1736=CARTESIAN_POINT('Origin',(115.,-43.5000000000001,105.));
#1737=CARTESIAN_POINT('',(118.25,-43.5000000000001,101.6));
#1738=CARTESIAN_POINT('',(118.25,-43.5000000000001,105.));
#1739=CARTESIAN_POINT('Origin',(115.,-43.5000000000001,101.6));
#1740=CARTESIAN_POINT('Origin',(115.,-43.5000000000001,101.6));
#1741=CARTESIAN_POINT('',(116.8,-43.5000000000001,101.6));
#1742=CARTESIAN_POINT('Origin',(115.,-43.5000000000001,101.6));
#1743=CARTESIAN_POINT('Origin',(-43.,-43.5000000000001,105.));
#1744=CARTESIAN_POINT('',(-39.75,-43.5000000000001,105.));
#1745=CARTESIAN_POINT('Origin',(-43.,-43.5000000000001,105.));
#1746=CARTESIAN_POINT('',(-39.75,-43.5000000000001,101.6));
#1747=CARTESIAN_POINT('',(-39.75,-43.5000000000001,105.));
#1748=CARTESIAN_POINT('Origin',(-43.,-43.5000000000001,101.6));
#1749=CARTESIAN_POINT('Origin',(-43.,-43.5000000000001,101.6));
#1750=CARTESIAN_POINT('',(-41.2,-43.5000000000001,101.6));
#1751=CARTESIAN_POINT('Origin',(-43.,-43.5000000000001,101.6));
#1752=CARTESIAN_POINT('Origin',(115.,49.1999999999999,105.));
#1753=CARTESIAN_POINT('',(118.25,49.1999999999999,105.));
#1754=CARTESIAN_POINT('Origin',(115.,49.1999999999999,105.));
#1755=CARTESIAN_POINT('',(118.25,49.1999999999999,101.6));
#1756=CARTESIAN_POINT('',(118.25,49.1999999999999,105.));
#1757=CARTESIAN_POINT('Origin',(115.,49.1999999999999,101.6));
#1758=CARTESIAN_POINT('Origin',(115.,49.1999999999999,101.6));
#1759=CARTESIAN_POINT('',(116.8,49.1999999999999,101.6));
#1760=CARTESIAN_POINT('Origin',(115.,49.1999999999999,101.6));
#1761=CARTESIAN_POINT('Origin',(-43.,49.1999999999999,105.));
#1762=CARTESIAN_POINT('',(-39.75,49.1999999999999,105.));
#1763=CARTESIAN_POINT('Origin',(-43.,49.1999999999999,105.));
#1764=CARTESIAN_POINT('',(-39.75,49.1999999999999,101.6));
#1765=CARTESIAN_POINT('',(-39.75,49.1999999999999,105.));
#1766=CARTESIAN_POINT('Origin',(-43.,49.1999999999999,101.6));
#1767=CARTESIAN_POINT('Origin',(-43.,49.1999999999999,101.6));
#1768=CARTESIAN_POINT('',(-41.2,49.1999999999999,101.6));
#1769=CARTESIAN_POINT('Origin',(-43.,49.1999999999999,101.6));
#1770=CARTESIAN_POINT('Origin',(-43.,49.1999999999999,105.));
#1771=CARTESIAN_POINT('',(-41.2,49.1999999999999,95.));
#1772=CARTESIAN_POINT('',(-41.2,49.1999999999999,105.));
#1773=CARTESIAN_POINT('Origin',(-43.,49.1999999999999,95.));
#1774=CARTESIAN_POINT('Origin',(115.,-43.5000000000001,105.));
#1775=CARTESIAN_POINT('',(116.8,-43.5000000000001,95.));
#1776=CARTESIAN_POINT('',(116.8,-43.5000000000001,105.));
#1777=CARTESIAN_POINT('Origin',(115.,-43.5000000000001,95.));
#1778=CARTESIAN_POINT('Origin',(-43.,-43.5000000000001,105.));
#1779=CARTESIAN_POINT('',(-41.2,-43.5000000000001,95.));
#1780=CARTESIAN_POINT('',(-41.2,-43.5000000000001,105.));
#1781=CARTESIAN_POINT('Origin',(-43.,-43.5000000000001,95.));
#1782=CARTESIAN_POINT('Origin',(115.,49.1999999999999,105.));
#1783=CARTESIAN_POINT('',(116.8,49.1999999999999,95.));
#1784=CARTESIAN_POINT('',(116.8,49.1999999999999,105.));
#1785=CARTESIAN_POINT('Origin',(115.,49.1999999999999,95.));
#1786=CARTESIAN_POINT('Origin',(-33.0000000000018,35.8499999999952,95.1));
#1787=CARTESIAN_POINT('',(-35.5500000000018,35.8499999999952,95.));
#1788=CARTESIAN_POINT('Origin',(-33.0000000000018,35.8499999999952,95.));
#1789=CARTESIAN_POINT('',(-35.3500000000018,35.8499999999952,95.2));
#1790=CARTESIAN_POINT('',(-35.4500000000018,35.8499999999952,95.1));
#1791=CARTESIAN_POINT('Origin',(-33.0000000000018,35.8499999999952,95.2));
#1792=CARTESIAN_POINT('Origin',(61.,2.84999999999991,95.));
#1793=CARTESIAN_POINT('',(-36.5,57.1999999999999,95.));
#1794=CARTESIAN_POINT('',(158.5,57.1999999999999,95.));
#1795=CARTESIAN_POINT('',(158.5,57.1999999999999,95.));
#1796=CARTESIAN_POINT('',(173.5,42.1999999999999,95.));
#1797=CARTESIAN_POINT('Origin',(158.5,42.1999999999999,95.));
#1798=CARTESIAN_POINT('',(173.5,-36.5000000000001,95.));
#1799=CARTESIAN_POINT('',(173.5,-36.5000000000001,95.));
#1800=CARTESIAN_POINT('',(158.5,-51.5000000000001,95.));
#1801=CARTESIAN_POINT('Origin',(158.5,-36.5000000000001,95.));
#1802=CARTESIAN_POINT('',(-36.5,-51.5000000000001,95.));
#1803=CARTESIAN_POINT('',(-36.5,-51.5000000000001,95.));
#1804=CARTESIAN_POINT('',(-51.5,-36.5000000000001,95.));
#1805=CARTESIAN_POINT('Origin',(-36.5,-36.5000000000001,95.));
#1806=CARTESIAN_POINT('',(-51.5,42.1999999999999,95.));
#1807=CARTESIAN_POINT('',(-51.5,42.1999999999999,95.));
#1808=CARTESIAN_POINT('Origin',(-36.5,42.1999999999999,95.));
#1809=CARTESIAN_POINT('',(30.45,-30.1500000000023,95.));
#1810=CARTESIAN_POINT('Origin',(33.,-30.1500000000023,95.));
#1811=CARTESIAN_POINT('',(64.5552622911117,39.1000000000004,95.));
#1812=CARTESIAN_POINT('Origin',(66.2552622911117,39.1000000000004,95.));
#1813=CARTESIAN_POINT('',(97.0552622911123,-33.3999999999993,95.));
#1814=CARTESIAN_POINT('Origin',(98.7552622911123,-33.3999999999993,95.));
#1815=CARTESIAN_POINT('',(97.0552622911117,39.1000000000007,95.));
#1816=CARTESIAN_POINT('Origin',(98.7552622911117,39.1000000000007,95.));
#1817=CARTESIAN_POINT('',(64.5552622911123,-33.3999999999996,95.));
#1818=CARTESIAN_POINT('Origin',(66.2552622911123,-33.3999999999996,95.));
#1819=CARTESIAN_POINT('',(14.1372018625657,-0.401582661409159,95.));
#1820=CARTESIAN_POINT('Origin',(15.9872018625657,-0.40158266140916,95.));
#1821=CARTESIAN_POINT('',(-22.2627981374344,-0.40158266140918,95.));
#1822=CARTESIAN_POINT('Origin',(-20.4127981374344,-0.40158266140918,95.));
#1823=CARTESIAN_POINT('',(30.4500000000001,35.8499999999977,95.));
#1824=CARTESIAN_POINT('Origin',(33.,35.8499999999977,95.));
#1825=CARTESIAN_POINT('',(-35.55,-30.1500000000048,95.));
#1826=CARTESIAN_POINT('Origin',(-33.,-30.1500000000048,95.));
#1827=CARTESIAN_POINT('Origin',(-33.0000000000018,35.8499999999952,105.));
#1828=CARTESIAN_POINT('',(-35.3500000000018,35.8499999999952,105.));
#1829=CARTESIAN_POINT('',(-35.3500000000018,35.8499999999952,105.));
#1830=CARTESIAN_POINT('Origin',(-33.0000000000018,35.8499999999952,105.));
#1831=CARTESIAN_POINT('Origin',(-33.,-30.1500000000048,95.1));
#1832=CARTESIAN_POINT('',(-35.35,-30.1500000000048,95.2));
#1833=CARTESIAN_POINT('',(-35.45,-30.1500000000048,95.1));
#1834=CARTESIAN_POINT('Origin',(-33.,-30.1500000000048,95.2));
#1835=CARTESIAN_POINT('Origin',(-33.,-30.1500000000048,105.));
#1836=CARTESIAN_POINT('',(-35.35,-30.1500000000048,105.));
#1837=CARTESIAN_POINT('',(-35.35,-30.1500000000048,105.));
#1838=CARTESIAN_POINT('Origin',(-33.,-30.1500000000048,105.));
#1839=CARTESIAN_POINT('Origin',(33.,-30.1500000000023,95.1));
#1840=CARTESIAN_POINT('',(30.65,-30.1500000000023,95.2));
#1841=CARTESIAN_POINT('',(30.55,-30.1500000000023,95.1));
#1842=CARTESIAN_POINT('Origin',(33.,-30.1500000000023,95.2));
#1843=CARTESIAN_POINT('Origin',(33.,-30.1500000000023,105.));
#1844=CARTESIAN_POINT('',(30.65,-30.1500000000023,105.));
#1845=CARTESIAN_POINT('',(30.65,-30.1500000000023,105.));
#1846=CARTESIAN_POINT('Origin',(33.,-30.1500000000023,105.));
#1847=CARTESIAN_POINT('Origin',(33.,35.8499999999977,95.1));
#1848=CARTESIAN_POINT('',(30.6500000000001,35.8499999999977,95.2));
#1849=CARTESIAN_POINT('',(30.5500000000001,35.8499999999977,95.1));
#1850=CARTESIAN_POINT('Origin',(33.,35.8499999999977,95.2));
#1851=CARTESIAN_POINT('Origin',(33.,35.8499999999977,105.));
#1852=CARTESIAN_POINT('',(30.6500000000001,35.8499999999977,105.));
#1853=CARTESIAN_POINT('',(30.6500000000001,35.8499999999977,105.));
#1854=CARTESIAN_POINT('Origin',(33.,35.8499999999977,105.));
#1855=CARTESIAN_POINT('Origin',(66.2552622911117,39.1000000000004,95.));
#1856=CARTESIAN_POINT('',(64.5552622911117,39.1000000000004,100.));
#1857=CARTESIAN_POINT('',(64.5552622911117,39.1000000000004,95.));
#1858=CARTESIAN_POINT('Origin',(66.2552622911117,39.1000000000004,100.));
#1859=CARTESIAN_POINT('Origin',(66.2552622911117,39.1000000000004,100.));
#1860=CARTESIAN_POINT('Origin',(98.7552622911123,-33.3999999999993,95.));
#1861=CARTESIAN_POINT('',(97.0552622911123,-33.3999999999993,100.));
#1862=CARTESIAN_POINT('',(97.0552622911123,-33.3999999999993,95.));
#1863=CARTESIAN_POINT('Origin',(98.7552622911123,-33.3999999999993,100.));
#1864=CARTESIAN_POINT('Origin',(98.7552622911123,-33.3999999999993,100.));
#1865=CARTESIAN_POINT('Origin',(98.7552622911117,39.1000000000007,95.));
#1866=CARTESIAN_POINT('',(97.0552622911117,39.1000000000007,100.));
#1867=CARTESIAN_POINT('',(97.0552622911117,39.1000000000007,95.));
#1868=CARTESIAN_POINT('Origin',(98.7552622911117,39.1000000000007,100.));
#1869=CARTESIAN_POINT('Origin',(98.7552622911117,39.1000000000007,100.));
#1870=CARTESIAN_POINT('Origin',(66.2552622911123,-33.3999999999996,95.));
#1871=CARTESIAN_POINT('',(64.5552622911123,-33.3999999999996,100.));
#1872=CARTESIAN_POINT('',(64.5552622911123,-33.3999999999996,95.));
#1873=CARTESIAN_POINT('Origin',(66.2552622911123,-33.3999999999996,100.));
#1874=CARTESIAN_POINT('Origin',(66.2552622911123,-33.3999999999996,100.));
#1875=CARTESIAN_POINT('Origin',(15.9872018625657,-0.40158266140916,95.));
#1876=CARTESIAN_POINT('',(14.1372018625657,-0.401582661409159,100.));
#1877=CARTESIAN_POINT('',(14.1372018625657,-0.40158266140916,95.));
#1878=CARTESIAN_POINT('Origin',(15.9872018625657,-0.40158266140916,100.));
#1879=CARTESIAN_POINT('Origin',(15.9872018625657,-0.40158266140916,100.));
#1880=CARTESIAN_POINT('Origin',(-20.4127981374344,-0.40158266140918,95.));
#1881=CARTESIAN_POINT('',(-22.2627981374344,-0.40158266140918,100.));
#1882=CARTESIAN_POINT('',(-22.2627981374344,-0.401582661409181,95.));
#1883=CARTESIAN_POINT('Origin',(-20.4127981374344,-0.40158266140918,100.));
#1884=CARTESIAN_POINT('Origin',(-20.4127981374344,-0.40158266140918,100.));
#1885=CARTESIAN_POINT('Origin',(-36.5,42.1999999999999,105.));
#1886=CARTESIAN_POINT('',(-51.5,42.1999999999999,105.));
#1887=CARTESIAN_POINT('',(-36.5,57.1999999999999,105.));
#1888=CARTESIAN_POINT('Origin',(-36.5,42.1999999999999,105.));
#1889=CARTESIAN_POINT('',(-36.5,57.1999999999999,105.));
#1890=CARTESIAN_POINT('',(-51.5,42.1999999999999,105.));
#1891=CARTESIAN_POINT('Origin',(-51.5,-36.5000000000001,105.));
#1892=CARTESIAN_POINT('',(-51.5,-36.5000000000001,105.));
#1893=CARTESIAN_POINT('',(-51.5,42.1999999999999,105.));
#1894=CARTESIAN_POINT('',(-51.5,-36.5000000000001,105.));
#1895=CARTESIAN_POINT('Origin',(-36.5,-36.5000000000001,105.));
#1896=CARTESIAN_POINT('',(-36.5,-51.5000000000001,105.));
#1897=CARTESIAN_POINT('Origin',(-36.5,-36.5000000000001,105.));
#1898=CARTESIAN_POINT('',(-36.5,-51.5000000000001,105.));
#1899=CARTESIAN_POINT('Origin',(158.5,-51.5000000000001,105.));
#1900=CARTESIAN_POINT('',(158.5,-51.5000000000001,105.));
#1901=CARTESIAN_POINT('',(-36.5,-51.5000000000001,105.));
#1902=CARTESIAN_POINT('',(158.5,-51.5000000000001,105.));
#1903=CARTESIAN_POINT('Origin',(158.5,-36.5000000000001,105.));
#1904=CARTESIAN_POINT('',(173.5,-36.5000000000001,105.));
#1905=CARTESIAN_POINT('Origin',(158.5,-36.5000000000001,105.));
#1906=CARTESIAN_POINT('',(173.5,-36.5000000000001,105.));
#1907=CARTESIAN_POINT('Origin',(173.5,42.1999999999999,105.));
#1908=CARTESIAN_POINT('',(173.5,42.1999999999999,105.));
#1909=CARTESIAN_POINT('',(173.5,-36.5000000000001,105.));
#1910=CARTESIAN_POINT('',(173.5,42.1999999999999,105.));
#1911=CARTESIAN_POINT('Origin',(158.5,42.1999999999999,105.));
#1912=CARTESIAN_POINT('',(158.5,57.1999999999999,105.));
#1913=CARTESIAN_POINT('Origin',(158.5,42.1999999999999,105.));
#1914=CARTESIAN_POINT('',(158.5,57.1999999999999,105.));
#1915=CARTESIAN_POINT('Origin',(-36.5,57.1999999999999,105.));
#1916=CARTESIAN_POINT('',(158.5,57.1999999999999,105.));
#1917=CARTESIAN_POINT('Origin',(61.,2.84999999999991,105.));
#1918=UNCERTAINTY_MEASURE_WITH_UNIT(LENGTH_MEASURE(0.01),#1922,
'DISTANCE_ACCURACY_VALUE',
'Maximum model space distance between geometric entities at asserted c
onnectivities');
#1919=UNCERTAINTY_MEASURE_WITH_UNIT(LENGTH_MEASURE(0.01),#1922,
'DISTANCE_ACCURACY_VALUE',
'Maximum model space distance between geometric entities at asserted c
onnectivities');
#1920=(
GEOMETRIC_REPRESENTATION_CONTEXT(3)
GLOBAL_UNCERTAINTY_ASSIGNED_CONTEXT((#1918))
GLOBAL_UNIT_ASSIGNED_CONTEXT((#1922,#1924,#1925))
REPRESENTATION_CONTEXT('','3D')
);
#1921=(
GEOMETRIC_REPRESENTATION_CONTEXT(3)
GLOBAL_UNCERTAINTY_ASSIGNED_CONTEXT((#1919))
GLOBAL_UNIT_ASSIGNED_CONTEXT((#1922,#1924,#1925))
REPRESENTATION_CONTEXT('','3D')
);
#1922=(
LENGTH_UNIT()
NAMED_UNIT(*)
SI_UNIT(.MILLI.,.METRE.)
);
#1923=(
LENGTH_UNIT()
NAMED_UNIT(*)
SI_UNIT($,.METRE.)
);
#1924=(
NAMED_UNIT(*)
PLANE_ANGLE_UNIT()
SI_UNIT($,.RADIAN.)
);
#1925=(
NAMED_UNIT(*)
SI_UNIT($,.STERADIAN.)
SOLID_ANGLE_UNIT()
);
#1926=SHAPE_DEFINITION_REPRESENTATION(#1927,#1928);
#1927=PRODUCT_DEFINITION_SHAPE('',$,#1930);
#1928=SHAPE_REPRESENTATION('',(#1142),#1920);
#1929=PRODUCT_DEFINITION_CONTEXT('part definition',#1934,'design');
#1930=PRODUCT_DEFINITION('2026-03-14-23-06-42-400',
'sensors_modul_top_v3',#1931,#1929);
#1931=PRODUCT_DEFINITION_FORMATION('',$,#1936);
#1932=PRODUCT_RELATED_PRODUCT_CATEGORY('sensors_modul_top_v3',
'sensors_modul_top_v3',(#1936));
#1933=APPLICATION_PROTOCOL_DEFINITION('international standard',
'automotive_design',2009,#1934);
#1934=APPLICATION_CONTEXT(
'Core Data for Automotive Mechanical Design Process');
#1935=PRODUCT_CONTEXT('part definition',#1934,'mechanical');
#1936=PRODUCT('2026-03-14-23-06-42-400','sensors_modul_top_v3',$,(#1935));
#1937=PRESENTATION_STYLE_ASSIGNMENT((#1938));
#1938=SURFACE_STYLE_USAGE(.BOTH.,#1939);
#1939=SURFACE_SIDE_STYLE('',(#1940));
#1940=SURFACE_STYLE_FILL_AREA(#1941);
#1941=FILL_AREA_STYLE('Steel - Satin',(#1942));
#1942=FILL_AREA_STYLE_COLOUR('Steel - Satin',#1943);
#1943=COLOUR_RGB('Steel - Satin',0.627450980392157,0.627450980392157,0.627450980392157);
ENDSEC;
END-ISO-10303-21;
