ISO-10303-21;
HEADER;
/* Generated by software containing ST-Developer
 * from STEP Tools, Inc. (www.steptools.com) 
 */

FILE_DESCRIPTION(
/* description */ (''),
/* implementation_level */ '2;1');

FILE_NAME(
/* name */ 'sensors_module_platform.step',
/* time_stamp */ '2026-04-18T17:26:01+02:00',
/* author */ (''),
/* organization */ (''),
/* preprocessor_version */ 'ST-DEVELOPER v20.1',
/* originating_system */ 'Autodesk Translation Framework v15.8.0.0',
/* authorisation */ '');

FILE_SCHEMA (('AUTOMOTIVE_DESIGN { 1 0 10303 214 3 1 1 }'));
ENDSEC;

DATA;
#10=MECHANICAL_DESIGN_GEOMETRIC_PRESENTATION_REPRESENTATION('',(#13),#1753);
#11=SHAPE_REPRESENTATION_RELATIONSHIP('SRR','None',#1760,#12);
#12=ADVANCED_BREP_SHAPE_REPRESENTATION('',(#14),#1752);
#13=STYLED_ITEM('',(#1769),#14);
#14=MANIFOLD_SOLID_BREP('Body1',#1031);
#15=CYLINDRICAL_SURFACE('',#1066,2.2);
#16=CYLINDRICAL_SURFACE('',#1073,2.2);
#17=CYLINDRICAL_SURFACE('',#1075,4.45);
#18=CYLINDRICAL_SURFACE('',#1077,4.45);
#19=CYLINDRICAL_SURFACE('',#1084,2.2);
#20=CYLINDRICAL_SURFACE('',#1091,2.2);
#21=CYLINDRICAL_SURFACE('',#1098,2.2);
#22=CYLINDRICAL_SURFACE('',#1105,2.2);
#23=CYLINDRICAL_SURFACE('',#1107,2.2);
#24=CYLINDRICAL_SURFACE('',#1109,2.2);
#25=CYLINDRICAL_SURFACE('',#1111,4.45);
#26=CYLINDRICAL_SURFACE('',#1113,4.45);
#27=CYLINDRICAL_SURFACE('',#1115,4.45);
#28=CYLINDRICAL_SURFACE('',#1117,4.45);
#29=CYLINDRICAL_SURFACE('',#1120,1.);
#30=CYLINDRICAL_SURFACE('',#1124,1.);
#31=CYLINDRICAL_SURFACE('',#1128,1.);
#32=CYLINDRICAL_SURFACE('',#1132,1.00000000000001);
#33=CYLINDRICAL_SURFACE('',#1136,8.);
#34=CYLINDRICAL_SURFACE('',#1144,8.);
#35=CYLINDRICAL_SURFACE('',#1147,8.);
#36=CYLINDRICAL_SURFACE('',#1150,8.);
#37=CONICAL_SURFACE('',#1061,2.3,0.785398163397448);
#38=CONICAL_SURFACE('',#1068,2.3,0.785398163397448);
#39=CONICAL_SURFACE('',#1079,2.3,0.785398163397437);
#40=CONICAL_SURFACE('',#1086,2.3,0.785398163397437);
#41=CONICAL_SURFACE('',#1093,2.3,0.785398163397448);
#42=CONICAL_SURFACE('',#1100,2.3,0.785398163397448);
#43=FACE_BOUND('',#184,.T.);
#44=FACE_BOUND('',#192,.T.);
#45=FACE_BOUND('',#195,.T.);
#46=FACE_BOUND('',#199,.T.);
#47=FACE_BOUND('',#205,.T.);
#48=FACE_BOUND('',#209,.T.);
#49=FACE_BOUND('',#213,.T.);
#50=FACE_BOUND('',#217,.T.);
#51=FACE_BOUND('',#228,.T.);
#52=FACE_BOUND('',#229,.T.);
#53=FACE_BOUND('',#234,.T.);
#54=FACE_BOUND('',#235,.T.);
#55=FACE_BOUND('',#241,.T.);
#56=FACE_BOUND('',#242,.T.);
#57=FACE_BOUND('',#243,.T.);
#58=FACE_BOUND('',#244,.T.);
#59=FACE_BOUND('',#245,.T.);
#60=FACE_BOUND('',#246,.T.);
#61=FACE_BOUND('',#251,.T.);
#62=FACE_BOUND('',#255,.T.);
#63=FACE_BOUND('',#256,.T.);
#64=FACE_BOUND('',#257,.T.);
#65=FACE_BOUND('',#258,.T.);
#66=FACE_BOUND('',#259,.T.);
#67=FACE_BOUND('',#260,.T.);
#68=CIRCLE('',#1052,2.2);
#69=CIRCLE('',#1060,2.2);
#70=CIRCLE('',#1062,2.2);
#71=CIRCLE('',#1063,2.4);
#72=CIRCLE('',#1065,4.45);
#73=CIRCLE('',#1067,2.2);
#74=CIRCLE('',#1069,2.2);
#75=CIRCLE('',#1070,2.4);
#76=CIRCLE('',#1072,4.45);
#77=CIRCLE('',#1074,2.2);
#78=CIRCLE('',#1076,4.45);
#79=CIRCLE('',#1078,4.45);
#80=CIRCLE('',#1080,2.2);
#81=CIRCLE('',#1081,2.39999999999999);
#82=CIRCLE('',#1083,4.45);
#83=CIRCLE('',#1085,2.2);
#84=CIRCLE('',#1087,2.2);
#85=CIRCLE('',#1088,2.39999999999999);
#86=CIRCLE('',#1090,4.45);
#87=CIRCLE('',#1092,2.2);
#88=CIRCLE('',#1094,2.2);
#89=CIRCLE('',#1095,2.4);
#90=CIRCLE('',#1097,4.45);
#91=CIRCLE('',#1099,2.2);
#92=CIRCLE('',#1101,2.2);
#93=CIRCLE('',#1102,2.4);
#94=CIRCLE('',#1104,4.45);
#95=CIRCLE('',#1106,2.2);
#96=CIRCLE('',#1108,2.2);
#97=CIRCLE('',#1110,2.2);
#98=CIRCLE('',#1112,4.45);
#99=CIRCLE('',#1114,4.45);
#100=CIRCLE('',#1116,4.45);
#101=CIRCLE('',#1118,4.45);
#102=CIRCLE('',#1121,1.);
#103=CIRCLE('',#1122,1.);
#104=CIRCLE('',#1125,1.);
#105=CIRCLE('',#1126,1.);
#106=CIRCLE('',#1129,1.);
#107=CIRCLE('',#1130,1.);
#108=CIRCLE('',#1133,1.00000000000001);
#109=CIRCLE('',#1134,1.00000000000001);
#110=CIRCLE('',#1137,8.);
#111=CIRCLE('',#1138,8.);
#112=CIRCLE('',#1141,8.);
#113=CIRCLE('',#1142,8.);
#114=CIRCLE('',#1143,8.);
#115=CIRCLE('',#1145,8.);
#116=CIRCLE('',#1148,8.);
#117=CIRCLE('',#1151,8.);
#118=FACE_OUTER_BOUND('',#177,.T.);
#119=FACE_OUTER_BOUND('',#178,.T.);
#120=FACE_OUTER_BOUND('',#179,.T.);
#121=FACE_OUTER_BOUND('',#180,.T.);
#122=FACE_OUTER_BOUND('',#181,.T.);
#123=FACE_OUTER_BOUND('',#182,.T.);
#124=FACE_OUTER_BOUND('',#183,.T.);
#125=FACE_OUTER_BOUND('',#185,.T.);
#126=FACE_OUTER_BOUND('',#186,.T.);
#127=FACE_OUTER_BOUND('',#187,.T.);
#128=FACE_OUTER_BOUND('',#188,.T.);
#129=FACE_OUTER_BOUND('',#189,.T.);
#130=FACE_OUTER_BOUND('',#190,.T.);
#131=FACE_OUTER_BOUND('',#191,.T.);
#132=FACE_OUTER_BOUND('',#193,.T.);
#133=FACE_OUTER_BOUND('',#194,.T.);
#134=FACE_OUTER_BOUND('',#196,.T.);
#135=FACE_OUTER_BOUND('',#197,.T.);
#136=FACE_OUTER_BOUND('',#198,.T.);
#137=FACE_OUTER_BOUND('',#200,.T.);
#138=FACE_OUTER_BOUND('',#201,.T.);
#139=FACE_OUTER_BOUND('',#202,.T.);
#140=FACE_OUTER_BOUND('',#203,.T.);
#141=FACE_OUTER_BOUND('',#204,.T.);
#142=FACE_OUTER_BOUND('',#206,.T.);
#143=FACE_OUTER_BOUND('',#207,.T.);
#144=FACE_OUTER_BOUND('',#208,.T.);
#145=FACE_OUTER_BOUND('',#210,.T.);
#146=FACE_OUTER_BOUND('',#211,.T.);
#147=FACE_OUTER_BOUND('',#212,.T.);
#148=FACE_OUTER_BOUND('',#214,.T.);
#149=FACE_OUTER_BOUND('',#215,.T.);
#150=FACE_OUTER_BOUND('',#216,.T.);
#151=FACE_OUTER_BOUND('',#218,.T.);
#152=FACE_OUTER_BOUND('',#219,.T.);
#153=FACE_OUTER_BOUND('',#220,.T.);
#154=FACE_OUTER_BOUND('',#221,.T.);
#155=FACE_OUTER_BOUND('',#222,.T.);
#156=FACE_OUTER_BOUND('',#223,.T.);
#157=FACE_OUTER_BOUND('',#224,.T.);
#158=FACE_OUTER_BOUND('',#225,.T.);
#159=FACE_OUTER_BOUND('',#226,.T.);
#160=FACE_OUTER_BOUND('',#227,.T.);
#161=FACE_OUTER_BOUND('',#230,.T.);
#162=FACE_OUTER_BOUND('',#231,.T.);
#163=FACE_OUTER_BOUND('',#232,.T.);
#164=FACE_OUTER_BOUND('',#233,.T.);
#165=FACE_OUTER_BOUND('',#236,.T.);
#166=FACE_OUTER_BOUND('',#237,.T.);
#167=FACE_OUTER_BOUND('',#238,.T.);
#168=FACE_OUTER_BOUND('',#239,.T.);
#169=FACE_OUTER_BOUND('',#240,.T.);
#170=FACE_OUTER_BOUND('',#247,.T.);
#171=FACE_OUTER_BOUND('',#248,.T.);
#172=FACE_OUTER_BOUND('',#249,.T.);
#173=FACE_OUTER_BOUND('',#250,.T.);
#174=FACE_OUTER_BOUND('',#252,.T.);
#175=FACE_OUTER_BOUND('',#253,.T.);
#176=FACE_OUTER_BOUND('',#254,.T.);
#177=EDGE_LOOP('',(#665,#666,#667,#668));
#178=EDGE_LOOP('',(#669,#670,#671,#672));
#179=EDGE_LOOP('',(#673,#674,#675,#676));
#180=EDGE_LOOP('',(#677,#678,#679,#680));
#181=EDGE_LOOP('',(#681,#682,#683,#684));
#182=EDGE_LOOP('',(#685,#686,#687,#688));
#183=EDGE_LOOP('',(#689,#690,#691,#692,#693,#694));
#184=EDGE_LOOP('',(#695));
#185=EDGE_LOOP('',(#696,#697,#698,#699));
#186=EDGE_LOOP('',(#700,#701,#702,#703));
#187=EDGE_LOOP('',(#704,#705,#706,#707));
#188=EDGE_LOOP('',(#708,#709,#710,#711));
#189=EDGE_LOOP('',(#712,#713,#714,#715));
#190=EDGE_LOOP('',(#716,#717,#718,#719));
#191=EDGE_LOOP('',(#720,#721,#722,#723,#724,#725));
#192=EDGE_LOOP('',(#726));
#193=EDGE_LOOP('',(#727,#728,#729,#730));
#194=EDGE_LOOP('',(#731));
#195=EDGE_LOOP('',(#732));
#196=EDGE_LOOP('',(#733,#734,#735,#736));
#197=EDGE_LOOP('',(#737,#738,#739,#740));
#198=EDGE_LOOP('',(#741));
#199=EDGE_LOOP('',(#742));
#200=EDGE_LOOP('',(#743,#744,#745,#746));
#201=EDGE_LOOP('',(#747,#748,#749,#750));
#202=EDGE_LOOP('',(#751,#752,#753,#754));
#203=EDGE_LOOP('',(#755,#756,#757,#758));
#204=EDGE_LOOP('',(#759));
#205=EDGE_LOOP('',(#760));
#206=EDGE_LOOP('',(#761,#762,#763,#764));
#207=EDGE_LOOP('',(#765,#766,#767,#768));
#208=EDGE_LOOP('',(#769));
#209=EDGE_LOOP('',(#770));
#210=EDGE_LOOP('',(#771,#772,#773,#774));
#211=EDGE_LOOP('',(#775,#776,#777,#778));
#212=EDGE_LOOP('',(#779));
#213=EDGE_LOOP('',(#780));
#214=EDGE_LOOP('',(#781,#782,#783,#784));
#215=EDGE_LOOP('',(#785,#786,#787,#788));
#216=EDGE_LOOP('',(#789));
#217=EDGE_LOOP('',(#790));
#218=EDGE_LOOP('',(#791,#792,#793,#794));
#219=EDGE_LOOP('',(#795,#796,#797,#798));
#220=EDGE_LOOP('',(#799,#800,#801,#802));
#221=EDGE_LOOP('',(#803,#804,#805,#806));
#222=EDGE_LOOP('',(#807,#808,#809,#810));
#223=EDGE_LOOP('',(#811,#812,#813,#814));
#224=EDGE_LOOP('',(#815,#816,#817,#818));
#225=EDGE_LOOP('',(#819,#820,#821,#822));
#226=EDGE_LOOP('',(#823,#824,#825,#826));
#227=EDGE_LOOP('',(#827,#828,#829,#830));
#228=EDGE_LOOP('',(#831));
#229=EDGE_LOOP('',(#832));
#230=EDGE_LOOP('',(#833,#834,#835,#836));
#231=EDGE_LOOP('',(#837,#838,#839,#840));
#232=EDGE_LOOP('',(#841,#842,#843,#844));
#233=EDGE_LOOP('',(#845,#846,#847,#848));
#234=EDGE_LOOP('',(#849));
#235=EDGE_LOOP('',(#850));
#236=EDGE_LOOP('',(#851,#852,#853,#854));
#237=EDGE_LOOP('',(#855,#856,#857,#858,#859,#860,#861,#862));
#238=EDGE_LOOP('',(#863,#864,#865,#866));
#239=EDGE_LOOP('',(#867,#868,#869,#870));
#240=EDGE_LOOP('',(#871,#872,#873,#874,#875,#876,#877,#878));
#241=EDGE_LOOP('',(#879));
#242=EDGE_LOOP('',(#880));
#243=EDGE_LOOP('',(#881));
#244=EDGE_LOOP('',(#882));
#245=EDGE_LOOP('',(#883));
#246=EDGE_LOOP('',(#884));
#247=EDGE_LOOP('',(#885,#886,#887,#888));
#248=EDGE_LOOP('',(#889,#890,#891,#892));
#249=EDGE_LOOP('',(#893,#894,#895,#896));
#250=EDGE_LOOP('',(#897,#898,#899,#900));
#251=EDGE_LOOP('',(#901,#902,#903,#904,#905,#906,#907,#908));
#252=EDGE_LOOP('',(#909,#910,#911,#912));
#253=EDGE_LOOP('',(#913,#914,#915,#916));
#254=EDGE_LOOP('',(#917,#918,#919,#920,#921,#922,#923,#924));
#255=EDGE_LOOP('',(#925));
#256=EDGE_LOOP('',(#926));
#257=EDGE_LOOP('',(#927));
#258=EDGE_LOOP('',(#928));
#259=EDGE_LOOP('',(#929,#930,#931,#932,#933,#934));
#260=EDGE_LOOP('',(#935,#936,#937,#938,#939,#940));
#261=LINE('',#1466,#349);
#262=LINE('',#1468,#350);
#263=LINE('',#1470,#351);
#264=LINE('',#1471,#352);
#265=LINE('',#1474,#353);
#266=LINE('',#1476,#354);
#267=LINE('',#1477,#355);
#268=LINE('',#1480,#356);
#269=LINE('',#1482,#357);
#270=LINE('',#1483,#358);
#271=LINE('',#1486,#359);
#272=LINE('',#1488,#360);
#273=LINE('',#1489,#361);
#274=LINE('',#1492,#362);
#275=LINE('',#1494,#363);
#276=LINE('',#1495,#364);
#277=LINE('',#1497,#365);
#278=LINE('',#1498,#366);
#279=LINE('',#1505,#367);
#280=LINE('',#1507,#368);
#281=LINE('',#1509,#369);
#282=LINE('',#1510,#370);
#283=LINE('',#1513,#371);
#284=LINE('',#1515,#372);
#285=LINE('',#1516,#373);
#286=LINE('',#1519,#374);
#287=LINE('',#1521,#375);
#288=LINE('',#1522,#376);
#289=LINE('',#1525,#377);
#290=LINE('',#1527,#378);
#291=LINE('',#1528,#379);
#292=LINE('',#1531,#380);
#293=LINE('',#1533,#381);
#294=LINE('',#1534,#382);
#295=LINE('',#1536,#383);
#296=LINE('',#1537,#384);
#297=LINE('',#1545,#385);
#298=LINE('',#1552,#386);
#299=LINE('',#1558,#387);
#300=LINE('',#1565,#388);
#301=LINE('',#1570,#389);
#302=LINE('',#1574,#390);
#303=LINE('',#1579,#391);
#304=LINE('',#1587,#392);
#305=LINE('',#1592,#393);
#306=LINE('',#1600,#394);
#307=LINE('',#1605,#395);
#308=LINE('',#1613,#396);
#309=LINE('',#1618,#397);
#310=LINE('',#1626,#398);
#311=LINE('',#1630,#399);
#312=LINE('',#1634,#400);
#313=LINE('',#1638,#401);
#314=LINE('',#1642,#402);
#315=LINE('',#1646,#403);
#316=LINE('',#1650,#404);
#317=LINE('',#1654,#405);
#318=LINE('',#1656,#406);
#319=LINE('',#1658,#407);
#320=LINE('',#1659,#408);
#321=LINE('',#1664,#409);
#322=LINE('',#1668,#410);
#323=LINE('',#1670,#411);
#324=LINE('',#1671,#412);
#325=LINE('',#1676,#413);
#326=LINE('',#1680,#414);
#327=LINE('',#1682,#415);
#328=LINE('',#1683,#416);
#329=LINE('',#1688,#417);
#330=LINE('',#1692,#418);
#331=LINE('',#1694,#419);
#332=LINE('',#1695,#420);
#333=LINE('',#1705,#421);
#334=LINE('',#1708,#422);
#335=LINE('',#1711,#423);
#336=LINE('',#1713,#424);
#337=LINE('',#1714,#425);
#338=LINE('',#1717,#426);
#339=LINE('',#1721,#427);
#340=LINE('',#1725,#428);
#341=LINE('',#1730,#429);
#342=LINE('',#1733,#430);
#343=LINE('',#1734,#431);
#344=LINE('',#1739,#432);
#345=LINE('',#1740,#433);
#346=LINE('',#1742,#434);
#347=LINE('',#1745,#435);
#348=LINE('',#1748,#436);
#349=VECTOR('',#1158,10.);
#350=VECTOR('',#1159,10.);
#351=VECTOR('',#1160,10.);
#352=VECTOR('',#1161,10.);
#353=VECTOR('',#1164,10.);
#354=VECTOR('',#1165,10.);
#355=VECTOR('',#1166,10.);
#356=VECTOR('',#1169,10.);
#357=VECTOR('',#1170,10.);
#358=VECTOR('',#1171,10.);
#359=VECTOR('',#1174,10.);
#360=VECTOR('',#1175,10.);
#361=VECTOR('',#1176,10.);
#362=VECTOR('',#1179,10.);
#363=VECTOR('',#1180,10.);
#364=VECTOR('',#1181,10.);
#365=VECTOR('',#1184,10.);
#366=VECTOR('',#1185,10.);
#367=VECTOR('',#1192,10.);
#368=VECTOR('',#1193,10.);
#369=VECTOR('',#1194,10.);
#370=VECTOR('',#1195,10.);
#371=VECTOR('',#1198,10.);
#372=VECTOR('',#1199,10.);
#373=VECTOR('',#1200,10.);
#374=VECTOR('',#1203,10.);
#375=VECTOR('',#1204,10.);
#376=VECTOR('',#1205,10.);
#377=VECTOR('',#1208,10.);
#378=VECTOR('',#1209,10.);
#379=VECTOR('',#1210,10.);
#380=VECTOR('',#1213,10.);
#381=VECTOR('',#1214,10.);
#382=VECTOR('',#1215,10.);
#383=VECTOR('',#1218,10.);
#384=VECTOR('',#1219,10.);
#385=VECTOR('',#1228,2.3);
#386=VECTOR('',#1237,2.2);
#387=VECTOR('',#1244,2.3);
#388=VECTOR('',#1253,2.2);
#389=VECTOR('',#1260,4.45);
#390=VECTOR('',#1265,4.45);
#391=VECTOR('',#1270,2.3);
#392=VECTOR('',#1281,2.2);
#393=VECTOR('',#1286,2.3);
#394=VECTOR('',#1297,2.2);
#395=VECTOR('',#1302,2.3);
#396=VECTOR('',#1313,2.2);
#397=VECTOR('',#1318,2.3);
#398=VECTOR('',#1329,2.2);
#399=VECTOR('',#1334,2.2);
#400=VECTOR('',#1339,2.2);
#401=VECTOR('',#1344,4.45);
#402=VECTOR('',#1349,4.45);
#403=VECTOR('',#1354,4.45);
#404=VECTOR('',#1359,4.45);
#405=VECTOR('',#1362,10.);
#406=VECTOR('',#1363,10.);
#407=VECTOR('',#1364,10.);
#408=VECTOR('',#1365,10.);
#409=VECTOR('',#1370,10.);
#410=VECTOR('',#1375,10.);
#411=VECTOR('',#1376,10.);
#412=VECTOR('',#1377,10.);
#413=VECTOR('',#1382,10.);
#414=VECTOR('',#1387,10.);
#415=VECTOR('',#1388,10.);
#416=VECTOR('',#1389,10.);
#417=VECTOR('',#1394,10.);
#418=VECTOR('',#1399,10.);
#419=VECTOR('',#1400,10.);
#420=VECTOR('',#1401,10.);
#421=VECTOR('',#1414,10.);
#422=VECTOR('',#1417,10.);
#423=VECTOR('',#1420,10.);
#424=VECTOR('',#1421,10.);
#425=VECTOR('',#1422,10.);
#426=VECTOR('',#1425,10.);
#427=VECTOR('',#1428,10.);
#428=VECTOR('',#1431,10.);
#429=VECTOR('',#1438,10.);
#430=VECTOR('',#1441,10.);
#431=VECTOR('',#1442,10.);
#432=VECTOR('',#1447,10.);
#433=VECTOR('',#1448,10.);
#434=VECTOR('',#1451,10.);
#435=VECTOR('',#1454,10.);
#436=VECTOR('',#1459,10.);
#437=VERTEX_POINT('',#1464);
#438=VERTEX_POINT('',#1465);
#439=VERTEX_POINT('',#1467);
#440=VERTEX_POINT('',#1469);
#441=VERTEX_POINT('',#1473);
#442=VERTEX_POINT('',#1475);
#443=VERTEX_POINT('',#1479);
#444=VERTEX_POINT('',#1481);
#445=VERTEX_POINT('',#1485);
#446=VERTEX_POINT('',#1487);
#447=VERTEX_POINT('',#1491);
#448=VERTEX_POINT('',#1493);
#449=VERTEX_POINT('',#1500);
#450=VERTEX_POINT('',#1503);
#451=VERTEX_POINT('',#1504);
#452=VERTEX_POINT('',#1506);
#453=VERTEX_POINT('',#1508);
#454=VERTEX_POINT('',#1512);
#455=VERTEX_POINT('',#1514);
#456=VERTEX_POINT('',#1518);
#457=VERTEX_POINT('',#1520);
#458=VERTEX_POINT('',#1524);
#459=VERTEX_POINT('',#1526);
#460=VERTEX_POINT('',#1530);
#461=VERTEX_POINT('',#1532);
#462=VERTEX_POINT('',#1539);
#463=VERTEX_POINT('',#1542);
#464=VERTEX_POINT('',#1544);
#465=VERTEX_POINT('',#1548);
#466=VERTEX_POINT('',#1551);
#467=VERTEX_POINT('',#1555);
#468=VERTEX_POINT('',#1557);
#469=VERTEX_POINT('',#1561);
#470=VERTEX_POINT('',#1564);
#471=VERTEX_POINT('',#1568);
#472=VERTEX_POINT('',#1572);
#473=VERTEX_POINT('',#1576);
#474=VERTEX_POINT('',#1578);
#475=VERTEX_POINT('',#1582);
#476=VERTEX_POINT('',#1585);
#477=VERTEX_POINT('',#1589);
#478=VERTEX_POINT('',#1591);
#479=VERTEX_POINT('',#1595);
#480=VERTEX_POINT('',#1598);
#481=VERTEX_POINT('',#1602);
#482=VERTEX_POINT('',#1604);
#483=VERTEX_POINT('',#1608);
#484=VERTEX_POINT('',#1611);
#485=VERTEX_POINT('',#1615);
#486=VERTEX_POINT('',#1617);
#487=VERTEX_POINT('',#1621);
#488=VERTEX_POINT('',#1624);
#489=VERTEX_POINT('',#1628);
#490=VERTEX_POINT('',#1632);
#491=VERTEX_POINT('',#1636);
#492=VERTEX_POINT('',#1640);
#493=VERTEX_POINT('',#1644);
#494=VERTEX_POINT('',#1648);
#495=VERTEX_POINT('',#1652);
#496=VERTEX_POINT('',#1653);
#497=VERTEX_POINT('',#1655);
#498=VERTEX_POINT('',#1657);
#499=VERTEX_POINT('',#1661);
#500=VERTEX_POINT('',#1663);
#501=VERTEX_POINT('',#1667);
#502=VERTEX_POINT('',#1669);
#503=VERTEX_POINT('',#1673);
#504=VERTEX_POINT('',#1675);
#505=VERTEX_POINT('',#1679);
#506=VERTEX_POINT('',#1681);
#507=VERTEX_POINT('',#1685);
#508=VERTEX_POINT('',#1687);
#509=VERTEX_POINT('',#1691);
#510=VERTEX_POINT('',#1693);
#511=VERTEX_POINT('',#1701);
#512=VERTEX_POINT('',#1702);
#513=VERTEX_POINT('',#1704);
#514=VERTEX_POINT('',#1706);
#515=VERTEX_POINT('',#1710);
#516=VERTEX_POINT('',#1712);
#517=VERTEX_POINT('',#1716);
#518=VERTEX_POINT('',#1718);
#519=VERTEX_POINT('',#1720);
#520=VERTEX_POINT('',#1722);
#521=VERTEX_POINT('',#1724);
#522=VERTEX_POINT('',#1728);
#523=VERTEX_POINT('',#1732);
#524=VERTEX_POINT('',#1736);
#525=VERTEX_POINT('',#1737);
#526=VERTEX_POINT('',#1744);
#527=EDGE_CURVE('',#437,#438,#261,.T.);
#528=EDGE_CURVE('',#437,#439,#262,.T.);
#529=EDGE_CURVE('',#439,#440,#263,.T.);
#530=EDGE_CURVE('',#438,#440,#264,.T.);
#531=EDGE_CURVE('',#441,#437,#265,.T.);
#532=EDGE_CURVE('',#441,#442,#266,.T.);
#533=EDGE_CURVE('',#442,#439,#267,.T.);
#534=EDGE_CURVE('',#443,#441,#268,.T.);
#535=EDGE_CURVE('',#443,#444,#269,.T.);
#536=EDGE_CURVE('',#444,#442,#270,.T.);
#537=EDGE_CURVE('',#445,#443,#271,.T.);
#538=EDGE_CURVE('',#445,#446,#272,.T.);
#539=EDGE_CURVE('',#446,#444,#273,.T.);
#540=EDGE_CURVE('',#447,#445,#274,.T.);
#541=EDGE_CURVE('',#447,#448,#275,.T.);
#542=EDGE_CURVE('',#448,#446,#276,.T.);
#543=EDGE_CURVE('',#438,#447,#277,.T.);
#544=EDGE_CURVE('',#440,#448,#278,.T.);
#545=EDGE_CURVE('',#449,#449,#68,.T.);
#546=EDGE_CURVE('',#450,#451,#279,.T.);
#547=EDGE_CURVE('',#450,#452,#280,.T.);
#548=EDGE_CURVE('',#452,#453,#281,.T.);
#549=EDGE_CURVE('',#451,#453,#282,.T.);
#550=EDGE_CURVE('',#454,#450,#283,.T.);
#551=EDGE_CURVE('',#454,#455,#284,.T.);
#552=EDGE_CURVE('',#455,#452,#285,.T.);
#553=EDGE_CURVE('',#456,#454,#286,.T.);
#554=EDGE_CURVE('',#456,#457,#287,.T.);
#555=EDGE_CURVE('',#457,#455,#288,.T.);
#556=EDGE_CURVE('',#458,#456,#289,.T.);
#557=EDGE_CURVE('',#458,#459,#290,.T.);
#558=EDGE_CURVE('',#459,#457,#291,.T.);
#559=EDGE_CURVE('',#460,#458,#292,.T.);
#560=EDGE_CURVE('',#460,#461,#293,.T.);
#561=EDGE_CURVE('',#461,#459,#294,.T.);
#562=EDGE_CURVE('',#451,#460,#295,.T.);
#563=EDGE_CURVE('',#453,#461,#296,.T.);
#564=EDGE_CURVE('',#462,#462,#69,.T.);
#565=EDGE_CURVE('',#463,#463,#70,.T.);
#566=EDGE_CURVE('',#463,#464,#297,.T.);
#567=EDGE_CURVE('',#464,#464,#71,.T.);
#568=EDGE_CURVE('',#465,#465,#72,.T.);
#569=EDGE_CURVE('',#463,#466,#298,.T.);
#570=EDGE_CURVE('',#466,#466,#73,.T.);
#571=EDGE_CURVE('',#467,#467,#74,.T.);
#572=EDGE_CURVE('',#467,#468,#299,.T.);
#573=EDGE_CURVE('',#468,#468,#75,.T.);
#574=EDGE_CURVE('',#469,#469,#76,.T.);
#575=EDGE_CURVE('',#467,#470,#300,.T.);
#576=EDGE_CURVE('',#470,#470,#77,.T.);
#577=EDGE_CURVE('',#471,#471,#78,.T.);
#578=EDGE_CURVE('',#471,#465,#301,.T.);
#579=EDGE_CURVE('',#472,#472,#79,.T.);
#580=EDGE_CURVE('',#472,#469,#302,.T.);
#581=EDGE_CURVE('',#473,#473,#80,.T.);
#582=EDGE_CURVE('',#473,#474,#303,.T.);
#583=EDGE_CURVE('',#474,#474,#81,.T.);
#584=EDGE_CURVE('',#475,#475,#82,.T.);
#585=EDGE_CURVE('',#476,#476,#83,.T.);
#586=EDGE_CURVE('',#476,#473,#304,.T.);
#587=EDGE_CURVE('',#477,#477,#84,.T.);
#588=EDGE_CURVE('',#477,#478,#305,.T.);
#589=EDGE_CURVE('',#478,#478,#85,.T.);
#590=EDGE_CURVE('',#479,#479,#86,.T.);
#591=EDGE_CURVE('',#480,#480,#87,.T.);
#592=EDGE_CURVE('',#480,#477,#306,.T.);
#593=EDGE_CURVE('',#481,#481,#88,.T.);
#594=EDGE_CURVE('',#481,#482,#307,.T.);
#595=EDGE_CURVE('',#482,#482,#89,.T.);
#596=EDGE_CURVE('',#483,#483,#90,.T.);
#597=EDGE_CURVE('',#484,#484,#91,.T.);
#598=EDGE_CURVE('',#484,#481,#308,.T.);
#599=EDGE_CURVE('',#485,#485,#92,.T.);
#600=EDGE_CURVE('',#485,#486,#309,.T.);
#601=EDGE_CURVE('',#486,#486,#93,.T.);
#602=EDGE_CURVE('',#487,#487,#94,.T.);
#603=EDGE_CURVE('',#488,#488,#95,.T.);
#604=EDGE_CURVE('',#488,#485,#310,.T.);
#605=EDGE_CURVE('',#489,#489,#96,.T.);
#606=EDGE_CURVE('',#489,#462,#311,.T.);
#607=EDGE_CURVE('',#490,#490,#97,.T.);
#608=EDGE_CURVE('',#490,#449,#312,.T.);
#609=EDGE_CURVE('',#491,#491,#98,.T.);
#610=EDGE_CURVE('',#491,#479,#313,.T.);
#611=EDGE_CURVE('',#492,#492,#99,.T.);
#612=EDGE_CURVE('',#492,#487,#314,.T.);
#613=EDGE_CURVE('',#493,#493,#100,.T.);
#614=EDGE_CURVE('',#493,#483,#315,.T.);
#615=EDGE_CURVE('',#494,#494,#101,.T.);
#616=EDGE_CURVE('',#494,#475,#316,.T.);
#617=EDGE_CURVE('',#495,#496,#317,.T.);
#618=EDGE_CURVE('',#495,#497,#318,.T.);
#619=EDGE_CURVE('',#497,#498,#319,.T.);
#620=EDGE_CURVE('',#496,#498,#320,.T.);
#621=EDGE_CURVE('',#499,#495,#102,.T.);
#622=EDGE_CURVE('',#499,#500,#321,.T.);
#623=EDGE_CURVE('',#500,#497,#103,.T.);
#624=EDGE_CURVE('',#501,#499,#322,.T.);
#625=EDGE_CURVE('',#501,#502,#323,.T.);
#626=EDGE_CURVE('',#502,#500,#324,.T.);
#627=EDGE_CURVE('',#503,#501,#104,.T.);
#628=EDGE_CURVE('',#503,#504,#325,.T.);
#629=EDGE_CURVE('',#504,#502,#105,.T.);
#630=EDGE_CURVE('',#505,#503,#326,.T.);
#631=EDGE_CURVE('',#505,#506,#327,.T.);
#632=EDGE_CURVE('',#506,#504,#328,.T.);
#633=EDGE_CURVE('',#507,#505,#106,.T.);
#634=EDGE_CURVE('',#507,#508,#329,.T.);
#635=EDGE_CURVE('',#508,#506,#107,.T.);
#636=EDGE_CURVE('',#509,#507,#330,.T.);
#637=EDGE_CURVE('',#509,#510,#331,.T.);
#638=EDGE_CURVE('',#510,#508,#332,.T.);
#639=EDGE_CURVE('',#496,#509,#108,.T.);
#640=EDGE_CURVE('',#498,#510,#109,.T.);
#641=EDGE_CURVE('',#511,#512,#110,.T.);
#642=EDGE_CURVE('',#512,#513,#333,.T.);
#643=EDGE_CURVE('',#513,#514,#111,.T.);
#644=EDGE_CURVE('',#514,#511,#334,.T.);
#645=EDGE_CURVE('',#512,#515,#335,.T.);
#646=EDGE_CURVE('',#516,#515,#336,.T.);
#647=EDGE_CURVE('',#516,#513,#337,.T.);
#648=EDGE_CURVE('',#517,#511,#338,.T.);
#649=EDGE_CURVE('',#518,#517,#112,.T.);
#650=EDGE_CURVE('',#519,#518,#339,.T.);
#651=EDGE_CURVE('',#520,#519,#113,.T.);
#652=EDGE_CURVE('',#520,#521,#340,.T.);
#653=EDGE_CURVE('',#515,#521,#114,.T.);
#654=EDGE_CURVE('',#522,#516,#115,.T.);
#655=EDGE_CURVE('',#521,#522,#341,.T.);
#656=EDGE_CURVE('',#523,#520,#342,.T.);
#657=EDGE_CURVE('',#523,#522,#343,.T.);
#658=EDGE_CURVE('',#524,#525,#116,.T.);
#659=EDGE_CURVE('',#525,#518,#344,.T.);
#660=EDGE_CURVE('',#517,#524,#345,.T.);
#661=EDGE_CURVE('',#524,#514,#346,.T.);
#662=EDGE_CURVE('',#519,#526,#347,.T.);
#663=EDGE_CURVE('',#526,#523,#117,.T.);
#664=EDGE_CURVE('',#525,#526,#348,.T.);
#665=ORIENTED_EDGE('',*,*,#527,.F.);
#666=ORIENTED_EDGE('',*,*,#528,.T.);
#667=ORIENTED_EDGE('',*,*,#529,.T.);
#668=ORIENTED_EDGE('',*,*,#530,.F.);
#669=ORIENTED_EDGE('',*,*,#531,.F.);
#670=ORIENTED_EDGE('',*,*,#532,.T.);
#671=ORIENTED_EDGE('',*,*,#533,.T.);
#672=ORIENTED_EDGE('',*,*,#528,.F.);
#673=ORIENTED_EDGE('',*,*,#534,.F.);
#674=ORIENTED_EDGE('',*,*,#535,.T.);
#675=ORIENTED_EDGE('',*,*,#536,.T.);
#676=ORIENTED_EDGE('',*,*,#532,.F.);
#677=ORIENTED_EDGE('',*,*,#537,.F.);
#678=ORIENTED_EDGE('',*,*,#538,.T.);
#679=ORIENTED_EDGE('',*,*,#539,.T.);
#680=ORIENTED_EDGE('',*,*,#535,.F.);
#681=ORIENTED_EDGE('',*,*,#540,.F.);
#682=ORIENTED_EDGE('',*,*,#541,.T.);
#683=ORIENTED_EDGE('',*,*,#542,.T.);
#684=ORIENTED_EDGE('',*,*,#538,.F.);
#685=ORIENTED_EDGE('',*,*,#543,.F.);
#686=ORIENTED_EDGE('',*,*,#530,.T.);
#687=ORIENTED_EDGE('',*,*,#544,.T.);
#688=ORIENTED_EDGE('',*,*,#541,.F.);
#689=ORIENTED_EDGE('',*,*,#544,.F.);
#690=ORIENTED_EDGE('',*,*,#529,.F.);
#691=ORIENTED_EDGE('',*,*,#533,.F.);
#692=ORIENTED_EDGE('',*,*,#536,.F.);
#693=ORIENTED_EDGE('',*,*,#539,.F.);
#694=ORIENTED_EDGE('',*,*,#542,.F.);
#695=ORIENTED_EDGE('',*,*,#545,.F.);
#696=ORIENTED_EDGE('',*,*,#546,.F.);
#697=ORIENTED_EDGE('',*,*,#547,.T.);
#698=ORIENTED_EDGE('',*,*,#548,.T.);
#699=ORIENTED_EDGE('',*,*,#549,.F.);
#700=ORIENTED_EDGE('',*,*,#550,.F.);
#701=ORIENTED_EDGE('',*,*,#551,.T.);
#702=ORIENTED_EDGE('',*,*,#552,.T.);
#703=ORIENTED_EDGE('',*,*,#547,.F.);
#704=ORIENTED_EDGE('',*,*,#553,.F.);
#705=ORIENTED_EDGE('',*,*,#554,.T.);
#706=ORIENTED_EDGE('',*,*,#555,.T.);
#707=ORIENTED_EDGE('',*,*,#551,.F.);
#708=ORIENTED_EDGE('',*,*,#556,.F.);
#709=ORIENTED_EDGE('',*,*,#557,.T.);
#710=ORIENTED_EDGE('',*,*,#558,.T.);
#711=ORIENTED_EDGE('',*,*,#554,.F.);
#712=ORIENTED_EDGE('',*,*,#559,.F.);
#713=ORIENTED_EDGE('',*,*,#560,.T.);
#714=ORIENTED_EDGE('',*,*,#561,.T.);
#715=ORIENTED_EDGE('',*,*,#557,.F.);
#716=ORIENTED_EDGE('',*,*,#562,.F.);
#717=ORIENTED_EDGE('',*,*,#549,.T.);
#718=ORIENTED_EDGE('',*,*,#563,.T.);
#719=ORIENTED_EDGE('',*,*,#560,.F.);
#720=ORIENTED_EDGE('',*,*,#563,.F.);
#721=ORIENTED_EDGE('',*,*,#548,.F.);
#722=ORIENTED_EDGE('',*,*,#552,.F.);
#723=ORIENTED_EDGE('',*,*,#555,.F.);
#724=ORIENTED_EDGE('',*,*,#558,.F.);
#725=ORIENTED_EDGE('',*,*,#561,.F.);
#726=ORIENTED_EDGE('',*,*,#564,.F.);
#727=ORIENTED_EDGE('',*,*,#565,.T.);
#728=ORIENTED_EDGE('',*,*,#566,.T.);
#729=ORIENTED_EDGE('',*,*,#567,.T.);
#730=ORIENTED_EDGE('',*,*,#566,.F.);
#731=ORIENTED_EDGE('',*,*,#568,.F.);
#732=ORIENTED_EDGE('',*,*,#567,.F.);
#733=ORIENTED_EDGE('',*,*,#565,.F.);
#734=ORIENTED_EDGE('',*,*,#569,.T.);
#735=ORIENTED_EDGE('',*,*,#570,.F.);
#736=ORIENTED_EDGE('',*,*,#569,.F.);
#737=ORIENTED_EDGE('',*,*,#571,.T.);
#738=ORIENTED_EDGE('',*,*,#572,.T.);
#739=ORIENTED_EDGE('',*,*,#573,.T.);
#740=ORIENTED_EDGE('',*,*,#572,.F.);
#741=ORIENTED_EDGE('',*,*,#574,.F.);
#742=ORIENTED_EDGE('',*,*,#573,.F.);
#743=ORIENTED_EDGE('',*,*,#571,.F.);
#744=ORIENTED_EDGE('',*,*,#575,.T.);
#745=ORIENTED_EDGE('',*,*,#576,.F.);
#746=ORIENTED_EDGE('',*,*,#575,.F.);
#747=ORIENTED_EDGE('',*,*,#577,.F.);
#748=ORIENTED_EDGE('',*,*,#578,.T.);
#749=ORIENTED_EDGE('',*,*,#568,.T.);
#750=ORIENTED_EDGE('',*,*,#578,.F.);
#751=ORIENTED_EDGE('',*,*,#579,.F.);
#752=ORIENTED_EDGE('',*,*,#580,.T.);
#753=ORIENTED_EDGE('',*,*,#574,.T.);
#754=ORIENTED_EDGE('',*,*,#580,.F.);
#755=ORIENTED_EDGE('',*,*,#581,.T.);
#756=ORIENTED_EDGE('',*,*,#582,.T.);
#757=ORIENTED_EDGE('',*,*,#583,.T.);
#758=ORIENTED_EDGE('',*,*,#582,.F.);
#759=ORIENTED_EDGE('',*,*,#584,.F.);
#760=ORIENTED_EDGE('',*,*,#583,.F.);
#761=ORIENTED_EDGE('',*,*,#585,.F.);
#762=ORIENTED_EDGE('',*,*,#586,.T.);
#763=ORIENTED_EDGE('',*,*,#581,.F.);
#764=ORIENTED_EDGE('',*,*,#586,.F.);
#765=ORIENTED_EDGE('',*,*,#587,.T.);
#766=ORIENTED_EDGE('',*,*,#588,.T.);
#767=ORIENTED_EDGE('',*,*,#589,.T.);
#768=ORIENTED_EDGE('',*,*,#588,.F.);
#769=ORIENTED_EDGE('',*,*,#590,.F.);
#770=ORIENTED_EDGE('',*,*,#589,.F.);
#771=ORIENTED_EDGE('',*,*,#591,.F.);
#772=ORIENTED_EDGE('',*,*,#592,.T.);
#773=ORIENTED_EDGE('',*,*,#587,.F.);
#774=ORIENTED_EDGE('',*,*,#592,.F.);
#775=ORIENTED_EDGE('',*,*,#593,.T.);
#776=ORIENTED_EDGE('',*,*,#594,.T.);
#777=ORIENTED_EDGE('',*,*,#595,.T.);
#778=ORIENTED_EDGE('',*,*,#594,.F.);
#779=ORIENTED_EDGE('',*,*,#596,.F.);
#780=ORIENTED_EDGE('',*,*,#595,.F.);
#781=ORIENTED_EDGE('',*,*,#597,.F.);
#782=ORIENTED_EDGE('',*,*,#598,.T.);
#783=ORIENTED_EDGE('',*,*,#593,.F.);
#784=ORIENTED_EDGE('',*,*,#598,.F.);
#785=ORIENTED_EDGE('',*,*,#599,.T.);
#786=ORIENTED_EDGE('',*,*,#600,.T.);
#787=ORIENTED_EDGE('',*,*,#601,.T.);
#788=ORIENTED_EDGE('',*,*,#600,.F.);
#789=ORIENTED_EDGE('',*,*,#602,.F.);
#790=ORIENTED_EDGE('',*,*,#601,.F.);
#791=ORIENTED_EDGE('',*,*,#603,.F.);
#792=ORIENTED_EDGE('',*,*,#604,.T.);
#793=ORIENTED_EDGE('',*,*,#599,.F.);
#794=ORIENTED_EDGE('',*,*,#604,.F.);
#795=ORIENTED_EDGE('',*,*,#605,.F.);
#796=ORIENTED_EDGE('',*,*,#606,.T.);
#797=ORIENTED_EDGE('',*,*,#564,.T.);
#798=ORIENTED_EDGE('',*,*,#606,.F.);
#799=ORIENTED_EDGE('',*,*,#607,.F.);
#800=ORIENTED_EDGE('',*,*,#608,.T.);
#801=ORIENTED_EDGE('',*,*,#545,.T.);
#802=ORIENTED_EDGE('',*,*,#608,.F.);
#803=ORIENTED_EDGE('',*,*,#609,.F.);
#804=ORIENTED_EDGE('',*,*,#610,.T.);
#805=ORIENTED_EDGE('',*,*,#590,.T.);
#806=ORIENTED_EDGE('',*,*,#610,.F.);
#807=ORIENTED_EDGE('',*,*,#611,.F.);
#808=ORIENTED_EDGE('',*,*,#612,.T.);
#809=ORIENTED_EDGE('',*,*,#602,.T.);
#810=ORIENTED_EDGE('',*,*,#612,.F.);
#811=ORIENTED_EDGE('',*,*,#613,.F.);
#812=ORIENTED_EDGE('',*,*,#614,.T.);
#813=ORIENTED_EDGE('',*,*,#596,.T.);
#814=ORIENTED_EDGE('',*,*,#614,.F.);
#815=ORIENTED_EDGE('',*,*,#615,.F.);
#816=ORIENTED_EDGE('',*,*,#616,.T.);
#817=ORIENTED_EDGE('',*,*,#584,.T.);
#818=ORIENTED_EDGE('',*,*,#616,.F.);
#819=ORIENTED_EDGE('',*,*,#617,.F.);
#820=ORIENTED_EDGE('',*,*,#618,.T.);
#821=ORIENTED_EDGE('',*,*,#619,.T.);
#822=ORIENTED_EDGE('',*,*,#620,.F.);
#823=ORIENTED_EDGE('',*,*,#621,.F.);
#824=ORIENTED_EDGE('',*,*,#622,.T.);
#825=ORIENTED_EDGE('',*,*,#623,.T.);
#826=ORIENTED_EDGE('',*,*,#618,.F.);
#827=ORIENTED_EDGE('',*,*,#624,.F.);
#828=ORIENTED_EDGE('',*,*,#625,.T.);
#829=ORIENTED_EDGE('',*,*,#626,.T.);
#830=ORIENTED_EDGE('',*,*,#622,.F.);
#831=ORIENTED_EDGE('',*,*,#570,.T.);
#832=ORIENTED_EDGE('',*,*,#576,.T.);
#833=ORIENTED_EDGE('',*,*,#627,.F.);
#834=ORIENTED_EDGE('',*,*,#628,.T.);
#835=ORIENTED_EDGE('',*,*,#629,.T.);
#836=ORIENTED_EDGE('',*,*,#625,.F.);
#837=ORIENTED_EDGE('',*,*,#630,.F.);
#838=ORIENTED_EDGE('',*,*,#631,.T.);
#839=ORIENTED_EDGE('',*,*,#632,.T.);
#840=ORIENTED_EDGE('',*,*,#628,.F.);
#841=ORIENTED_EDGE('',*,*,#633,.F.);
#842=ORIENTED_EDGE('',*,*,#634,.T.);
#843=ORIENTED_EDGE('',*,*,#635,.T.);
#844=ORIENTED_EDGE('',*,*,#631,.F.);
#845=ORIENTED_EDGE('',*,*,#636,.F.);
#846=ORIENTED_EDGE('',*,*,#637,.T.);
#847=ORIENTED_EDGE('',*,*,#638,.T.);
#848=ORIENTED_EDGE('',*,*,#634,.F.);
#849=ORIENTED_EDGE('',*,*,#605,.T.);
#850=ORIENTED_EDGE('',*,*,#607,.T.);
#851=ORIENTED_EDGE('',*,*,#639,.F.);
#852=ORIENTED_EDGE('',*,*,#620,.T.);
#853=ORIENTED_EDGE('',*,*,#640,.T.);
#854=ORIENTED_EDGE('',*,*,#637,.F.);
#855=ORIENTED_EDGE('',*,*,#640,.F.);
#856=ORIENTED_EDGE('',*,*,#619,.F.);
#857=ORIENTED_EDGE('',*,*,#623,.F.);
#858=ORIENTED_EDGE('',*,*,#626,.F.);
#859=ORIENTED_EDGE('',*,*,#629,.F.);
#860=ORIENTED_EDGE('',*,*,#632,.F.);
#861=ORIENTED_EDGE('',*,*,#635,.F.);
#862=ORIENTED_EDGE('',*,*,#638,.F.);
#863=ORIENTED_EDGE('',*,*,#641,.T.);
#864=ORIENTED_EDGE('',*,*,#642,.T.);
#865=ORIENTED_EDGE('',*,*,#643,.T.);
#866=ORIENTED_EDGE('',*,*,#644,.T.);
#867=ORIENTED_EDGE('',*,*,#642,.F.);
#868=ORIENTED_EDGE('',*,*,#645,.T.);
#869=ORIENTED_EDGE('',*,*,#646,.F.);
#870=ORIENTED_EDGE('',*,*,#647,.T.);
#871=ORIENTED_EDGE('',*,*,#641,.F.);
#872=ORIENTED_EDGE('',*,*,#648,.F.);
#873=ORIENTED_EDGE('',*,*,#649,.F.);
#874=ORIENTED_EDGE('',*,*,#650,.F.);
#875=ORIENTED_EDGE('',*,*,#651,.F.);
#876=ORIENTED_EDGE('',*,*,#652,.T.);
#877=ORIENTED_EDGE('',*,*,#653,.F.);
#878=ORIENTED_EDGE('',*,*,#645,.F.);
#879=ORIENTED_EDGE('',*,*,#609,.T.);
#880=ORIENTED_EDGE('',*,*,#611,.T.);
#881=ORIENTED_EDGE('',*,*,#613,.T.);
#882=ORIENTED_EDGE('',*,*,#615,.T.);
#883=ORIENTED_EDGE('',*,*,#579,.T.);
#884=ORIENTED_EDGE('',*,*,#577,.T.);
#885=ORIENTED_EDGE('',*,*,#654,.T.);
#886=ORIENTED_EDGE('',*,*,#646,.T.);
#887=ORIENTED_EDGE('',*,*,#653,.T.);
#888=ORIENTED_EDGE('',*,*,#655,.T.);
#889=ORIENTED_EDGE('',*,*,#655,.F.);
#890=ORIENTED_EDGE('',*,*,#652,.F.);
#891=ORIENTED_EDGE('',*,*,#656,.F.);
#892=ORIENTED_EDGE('',*,*,#657,.T.);
#893=ORIENTED_EDGE('',*,*,#658,.T.);
#894=ORIENTED_EDGE('',*,*,#659,.T.);
#895=ORIENTED_EDGE('',*,*,#649,.T.);
#896=ORIENTED_EDGE('',*,*,#660,.T.);
#897=ORIENTED_EDGE('',*,*,#644,.F.);
#898=ORIENTED_EDGE('',*,*,#661,.F.);
#899=ORIENTED_EDGE('',*,*,#660,.F.);
#900=ORIENTED_EDGE('',*,*,#648,.T.);
#901=ORIENTED_EDGE('',*,*,#617,.T.);
#902=ORIENTED_EDGE('',*,*,#639,.T.);
#903=ORIENTED_EDGE('',*,*,#636,.T.);
#904=ORIENTED_EDGE('',*,*,#633,.T.);
#905=ORIENTED_EDGE('',*,*,#630,.T.);
#906=ORIENTED_EDGE('',*,*,#627,.T.);
#907=ORIENTED_EDGE('',*,*,#624,.T.);
#908=ORIENTED_EDGE('',*,*,#621,.T.);
#909=ORIENTED_EDGE('',*,*,#651,.T.);
#910=ORIENTED_EDGE('',*,*,#662,.T.);
#911=ORIENTED_EDGE('',*,*,#663,.T.);
#912=ORIENTED_EDGE('',*,*,#656,.T.);
#913=ORIENTED_EDGE('',*,*,#659,.F.);
#914=ORIENTED_EDGE('',*,*,#664,.T.);
#915=ORIENTED_EDGE('',*,*,#662,.F.);
#916=ORIENTED_EDGE('',*,*,#650,.T.);
#917=ORIENTED_EDGE('',*,*,#643,.F.);
#918=ORIENTED_EDGE('',*,*,#647,.F.);
#919=ORIENTED_EDGE('',*,*,#654,.F.);
#920=ORIENTED_EDGE('',*,*,#657,.F.);
#921=ORIENTED_EDGE('',*,*,#663,.F.);
#922=ORIENTED_EDGE('',*,*,#664,.F.);
#923=ORIENTED_EDGE('',*,*,#658,.F.);
#924=ORIENTED_EDGE('',*,*,#661,.T.);
#925=ORIENTED_EDGE('',*,*,#585,.T.);
#926=ORIENTED_EDGE('',*,*,#597,.T.);
#927=ORIENTED_EDGE('',*,*,#603,.T.);
#928=ORIENTED_EDGE('',*,*,#591,.T.);
#929=ORIENTED_EDGE('',*,*,#546,.T.);
#930=ORIENTED_EDGE('',*,*,#562,.T.);
#931=ORIENTED_EDGE('',*,*,#559,.T.);
#932=ORIENTED_EDGE('',*,*,#556,.T.);
#933=ORIENTED_EDGE('',*,*,#553,.T.);
#934=ORIENTED_EDGE('',*,*,#550,.T.);
#935=ORIENTED_EDGE('',*,*,#527,.T.);
#936=ORIENTED_EDGE('',*,*,#543,.T.);
#937=ORIENTED_EDGE('',*,*,#540,.T.);
#938=ORIENTED_EDGE('',*,*,#537,.T.);
#939=ORIENTED_EDGE('',*,*,#534,.T.);
#940=ORIENTED_EDGE('',*,*,#531,.T.);
#941=PLANE('',#1045);
#942=PLANE('',#1046);
#943=PLANE('',#1047);
#944=PLANE('',#1048);
#945=PLANE('',#1049);
#946=PLANE('',#1050);
#947=PLANE('',#1051);
#948=PLANE('',#1053);
#949=PLANE('',#1054);
#950=PLANE('',#1055);
#951=PLANE('',#1056);
#952=PLANE('',#1057);
#953=PLANE('',#1058);
#954=PLANE('',#1059);
#955=PLANE('',#1064);
#956=PLANE('',#1071);
#957=PLANE('',#1082);
#958=PLANE('',#1089);
#959=PLANE('',#1096);
#960=PLANE('',#1103);
#961=PLANE('',#1119);
#962=PLANE('',#1123);
#963=PLANE('',#1127);
#964=PLANE('',#1131);
#965=PLANE('',#1135);
#966=PLANE('',#1139);
#967=PLANE('',#1140);
#968=PLANE('',#1146);
#969=PLANE('',#1149);
#970=PLANE('',#1152);
#971=PLANE('',#1153);
#972=ADVANCED_FACE('',(#118),#941,.F.);
#973=ADVANCED_FACE('',(#119),#942,.F.);
#974=ADVANCED_FACE('',(#120),#943,.F.);
#975=ADVANCED_FACE('',(#121),#944,.F.);
#976=ADVANCED_FACE('',(#122),#945,.F.);
#977=ADVANCED_FACE('',(#123),#946,.F.);
#978=ADVANCED_FACE('',(#124,#43),#947,.T.);
#979=ADVANCED_FACE('',(#125),#948,.F.);
#980=ADVANCED_FACE('',(#126),#949,.F.);
#981=ADVANCED_FACE('',(#127),#950,.F.);
#982=ADVANCED_FACE('',(#128),#951,.F.);
#983=ADVANCED_FACE('',(#129),#952,.F.);
#984=ADVANCED_FACE('',(#130),#953,.F.);
#985=ADVANCED_FACE('',(#131,#44),#954,.T.);
#986=ADVANCED_FACE('',(#132),#37,.F.);
#987=ADVANCED_FACE('',(#133,#45),#955,.T.);
#988=ADVANCED_FACE('',(#134),#15,.F.);
#989=ADVANCED_FACE('',(#135),#38,.F.);
#990=ADVANCED_FACE('',(#136,#46),#956,.T.);
#991=ADVANCED_FACE('',(#137),#16,.F.);
#992=ADVANCED_FACE('',(#138),#17,.F.);
#993=ADVANCED_FACE('',(#139),#18,.F.);
#994=ADVANCED_FACE('',(#140),#39,.F.);
#995=ADVANCED_FACE('',(#141,#47),#957,.T.);
#996=ADVANCED_FACE('',(#142),#19,.F.);
#997=ADVANCED_FACE('',(#143),#40,.F.);
#998=ADVANCED_FACE('',(#144,#48),#958,.T.);
#999=ADVANCED_FACE('',(#145),#20,.F.);
#1000=ADVANCED_FACE('',(#146),#41,.F.);
#1001=ADVANCED_FACE('',(#147,#49),#959,.T.);
#1002=ADVANCED_FACE('',(#148),#21,.F.);
#1003=ADVANCED_FACE('',(#149),#42,.F.);
#1004=ADVANCED_FACE('',(#150,#50),#960,.T.);
#1005=ADVANCED_FACE('',(#151),#22,.F.);
#1006=ADVANCED_FACE('',(#152),#23,.F.);
#1007=ADVANCED_FACE('',(#153),#24,.F.);
#1008=ADVANCED_FACE('',(#154),#25,.F.);
#1009=ADVANCED_FACE('',(#155),#26,.F.);
#1010=ADVANCED_FACE('',(#156),#27,.F.);
#1011=ADVANCED_FACE('',(#157),#28,.F.);
#1012=ADVANCED_FACE('',(#158),#961,.F.);
#1013=ADVANCED_FACE('',(#159),#29,.F.);
#1014=ADVANCED_FACE('',(#160,#51,#52),#962,.F.);
#1015=ADVANCED_FACE('',(#161),#30,.F.);
#1016=ADVANCED_FACE('',(#162),#963,.F.);
#1017=ADVANCED_FACE('',(#163),#31,.F.);
#1018=ADVANCED_FACE('',(#164,#53,#54),#964,.F.);
#1019=ADVANCED_FACE('',(#165),#32,.F.);
#1020=ADVANCED_FACE('',(#166),#965,.T.);
#1021=ADVANCED_FACE('',(#167),#33,.T.);
#1022=ADVANCED_FACE('',(#168),#966,.F.);
#1023=ADVANCED_FACE('',(#169,#55,#56,#57,#58,#59,#60),#967,.F.);
#1024=ADVANCED_FACE('',(#170),#34,.T.);
#1025=ADVANCED_FACE('',(#171),#968,.F.);
#1026=ADVANCED_FACE('',(#172),#35,.T.);
#1027=ADVANCED_FACE('',(#173,#61),#969,.F.);
#1028=ADVANCED_FACE('',(#174),#36,.T.);
#1029=ADVANCED_FACE('',(#175),#970,.T.);
#1030=ADVANCED_FACE('',(#176,#62,#63,#64,#65,#66,#67),#971,.F.);
#1031=CLOSED_SHELL('',(#972,#973,#974,#975,#976,#977,#978,#979,#980,#981,
#982,#983,#984,#985,#986,#987,#988,#989,#990,#991,#992,#993,#994,#995,#996,
#997,#998,#999,#1000,#1001,#1002,#1003,#1004,#1005,#1006,#1007,#1008,#1009,
#1010,#1011,#1012,#1013,#1014,#1015,#1016,#1017,#1018,#1019,#1020,#1021,
#1022,#1023,#1024,#1025,#1026,#1027,#1028,#1029,#1030));
#1032=DERIVED_UNIT_ELEMENT(#1034,1.);
#1033=DERIVED_UNIT_ELEMENT(#1755,-3.);
#1034=(
MASS_UNIT()
NAMED_UNIT(*)
SI_UNIT(.KILO.,.GRAM.)
);
#1035=DERIVED_UNIT((#1032,#1033));
#1036=MEASURE_REPRESENTATION_ITEM('density measure',
POSITIVE_RATIO_MEASURE(7850.),#1035);
#1037=PROPERTY_DEFINITION_REPRESENTATION(#1042,#1039);
#1038=PROPERTY_DEFINITION_REPRESENTATION(#1043,#1040);
#1039=REPRESENTATION('material name',(#1041),#1752);
#1040=REPRESENTATION('density',(#1036),#1752);
#1041=DESCRIPTIVE_REPRESENTATION_ITEM('Steel','Steel');
#1042=PROPERTY_DEFINITION('material property','material name',#1762);
#1043=PROPERTY_DEFINITION('material property','density of part',#1762);
#1044=AXIS2_PLACEMENT_3D('',#1462,#1154,#1155);
#1045=AXIS2_PLACEMENT_3D('',#1463,#1156,#1157);
#1046=AXIS2_PLACEMENT_3D('',#1472,#1162,#1163);
#1047=AXIS2_PLACEMENT_3D('',#1478,#1167,#1168);
#1048=AXIS2_PLACEMENT_3D('',#1484,#1172,#1173);
#1049=AXIS2_PLACEMENT_3D('',#1490,#1177,#1178);
#1050=AXIS2_PLACEMENT_3D('',#1496,#1182,#1183);
#1051=AXIS2_PLACEMENT_3D('',#1499,#1186,#1187);
#1052=AXIS2_PLACEMENT_3D('',#1501,#1188,#1189);
#1053=AXIS2_PLACEMENT_3D('',#1502,#1190,#1191);
#1054=AXIS2_PLACEMENT_3D('',#1511,#1196,#1197);
#1055=AXIS2_PLACEMENT_3D('',#1517,#1201,#1202);
#1056=AXIS2_PLACEMENT_3D('',#1523,#1206,#1207);
#1057=AXIS2_PLACEMENT_3D('',#1529,#1211,#1212);
#1058=AXIS2_PLACEMENT_3D('',#1535,#1216,#1217);
#1059=AXIS2_PLACEMENT_3D('',#1538,#1220,#1221);
#1060=AXIS2_PLACEMENT_3D('',#1540,#1222,#1223);
#1061=AXIS2_PLACEMENT_3D('',#1541,#1224,#1225);
#1062=AXIS2_PLACEMENT_3D('',#1543,#1226,#1227);
#1063=AXIS2_PLACEMENT_3D('',#1546,#1229,#1230);
#1064=AXIS2_PLACEMENT_3D('',#1547,#1231,#1232);
#1065=AXIS2_PLACEMENT_3D('',#1549,#1233,#1234);
#1066=AXIS2_PLACEMENT_3D('',#1550,#1235,#1236);
#1067=AXIS2_PLACEMENT_3D('',#1553,#1238,#1239);
#1068=AXIS2_PLACEMENT_3D('',#1554,#1240,#1241);
#1069=AXIS2_PLACEMENT_3D('',#1556,#1242,#1243);
#1070=AXIS2_PLACEMENT_3D('',#1559,#1245,#1246);
#1071=AXIS2_PLACEMENT_3D('',#1560,#1247,#1248);
#1072=AXIS2_PLACEMENT_3D('',#1562,#1249,#1250);
#1073=AXIS2_PLACEMENT_3D('',#1563,#1251,#1252);
#1074=AXIS2_PLACEMENT_3D('',#1566,#1254,#1255);
#1075=AXIS2_PLACEMENT_3D('',#1567,#1256,#1257);
#1076=AXIS2_PLACEMENT_3D('',#1569,#1258,#1259);
#1077=AXIS2_PLACEMENT_3D('',#1571,#1261,#1262);
#1078=AXIS2_PLACEMENT_3D('',#1573,#1263,#1264);
#1079=AXIS2_PLACEMENT_3D('',#1575,#1266,#1267);
#1080=AXIS2_PLACEMENT_3D('',#1577,#1268,#1269);
#1081=AXIS2_PLACEMENT_3D('',#1580,#1271,#1272);
#1082=AXIS2_PLACEMENT_3D('',#1581,#1273,#1274);
#1083=AXIS2_PLACEMENT_3D('',#1583,#1275,#1276);
#1084=AXIS2_PLACEMENT_3D('',#1584,#1277,#1278);
#1085=AXIS2_PLACEMENT_3D('',#1586,#1279,#1280);
#1086=AXIS2_PLACEMENT_3D('',#1588,#1282,#1283);
#1087=AXIS2_PLACEMENT_3D('',#1590,#1284,#1285);
#1088=AXIS2_PLACEMENT_3D('',#1593,#1287,#1288);
#1089=AXIS2_PLACEMENT_3D('',#1594,#1289,#1290);
#1090=AXIS2_PLACEMENT_3D('',#1596,#1291,#1292);
#1091=AXIS2_PLACEMENT_3D('',#1597,#1293,#1294);
#1092=AXIS2_PLACEMENT_3D('',#1599,#1295,#1296);
#1093=AXIS2_PLACEMENT_3D('',#1601,#1298,#1299);
#1094=AXIS2_PLACEMENT_3D('',#1603,#1300,#1301);
#1095=AXIS2_PLACEMENT_3D('',#1606,#1303,#1304);
#1096=AXIS2_PLACEMENT_3D('',#1607,#1305,#1306);
#1097=AXIS2_PLACEMENT_3D('',#1609,#1307,#1308);
#1098=AXIS2_PLACEMENT_3D('',#1610,#1309,#1310);
#1099=AXIS2_PLACEMENT_3D('',#1612,#1311,#1312);
#1100=AXIS2_PLACEMENT_3D('',#1614,#1314,#1315);
#1101=AXIS2_PLACEMENT_3D('',#1616,#1316,#1317);
#1102=AXIS2_PLACEMENT_3D('',#1619,#1319,#1320);
#1103=AXIS2_PLACEMENT_3D('',#1620,#1321,#1322);
#1104=AXIS2_PLACEMENT_3D('',#1622,#1323,#1324);
#1105=AXIS2_PLACEMENT_3D('',#1623,#1325,#1326);
#1106=AXIS2_PLACEMENT_3D('',#1625,#1327,#1328);
#1107=AXIS2_PLACEMENT_3D('',#1627,#1330,#1331);
#1108=AXIS2_PLACEMENT_3D('',#1629,#1332,#1333);
#1109=AXIS2_PLACEMENT_3D('',#1631,#1335,#1336);
#1110=AXIS2_PLACEMENT_3D('',#1633,#1337,#1338);
#1111=AXIS2_PLACEMENT_3D('',#1635,#1340,#1341);
#1112=AXIS2_PLACEMENT_3D('',#1637,#1342,#1343);
#1113=AXIS2_PLACEMENT_3D('',#1639,#1345,#1346);
#1114=AXIS2_PLACEMENT_3D('',#1641,#1347,#1348);
#1115=AXIS2_PLACEMENT_3D('',#1643,#1350,#1351);
#1116=AXIS2_PLACEMENT_3D('',#1645,#1352,#1353);
#1117=AXIS2_PLACEMENT_3D('',#1647,#1355,#1356);
#1118=AXIS2_PLACEMENT_3D('',#1649,#1357,#1358);
#1119=AXIS2_PLACEMENT_3D('',#1651,#1360,#1361);
#1120=AXIS2_PLACEMENT_3D('',#1660,#1366,#1367);
#1121=AXIS2_PLACEMENT_3D('',#1662,#1368,#1369);
#1122=AXIS2_PLACEMENT_3D('',#1665,#1371,#1372);
#1123=AXIS2_PLACEMENT_3D('',#1666,#1373,#1374);
#1124=AXIS2_PLACEMENT_3D('',#1672,#1378,#1379);
#1125=AXIS2_PLACEMENT_3D('',#1674,#1380,#1381);
#1126=AXIS2_PLACEMENT_3D('',#1677,#1383,#1384);
#1127=AXIS2_PLACEMENT_3D('',#1678,#1385,#1386);
#1128=AXIS2_PLACEMENT_3D('',#1684,#1390,#1391);
#1129=AXIS2_PLACEMENT_3D('',#1686,#1392,#1393);
#1130=AXIS2_PLACEMENT_3D('',#1689,#1395,#1396);
#1131=AXIS2_PLACEMENT_3D('',#1690,#1397,#1398);
#1132=AXIS2_PLACEMENT_3D('',#1696,#1402,#1403);
#1133=AXIS2_PLACEMENT_3D('',#1697,#1404,#1405);
#1134=AXIS2_PLACEMENT_3D('',#1698,#1406,#1407);
#1135=AXIS2_PLACEMENT_3D('',#1699,#1408,#1409);
#1136=AXIS2_PLACEMENT_3D('',#1700,#1410,#1411);
#1137=AXIS2_PLACEMENT_3D('',#1703,#1412,#1413);
#1138=AXIS2_PLACEMENT_3D('',#1707,#1415,#1416);
#1139=AXIS2_PLACEMENT_3D('',#1709,#1418,#1419);
#1140=AXIS2_PLACEMENT_3D('',#1715,#1423,#1424);
#1141=AXIS2_PLACEMENT_3D('',#1719,#1426,#1427);
#1142=AXIS2_PLACEMENT_3D('',#1723,#1429,#1430);
#1143=AXIS2_PLACEMENT_3D('',#1726,#1432,#1433);
#1144=AXIS2_PLACEMENT_3D('',#1727,#1434,#1435);
#1145=AXIS2_PLACEMENT_3D('',#1729,#1436,#1437);
#1146=AXIS2_PLACEMENT_3D('',#1731,#1439,#1440);
#1147=AXIS2_PLACEMENT_3D('',#1735,#1443,#1444);
#1148=AXIS2_PLACEMENT_3D('',#1738,#1445,#1446);
#1149=AXIS2_PLACEMENT_3D('',#1741,#1449,#1450);
#1150=AXIS2_PLACEMENT_3D('',#1743,#1452,#1453);
#1151=AXIS2_PLACEMENT_3D('',#1746,#1455,#1456);
#1152=AXIS2_PLACEMENT_3D('',#1747,#1457,#1458);
#1153=AXIS2_PLACEMENT_3D('',#1749,#1460,#1461);
#1154=DIRECTION('axis',(0.,0.,1.));
#1155=DIRECTION('refdir',(1.,0.,0.));
#1156=DIRECTION('center_axis',(-0.500000000000002,-0.866025403784437,0.));
#1157=DIRECTION('ref_axis',(-0.866025403784437,0.500000000000002,0.));
#1158=DIRECTION('',(-0.866025403784437,0.500000000000002,0.));
#1159=DIRECTION('',(0.,0.,-1.));
#1160=DIRECTION('',(-0.866025403784437,0.500000000000002,0.));
#1161=DIRECTION('',(0.,0.,-1.));
#1162=DIRECTION('center_axis',(0.499999999999999,-0.866025403784439,0.));
#1163=DIRECTION('ref_axis',(-0.866025403784439,-0.499999999999999,0.));
#1164=DIRECTION('',(-0.866025403784439,-0.499999999999999,0.));
#1165=DIRECTION('',(0.,0.,-1.));
#1166=DIRECTION('',(-0.866025403784439,-0.499999999999999,0.));
#1167=DIRECTION('center_axis',(1.,-2.28924129331377E-15,0.));
#1168=DIRECTION('ref_axis',(-2.28924129331377E-15,-1.,0.));
#1169=DIRECTION('',(-2.28924129331377E-15,-1.,0.));
#1170=DIRECTION('',(0.,0.,-1.));
#1171=DIRECTION('',(-2.28924129331377E-15,-1.,0.));
#1172=DIRECTION('center_axis',(0.500000000000003,0.866025403784437,0.));
#1173=DIRECTION('ref_axis',(0.866025403784437,-0.500000000000003,0.));
#1174=DIRECTION('',(0.866025403784437,-0.500000000000003,0.));
#1175=DIRECTION('',(0.,0.,-1.));
#1176=DIRECTION('',(0.866025403784437,-0.500000000000003,0.));
#1177=DIRECTION('center_axis',(-0.499999999999998,0.86602540378444,0.));
#1178=DIRECTION('ref_axis',(0.86602540378444,0.499999999999998,0.));
#1179=DIRECTION('',(0.86602540378444,0.499999999999998,0.));
#1180=DIRECTION('',(0.,0.,-1.));
#1181=DIRECTION('',(0.86602540378444,0.499999999999998,0.));
#1182=DIRECTION('center_axis',(-1.,1.48800684065395E-15,0.));
#1183=DIRECTION('ref_axis',(1.48800684065395E-15,1.,0.));
#1184=DIRECTION('',(1.48800684065395E-15,1.,0.));
#1185=DIRECTION('',(1.48800684065395E-15,1.,0.));
#1186=DIRECTION('center_axis',(0.,0.,1.));
#1187=DIRECTION('ref_axis',(-1.,0.,0.));
#1188=DIRECTION('center_axis',(0.,0.,1.));
#1189=DIRECTION('ref_axis',(1.,0.,0.));
#1190=DIRECTION('center_axis',(-0.500000000000001,-0.866025403784438,0.));
#1191=DIRECTION('ref_axis',(-0.866025403784438,0.500000000000001,0.));
#1192=DIRECTION('',(-0.866025403784438,0.500000000000001,0.));
#1193=DIRECTION('',(0.,0.,-1.));
#1194=DIRECTION('',(-0.866025403784438,0.500000000000001,0.));
#1195=DIRECTION('',(0.,0.,-1.));
#1196=DIRECTION('center_axis',(0.499999999999998,-0.86602540378444,0.));
#1197=DIRECTION('ref_axis',(-0.86602540378444,-0.499999999999998,0.));
#1198=DIRECTION('',(-0.86602540378444,-0.499999999999998,0.));
#1199=DIRECTION('',(0.,0.,-1.));
#1200=DIRECTION('',(-0.86602540378444,-0.499999999999998,0.));
#1201=DIRECTION('center_axis',(1.,-2.06031716398239E-15,0.));
#1202=DIRECTION('ref_axis',(-2.06031716398239E-15,-1.,0.));
#1203=DIRECTION('',(-2.06031716398239E-15,-1.,0.));
#1204=DIRECTION('',(0.,0.,-1.));
#1205=DIRECTION('',(-2.06031716398239E-15,-1.,0.));
#1206=DIRECTION('center_axis',(0.500000000000001,0.866025403784438,0.));
#1207=DIRECTION('ref_axis',(0.866025403784438,-0.500000000000001,0.));
#1208=DIRECTION('',(0.866025403784438,-0.500000000000001,0.));
#1209=DIRECTION('',(0.,0.,-1.));
#1210=DIRECTION('',(0.866025403784438,-0.500000000000001,0.));
#1211=DIRECTION('center_axis',(-0.499999999999997,0.866025403784441,0.));
#1212=DIRECTION('ref_axis',(0.86602540378444,0.499999999999997,0.));
#1213=DIRECTION('',(0.86602540378444,0.499999999999997,0.));
#1214=DIRECTION('',(0.,0.,-1.));
#1215=DIRECTION('',(0.86602540378444,0.499999999999997,0.));
#1216=DIRECTION('center_axis',(-1.,4.57848258662753E-16,0.));
#1217=DIRECTION('ref_axis',(4.57848258662753E-16,1.,0.));
#1218=DIRECTION('',(4.57848258662753E-16,1.,0.));
#1219=DIRECTION('',(4.57848258662753E-16,1.,0.));
#1220=DIRECTION('center_axis',(0.,0.,1.));
#1221=DIRECTION('ref_axis',(-1.,0.,0.));
#1222=DIRECTION('center_axis',(0.,0.,1.));
#1223=DIRECTION('ref_axis',(1.,0.,0.));
#1224=DIRECTION('center_axis',(0.,0.,-1.));
#1225=DIRECTION('ref_axis',(1.,0.,0.));
#1226=DIRECTION('center_axis',(0.,0.,1.));
#1227=DIRECTION('ref_axis',(1.,0.,0.));
#1228=DIRECTION('',(-0.707106781186547,-8.65956056235493E-17,-0.707106781186548));
#1229=DIRECTION('center_axis',(0.,0.,-1.));
#1230=DIRECTION('ref_axis',(1.,0.,0.));
#1231=DIRECTION('center_axis',(0.,0.,-1.));
#1232=DIRECTION('ref_axis',(1.,0.,0.));
#1233=DIRECTION('center_axis',(0.,0.,1.));
#1234=DIRECTION('ref_axis',(1.,0.,0.));
#1235=DIRECTION('center_axis',(0.,0.,1.));
#1236=DIRECTION('ref_axis',(1.,0.,0.));
#1237=DIRECTION('',(0.,0.,1.));
#1238=DIRECTION('center_axis',(0.,0.,-1.));
#1239=DIRECTION('ref_axis',(1.,0.,0.));
#1240=DIRECTION('center_axis',(0.,0.,-1.));
#1241=DIRECTION('ref_axis',(1.,0.,0.));
#1242=DIRECTION('center_axis',(0.,0.,1.));
#1243=DIRECTION('ref_axis',(1.,0.,0.));
#1244=DIRECTION('',(-0.707106781186548,-8.65956056235493E-17,-0.707106781186548));
#1245=DIRECTION('center_axis',(0.,0.,-1.));
#1246=DIRECTION('ref_axis',(1.,0.,0.));
#1247=DIRECTION('center_axis',(0.,0.,-1.));
#1248=DIRECTION('ref_axis',(1.,0.,0.));
#1249=DIRECTION('center_axis',(0.,0.,1.));
#1250=DIRECTION('ref_axis',(1.,0.,0.));
#1251=DIRECTION('center_axis',(0.,0.,1.));
#1252=DIRECTION('ref_axis',(1.,0.,0.));
#1253=DIRECTION('',(0.,0.,1.));
#1254=DIRECTION('center_axis',(0.,0.,-1.));
#1255=DIRECTION('ref_axis',(1.,0.,0.));
#1256=DIRECTION('center_axis',(0.,0.,1.));
#1257=DIRECTION('ref_axis',(1.,0.,0.));
#1258=DIRECTION('center_axis',(0.,0.,1.));
#1259=DIRECTION('ref_axis',(1.,0.,0.));
#1260=DIRECTION('',(0.,0.,1.));
#1261=DIRECTION('center_axis',(0.,0.,1.));
#1262=DIRECTION('ref_axis',(1.,0.,0.));
#1263=DIRECTION('center_axis',(0.,0.,1.));
#1264=DIRECTION('ref_axis',(1.,0.,0.));
#1265=DIRECTION('',(0.,0.,1.));
#1266=DIRECTION('center_axis',(0.,0.,-1.));
#1267=DIRECTION('ref_axis',(-1.,0.,0.));
#1268=DIRECTION('center_axis',(0.,0.,1.));
#1269=DIRECTION('ref_axis',(-1.,0.,0.));
#1270=DIRECTION('',(0.70710678118654,8.65956056235484E-17,-0.707106781186555));
#1271=DIRECTION('center_axis',(0.,0.,-1.));
#1272=DIRECTION('ref_axis',(-1.,0.,0.));
#1273=DIRECTION('center_axis',(0.,0.,-1.));
#1274=DIRECTION('ref_axis',(1.,0.,0.));
#1275=DIRECTION('center_axis',(0.,0.,1.));
#1276=DIRECTION('ref_axis',(1.,0.,0.));
#1277=DIRECTION('center_axis',(0.,0.,-1.));
#1278=DIRECTION('ref_axis',(-1.,0.,0.));
#1279=DIRECTION('center_axis',(0.,0.,-1.));
#1280=DIRECTION('ref_axis',(-1.,0.,0.));
#1281=DIRECTION('',(0.,0.,-1.));
#1282=DIRECTION('center_axis',(0.,0.,-1.));
#1283=DIRECTION('ref_axis',(-1.,0.,0.));
#1284=DIRECTION('center_axis',(0.,0.,1.));
#1285=DIRECTION('ref_axis',(-1.,0.,0.));
#1286=DIRECTION('',(0.70710678118654,8.65956056235484E-17,-0.707106781186555));
#1287=DIRECTION('center_axis',(0.,0.,-1.));
#1288=DIRECTION('ref_axis',(-1.,0.,0.));
#1289=DIRECTION('center_axis',(0.,0.,-1.));
#1290=DIRECTION('ref_axis',(1.,0.,0.));
#1291=DIRECTION('center_axis',(0.,0.,1.));
#1292=DIRECTION('ref_axis',(1.,0.,0.));
#1293=DIRECTION('center_axis',(0.,0.,-1.));
#1294=DIRECTION('ref_axis',(-1.,0.,0.));
#1295=DIRECTION('center_axis',(0.,0.,-1.));
#1296=DIRECTION('ref_axis',(-1.,0.,0.));
#1297=DIRECTION('',(0.,0.,-1.));
#1298=DIRECTION('center_axis',(0.,0.,-1.));
#1299=DIRECTION('ref_axis',(-1.,0.,0.));
#1300=DIRECTION('center_axis',(0.,0.,1.));
#1301=DIRECTION('ref_axis',(-1.,0.,0.));
#1302=DIRECTION('',(0.707106781186548,8.65956056235493E-17,-0.707106781186548));
#1303=DIRECTION('center_axis',(0.,0.,-1.));
#1304=DIRECTION('ref_axis',(-1.,0.,0.));
#1305=DIRECTION('center_axis',(0.,0.,-1.));
#1306=DIRECTION('ref_axis',(1.,0.,0.));
#1307=DIRECTION('center_axis',(0.,0.,1.));
#1308=DIRECTION('ref_axis',(1.,0.,0.));
#1309=DIRECTION('center_axis',(0.,0.,-1.));
#1310=DIRECTION('ref_axis',(-1.,0.,0.));
#1311=DIRECTION('center_axis',(0.,0.,-1.));
#1312=DIRECTION('ref_axis',(-1.,0.,0.));
#1313=DIRECTION('',(0.,0.,-1.));
#1314=DIRECTION('center_axis',(0.,0.,-1.));
#1315=DIRECTION('ref_axis',(-1.,0.,0.));
#1316=DIRECTION('center_axis',(0.,0.,1.));
#1317=DIRECTION('ref_axis',(-1.,0.,0.));
#1318=DIRECTION('',(0.707106781186548,8.65956056235493E-17,-0.707106781186548));
#1319=DIRECTION('center_axis',(0.,0.,-1.));
#1320=DIRECTION('ref_axis',(-1.,0.,0.));
#1321=DIRECTION('center_axis',(0.,0.,-1.));
#1322=DIRECTION('ref_axis',(1.,0.,0.));
#1323=DIRECTION('center_axis',(0.,0.,1.));
#1324=DIRECTION('ref_axis',(1.,0.,0.));
#1325=DIRECTION('center_axis',(0.,0.,-1.));
#1326=DIRECTION('ref_axis',(-1.,0.,0.));
#1327=DIRECTION('center_axis',(0.,0.,-1.));
#1328=DIRECTION('ref_axis',(-1.,0.,0.));
#1329=DIRECTION('',(0.,0.,-1.));
#1330=DIRECTION('center_axis',(0.,0.,1.));
#1331=DIRECTION('ref_axis',(1.,0.,0.));
#1332=DIRECTION('center_axis',(0.,0.,1.));
#1333=DIRECTION('ref_axis',(1.,0.,0.));
#1334=DIRECTION('',(0.,0.,1.));
#1335=DIRECTION('center_axis',(0.,0.,1.));
#1336=DIRECTION('ref_axis',(1.,0.,0.));
#1337=DIRECTION('center_axis',(0.,0.,1.));
#1338=DIRECTION('ref_axis',(1.,0.,0.));
#1339=DIRECTION('',(0.,0.,1.));
#1340=DIRECTION('center_axis',(0.,0.,1.));
#1341=DIRECTION('ref_axis',(1.,0.,0.));
#1342=DIRECTION('center_axis',(0.,0.,1.));
#1343=DIRECTION('ref_axis',(1.,0.,0.));
#1344=DIRECTION('',(0.,0.,1.));
#1345=DIRECTION('center_axis',(0.,0.,1.));
#1346=DIRECTION('ref_axis',(1.,0.,0.));
#1347=DIRECTION('center_axis',(0.,0.,1.));
#1348=DIRECTION('ref_axis',(1.,0.,0.));
#1349=DIRECTION('',(0.,0.,1.));
#1350=DIRECTION('center_axis',(0.,0.,1.));
#1351=DIRECTION('ref_axis',(1.,0.,0.));
#1352=DIRECTION('center_axis',(0.,0.,1.));
#1353=DIRECTION('ref_axis',(1.,0.,0.));
#1354=DIRECTION('',(0.,0.,1.));
#1355=DIRECTION('center_axis',(0.,0.,1.));
#1356=DIRECTION('ref_axis',(1.,0.,0.));
#1357=DIRECTION('center_axis',(0.,0.,1.));
#1358=DIRECTION('ref_axis',(1.,0.,0.));
#1359=DIRECTION('',(0.,0.,1.));
#1360=DIRECTION('center_axis',(1.,0.,-1.22002530178589E-16));
#1361=DIRECTION('ref_axis',(1.22002530178589E-16,0.,1.));
#1362=DIRECTION('',(1.22002530178589E-16,-1.83752876455327E-31,1.));
#1363=DIRECTION('',(0.,-1.,0.));
#1364=DIRECTION('',(1.22002530178589E-16,0.,1.));
#1365=DIRECTION('',(0.,-1.,0.));
#1366=DIRECTION('center_axis',(0.,-1.,0.));
#1367=DIRECTION('ref_axis',(1.,0.,0.));
#1368=DIRECTION('center_axis',(-1.50613988239709E-15,-1.,0.));
#1369=DIRECTION('ref_axis',(1.,0.,0.));
#1370=DIRECTION('',(0.,-1.,0.));
#1371=DIRECTION('center_axis',(0.,-1.,0.));
#1372=DIRECTION('ref_axis',(1.,0.,0.));
#1373=DIRECTION('center_axis',(0.,0.,-1.));
#1374=DIRECTION('ref_axis',(1.,0.,0.));
#1375=DIRECTION('',(1.,-1.50613988239709E-15,0.));
#1376=DIRECTION('',(0.,-1.,0.));
#1377=DIRECTION('',(1.,0.,0.));
#1378=DIRECTION('center_axis',(0.,-1.,0.));
#1379=DIRECTION('ref_axis',(-1.11022302462516E-15,0.,-1.));
#1380=DIRECTION('center_axis',(-1.50613988239709E-15,-1.,0.));
#1381=DIRECTION('ref_axis',(-1.11022302462516E-15,0.,-1.));
#1382=DIRECTION('',(0.,-1.,0.));
#1383=DIRECTION('center_axis',(0.,-1.,0.));
#1384=DIRECTION('ref_axis',(-1.11022302462516E-15,0.,-1.));
#1385=DIRECTION('center_axis',(-1.,0.,-1.22002530178589E-16));
#1386=DIRECTION('ref_axis',(1.22002530178589E-16,0.,-1.));
#1387=DIRECTION('',(1.22002530178589E-16,-1.83752876455327E-31,-1.));
#1388=DIRECTION('',(0.,-1.,0.));
#1389=DIRECTION('',(1.22002530178589E-16,0.,-1.));
#1390=DIRECTION('center_axis',(0.,-1.,0.));
#1391=DIRECTION('ref_axis',(-1.,0.,4.44089209850061E-15));
#1392=DIRECTION('center_axis',(-1.50613988239709E-15,-1.,0.));
#1393=DIRECTION('ref_axis',(-1.,0.,4.44089209850061E-15));
#1394=DIRECTION('',(0.,-1.,0.));
#1395=DIRECTION('center_axis',(0.,-1.,0.));
#1396=DIRECTION('ref_axis',(-1.,0.,4.44089209850061E-15));
#1397=DIRECTION('center_axis',(0.,0.,1.));
#1398=DIRECTION('ref_axis',(-1.,0.,0.));
#1399=DIRECTION('',(-1.,1.50613988239709E-15,0.));
#1400=DIRECTION('',(0.,-1.,0.));
#1401=DIRECTION('',(-1.,0.,0.));
#1402=DIRECTION('center_axis',(0.,-1.,0.));
#1403=DIRECTION('ref_axis',(2.2204460492503E-15,0.,1.));
#1404=DIRECTION('center_axis',(-1.50613988239709E-15,-1.,0.));
#1405=DIRECTION('ref_axis',(2.2204460492503E-15,0.,1.));
#1406=DIRECTION('center_axis',(0.,-1.,0.));
#1407=DIRECTION('ref_axis',(2.2204460492503E-15,0.,1.));
#1408=DIRECTION('center_axis',(0.,1.,0.));
#1409=DIRECTION('ref_axis',(-1.,0.,0.));
#1410=DIRECTION('center_axis',(0.,0.,-1.));
#1411=DIRECTION('ref_axis',(-0.707106781186546,0.707106781186549,0.));
#1412=DIRECTION('center_axis',(0.,0.,1.));
#1413=DIRECTION('ref_axis',(-0.707106781186546,0.707106781186549,0.));
#1414=DIRECTION('',(0.,0.,1.));
#1415=DIRECTION('center_axis',(0.,0.,-1.));
#1416=DIRECTION('ref_axis',(-0.707106781186546,0.707106781186549,0.));
#1417=DIRECTION('',(0.,0.,-1.));
#1418=DIRECTION('center_axis',(1.,-1.50613988239709E-15,0.));
#1419=DIRECTION('ref_axis',(0.,0.,-1.));
#1420=DIRECTION('',(-1.50613988239709E-15,-1.,0.));
#1421=DIRECTION('',(0.,0.,-1.));
#1422=DIRECTION('',(1.50613988239709E-15,1.,0.));
#1423=DIRECTION('center_axis',(0.,0.,1.));
#1424=DIRECTION('ref_axis',(1.,-1.50613988239709E-15,0.));
#1425=DIRECTION('',(-1.,1.50613988239709E-15,0.));
#1426=DIRECTION('center_axis',(0.,0.,1.));
#1427=DIRECTION('ref_axis',(0.707106781186548,0.707106781186547,0.));
#1428=DIRECTION('',(1.50613988239709E-15,1.,0.));
#1429=DIRECTION('center_axis',(0.,0.,1.));
#1430=DIRECTION('ref_axis',(0.707106781186547,-0.707106781186549,0.));
#1431=DIRECTION('',(-1.,1.50613988239709E-15,0.));
#1432=DIRECTION('center_axis',(0.,0.,1.));
#1433=DIRECTION('ref_axis',(-0.707106781186548,-0.707106781186547,0.));
#1434=DIRECTION('center_axis',(0.,0.,1.));
#1435=DIRECTION('ref_axis',(-0.707106781186548,-0.707106781186547,0.));
#1436=DIRECTION('center_axis',(0.,0.,-1.));
#1437=DIRECTION('ref_axis',(-0.707106781186548,-0.707106781186547,0.));
#1438=DIRECTION('',(0.,0.,1.));
#1439=DIRECTION('center_axis',(1.50613988239709E-15,1.,0.));
#1440=DIRECTION('ref_axis',(1.,-1.50613988239709E-15,0.));
#1441=DIRECTION('',(0.,0.,-1.));
#1442=DIRECTION('',(-1.,1.50613988239709E-15,0.));
#1443=DIRECTION('center_axis',(0.,0.,1.));
#1444=DIRECTION('ref_axis',(0.707106781186548,0.707106781186547,0.));
#1445=DIRECTION('center_axis',(0.,0.,-1.));
#1446=DIRECTION('ref_axis',(0.707106781186548,0.707106781186547,0.));
#1447=DIRECTION('',(0.,0.,-1.));
#1448=DIRECTION('',(0.,0.,1.));
#1449=DIRECTION('center_axis',(-1.50613988239709E-15,-1.,0.));
#1450=DIRECTION('ref_axis',(-1.,1.50613988239709E-15,0.));
#1451=DIRECTION('',(-1.,1.50613988239709E-15,0.));
#1452=DIRECTION('center_axis',(0.,0.,-1.));
#1453=DIRECTION('ref_axis',(0.707106781186547,-0.707106781186549,0.));
#1454=DIRECTION('',(0.,0.,1.));
#1455=DIRECTION('center_axis',(0.,0.,-1.));
#1456=DIRECTION('ref_axis',(0.707106781186547,-0.707106781186549,0.));
#1457=DIRECTION('center_axis',(1.,-1.50613988239709E-15,0.));
#1458=DIRECTION('ref_axis',(0.,0.,-1.));
#1459=DIRECTION('',(-1.50613988239709E-15,-1.,0.));
#1460=DIRECTION('center_axis',(0.,0.,-1.));
#1461=DIRECTION('ref_axis',(-1.,1.50613988239709E-15,0.));
#1462=CARTESIAN_POINT('',(0.,0.,0.));
#1463=CARTESIAN_POINT('Origin',(-1.29563026973756E-12,22.6502577388071,
45.));
#1464=CARTESIAN_POINT('',(-1.29577755806597E-12,22.6502577388071,45.));
#1465=CARTESIAN_POINT('',(-4.20000000000129,25.0751288694036,45.));
#1466=CARTESIAN_POINT('',(-4.29759526419244,25.131475521456,45.));
#1467=CARTESIAN_POINT('',(-1.29590782549371E-12,22.6502577388071,40.6));
#1468=CARTESIAN_POINT('',(-1.29577755806597E-12,22.6502577388071,45.));
#1469=CARTESIAN_POINT('',(-4.20000000000129,25.0751288694036,40.6));
#1470=CARTESIAN_POINT('',(-4.20000000000129,25.0751288694036,40.6));
#1471=CARTESIAN_POINT('',(-4.20000000000129,25.0751288694036,45.));
#1472=CARTESIAN_POINT('Origin',(4.19999999999871,25.0751288694036,45.));
#1473=CARTESIAN_POINT('',(4.19999999999871,25.0751288694036,45.));
#1474=CARTESIAN_POINT('',(6.39759526419085,26.3439110867547,45.));
#1475=CARTESIAN_POINT('',(4.19999999999871,25.0751288694036,40.6));
#1476=CARTESIAN_POINT('',(4.19999999999871,25.0751288694036,45.));
#1477=CARTESIAN_POINT('',(-1.29577755806597E-12,22.6502577388071,40.6));
#1478=CARTESIAN_POINT('Origin',(4.19999999999872,29.9248711305964,45.));
#1479=CARTESIAN_POINT('',(4.19999999999872,29.9248711305964,45.));
#1480=CARTESIAN_POINT('',(4.19999999999873,36.2124355652982,45.));
#1481=CARTESIAN_POINT('',(4.19999999999872,29.9248711305964,40.6));
#1482=CARTESIAN_POINT('',(4.19999999999872,29.9248711305964,45.));
#1483=CARTESIAN_POINT('',(4.19999999999871,25.0751288694036,40.6));
#1484=CARTESIAN_POINT('Origin',(-1.27176047470812E-12,32.3497422611929,
45.));
#1485=CARTESIAN_POINT('',(-1.27180384279502E-12,32.3497422611929,45.));
#1486=CARTESIAN_POINT('',(-2.19759526419242,33.6185244785435,45.));
#1487=CARTESIAN_POINT('',(-1.27176047470812E-12,32.3497422611929,40.6));
#1488=CARTESIAN_POINT('',(-1.27180384279502E-12,32.3497422611929,45.));
#1489=CARTESIAN_POINT('',(4.19999999999872,29.9248711305964,40.6));
#1490=CARTESIAN_POINT('Origin',(-4.20000000000128,29.9248711305964,45.));
#1491=CARTESIAN_POINT('',(-4.20000000000128,29.9248711305964,45.));
#1492=CARTESIAN_POINT('',(0.0975952641908592,32.4060889132458,45.));
#1493=CARTESIAN_POINT('',(-4.20000000000128,29.9248711305964,40.6));
#1494=CARTESIAN_POINT('',(-4.20000000000128,29.9248711305964,45.));
#1495=CARTESIAN_POINT('',(-1.27180384279502E-12,32.3497422611929,40.6));
#1496=CARTESIAN_POINT('Origin',(-4.20000000000129,25.0751288694036,45.));
#1497=CARTESIAN_POINT('',(-4.20000000000128,33.7875644347018,45.));
#1498=CARTESIAN_POINT('',(-4.20000000000128,29.9248711305964,40.6));
#1499=CARTESIAN_POINT('Origin',(-1.28452803949131E-12,27.5,40.6));
#1500=CARTESIAN_POINT('',(-2.20000000000129,27.5,40.6));
#1501=CARTESIAN_POINT('Origin',(-1.28475711831115E-12,27.5,40.6));
#1502=CARTESIAN_POINT('Origin',(-2.57571741713036E-13,60.1502577388071,
45.));
#1503=CARTESIAN_POINT('',(-2.57372363748473E-13,60.1502577388071,45.));
#1504=CARTESIAN_POINT('',(-4.20000000000025,62.5751288694036,45.));
#1505=CARTESIAN_POINT('',(3.82139289628734,57.9439755214562,45.));
#1506=CARTESIAN_POINT('',(-2.5729418595688E-13,60.1502577388071,40.6));
#1507=CARTESIAN_POINT('',(-2.57372363748473E-13,60.1502577388071,45.));
#1508=CARTESIAN_POINT('',(-4.20000000000025,62.5751288694036,40.6));
#1509=CARTESIAN_POINT('',(-4.20000000000025,62.5751288694036,40.6));
#1510=CARTESIAN_POINT('',(-4.20000000000025,62.5751288694036,45.));
#1511=CARTESIAN_POINT('Origin',(4.19999999999974,62.5751288694036,45.));
#1512=CARTESIAN_POINT('',(4.19999999999974,62.5751288694036,45.));
#1513=CARTESIAN_POINT('',(-1.72139289628759,59.1564110867545,45.));
#1514=CARTESIAN_POINT('',(4.19999999999974,62.5751288694036,40.6));
#1515=CARTESIAN_POINT('',(4.19999999999974,62.5751288694036,45.));
#1516=CARTESIAN_POINT('',(-2.57372363748473E-13,60.1502577388071,40.6));
#1517=CARTESIAN_POINT('Origin',(4.19999999999975,67.4248711305964,45.));
#1518=CARTESIAN_POINT('',(4.19999999999975,67.4248711305964,45.));
#1519=CARTESIAN_POINT('',(4.19999999999973,54.9624355652982,45.));
#1520=CARTESIAN_POINT('',(4.19999999999975,67.4248711305964,40.6));
#1521=CARTESIAN_POINT('',(4.19999999999975,67.4248711305964,45.));
#1522=CARTESIAN_POINT('',(4.19999999999974,62.5751288694036,40.6));
#1523=CARTESIAN_POINT('Origin',(-2.36477504245158E-13,69.8497422611929,
45.));
#1524=CARTESIAN_POINT('',(-2.36648355644977E-13,69.8497422611929,45.));
#1525=CARTESIAN_POINT('',(5.92139289628735,66.4310244785437,45.));
#1526=CARTESIAN_POINT('',(-2.36755060001315E-13,69.8497422611929,40.6));
#1527=CARTESIAN_POINT('',(-2.36648355644977E-13,69.8497422611929,45.));
#1528=CARTESIAN_POINT('',(4.19999999999975,67.4248711305964,40.6));
#1529=CARTESIAN_POINT('Origin',(-4.20000000000025,67.4248711305964,45.));
#1530=CARTESIAN_POINT('',(-4.20000000000025,67.4248711305964,45.));
#1531=CARTESIAN_POINT('',(-8.02139289628757,65.2185889132456,45.));
#1532=CARTESIAN_POINT('',(-4.20000000000025,67.4248711305964,40.6));
#1533=CARTESIAN_POINT('',(-4.20000000000025,67.4248711305964,45.));
#1534=CARTESIAN_POINT('',(-2.36648355644977E-13,69.8497422611929,40.6));
#1535=CARTESIAN_POINT('Origin',(-4.20000000000025,62.5751288694036,45.));
#1536=CARTESIAN_POINT('',(-4.20000000000026,52.5375644347018,45.));
#1537=CARTESIAN_POINT('',(-4.20000000000025,67.4248711305964,40.6));
#1538=CARTESIAN_POINT('Origin',(-2.4757973449141E-13,65.,40.6));
#1539=CARTESIAN_POINT('',(-2.20000000000025,65.,40.6));
#1540=CARTESIAN_POINT('Origin',(-2.47984773560485E-13,65.,40.6));
#1541=CARTESIAN_POINT('Origin',(-2.47984773560485E-13,65.,5.5));
#1542=CARTESIAN_POINT('',(-2.20000000000025,65.,5.6));
#1543=CARTESIAN_POINT('Origin',(-2.47984773560485E-13,65.,5.6));
#1544=CARTESIAN_POINT('',(-2.40000000000025,65.,5.4));
#1545=CARTESIAN_POINT('',(-2.30000000000025,65.,5.5));
#1546=CARTESIAN_POINT('Origin',(-2.47984773560485E-13,65.,5.4));
#1547=CARTESIAN_POINT('Origin',(-2.48134846003722E-13,65.,5.4));
#1548=CARTESIAN_POINT('',(-4.45000000000025,65.,5.4));
#1549=CARTESIAN_POINT('Origin',(-2.47984773560485E-13,65.,5.4));
#1550=CARTESIAN_POINT('Origin',(-2.47984773560485E-13,65.,0.));
#1551=CARTESIAN_POINT('',(-2.20000000000025,65.,12.));
#1552=CARTESIAN_POINT('',(-2.20000000000025,65.,0.));
#1553=CARTESIAN_POINT('Origin',(-2.47984773560485E-13,65.,12.));
#1554=CARTESIAN_POINT('Origin',(-1.28475711831115E-12,27.5,5.5));
#1555=CARTESIAN_POINT('',(-2.20000000000129,27.5,5.6));
#1556=CARTESIAN_POINT('Origin',(-1.28475711831115E-12,27.5,5.6));
#1557=CARTESIAN_POINT('',(-2.40000000000129,27.5,5.4));
#1558=CARTESIAN_POINT('',(-2.30000000000129,27.5,5.5));
#1559=CARTESIAN_POINT('Origin',(-1.28475711831115E-12,27.5,5.4));
#1560=CARTESIAN_POINT('Origin',(-1.28452803949131E-12,27.5,5.4));
#1561=CARTESIAN_POINT('',(-4.45000000000128,27.5,5.4));
#1562=CARTESIAN_POINT('Origin',(-1.28475711831115E-12,27.5,5.4));
#1563=CARTESIAN_POINT('Origin',(-1.28475711831115E-12,27.5,0.));
#1564=CARTESIAN_POINT('',(-2.20000000000129,27.5,12.));
#1565=CARTESIAN_POINT('',(-2.20000000000129,27.5,0.));
#1566=CARTESIAN_POINT('Origin',(-1.28475711831115E-12,27.5,12.));
#1567=CARTESIAN_POINT('Origin',(-2.47984773560485E-13,65.,0.));
#1568=CARTESIAN_POINT('',(-4.45000000000025,65.,0.));
#1569=CARTESIAN_POINT('Origin',(-2.47984773560485E-13,65.,0.));
#1570=CARTESIAN_POINT('',(-4.45000000000025,65.,0.));
#1571=CARTESIAN_POINT('Origin',(-1.28475711831115E-12,27.5,0.));
#1572=CARTESIAN_POINT('',(-4.45000000000128,27.5,0.));
#1573=CARTESIAN_POINT('Origin',(-1.28475711831115E-12,27.5,0.));
#1574=CARTESIAN_POINT('',(-4.45000000000128,27.5,0.));
#1575=CARTESIAN_POINT('Origin',(-39.9999999999999,7.49999999999994,5.5));
#1576=CARTESIAN_POINT('',(-37.7999999999999,7.49999999999994,5.6));
#1577=CARTESIAN_POINT('Origin',(-39.9999999999999,7.49999999999994,5.6));
#1578=CARTESIAN_POINT('',(-37.5999999999999,7.49999999999994,5.4));
#1579=CARTESIAN_POINT('',(-37.6999999999999,7.49999999999994,5.5));
#1580=CARTESIAN_POINT('Origin',(-39.9999999999999,7.49999999999994,5.4));
#1581=CARTESIAN_POINT('Origin',(-39.9999999999999,7.49999999999994,5.4));
#1582=CARTESIAN_POINT('',(-44.4499999999999,7.49999999999994,5.4));
#1583=CARTESIAN_POINT('Origin',(-39.9999999999999,7.49999999999994,5.4));
#1584=CARTESIAN_POINT('Origin',(-39.9999999999999,7.49999999999994,45.));
#1585=CARTESIAN_POINT('',(-37.7999999999999,7.49999999999994,45.));
#1586=CARTESIAN_POINT('Origin',(-39.9999999999999,7.49999999999994,45.));
#1587=CARTESIAN_POINT('',(-37.7999999999999,7.49999999999994,45.));
#1588=CARTESIAN_POINT('Origin',(-39.9999999999999,77.4999999999999,5.5));
#1589=CARTESIAN_POINT('',(-37.7999999999999,77.4999999999999,5.6));
#1590=CARTESIAN_POINT('Origin',(-39.9999999999999,77.4999999999999,5.6));
#1591=CARTESIAN_POINT('',(-37.5999999999999,77.4999999999999,5.4));
#1592=CARTESIAN_POINT('',(-37.6999999999999,77.4999999999999,5.5));
#1593=CARTESIAN_POINT('Origin',(-39.9999999999999,77.4999999999999,5.4));
#1594=CARTESIAN_POINT('Origin',(-39.9999999999999,77.4999999999999,5.4));
#1595=CARTESIAN_POINT('',(-44.4499999999999,77.4999999999999,5.4));
#1596=CARTESIAN_POINT('Origin',(-39.9999999999999,77.4999999999999,5.4));
#1597=CARTESIAN_POINT('Origin',(-39.9999999999999,77.4999999999999,45.));
#1598=CARTESIAN_POINT('',(-37.7999999999999,77.4999999999999,45.));
#1599=CARTESIAN_POINT('Origin',(-39.9999999999999,77.4999999999999,45.));
#1600=CARTESIAN_POINT('',(-37.7999999999999,77.4999999999999,45.));
#1601=CARTESIAN_POINT('Origin',(40.0000000000001,77.4999999999999,5.5));
#1602=CARTESIAN_POINT('',(42.2000000000001,77.4999999999999,5.6));
#1603=CARTESIAN_POINT('Origin',(40.0000000000001,77.4999999999999,5.6));
#1604=CARTESIAN_POINT('',(42.4000000000001,77.4999999999999,5.4));
#1605=CARTESIAN_POINT('',(42.3000000000001,77.4999999999999,5.5));
#1606=CARTESIAN_POINT('Origin',(40.0000000000001,77.4999999999999,5.4));
#1607=CARTESIAN_POINT('Origin',(40.0000000000001,77.4999999999999,5.4));
#1608=CARTESIAN_POINT('',(35.5500000000001,77.4999999999999,5.4));
#1609=CARTESIAN_POINT('Origin',(40.0000000000001,77.4999999999999,5.4));
#1610=CARTESIAN_POINT('Origin',(40.0000000000001,77.4999999999999,45.));
#1611=CARTESIAN_POINT('',(42.2000000000001,77.4999999999999,45.));
#1612=CARTESIAN_POINT('Origin',(40.0000000000001,77.4999999999999,45.));
#1613=CARTESIAN_POINT('',(42.2000000000001,77.4999999999999,45.));
#1614=CARTESIAN_POINT('Origin',(40.0000000000001,7.49999999999994,5.5));
#1615=CARTESIAN_POINT('',(42.2000000000001,7.49999999999994,5.6));
#1616=CARTESIAN_POINT('Origin',(40.0000000000001,7.49999999999994,5.6));
#1617=CARTESIAN_POINT('',(42.4000000000001,7.49999999999994,5.4));
#1618=CARTESIAN_POINT('',(42.3000000000001,7.49999999999994,5.5));
#1619=CARTESIAN_POINT('Origin',(40.0000000000001,7.49999999999994,5.4));
#1620=CARTESIAN_POINT('Origin',(40.0000000000001,7.49999999999994,5.4));
#1621=CARTESIAN_POINT('',(35.5500000000001,7.49999999999994,5.4));
#1622=CARTESIAN_POINT('Origin',(40.0000000000001,7.49999999999994,5.4));
#1623=CARTESIAN_POINT('Origin',(40.0000000000001,7.49999999999994,45.));
#1624=CARTESIAN_POINT('',(42.2000000000001,7.49999999999994,45.));
#1625=CARTESIAN_POINT('Origin',(40.0000000000001,7.49999999999994,45.));
#1626=CARTESIAN_POINT('',(42.2000000000001,7.49999999999994,45.));
#1627=CARTESIAN_POINT('Origin',(-2.47984773560485E-13,65.,0.));
#1628=CARTESIAN_POINT('',(-2.20000000000025,65.,32.2));
#1629=CARTESIAN_POINT('Origin',(-2.47984773560485E-13,65.,32.2));
#1630=CARTESIAN_POINT('',(-2.20000000000025,65.,0.));
#1631=CARTESIAN_POINT('Origin',(-1.28475711831115E-12,27.5,0.));
#1632=CARTESIAN_POINT('',(-2.20000000000129,27.5,32.2));
#1633=CARTESIAN_POINT('Origin',(-1.28475711831115E-12,27.5,32.2));
#1634=CARTESIAN_POINT('',(-2.20000000000129,27.5,0.));
#1635=CARTESIAN_POINT('Origin',(-39.9999999999999,77.4999999999999,0.));
#1636=CARTESIAN_POINT('',(-44.4499999999999,77.4999999999999,0.));
#1637=CARTESIAN_POINT('Origin',(-39.9999999999999,77.4999999999999,0.));
#1638=CARTESIAN_POINT('',(-44.4499999999999,77.4999999999999,0.));
#1639=CARTESIAN_POINT('Origin',(40.0000000000001,7.49999999999994,0.));
#1640=CARTESIAN_POINT('',(35.5500000000001,7.49999999999994,0.));
#1641=CARTESIAN_POINT('Origin',(40.0000000000001,7.49999999999994,0.));
#1642=CARTESIAN_POINT('',(35.5500000000001,7.49999999999994,0.));
#1643=CARTESIAN_POINT('Origin',(40.0000000000001,77.4999999999999,0.));
#1644=CARTESIAN_POINT('',(35.5500000000001,77.4999999999999,0.));
#1645=CARTESIAN_POINT('Origin',(40.0000000000001,77.4999999999999,0.));
#1646=CARTESIAN_POINT('',(35.5500000000001,77.4999999999999,0.));
#1647=CARTESIAN_POINT('Origin',(-39.9999999999999,7.49999999999994,0.));
#1648=CARTESIAN_POINT('',(-44.4499999999999,7.49999999999994,0.));
#1649=CARTESIAN_POINT('Origin',(-39.9999999999999,7.49999999999994,0.));
#1650=CARTESIAN_POINT('',(-44.4499999999999,7.49999999999994,0.));
#1651=CARTESIAN_POINT('Origin',(10.1,85.,13.));
#1652=CARTESIAN_POINT('',(10.1,85.,13.));
#1653=CARTESIAN_POINT('',(10.1,85.,31.2));
#1654=CARTESIAN_POINT('',(10.1,85.,17.75));
#1655=CARTESIAN_POINT('',(10.1,10.,13.));
#1656=CARTESIAN_POINT('',(10.1,85.,13.));
#1657=CARTESIAN_POINT('',(10.1,10.,31.2));
#1658=CARTESIAN_POINT('',(10.1,10.,13.));
#1659=CARTESIAN_POINT('',(10.1,85.,31.2));
#1660=CARTESIAN_POINT('Origin',(9.10000000000001,85.,13.));
#1661=CARTESIAN_POINT('',(9.10000000000001,85.,12.));
#1662=CARTESIAN_POINT('Origin',(9.10000000000001,85.,13.));
#1663=CARTESIAN_POINT('',(9.10000000000001,10.,12.));
#1664=CARTESIAN_POINT('',(9.10000000000001,85.,12.));
#1665=CARTESIAN_POINT('Origin',(9.10000000000001,10.,13.));
#1666=CARTESIAN_POINT('Origin',(-9.09999999999999,85.,12.));
#1667=CARTESIAN_POINT('',(-9.09999999999999,85.,12.));
#1668=CARTESIAN_POINT('',(-4.54999999999993,85.,12.));
#1669=CARTESIAN_POINT('',(-9.09999999999999,10.,12.));
#1670=CARTESIAN_POINT('',(-9.09999999999999,85.,12.));
#1671=CARTESIAN_POINT('',(-9.09999999999999,10.,12.));
#1672=CARTESIAN_POINT('Origin',(-9.09999999999999,85.,13.));
#1673=CARTESIAN_POINT('',(-10.1,85.,13.));
#1674=CARTESIAN_POINT('Origin',(-9.09999999999999,85.,13.));
#1675=CARTESIAN_POINT('',(-10.1,10.,13.));
#1676=CARTESIAN_POINT('',(-10.1,85.,13.));
#1677=CARTESIAN_POINT('Origin',(-9.09999999999999,10.,13.));
#1678=CARTESIAN_POINT('Origin',(-10.1,85.,31.2));
#1679=CARTESIAN_POINT('',(-10.1,85.,31.2));
#1680=CARTESIAN_POINT('',(-10.1,85.,26.85));
#1681=CARTESIAN_POINT('',(-10.1,10.,31.2));
#1682=CARTESIAN_POINT('',(-10.1,85.,31.2));
#1683=CARTESIAN_POINT('',(-10.1,10.,31.2));
#1684=CARTESIAN_POINT('Origin',(-9.09999999999999,85.,31.2));
#1685=CARTESIAN_POINT('',(-9.09999999999999,85.,32.2));
#1686=CARTESIAN_POINT('Origin',(-9.09999999999999,85.,31.2));
#1687=CARTESIAN_POINT('',(-9.09999999999999,10.,32.2));
#1688=CARTESIAN_POINT('',(-9.09999999999999,85.,32.2));
#1689=CARTESIAN_POINT('Origin',(-9.09999999999999,10.,31.2));
#1690=CARTESIAN_POINT('Origin',(9.10000000000001,85.,32.2));
#1691=CARTESIAN_POINT('',(9.10000000000001,85.,32.2));
#1692=CARTESIAN_POINT('',(4.55000000000007,85.,32.2));
#1693=CARTESIAN_POINT('',(9.10000000000001,10.,32.2));
#1694=CARTESIAN_POINT('',(9.10000000000001,85.,32.2));
#1695=CARTESIAN_POINT('',(9.10000000000001,10.,32.2));
#1696=CARTESIAN_POINT('Origin',(9.10000000000001,85.,31.2));
#1697=CARTESIAN_POINT('Origin',(9.10000000000001,85.,31.2));
#1698=CARTESIAN_POINT('Origin',(9.10000000000001,10.,31.2));
#1699=CARTESIAN_POINT('Origin',(8.88178419700125E-15,10.,22.1));
#1700=CARTESIAN_POINT('Origin',(-46.3499999999999,77.0000000000001,22.5));
#1701=CARTESIAN_POINT('',(-46.3499999999999,85.0000000000001,0.));
#1702=CARTESIAN_POINT('',(-54.3499999999999,77.0000000000001,0.));
#1703=CARTESIAN_POINT('Origin',(-46.3499999999999,77.0000000000001,0.));
#1704=CARTESIAN_POINT('',(-54.3499999999999,77.0000000000001,45.));
#1705=CARTESIAN_POINT('',(-54.3499999999999,77.0000000000001,22.5));
#1706=CARTESIAN_POINT('',(-46.3499999999999,85.0000000000001,45.));
#1707=CARTESIAN_POINT('Origin',(-46.3499999999999,77.0000000000001,45.));
#1708=CARTESIAN_POINT('',(-46.3499999999999,85.0000000000001,22.5));
#1709=CARTESIAN_POINT('Origin',(-54.3499999999999,42.5000000000001,22.5));
#1710=CARTESIAN_POINT('',(-54.35,8.00000000000008,0.));
#1711=CARTESIAN_POINT('',(-54.3499999999999,42.5000000000001,0.));
#1712=CARTESIAN_POINT('',(-54.35,8.00000000000008,45.));
#1713=CARTESIAN_POINT('',(-54.35,8.00000000000008,22.5));
#1714=CARTESIAN_POINT('',(-54.3499999999999,42.5000000000001,45.));
#1715=CARTESIAN_POINT('Origin',(6.21724893790088E-14,42.5,0.));
#1716=CARTESIAN_POINT('',(46.3500000000001,84.9999999999999,0.));
#1717=CARTESIAN_POINT('',(1.24344978758018E-13,85.,0.));
#1718=CARTESIAN_POINT('',(54.3500000000001,76.9999999999999,0.));
#1719=CARTESIAN_POINT('Origin',(46.3500000000001,76.9999999999999,0.));
#1720=CARTESIAN_POINT('',(54.35,7.99999999999992,0.));
#1721=CARTESIAN_POINT('',(54.3500000000001,42.4999999999999,0.));
#1722=CARTESIAN_POINT('',(46.35,-6.98095835491053E-14,0.));
#1723=CARTESIAN_POINT('Origin',(46.35,7.99999999999993,0.));
#1724=CARTESIAN_POINT('',(-46.35,6.98095835491053E-14,0.));
#1725=CARTESIAN_POINT('',(0.,0.,0.));
#1726=CARTESIAN_POINT('Origin',(-46.35,8.00000000000007,0.));
#1727=CARTESIAN_POINT('Origin',(-46.35,8.00000000000007,22.5));
#1728=CARTESIAN_POINT('',(-46.35,6.98095835491053E-14,45.));
#1729=CARTESIAN_POINT('Origin',(-46.35,8.00000000000007,45.));
#1730=CARTESIAN_POINT('',(-46.35,6.99440505513849E-14,22.5));
#1731=CARTESIAN_POINT('Origin',(0.,0.,22.5));
#1732=CARTESIAN_POINT('',(46.35,-6.98095835491053E-14,45.));
#1733=CARTESIAN_POINT('',(46.35,-6.99440505513849E-14,22.5));
#1734=CARTESIAN_POINT('',(0.,0.,45.));
#1735=CARTESIAN_POINT('Origin',(46.3500000000001,76.9999999999999,22.5));
#1736=CARTESIAN_POINT('',(46.3500000000001,84.9999999999999,45.));
#1737=CARTESIAN_POINT('',(54.3500000000001,76.9999999999999,45.));
#1738=CARTESIAN_POINT('Origin',(46.3500000000001,76.9999999999999,45.));
#1739=CARTESIAN_POINT('',(54.3500000000001,76.9999999999999,22.5));
#1740=CARTESIAN_POINT('',(46.3500000000001,84.9999999999999,22.5));
#1741=CARTESIAN_POINT('Origin',(1.24344978758018E-13,85.,22.5));
#1742=CARTESIAN_POINT('',(1.24344978758018E-13,85.,45.));
#1743=CARTESIAN_POINT('Origin',(46.35,7.99999999999993,22.5));
#1744=CARTESIAN_POINT('',(54.35,7.99999999999992,45.));
#1745=CARTESIAN_POINT('',(54.35,7.99999999999992,22.5));
#1746=CARTESIAN_POINT('Origin',(46.35,7.99999999999993,45.));
#1747=CARTESIAN_POINT('Origin',(54.3500000000001,42.4999999999999,22.5));
#1748=CARTESIAN_POINT('',(54.3500000000001,42.4999999999999,45.));
#1749=CARTESIAN_POINT('Origin',(6.21724893790088E-14,42.5,45.));
#1750=UNCERTAINTY_MEASURE_WITH_UNIT(LENGTH_MEASURE(0.01),#1754,
'DISTANCE_ACCURACY_VALUE',
'Maximum model space distance between geometric entities at asserted c
onnectivities');
#1751=UNCERTAINTY_MEASURE_WITH_UNIT(LENGTH_MEASURE(0.01),#1754,
'DISTANCE_ACCURACY_VALUE',
'Maximum model space distance between geometric entities at asserted c
onnectivities');
#1752=(
GEOMETRIC_REPRESENTATION_CONTEXT(3)
GLOBAL_UNCERTAINTY_ASSIGNED_CONTEXT((#1750))
GLOBAL_UNIT_ASSIGNED_CONTEXT((#1754,#1756,#1757))
REPRESENTATION_CONTEXT('','3D')
);
#1753=(
GEOMETRIC_REPRESENTATION_CONTEXT(3)
GLOBAL_UNCERTAINTY_ASSIGNED_CONTEXT((#1751))
GLOBAL_UNIT_ASSIGNED_CONTEXT((#1754,#1756,#1757))
REPRESENTATION_CONTEXT('','3D')
);
#1754=(
LENGTH_UNIT()
NAMED_UNIT(*)
SI_UNIT(.MILLI.,.METRE.)
);
#1755=(
LENGTH_UNIT()
NAMED_UNIT(*)
SI_UNIT($,.METRE.)
);
#1756=(
NAMED_UNIT(*)
PLANE_ANGLE_UNIT()
SI_UNIT($,.RADIAN.)
);
#1757=(
NAMED_UNIT(*)
SI_UNIT($,.STERADIAN.)
SOLID_ANGLE_UNIT()
);
#1758=SHAPE_DEFINITION_REPRESENTATION(#1759,#1760);
#1759=PRODUCT_DEFINITION_SHAPE('',$,#1762);
#1760=SHAPE_REPRESENTATION('',(#1044),#1752);
#1761=PRODUCT_DEFINITION_CONTEXT('part definition',#1766,'design');
#1762=PRODUCT_DEFINITION('2026-04-17-15-38-20-862',
'sensors_module_platform',#1763,#1761);
#1763=PRODUCT_DEFINITION_FORMATION('',$,#1768);
#1764=PRODUCT_RELATED_PRODUCT_CATEGORY('sensors_module_platform',
'sensors_module_platform',(#1768));
#1765=APPLICATION_PROTOCOL_DEFINITION('international standard',
'automotive_design',2009,#1766);
#1766=APPLICATION_CONTEXT(
'Core Data for Automotive Mechanical Design Process');
#1767=PRODUCT_CONTEXT('part definition',#1766,'mechanical');
#1768=PRODUCT('2026-04-17-15-38-20-862','sensors_module_platform',$,(#1767));
#1769=PRESENTATION_STYLE_ASSIGNMENT((#1770));
#1770=SURFACE_STYLE_USAGE(.BOTH.,#1771);
#1771=SURFACE_SIDE_STYLE('',(#1772));
#1772=SURFACE_STYLE_FILL_AREA(#1773);
#1773=FILL_AREA_STYLE('Steel - Satin',(#1774));
#1774=FILL_AREA_STYLE_COLOUR('Steel - Satin',#1775);
#1775=COLOUR_RGB('Steel - Satin',0.627450980392157,0.627450980392157,0.627450980392157);
ENDSEC;
END-ISO-10303-21;
