ISO-10303-21;
HEADER;
/* Generated by software containing ST-Developer
 * from STEP Tools, Inc. (www.steptools.com) 
 */

FILE_DESCRIPTION(
/* description */ (''),
/* implementation_level */ '2;1');

FILE_NAME(
/* name */ 'sm_wall_front.step',
/* time_stamp */ '2026-04-18T17:22:21+02:00',
/* author */ (''),
/* organization */ (''),
/* preprocessor_version */ 'ST-DEVELOPER v20.1',
/* originating_system */ 'Autodesk Translation Framework v15.8.0.0',
/* authorisation */ '');

FILE_SCHEMA (('AUTOMOTIVE_DESIGN { 1 0 10303 214 3 1 1 }'));
ENDSEC;

DATA;
#10=MECHANICAL_DESIGN_GEOMETRIC_PRESENTATION_REPRESENTATION('',(#13),#385);
#11=SHAPE_REPRESENTATION_RELATIONSHIP('SRR','None',#392,#12);
#12=ADVANCED_BREP_SHAPE_REPRESENTATION('',(#14),#384);
#13=STYLED_ITEM('',(#401),#14);
#14=MANIFOLD_SOLID_BREP('Body1',#229);
#15=CIRCLE('',#245,8.);
#16=CIRCLE('',#246,8.);
#17=CIRCLE('',#249,7.99999999999999);
#18=CIRCLE('',#250,7.99999999999999);
#19=CYLINDRICAL_SURFACE('',#244,8.);
#20=CYLINDRICAL_SURFACE('',#248,7.99999999999999);
#21=FACE_OUTER_BOUND('',#33,.T.);
#22=FACE_OUTER_BOUND('',#34,.T.);
#23=FACE_OUTER_BOUND('',#35,.T.);
#24=FACE_OUTER_BOUND('',#36,.T.);
#25=FACE_OUTER_BOUND('',#37,.T.);
#26=FACE_OUTER_BOUND('',#38,.T.);
#27=FACE_OUTER_BOUND('',#39,.T.);
#28=FACE_OUTER_BOUND('',#40,.T.);
#29=FACE_OUTER_BOUND('',#41,.T.);
#30=FACE_OUTER_BOUND('',#42,.T.);
#31=FACE_OUTER_BOUND('',#43,.T.);
#32=FACE_OUTER_BOUND('',#44,.T.);
#33=EDGE_LOOP('',(#147,#148,#149,#150));
#34=EDGE_LOOP('',(#151,#152,#153,#154));
#35=EDGE_LOOP('',(#155,#156,#157,#158));
#36=EDGE_LOOP('',(#159,#160,#161,#162));
#37=EDGE_LOOP('',(#163,#164,#165,#166));
#38=EDGE_LOOP('',(#167,#168,#169,#170,#171,#172,#173,#174,#175,#176));
#39=EDGE_LOOP('',(#177,#178,#179,#180));
#40=EDGE_LOOP('',(#181,#182,#183,#184));
#41=EDGE_LOOP('',(#185,#186,#187,#188));
#42=EDGE_LOOP('',(#189,#190,#191,#192));
#43=EDGE_LOOP('',(#193,#194,#195,#196));
#44=EDGE_LOOP('',(#197,#198,#199,#200,#201,#202,#203,#204,#205,#206));
#45=LINE('',#323,#71);
#46=LINE('',#325,#72);
#47=LINE('',#327,#73);
#48=LINE('',#328,#74);
#49=LINE('',#334,#75);
#50=LINE('',#337,#76);
#51=LINE('',#339,#77);
#52=LINE('',#340,#78);
#53=LINE('',#345,#79);
#54=LINE('',#349,#80);
#55=LINE('',#351,#81);
#56=LINE('',#352,#82);
#57=LINE('',#355,#83);
#58=LINE('',#357,#84);
#59=LINE('',#359,#85);
#60=LINE('',#361,#86);
#61=LINE('',#362,#87);
#62=LINE('',#365,#88);
#63=LINE('',#366,#89);
#64=LINE('',#369,#90);
#65=LINE('',#371,#91);
#66=LINE('',#372,#92);
#67=LINE('',#374,#93);
#68=LINE('',#377,#94);
#69=LINE('',#378,#95);
#70=LINE('',#380,#96);
#71=VECTOR('',#263,10.);
#72=VECTOR('',#264,10.);
#73=VECTOR('',#265,10.);
#74=VECTOR('',#266,10.);
#75=VECTOR('',#273,10.);
#76=VECTOR('',#276,10.);
#77=VECTOR('',#277,10.);
#78=VECTOR('',#278,10.);
#79=VECTOR('',#283,10.);
#80=VECTOR('',#288,10.);
#81=VECTOR('',#289,10.);
#82=VECTOR('',#290,10.);
#83=VECTOR('',#293,10.);
#84=VECTOR('',#294,10.);
#85=VECTOR('',#295,10.);
#86=VECTOR('',#296,10.);
#87=VECTOR('',#297,10.);
#88=VECTOR('',#300,10.);
#89=VECTOR('',#301,10.);
#90=VECTOR('',#304,10.);
#91=VECTOR('',#305,10.);
#92=VECTOR('',#306,10.);
#93=VECTOR('',#309,10.);
#94=VECTOR('',#312,10.);
#95=VECTOR('',#313,10.);
#96=VECTOR('',#316,10.);
#97=VERTEX_POINT('',#321);
#98=VERTEX_POINT('',#322);
#99=VERTEX_POINT('',#324);
#100=VERTEX_POINT('',#326);
#101=VERTEX_POINT('',#330);
#102=VERTEX_POINT('',#332);
#103=VERTEX_POINT('',#336);
#104=VERTEX_POINT('',#338);
#105=VERTEX_POINT('',#342);
#106=VERTEX_POINT('',#344);
#107=VERTEX_POINT('',#348);
#108=VERTEX_POINT('',#350);
#109=VERTEX_POINT('',#354);
#110=VERTEX_POINT('',#356);
#111=VERTEX_POINT('',#358);
#112=VERTEX_POINT('',#360);
#113=VERTEX_POINT('',#364);
#114=VERTEX_POINT('',#368);
#115=VERTEX_POINT('',#370);
#116=VERTEX_POINT('',#376);
#117=EDGE_CURVE('',#97,#98,#45,.T.);
#118=EDGE_CURVE('',#99,#97,#46,.T.);
#119=EDGE_CURVE('',#100,#99,#47,.T.);
#120=EDGE_CURVE('',#100,#98,#48,.T.);
#121=EDGE_CURVE('',#98,#101,#15,.T.);
#122=EDGE_CURVE('',#102,#100,#16,.T.);
#123=EDGE_CURVE('',#102,#101,#49,.T.);
#124=EDGE_CURVE('',#101,#103,#50,.T.);
#125=EDGE_CURVE('',#104,#102,#51,.T.);
#126=EDGE_CURVE('',#103,#104,#52,.T.);
#127=EDGE_CURVE('',#105,#97,#17,.T.);
#128=EDGE_CURVE('',#106,#105,#53,.T.);
#129=EDGE_CURVE('',#99,#106,#18,.T.);
#130=EDGE_CURVE('',#107,#105,#54,.T.);
#131=EDGE_CURVE('',#108,#107,#55,.T.);
#132=EDGE_CURVE('',#106,#108,#56,.T.);
#133=EDGE_CURVE('',#108,#109,#57,.T.);
#134=EDGE_CURVE('',#109,#110,#58,.T.);
#135=EDGE_CURVE('',#110,#111,#59,.T.);
#136=EDGE_CURVE('',#111,#112,#60,.T.);
#137=EDGE_CURVE('',#112,#104,#61,.T.);
#138=EDGE_CURVE('',#113,#107,#62,.T.);
#139=EDGE_CURVE('',#109,#113,#63,.T.);
#140=EDGE_CURVE('',#111,#114,#64,.T.);
#141=EDGE_CURVE('',#115,#114,#65,.T.);
#142=EDGE_CURVE('',#112,#115,#66,.T.);
#143=EDGE_CURVE('',#103,#115,#67,.T.);
#144=EDGE_CURVE('',#116,#113,#68,.T.);
#145=EDGE_CURVE('',#110,#116,#69,.T.);
#146=EDGE_CURVE('',#114,#116,#70,.T.);
#147=ORIENTED_EDGE('',*,*,#117,.F.);
#148=ORIENTED_EDGE('',*,*,#118,.F.);
#149=ORIENTED_EDGE('',*,*,#119,.F.);
#150=ORIENTED_EDGE('',*,*,#120,.T.);
#151=ORIENTED_EDGE('',*,*,#121,.F.);
#152=ORIENTED_EDGE('',*,*,#120,.F.);
#153=ORIENTED_EDGE('',*,*,#122,.F.);
#154=ORIENTED_EDGE('',*,*,#123,.T.);
#155=ORIENTED_EDGE('',*,*,#124,.F.);
#156=ORIENTED_EDGE('',*,*,#123,.F.);
#157=ORIENTED_EDGE('',*,*,#125,.F.);
#158=ORIENTED_EDGE('',*,*,#126,.F.);
#159=ORIENTED_EDGE('',*,*,#127,.F.);
#160=ORIENTED_EDGE('',*,*,#128,.F.);
#161=ORIENTED_EDGE('',*,*,#129,.F.);
#162=ORIENTED_EDGE('',*,*,#118,.T.);
#163=ORIENTED_EDGE('',*,*,#130,.F.);
#164=ORIENTED_EDGE('',*,*,#131,.F.);
#165=ORIENTED_EDGE('',*,*,#132,.F.);
#166=ORIENTED_EDGE('',*,*,#128,.T.);
#167=ORIENTED_EDGE('',*,*,#125,.T.);
#168=ORIENTED_EDGE('',*,*,#122,.T.);
#169=ORIENTED_EDGE('',*,*,#119,.T.);
#170=ORIENTED_EDGE('',*,*,#129,.T.);
#171=ORIENTED_EDGE('',*,*,#132,.T.);
#172=ORIENTED_EDGE('',*,*,#133,.T.);
#173=ORIENTED_EDGE('',*,*,#134,.T.);
#174=ORIENTED_EDGE('',*,*,#135,.T.);
#175=ORIENTED_EDGE('',*,*,#136,.T.);
#176=ORIENTED_EDGE('',*,*,#137,.T.);
#177=ORIENTED_EDGE('',*,*,#131,.T.);
#178=ORIENTED_EDGE('',*,*,#138,.F.);
#179=ORIENTED_EDGE('',*,*,#139,.F.);
#180=ORIENTED_EDGE('',*,*,#133,.F.);
#181=ORIENTED_EDGE('',*,*,#136,.F.);
#182=ORIENTED_EDGE('',*,*,#140,.T.);
#183=ORIENTED_EDGE('',*,*,#141,.F.);
#184=ORIENTED_EDGE('',*,*,#142,.F.);
#185=ORIENTED_EDGE('',*,*,#126,.T.);
#186=ORIENTED_EDGE('',*,*,#137,.F.);
#187=ORIENTED_EDGE('',*,*,#142,.T.);
#188=ORIENTED_EDGE('',*,*,#143,.F.);
#189=ORIENTED_EDGE('',*,*,#134,.F.);
#190=ORIENTED_EDGE('',*,*,#139,.T.);
#191=ORIENTED_EDGE('',*,*,#144,.F.);
#192=ORIENTED_EDGE('',*,*,#145,.F.);
#193=ORIENTED_EDGE('',*,*,#135,.F.);
#194=ORIENTED_EDGE('',*,*,#145,.T.);
#195=ORIENTED_EDGE('',*,*,#146,.F.);
#196=ORIENTED_EDGE('',*,*,#140,.F.);
#197=ORIENTED_EDGE('',*,*,#124,.T.);
#198=ORIENTED_EDGE('',*,*,#143,.T.);
#199=ORIENTED_EDGE('',*,*,#141,.T.);
#200=ORIENTED_EDGE('',*,*,#146,.T.);
#201=ORIENTED_EDGE('',*,*,#144,.T.);
#202=ORIENTED_EDGE('',*,*,#138,.T.);
#203=ORIENTED_EDGE('',*,*,#130,.T.);
#204=ORIENTED_EDGE('',*,*,#127,.T.);
#205=ORIENTED_EDGE('',*,*,#117,.T.);
#206=ORIENTED_EDGE('',*,*,#121,.T.);
#207=PLANE('',#243);
#208=PLANE('',#247);
#209=PLANE('',#251);
#210=PLANE('',#252);
#211=PLANE('',#253);
#212=PLANE('',#254);
#213=PLANE('',#255);
#214=PLANE('',#256);
#215=PLANE('',#257);
#216=PLANE('',#258);
#217=ADVANCED_FACE('',(#21),#207,.F.);
#218=ADVANCED_FACE('',(#22),#19,.F.);
#219=ADVANCED_FACE('',(#23),#208,.F.);
#220=ADVANCED_FACE('',(#24),#20,.F.);
#221=ADVANCED_FACE('',(#25),#209,.F.);
#222=ADVANCED_FACE('',(#26),#210,.F.);
#223=ADVANCED_FACE('',(#27),#211,.T.);
#224=ADVANCED_FACE('',(#28),#212,.T.);
#225=ADVANCED_FACE('',(#29),#213,.T.);
#226=ADVANCED_FACE('',(#30),#214,.T.);
#227=ADVANCED_FACE('',(#31),#215,.T.);
#228=ADVANCED_FACE('',(#32),#216,.T.);
#229=CLOSED_SHELL('',(#217,#218,#219,#220,#221,#222,#223,#224,#225,#226,
#227,#228));
#230=DERIVED_UNIT_ELEMENT(#232,1.);
#231=DERIVED_UNIT_ELEMENT(#387,-3.);
#232=(
MASS_UNIT()
NAMED_UNIT(*)
SI_UNIT(.KILO.,.GRAM.)
);
#233=DERIVED_UNIT((#230,#231));
#234=MEASURE_REPRESENTATION_ITEM('density measure',
POSITIVE_RATIO_MEASURE(7850.),#233);
#235=PROPERTY_DEFINITION_REPRESENTATION(#240,#237);
#236=PROPERTY_DEFINITION_REPRESENTATION(#241,#238);
#237=REPRESENTATION('material name',(#239),#384);
#238=REPRESENTATION('density',(#234),#384);
#239=DESCRIPTIVE_REPRESENTATION_ITEM('Steel','Steel');
#240=PROPERTY_DEFINITION('material property','material name',#394);
#241=PROPERTY_DEFINITION('material property','density of part',#394);
#242=AXIS2_PLACEMENT_3D('',#319,#259,#260);
#243=AXIS2_PLACEMENT_3D('',#320,#261,#262);
#244=AXIS2_PLACEMENT_3D('',#329,#267,#268);
#245=AXIS2_PLACEMENT_3D('',#331,#269,#270);
#246=AXIS2_PLACEMENT_3D('',#333,#271,#272);
#247=AXIS2_PLACEMENT_3D('',#335,#274,#275);
#248=AXIS2_PLACEMENT_3D('',#341,#279,#280);
#249=AXIS2_PLACEMENT_3D('',#343,#281,#282);
#250=AXIS2_PLACEMENT_3D('',#346,#284,#285);
#251=AXIS2_PLACEMENT_3D('',#347,#286,#287);
#252=AXIS2_PLACEMENT_3D('',#353,#291,#292);
#253=AXIS2_PLACEMENT_3D('',#363,#298,#299);
#254=AXIS2_PLACEMENT_3D('',#367,#302,#303);
#255=AXIS2_PLACEMENT_3D('',#373,#307,#308);
#256=AXIS2_PLACEMENT_3D('',#375,#310,#311);
#257=AXIS2_PLACEMENT_3D('',#379,#314,#315);
#258=AXIS2_PLACEMENT_3D('',#381,#317,#318);
#259=DIRECTION('axis',(0.,0.,1.));
#260=DIRECTION('refdir',(1.,0.,0.));
#261=DIRECTION('center_axis',(0.,0.,1.));
#262=DIRECTION('ref_axis',(1.,0.,0.));
#263=DIRECTION('',(-1.,0.,0.));
#264=DIRECTION('',(0.,1.,0.));
#265=DIRECTION('',(1.,0.,0.));
#266=DIRECTION('',(0.,1.,0.));
#267=DIRECTION('center_axis',(0.,1.,0.));
#268=DIRECTION('ref_axis',(0.,0.,1.));
#269=DIRECTION('center_axis',(0.,-1.,0.));
#270=DIRECTION('ref_axis',(0.,0.,1.));
#271=DIRECTION('center_axis',(0.,1.,0.));
#272=DIRECTION('ref_axis',(0.,0.,1.));
#273=DIRECTION('',(0.,1.,0.));
#274=DIRECTION('center_axis',(-1.,0.,0.));
#275=DIRECTION('ref_axis',(0.,0.,1.));
#276=DIRECTION('',(0.,0.,-1.));
#277=DIRECTION('',(0.,0.,1.));
#278=DIRECTION('',(0.,-1.,0.));
#279=DIRECTION('center_axis',(0.,1.,0.));
#280=DIRECTION('ref_axis',(1.,0.,0.));
#281=DIRECTION('center_axis',(0.,-1.,0.));
#282=DIRECTION('ref_axis',(1.,0.,0.));
#283=DIRECTION('',(0.,1.,0.));
#284=DIRECTION('center_axis',(0.,1.,0.));
#285=DIRECTION('ref_axis',(1.,0.,0.));
#286=DIRECTION('center_axis',(1.,0.,4.8935450121219E-16));
#287=DIRECTION('ref_axis',(4.8935450121219E-16,0.,-1.));
#288=DIRECTION('',(-4.8935450121219E-16,0.,1.));
#289=DIRECTION('',(0.,1.,0.));
#290=DIRECTION('',(4.8935450121219E-16,0.,-1.));
#291=DIRECTION('center_axis',(0.,1.,0.));
#292=DIRECTION('ref_axis',(1.,0.,0.));
#293=DIRECTION('',(1.,0.,0.));
#294=DIRECTION('',(0.,0.,1.));
#295=DIRECTION('',(-1.,0.,0.));
#296=DIRECTION('',(0.,0.,-1.));
#297=DIRECTION('',(1.,0.,0.));
#298=DIRECTION('center_axis',(0.,0.,-1.));
#299=DIRECTION('ref_axis',(-1.,0.,0.));
#300=DIRECTION('',(-1.,0.,0.));
#301=DIRECTION('',(0.,1.,0.));
#302=DIRECTION('center_axis',(-1.,0.,0.));
#303=DIRECTION('ref_axis',(0.,0.,1.));
#304=DIRECTION('',(0.,1.,0.));
#305=DIRECTION('',(0.,0.,1.));
#306=DIRECTION('',(0.,1.,0.));
#307=DIRECTION('center_axis',(0.,0.,-1.));
#308=DIRECTION('ref_axis',(-1.,0.,0.));
#309=DIRECTION('',(-1.,0.,0.));
#310=DIRECTION('center_axis',(1.,0.,0.));
#311=DIRECTION('ref_axis',(0.,0.,-1.));
#312=DIRECTION('',(0.,0.,-1.));
#313=DIRECTION('',(0.,1.,0.));
#314=DIRECTION('center_axis',(0.,0.,1.));
#315=DIRECTION('ref_axis',(1.,0.,0.));
#316=DIRECTION('',(1.,0.,0.));
#317=DIRECTION('center_axis',(0.,1.,0.));
#318=DIRECTION('ref_axis',(0.,0.,1.));
#319=CARTESIAN_POINT('',(0.,0.,0.));
#320=CARTESIAN_POINT('Origin',(19.74,0.,44.3));
#321=CARTESIAN_POINT('',(60.6,2.,44.3));
#322=CARTESIAN_POINT('',(19.74,2.,44.3));
#323=CARTESIAN_POINT('',(30.445,2.,44.3));
#324=CARTESIAN_POINT('',(60.6,0.,44.3));
#325=CARTESIAN_POINT('',(60.6,0.,44.3));
#326=CARTESIAN_POINT('',(19.74,0.,44.3));
#327=CARTESIAN_POINT('',(30.445,0.,44.3));
#328=CARTESIAN_POINT('',(19.74,0.,44.3));
#329=CARTESIAN_POINT('Origin',(19.74,0.,36.3));
#330=CARTESIAN_POINT('',(11.74,2.,36.3));
#331=CARTESIAN_POINT('Origin',(19.74,2.,36.3));
#332=CARTESIAN_POINT('',(11.74,0.,36.3));
#333=CARTESIAN_POINT('Origin',(19.74,0.,36.3));
#334=CARTESIAN_POINT('',(11.74,0.,36.3));
#335=CARTESIAN_POINT('Origin',(11.74,0.,0.));
#336=CARTESIAN_POINT('',(11.74,2.,0.));
#337=CARTESIAN_POINT('',(11.74,2.,15.9));
#338=CARTESIAN_POINT('',(11.74,0.,0.));
#339=CARTESIAN_POINT('',(11.74,0.,15.9));
#340=CARTESIAN_POINT('',(11.74,0.,0.));
#341=CARTESIAN_POINT('Origin',(60.6,0.,36.3));
#342=CARTESIAN_POINT('',(68.6,2.,36.3));
#343=CARTESIAN_POINT('Origin',(60.6,2.,36.3));
#344=CARTESIAN_POINT('',(68.6,0.,36.3));
#345=CARTESIAN_POINT('',(68.6,0.,36.3));
#346=CARTESIAN_POINT('Origin',(60.6,0.,36.3));
#347=CARTESIAN_POINT('Origin',(68.6,0.,36.3));
#348=CARTESIAN_POINT('',(68.6,2.,0.));
#349=CARTESIAN_POINT('',(68.6,2.,34.05));
#350=CARTESIAN_POINT('',(68.6,0.,0.));
#351=CARTESIAN_POINT('',(68.6,0.,0.));
#352=CARTESIAN_POINT('',(68.6,0.,34.05));
#353=CARTESIAN_POINT('Origin',(41.15,0.,31.8));
#354=CARTESIAN_POINT('',(82.3,0.,0.));
#355=CARTESIAN_POINT('',(0.,0.,0.));
#356=CARTESIAN_POINT('',(82.3,0.,63.6));
#357=CARTESIAN_POINT('',(82.3,0.,0.));
#358=CARTESIAN_POINT('',(0.,0.,63.6));
#359=CARTESIAN_POINT('',(82.3,0.,63.6));
#360=CARTESIAN_POINT('',(0.,0.,0.));
#361=CARTESIAN_POINT('',(0.,0.,63.6));
#362=CARTESIAN_POINT('',(0.,0.,0.));
#363=CARTESIAN_POINT('Origin',(82.3,0.,0.));
#364=CARTESIAN_POINT('',(82.3,2.,0.));
#365=CARTESIAN_POINT('',(0.,2.,0.));
#366=CARTESIAN_POINT('',(82.3,0.,0.));
#367=CARTESIAN_POINT('Origin',(0.,0.,0.));
#368=CARTESIAN_POINT('',(0.,2.,63.6));
#369=CARTESIAN_POINT('',(0.,0.,63.6));
#370=CARTESIAN_POINT('',(0.,2.,0.));
#371=CARTESIAN_POINT('',(0.,2.,63.6));
#372=CARTESIAN_POINT('',(0.,0.,0.));
#373=CARTESIAN_POINT('Origin',(82.3,0.,0.));
#374=CARTESIAN_POINT('',(0.,2.,0.));
#375=CARTESIAN_POINT('Origin',(82.3,0.,63.6));
#376=CARTESIAN_POINT('',(82.3,2.,63.6));
#377=CARTESIAN_POINT('',(82.3,2.,0.));
#378=CARTESIAN_POINT('',(82.3,0.,63.6));
#379=CARTESIAN_POINT('Origin',(0.,0.,63.6));
#380=CARTESIAN_POINT('',(82.3,2.,63.6));
#381=CARTESIAN_POINT('Origin',(41.15,2.,31.8));
#382=UNCERTAINTY_MEASURE_WITH_UNIT(LENGTH_MEASURE(0.01),#386,
'DISTANCE_ACCURACY_VALUE',
'Maximum model space distance between geometric entities at asserted c
onnectivities');
#383=UNCERTAINTY_MEASURE_WITH_UNIT(LENGTH_MEASURE(0.01),#386,
'DISTANCE_ACCURACY_VALUE',
'Maximum model space distance between geometric entities at asserted c
onnectivities');
#384=(
GEOMETRIC_REPRESENTATION_CONTEXT(3)
GLOBAL_UNCERTAINTY_ASSIGNED_CONTEXT((#382))
GLOBAL_UNIT_ASSIGNED_CONTEXT((#386,#388,#389))
REPRESENTATION_CONTEXT('','3D')
);
#385=(
GEOMETRIC_REPRESENTATION_CONTEXT(3)
GLOBAL_UNCERTAINTY_ASSIGNED_CONTEXT((#383))
GLOBAL_UNIT_ASSIGNED_CONTEXT((#386,#388,#389))
REPRESENTATION_CONTEXT('','3D')
);
#386=(
LENGTH_UNIT()
NAMED_UNIT(*)
SI_UNIT(.MILLI.,.METRE.)
);
#387=(
LENGTH_UNIT()
NAMED_UNIT(*)
SI_UNIT($,.METRE.)
);
#388=(
NAMED_UNIT(*)
PLANE_ANGLE_UNIT()
SI_UNIT($,.RADIAN.)
);
#389=(
NAMED_UNIT(*)
SI_UNIT($,.STERADIAN.)
SOLID_ANGLE_UNIT()
);
#390=SHAPE_DEFINITION_REPRESENTATION(#391,#392);
#391=PRODUCT_DEFINITION_SHAPE('',$,#394);
#392=SHAPE_REPRESENTATION('',(#242),#384);
#393=PRODUCT_DEFINITION_CONTEXT('part definition',#398,'design');
#394=PRODUCT_DEFINITION('2026-04-09-10-55-33-947','sm_wall_front',#395,
#393);
#395=PRODUCT_DEFINITION_FORMATION('',$,#400);
#396=PRODUCT_RELATED_PRODUCT_CATEGORY('sm_wall_front','sm_wall_front',(#400));
#397=APPLICATION_PROTOCOL_DEFINITION('international standard',
'automotive_design',2009,#398);
#398=APPLICATION_CONTEXT(
'Core Data for Automotive Mechanical Design Process');
#399=PRODUCT_CONTEXT('part definition',#398,'mechanical');
#400=PRODUCT('2026-04-09-10-55-33-947','sm_wall_front',$,(#399));
#401=PRESENTATION_STYLE_ASSIGNMENT((#402));
#402=SURFACE_STYLE_USAGE(.BOTH.,#403);
#403=SURFACE_SIDE_STYLE('',(#404));
#404=SURFACE_STYLE_FILL_AREA(#405);
#405=FILL_AREA_STYLE('Steel - Satin',(#406));
#406=FILL_AREA_STYLE_COLOUR('Steel - Satin',#407);
#407=COLOUR_RGB('Steel - Satin',0.627450980392157,0.627450980392157,0.627450980392157);
ENDSEC;
END-ISO-10303-21;
