ISO-10303-21;
HEADER;
/* Generated by software containing ST-Developer
 * from STEP Tools, Inc. (www.steptools.com) 
 */

FILE_DESCRIPTION(
/* description */ (''),
/* implementation_level */ '2;1');

FILE_NAME(
/* name */ 'sensors_module_bottom.step',
/* time_stamp */ '2026-03-27T21:27:44+01:00',
/* author */ (''),
/* organization */ (''),
/* preprocessor_version */ 'ST-DEVELOPER v20.1',
/* originating_system */ 'Autodesk Translation Framework v14.24.0.0',
/* authorisation */ '');

FILE_SCHEMA (('AUTOMOTIVE_DESIGN { 1 0 10303 214 3 1 1 }'));
ENDSEC;

DATA;
#10=MECHANICAL_DESIGN_GEOMETRIC_PRESENTATION_REPRESENTATION('',(#13),#1147);
#11=SHAPE_REPRESENTATION_RELATIONSHIP('SRR','None',#1154,#12);
#12=ADVANCED_BREP_SHAPE_REPRESENTATION('',(#14),#1146);
#13=STYLED_ITEM('',(#1163),#14);
#14=MANIFOLD_SOLID_BREP('Body1',#655);
#15=FACE_BOUND('',#99,.T.);
#16=FACE_BOUND('',#102,.T.);
#17=FACE_BOUND('',#105,.T.);
#18=FACE_BOUND('',#108,.T.);
#19=FACE_BOUND('',#111,.T.);
#20=FACE_BOUND('',#122,.T.);
#21=FACE_BOUND('',#125,.T.);
#22=FACE_BOUND('',#128,.T.);
#23=FACE_BOUND('',#131,.T.);
#24=FACE_BOUND('',#144,.T.);
#25=FACE_BOUND('',#145,.T.);
#26=FACE_BOUND('',#146,.T.);
#27=FACE_BOUND('',#147,.T.);
#28=FACE_BOUND('',#148,.T.);
#29=FACE_BOUND('',#149,.T.);
#30=FACE_BOUND('',#150,.T.);
#31=FACE_BOUND('',#151,.T.);
#32=FACE_BOUND('',#152,.T.);
#33=FACE_BOUND('',#154,.T.);
#34=FACE_BOUND('',#155,.T.);
#35=FACE_BOUND('',#156,.T.);
#36=FACE_BOUND('',#157,.T.);
#37=FACE_BOUND('',#158,.T.);
#38=FACE_BOUND('',#159,.T.);
#39=FACE_BOUND('',#160,.T.);
#40=FACE_BOUND('',#161,.T.);
#41=FACE_BOUND('',#162,.T.);
#42=PLANE('',#672);
#43=PLANE('',#677);
#44=PLANE('',#682);
#45=PLANE('',#687);
#46=PLANE('',#692);
#47=PLANE('',#707);
#48=PLANE('',#708);
#49=PLANE('',#712);
#50=PLANE('',#717);
#51=PLANE('',#722);
#52=PLANE('',#727);
#53=PLANE('',#740);
#54=PLANE('',#744);
#55=PLANE('',#748);
#56=PLANE('',#752);
#57=PLANE('',#753);
#58=FACE_OUTER_BOUND('',#97,.T.);
#59=FACE_OUTER_BOUND('',#98,.T.);
#60=FACE_OUTER_BOUND('',#100,.T.);
#61=FACE_OUTER_BOUND('',#101,.T.);
#62=FACE_OUTER_BOUND('',#103,.T.);
#63=FACE_OUTER_BOUND('',#104,.T.);
#64=FACE_OUTER_BOUND('',#106,.T.);
#65=FACE_OUTER_BOUND('',#107,.T.);
#66=FACE_OUTER_BOUND('',#109,.T.);
#67=FACE_OUTER_BOUND('',#110,.T.);
#68=FACE_OUTER_BOUND('',#112,.T.);
#69=FACE_OUTER_BOUND('',#113,.T.);
#70=FACE_OUTER_BOUND('',#114,.T.);
#71=FACE_OUTER_BOUND('',#115,.T.);
#72=FACE_OUTER_BOUND('',#116,.T.);
#73=FACE_OUTER_BOUND('',#117,.T.);
#74=FACE_OUTER_BOUND('',#118,.T.);
#75=FACE_OUTER_BOUND('',#119,.T.);
#76=FACE_OUTER_BOUND('',#120,.T.);
#77=FACE_OUTER_BOUND('',#121,.T.);
#78=FACE_OUTER_BOUND('',#123,.T.);
#79=FACE_OUTER_BOUND('',#124,.T.);
#80=FACE_OUTER_BOUND('',#126,.T.);
#81=FACE_OUTER_BOUND('',#127,.T.);
#82=FACE_OUTER_BOUND('',#129,.T.);
#83=FACE_OUTER_BOUND('',#130,.T.);
#84=FACE_OUTER_BOUND('',#132,.T.);
#85=FACE_OUTER_BOUND('',#133,.T.);
#86=FACE_OUTER_BOUND('',#134,.T.);
#87=FACE_OUTER_BOUND('',#135,.T.);
#88=FACE_OUTER_BOUND('',#136,.T.);
#89=FACE_OUTER_BOUND('',#137,.T.);
#90=FACE_OUTER_BOUND('',#138,.T.);
#91=FACE_OUTER_BOUND('',#139,.T.);
#92=FACE_OUTER_BOUND('',#140,.T.);
#93=FACE_OUTER_BOUND('',#141,.T.);
#94=FACE_OUTER_BOUND('',#142,.T.);
#95=FACE_OUTER_BOUND('',#143,.T.);
#96=FACE_OUTER_BOUND('',#153,.T.);
#97=EDGE_LOOP('',(#425,#426,#427,#428));
#98=EDGE_LOOP('',(#429));
#99=EDGE_LOOP('',(#430));
#100=EDGE_LOOP('',(#431,#432,#433,#434));
#101=EDGE_LOOP('',(#435));
#102=EDGE_LOOP('',(#436));
#103=EDGE_LOOP('',(#437,#438,#439,#440));
#104=EDGE_LOOP('',(#441));
#105=EDGE_LOOP('',(#442));
#106=EDGE_LOOP('',(#443,#444,#445,#446));
#107=EDGE_LOOP('',(#447));
#108=EDGE_LOOP('',(#448));
#109=EDGE_LOOP('',(#449,#450,#451,#452));
#110=EDGE_LOOP('',(#453));
#111=EDGE_LOOP('',(#454));
#112=EDGE_LOOP('',(#455,#456,#457,#458));
#113=EDGE_LOOP('',(#459,#460,#461,#462));
#114=EDGE_LOOP('',(#463,#464,#465,#466));
#115=EDGE_LOOP('',(#467,#468,#469,#470));
#116=EDGE_LOOP('',(#471,#472,#473,#474));
#117=EDGE_LOOP('',(#475,#476,#477,#478));
#118=EDGE_LOOP('',(#479,#480));
#119=EDGE_LOOP('',(#481,#482,#483,#484,#485,#486));
#120=EDGE_LOOP('',(#487,#488,#489,#490));
#121=EDGE_LOOP('',(#491));
#122=EDGE_LOOP('',(#492));
#123=EDGE_LOOP('',(#493,#494,#495,#496));
#124=EDGE_LOOP('',(#497));
#125=EDGE_LOOP('',(#498));
#126=EDGE_LOOP('',(#499,#500,#501,#502));
#127=EDGE_LOOP('',(#503));
#128=EDGE_LOOP('',(#504));
#129=EDGE_LOOP('',(#505,#506,#507,#508));
#130=EDGE_LOOP('',(#509));
#131=EDGE_LOOP('',(#510));
#132=EDGE_LOOP('',(#511,#512,#513,#514));
#133=EDGE_LOOP('',(#515,#516,#517,#518));
#134=EDGE_LOOP('',(#519,#520,#521,#522));
#135=EDGE_LOOP('',(#523,#524,#525,#526));
#136=EDGE_LOOP('',(#527,#528,#529,#530));
#137=EDGE_LOOP('',(#531,#532,#533,#534));
#138=EDGE_LOOP('',(#535,#536,#537,#538));
#139=EDGE_LOOP('',(#539,#540,#541,#542));
#140=EDGE_LOOP('',(#543,#544,#545,#546));
#141=EDGE_LOOP('',(#547,#548,#549,#550));
#142=EDGE_LOOP('',(#551,#552,#553,#554));
#143=EDGE_LOOP('',(#555,#556,#557,#558,#559,#560,#561,#562));
#144=EDGE_LOOP('',(#563));
#145=EDGE_LOOP('',(#564));
#146=EDGE_LOOP('',(#565));
#147=EDGE_LOOP('',(#566));
#148=EDGE_LOOP('',(#567));
#149=EDGE_LOOP('',(#568));
#150=EDGE_LOOP('',(#569));
#151=EDGE_LOOP('',(#570));
#152=EDGE_LOOP('',(#571));
#153=EDGE_LOOP('',(#572,#573,#574,#575,#576,#577,#578,#579,#580,#581,#582,
#583));
#154=EDGE_LOOP('',(#584));
#155=EDGE_LOOP('',(#585));
#156=EDGE_LOOP('',(#586));
#157=EDGE_LOOP('',(#587));
#158=EDGE_LOOP('',(#588));
#159=EDGE_LOOP('',(#589));
#160=EDGE_LOOP('',(#590));
#161=EDGE_LOOP('',(#591));
#162=EDGE_LOOP('',(#592));
#163=LINE('',#969,#201);
#164=LINE('',#978,#202);
#165=LINE('',#987,#203);
#166=LINE('',#996,#204);
#167=LINE('',#1005,#205);
#168=LINE('',#1012,#206);
#169=LINE('',#1016,#207);
#170=LINE('',#1020,#208);
#171=LINE('',#1024,#209);
#172=LINE('',#1028,#210);
#173=LINE('',#1035,#211);
#174=LINE('',#1038,#212);
#175=LINE('',#1040,#213);
#176=LINE('',#1043,#214);
#177=LINE('',#1045,#215);
#178=LINE('',#1047,#216);
#179=LINE('',#1049,#217);
#180=LINE('',#1050,#218);
#181=LINE('',#1055,#219);
#182=LINE('',#1064,#220);
#183=LINE('',#1073,#221);
#184=LINE('',#1082,#222);
#185=LINE('',#1089,#223);
#186=LINE('',#1093,#224);
#187=LINE('',#1097,#225);
#188=LINE('',#1101,#226);
#189=LINE('',#1108,#227);
#190=LINE('',#1111,#228);
#191=LINE('',#1113,#229);
#192=LINE('',#1114,#230);
#193=LINE('',#1120,#231);
#194=LINE('',#1123,#232);
#195=LINE('',#1125,#233);
#196=LINE('',#1126,#234);
#197=LINE('',#1132,#235);
#198=LINE('',#1135,#236);
#199=LINE('',#1137,#237);
#200=LINE('',#1138,#238);
#201=VECTOR('',#760,4.15000000000001);
#202=VECTOR('',#771,4.15000000000001);
#203=VECTOR('',#782,3.25);
#204=VECTOR('',#793,3.25);
#205=VECTOR('',#804,3.25);
#206=VECTOR('',#813,1.8);
#207=VECTOR('',#818,1.8);
#208=VECTOR('',#823,2.34999999999999);
#209=VECTOR('',#828,1.8);
#210=VECTOR('',#833,2.34999999999999);
#211=VECTOR('',#840,10.);
#212=VECTOR('',#843,10.);
#213=VECTOR('',#846,10.);
#214=VECTOR('',#849,10.);
#215=VECTOR('',#850,10.);
#216=VECTOR('',#851,10.);
#217=VECTOR('',#852,10.);
#218=VECTOR('',#853,10.);
#219=VECTOR('',#858,3.25);
#220=VECTOR('',#869,3.24999999999999);
#221=VECTOR('',#880,3.25);
#222=VECTOR('',#891,3.24999999999999);
#223=VECTOR('',#900,1.8);
#224=VECTOR('',#905,1.8);
#225=VECTOR('',#910,1.8);
#226=VECTOR('',#915,1.8);
#227=VECTOR('',#924,10.);
#228=VECTOR('',#927,10.);
#229=VECTOR('',#928,10.);
#230=VECTOR('',#929,10.);
#231=VECTOR('',#936,10.);
#232=VECTOR('',#939,10.);
#233=VECTOR('',#940,10.);
#234=VECTOR('',#941,10.);
#235=VECTOR('',#948,10.);
#236=VECTOR('',#951,10.);
#237=VECTOR('',#952,10.);
#238=VECTOR('',#953,10.);
#239=CIRCLE('',#670,4.15000000000001);
#240=CIRCLE('',#671,4.15000000000001);
#241=CIRCLE('',#673,2.34999999999999);
#242=CIRCLE('',#675,4.15000000000001);
#243=CIRCLE('',#676,4.15000000000001);
#244=CIRCLE('',#678,2.34999999999999);
#245=CIRCLE('',#680,3.25);
#246=CIRCLE('',#681,3.25);
#247=CIRCLE('',#683,1.8);
#248=CIRCLE('',#685,3.25);
#249=CIRCLE('',#686,3.25);
#250=CIRCLE('',#688,1.8);
#251=CIRCLE('',#690,3.25);
#252=CIRCLE('',#691,3.25);
#253=CIRCLE('',#693,1.8);
#254=CIRCLE('',#695,1.8);
#255=CIRCLE('',#697,1.8);
#256=CIRCLE('',#699,2.34999999999999);
#257=CIRCLE('',#701,1.8);
#258=CIRCLE('',#703,2.34999999999999);
#259=CIRCLE('',#705,18.3042848611251);
#260=CIRCLE('',#706,18.3042848611251);
#261=CIRCLE('',#710,3.25);
#262=CIRCLE('',#711,3.25);
#263=CIRCLE('',#713,1.8);
#264=CIRCLE('',#715,3.24999999999999);
#265=CIRCLE('',#716,3.24999999999999);
#266=CIRCLE('',#718,1.8);
#267=CIRCLE('',#720,3.25);
#268=CIRCLE('',#721,3.25);
#269=CIRCLE('',#723,1.8);
#270=CIRCLE('',#725,3.24999999999999);
#271=CIRCLE('',#726,3.24999999999999);
#272=CIRCLE('',#728,1.8);
#273=CIRCLE('',#730,1.8);
#274=CIRCLE('',#732,1.8);
#275=CIRCLE('',#734,1.8);
#276=CIRCLE('',#736,1.8);
#277=CIRCLE('',#738,15.);
#278=CIRCLE('',#739,15.);
#279=CIRCLE('',#742,15.);
#280=CIRCLE('',#743,15.);
#281=CIRCLE('',#746,15.);
#282=CIRCLE('',#747,15.);
#283=CIRCLE('',#750,15.);
#284=CIRCLE('',#751,15.);
#285=VERTEX_POINT('',#966);
#286=VERTEX_POINT('',#968);
#287=VERTEX_POINT('',#972);
#288=VERTEX_POINT('',#975);
#289=VERTEX_POINT('',#977);
#290=VERTEX_POINT('',#981);
#291=VERTEX_POINT('',#984);
#292=VERTEX_POINT('',#986);
#293=VERTEX_POINT('',#990);
#294=VERTEX_POINT('',#993);
#295=VERTEX_POINT('',#995);
#296=VERTEX_POINT('',#999);
#297=VERTEX_POINT('',#1002);
#298=VERTEX_POINT('',#1004);
#299=VERTEX_POINT('',#1008);
#300=VERTEX_POINT('',#1011);
#301=VERTEX_POINT('',#1015);
#302=VERTEX_POINT('',#1019);
#303=VERTEX_POINT('',#1023);
#304=VERTEX_POINT('',#1027);
#305=VERTEX_POINT('',#1031);
#306=VERTEX_POINT('',#1032);
#307=VERTEX_POINT('',#1034);
#308=VERTEX_POINT('',#1036);
#309=VERTEX_POINT('',#1042);
#310=VERTEX_POINT('',#1044);
#311=VERTEX_POINT('',#1046);
#312=VERTEX_POINT('',#1048);
#313=VERTEX_POINT('',#1052);
#314=VERTEX_POINT('',#1054);
#315=VERTEX_POINT('',#1058);
#316=VERTEX_POINT('',#1061);
#317=VERTEX_POINT('',#1063);
#318=VERTEX_POINT('',#1067);
#319=VERTEX_POINT('',#1070);
#320=VERTEX_POINT('',#1072);
#321=VERTEX_POINT('',#1076);
#322=VERTEX_POINT('',#1079);
#323=VERTEX_POINT('',#1081);
#324=VERTEX_POINT('',#1085);
#325=VERTEX_POINT('',#1088);
#326=VERTEX_POINT('',#1092);
#327=VERTEX_POINT('',#1096);
#328=VERTEX_POINT('',#1100);
#329=VERTEX_POINT('',#1104);
#330=VERTEX_POINT('',#1106);
#331=VERTEX_POINT('',#1110);
#332=VERTEX_POINT('',#1112);
#333=VERTEX_POINT('',#1116);
#334=VERTEX_POINT('',#1118);
#335=VERTEX_POINT('',#1122);
#336=VERTEX_POINT('',#1124);
#337=VERTEX_POINT('',#1128);
#338=VERTEX_POINT('',#1130);
#339=VERTEX_POINT('',#1134);
#340=VERTEX_POINT('',#1136);
#341=EDGE_CURVE('',#285,#285,#239,.T.);
#342=EDGE_CURVE('',#285,#286,#163,.T.);
#343=EDGE_CURVE('',#286,#286,#240,.T.);
#344=EDGE_CURVE('',#287,#287,#241,.T.);
#345=EDGE_CURVE('',#288,#288,#242,.T.);
#346=EDGE_CURVE('',#288,#289,#164,.T.);
#347=EDGE_CURVE('',#289,#289,#243,.T.);
#348=EDGE_CURVE('',#290,#290,#244,.T.);
#349=EDGE_CURVE('',#291,#291,#245,.T.);
#350=EDGE_CURVE('',#291,#292,#165,.T.);
#351=EDGE_CURVE('',#292,#292,#246,.T.);
#352=EDGE_CURVE('',#293,#293,#247,.T.);
#353=EDGE_CURVE('',#294,#294,#248,.T.);
#354=EDGE_CURVE('',#294,#295,#166,.T.);
#355=EDGE_CURVE('',#295,#295,#249,.T.);
#356=EDGE_CURVE('',#296,#296,#250,.T.);
#357=EDGE_CURVE('',#297,#297,#251,.T.);
#358=EDGE_CURVE('',#297,#298,#167,.T.);
#359=EDGE_CURVE('',#298,#298,#252,.T.);
#360=EDGE_CURVE('',#299,#299,#253,.T.);
#361=EDGE_CURVE('',#299,#300,#168,.T.);
#362=EDGE_CURVE('',#300,#300,#254,.T.);
#363=EDGE_CURVE('',#293,#301,#169,.T.);
#364=EDGE_CURVE('',#301,#301,#255,.T.);
#365=EDGE_CURVE('',#287,#302,#170,.T.);
#366=EDGE_CURVE('',#302,#302,#256,.T.);
#367=EDGE_CURVE('',#296,#303,#171,.T.);
#368=EDGE_CURVE('',#303,#303,#257,.T.);
#369=EDGE_CURVE('',#290,#304,#172,.T.);
#370=EDGE_CURVE('',#304,#304,#258,.T.);
#371=EDGE_CURVE('',#305,#306,#259,.T.);
#372=EDGE_CURVE('',#307,#305,#173,.F.);
#373=EDGE_CURVE('',#307,#308,#260,.T.);
#374=EDGE_CURVE('',#306,#308,#174,.F.);
#375=EDGE_CURVE('',#308,#307,#175,.T.);
#376=EDGE_CURVE('',#306,#309,#176,.T.);
#377=EDGE_CURVE('',#309,#310,#177,.T.);
#378=EDGE_CURVE('',#311,#310,#178,.T.);
#379=EDGE_CURVE('',#312,#311,#179,.T.);
#380=EDGE_CURVE('',#312,#305,#180,.T.);
#381=EDGE_CURVE('',#313,#313,#261,.T.);
#382=EDGE_CURVE('',#313,#314,#181,.T.);
#383=EDGE_CURVE('',#314,#314,#262,.T.);
#384=EDGE_CURVE('',#315,#315,#263,.T.);
#385=EDGE_CURVE('',#316,#316,#264,.T.);
#386=EDGE_CURVE('',#316,#317,#182,.T.);
#387=EDGE_CURVE('',#317,#317,#265,.T.);
#388=EDGE_CURVE('',#318,#318,#266,.T.);
#389=EDGE_CURVE('',#319,#319,#267,.T.);
#390=EDGE_CURVE('',#319,#320,#183,.T.);
#391=EDGE_CURVE('',#320,#320,#268,.T.);
#392=EDGE_CURVE('',#321,#321,#269,.T.);
#393=EDGE_CURVE('',#322,#322,#270,.T.);
#394=EDGE_CURVE('',#322,#323,#184,.T.);
#395=EDGE_CURVE('',#323,#323,#271,.T.);
#396=EDGE_CURVE('',#324,#324,#272,.T.);
#397=EDGE_CURVE('',#315,#325,#185,.T.);
#398=EDGE_CURVE('',#325,#325,#273,.T.);
#399=EDGE_CURVE('',#318,#326,#186,.T.);
#400=EDGE_CURVE('',#326,#326,#274,.T.);
#401=EDGE_CURVE('',#324,#327,#187,.T.);
#402=EDGE_CURVE('',#327,#327,#275,.T.);
#403=EDGE_CURVE('',#321,#328,#188,.T.);
#404=EDGE_CURVE('',#328,#328,#276,.T.);
#405=EDGE_CURVE('',#329,#312,#277,.T.);
#406=EDGE_CURVE('',#330,#311,#278,.T.);
#407=EDGE_CURVE('',#329,#330,#189,.T.);
#408=EDGE_CURVE('',#331,#329,#190,.T.);
#409=EDGE_CURVE('',#332,#330,#191,.T.);
#410=EDGE_CURVE('',#331,#332,#192,.T.);
#411=EDGE_CURVE('',#333,#331,#279,.T.);
#412=EDGE_CURVE('',#334,#332,#280,.T.);
#413=EDGE_CURVE('',#333,#334,#193,.T.);
#414=EDGE_CURVE('',#335,#333,#194,.T.);
#415=EDGE_CURVE('',#336,#334,#195,.T.);
#416=EDGE_CURVE('',#335,#336,#196,.T.);
#417=EDGE_CURVE('',#337,#335,#281,.T.);
#418=EDGE_CURVE('',#338,#336,#282,.T.);
#419=EDGE_CURVE('',#337,#338,#197,.T.);
#420=EDGE_CURVE('',#339,#337,#198,.T.);
#421=EDGE_CURVE('',#340,#338,#199,.T.);
#422=EDGE_CURVE('',#339,#340,#200,.T.);
#423=EDGE_CURVE('',#309,#339,#283,.T.);
#424=EDGE_CURVE('',#310,#340,#284,.T.);
#425=ORIENTED_EDGE('',*,*,#341,.F.);
#426=ORIENTED_EDGE('',*,*,#342,.T.);
#427=ORIENTED_EDGE('',*,*,#343,.T.);
#428=ORIENTED_EDGE('',*,*,#342,.F.);
#429=ORIENTED_EDGE('',*,*,#343,.F.);
#430=ORIENTED_EDGE('',*,*,#344,.F.);
#431=ORIENTED_EDGE('',*,*,#345,.F.);
#432=ORIENTED_EDGE('',*,*,#346,.T.);
#433=ORIENTED_EDGE('',*,*,#347,.T.);
#434=ORIENTED_EDGE('',*,*,#346,.F.);
#435=ORIENTED_EDGE('',*,*,#347,.F.);
#436=ORIENTED_EDGE('',*,*,#348,.F.);
#437=ORIENTED_EDGE('',*,*,#349,.F.);
#438=ORIENTED_EDGE('',*,*,#350,.T.);
#439=ORIENTED_EDGE('',*,*,#351,.T.);
#440=ORIENTED_EDGE('',*,*,#350,.F.);
#441=ORIENTED_EDGE('',*,*,#351,.F.);
#442=ORIENTED_EDGE('',*,*,#352,.F.);
#443=ORIENTED_EDGE('',*,*,#353,.F.);
#444=ORIENTED_EDGE('',*,*,#354,.T.);
#445=ORIENTED_EDGE('',*,*,#355,.T.);
#446=ORIENTED_EDGE('',*,*,#354,.F.);
#447=ORIENTED_EDGE('',*,*,#355,.F.);
#448=ORIENTED_EDGE('',*,*,#356,.F.);
#449=ORIENTED_EDGE('',*,*,#357,.F.);
#450=ORIENTED_EDGE('',*,*,#358,.T.);
#451=ORIENTED_EDGE('',*,*,#359,.T.);
#452=ORIENTED_EDGE('',*,*,#358,.F.);
#453=ORIENTED_EDGE('',*,*,#359,.F.);
#454=ORIENTED_EDGE('',*,*,#360,.F.);
#455=ORIENTED_EDGE('',*,*,#360,.T.);
#456=ORIENTED_EDGE('',*,*,#361,.T.);
#457=ORIENTED_EDGE('',*,*,#362,.F.);
#458=ORIENTED_EDGE('',*,*,#361,.F.);
#459=ORIENTED_EDGE('',*,*,#352,.T.);
#460=ORIENTED_EDGE('',*,*,#363,.T.);
#461=ORIENTED_EDGE('',*,*,#364,.F.);
#462=ORIENTED_EDGE('',*,*,#363,.F.);
#463=ORIENTED_EDGE('',*,*,#344,.T.);
#464=ORIENTED_EDGE('',*,*,#365,.T.);
#465=ORIENTED_EDGE('',*,*,#366,.F.);
#466=ORIENTED_EDGE('',*,*,#365,.F.);
#467=ORIENTED_EDGE('',*,*,#356,.T.);
#468=ORIENTED_EDGE('',*,*,#367,.T.);
#469=ORIENTED_EDGE('',*,*,#368,.F.);
#470=ORIENTED_EDGE('',*,*,#367,.F.);
#471=ORIENTED_EDGE('',*,*,#348,.T.);
#472=ORIENTED_EDGE('',*,*,#369,.T.);
#473=ORIENTED_EDGE('',*,*,#370,.F.);
#474=ORIENTED_EDGE('',*,*,#369,.F.);
#475=ORIENTED_EDGE('',*,*,#371,.F.);
#476=ORIENTED_EDGE('',*,*,#372,.F.);
#477=ORIENTED_EDGE('',*,*,#373,.T.);
#478=ORIENTED_EDGE('',*,*,#374,.F.);
#479=ORIENTED_EDGE('',*,*,#373,.F.);
#480=ORIENTED_EDGE('',*,*,#375,.F.);
#481=ORIENTED_EDGE('',*,*,#371,.T.);
#482=ORIENTED_EDGE('',*,*,#376,.T.);
#483=ORIENTED_EDGE('',*,*,#377,.T.);
#484=ORIENTED_EDGE('',*,*,#378,.F.);
#485=ORIENTED_EDGE('',*,*,#379,.F.);
#486=ORIENTED_EDGE('',*,*,#380,.T.);
#487=ORIENTED_EDGE('',*,*,#381,.F.);
#488=ORIENTED_EDGE('',*,*,#382,.T.);
#489=ORIENTED_EDGE('',*,*,#383,.T.);
#490=ORIENTED_EDGE('',*,*,#382,.F.);
#491=ORIENTED_EDGE('',*,*,#383,.F.);
#492=ORIENTED_EDGE('',*,*,#384,.F.);
#493=ORIENTED_EDGE('',*,*,#385,.F.);
#494=ORIENTED_EDGE('',*,*,#386,.T.);
#495=ORIENTED_EDGE('',*,*,#387,.T.);
#496=ORIENTED_EDGE('',*,*,#386,.F.);
#497=ORIENTED_EDGE('',*,*,#387,.F.);
#498=ORIENTED_EDGE('',*,*,#388,.F.);
#499=ORIENTED_EDGE('',*,*,#389,.F.);
#500=ORIENTED_EDGE('',*,*,#390,.T.);
#501=ORIENTED_EDGE('',*,*,#391,.T.);
#502=ORIENTED_EDGE('',*,*,#390,.F.);
#503=ORIENTED_EDGE('',*,*,#391,.F.);
#504=ORIENTED_EDGE('',*,*,#392,.F.);
#505=ORIENTED_EDGE('',*,*,#393,.F.);
#506=ORIENTED_EDGE('',*,*,#394,.T.);
#507=ORIENTED_EDGE('',*,*,#395,.T.);
#508=ORIENTED_EDGE('',*,*,#394,.F.);
#509=ORIENTED_EDGE('',*,*,#395,.F.);
#510=ORIENTED_EDGE('',*,*,#396,.F.);
#511=ORIENTED_EDGE('',*,*,#384,.T.);
#512=ORIENTED_EDGE('',*,*,#397,.T.);
#513=ORIENTED_EDGE('',*,*,#398,.F.);
#514=ORIENTED_EDGE('',*,*,#397,.F.);
#515=ORIENTED_EDGE('',*,*,#388,.T.);
#516=ORIENTED_EDGE('',*,*,#399,.T.);
#517=ORIENTED_EDGE('',*,*,#400,.F.);
#518=ORIENTED_EDGE('',*,*,#399,.F.);
#519=ORIENTED_EDGE('',*,*,#396,.T.);
#520=ORIENTED_EDGE('',*,*,#401,.T.);
#521=ORIENTED_EDGE('',*,*,#402,.F.);
#522=ORIENTED_EDGE('',*,*,#401,.F.);
#523=ORIENTED_EDGE('',*,*,#392,.T.);
#524=ORIENTED_EDGE('',*,*,#403,.T.);
#525=ORIENTED_EDGE('',*,*,#404,.F.);
#526=ORIENTED_EDGE('',*,*,#403,.F.);
#527=ORIENTED_EDGE('',*,*,#405,.T.);
#528=ORIENTED_EDGE('',*,*,#379,.T.);
#529=ORIENTED_EDGE('',*,*,#406,.F.);
#530=ORIENTED_EDGE('',*,*,#407,.F.);
#531=ORIENTED_EDGE('',*,*,#408,.T.);
#532=ORIENTED_EDGE('',*,*,#407,.T.);
#533=ORIENTED_EDGE('',*,*,#409,.F.);
#534=ORIENTED_EDGE('',*,*,#410,.F.);
#535=ORIENTED_EDGE('',*,*,#411,.T.);
#536=ORIENTED_EDGE('',*,*,#410,.T.);
#537=ORIENTED_EDGE('',*,*,#412,.F.);
#538=ORIENTED_EDGE('',*,*,#413,.F.);
#539=ORIENTED_EDGE('',*,*,#414,.T.);
#540=ORIENTED_EDGE('',*,*,#413,.T.);
#541=ORIENTED_EDGE('',*,*,#415,.F.);
#542=ORIENTED_EDGE('',*,*,#416,.F.);
#543=ORIENTED_EDGE('',*,*,#417,.T.);
#544=ORIENTED_EDGE('',*,*,#416,.T.);
#545=ORIENTED_EDGE('',*,*,#418,.F.);
#546=ORIENTED_EDGE('',*,*,#419,.F.);
#547=ORIENTED_EDGE('',*,*,#420,.T.);
#548=ORIENTED_EDGE('',*,*,#419,.T.);
#549=ORIENTED_EDGE('',*,*,#421,.F.);
#550=ORIENTED_EDGE('',*,*,#422,.F.);
#551=ORIENTED_EDGE('',*,*,#423,.T.);
#552=ORIENTED_EDGE('',*,*,#422,.T.);
#553=ORIENTED_EDGE('',*,*,#424,.F.);
#554=ORIENTED_EDGE('',*,*,#377,.F.);
#555=ORIENTED_EDGE('',*,*,#424,.T.);
#556=ORIENTED_EDGE('',*,*,#421,.T.);
#557=ORIENTED_EDGE('',*,*,#418,.T.);
#558=ORIENTED_EDGE('',*,*,#415,.T.);
#559=ORIENTED_EDGE('',*,*,#412,.T.);
#560=ORIENTED_EDGE('',*,*,#409,.T.);
#561=ORIENTED_EDGE('',*,*,#406,.T.);
#562=ORIENTED_EDGE('',*,*,#378,.T.);
#563=ORIENTED_EDGE('',*,*,#341,.T.);
#564=ORIENTED_EDGE('',*,*,#345,.T.);
#565=ORIENTED_EDGE('',*,*,#349,.T.);
#566=ORIENTED_EDGE('',*,*,#353,.T.);
#567=ORIENTED_EDGE('',*,*,#357,.T.);
#568=ORIENTED_EDGE('',*,*,#381,.T.);
#569=ORIENTED_EDGE('',*,*,#385,.T.);
#570=ORIENTED_EDGE('',*,*,#389,.T.);
#571=ORIENTED_EDGE('',*,*,#393,.T.);
#572=ORIENTED_EDGE('',*,*,#372,.T.);
#573=ORIENTED_EDGE('',*,*,#380,.F.);
#574=ORIENTED_EDGE('',*,*,#405,.F.);
#575=ORIENTED_EDGE('',*,*,#408,.F.);
#576=ORIENTED_EDGE('',*,*,#411,.F.);
#577=ORIENTED_EDGE('',*,*,#414,.F.);
#578=ORIENTED_EDGE('',*,*,#417,.F.);
#579=ORIENTED_EDGE('',*,*,#420,.F.);
#580=ORIENTED_EDGE('',*,*,#423,.F.);
#581=ORIENTED_EDGE('',*,*,#376,.F.);
#582=ORIENTED_EDGE('',*,*,#374,.T.);
#583=ORIENTED_EDGE('',*,*,#375,.T.);
#584=ORIENTED_EDGE('',*,*,#362,.T.);
#585=ORIENTED_EDGE('',*,*,#364,.T.);
#586=ORIENTED_EDGE('',*,*,#366,.T.);
#587=ORIENTED_EDGE('',*,*,#368,.T.);
#588=ORIENTED_EDGE('',*,*,#370,.T.);
#589=ORIENTED_EDGE('',*,*,#398,.T.);
#590=ORIENTED_EDGE('',*,*,#400,.T.);
#591=ORIENTED_EDGE('',*,*,#402,.T.);
#592=ORIENTED_EDGE('',*,*,#404,.T.);
#593=CYLINDRICAL_SURFACE('',#669,4.15000000000001);
#594=CYLINDRICAL_SURFACE('',#674,4.15000000000001);
#595=CYLINDRICAL_SURFACE('',#679,3.25);
#596=CYLINDRICAL_SURFACE('',#684,3.25);
#597=CYLINDRICAL_SURFACE('',#689,3.25);
#598=CYLINDRICAL_SURFACE('',#694,1.8);
#599=CYLINDRICAL_SURFACE('',#696,1.8);
#600=CYLINDRICAL_SURFACE('',#698,2.34999999999999);
#601=CYLINDRICAL_SURFACE('',#700,1.8);
#602=CYLINDRICAL_SURFACE('',#702,2.34999999999999);
#603=CYLINDRICAL_SURFACE('',#704,18.3042848611251);
#604=CYLINDRICAL_SURFACE('',#709,3.25);
#605=CYLINDRICAL_SURFACE('',#714,3.24999999999999);
#606=CYLINDRICAL_SURFACE('',#719,3.25);
#607=CYLINDRICAL_SURFACE('',#724,3.24999999999999);
#608=CYLINDRICAL_SURFACE('',#729,1.8);
#609=CYLINDRICAL_SURFACE('',#731,1.8);
#610=CYLINDRICAL_SURFACE('',#733,1.8);
#611=CYLINDRICAL_SURFACE('',#735,1.8);
#612=CYLINDRICAL_SURFACE('',#737,15.);
#613=CYLINDRICAL_SURFACE('',#741,15.);
#614=CYLINDRICAL_SURFACE('',#745,15.);
#615=CYLINDRICAL_SURFACE('',#749,15.);
#616=ADVANCED_FACE('',(#58),#593,.F.);
#617=ADVANCED_FACE('',(#59,#15),#42,.T.);
#618=ADVANCED_FACE('',(#60),#594,.F.);
#619=ADVANCED_FACE('',(#61,#16),#43,.T.);
#620=ADVANCED_FACE('',(#62),#595,.F.);
#621=ADVANCED_FACE('',(#63,#17),#44,.T.);
#622=ADVANCED_FACE('',(#64),#596,.F.);
#623=ADVANCED_FACE('',(#65,#18),#45,.T.);
#624=ADVANCED_FACE('',(#66),#597,.F.);
#625=ADVANCED_FACE('',(#67,#19),#46,.T.);
#626=ADVANCED_FACE('',(#68),#598,.F.);
#627=ADVANCED_FACE('',(#69),#599,.F.);
#628=ADVANCED_FACE('',(#70),#600,.F.);
#629=ADVANCED_FACE('',(#71),#601,.F.);
#630=ADVANCED_FACE('',(#72),#602,.F.);
#631=ADVANCED_FACE('',(#73),#603,.F.);
#632=ADVANCED_FACE('',(#74),#47,.T.);
#633=ADVANCED_FACE('',(#75),#48,.T.);
#634=ADVANCED_FACE('',(#76),#604,.F.);
#635=ADVANCED_FACE('',(#77,#20),#49,.T.);
#636=ADVANCED_FACE('',(#78),#605,.F.);
#637=ADVANCED_FACE('',(#79,#21),#50,.T.);
#638=ADVANCED_FACE('',(#80),#606,.F.);
#639=ADVANCED_FACE('',(#81,#22),#51,.T.);
#640=ADVANCED_FACE('',(#82),#607,.F.);
#641=ADVANCED_FACE('',(#83,#23),#52,.T.);
#642=ADVANCED_FACE('',(#84),#608,.F.);
#643=ADVANCED_FACE('',(#85),#609,.F.);
#644=ADVANCED_FACE('',(#86),#610,.F.);
#645=ADVANCED_FACE('',(#87),#611,.F.);
#646=ADVANCED_FACE('',(#88),#612,.T.);
#647=ADVANCED_FACE('',(#89),#53,.T.);
#648=ADVANCED_FACE('',(#90),#613,.T.);
#649=ADVANCED_FACE('',(#91),#54,.T.);
#650=ADVANCED_FACE('',(#92),#614,.T.);
#651=ADVANCED_FACE('',(#93),#55,.T.);
#652=ADVANCED_FACE('',(#94),#615,.T.);
#653=ADVANCED_FACE('',(#95,#24,#25,#26,#27,#28,#29,#30,#31,#32),#56,.T.);
#654=ADVANCED_FACE('',(#96,#33,#34,#35,#36,#37,#38,#39,#40,#41),#57,.F.);
#655=CLOSED_SHELL('',(#616,#617,#618,#619,#620,#621,#622,#623,#624,#625,
#626,#627,#628,#629,#630,#631,#632,#633,#634,#635,#636,#637,#638,#639,#640,
#641,#642,#643,#644,#645,#646,#647,#648,#649,#650,#651,#652,#653,#654));
#656=DERIVED_UNIT_ELEMENT(#658,1.);
#657=DERIVED_UNIT_ELEMENT(#1149,-3.);
#658=(
MASS_UNIT()
NAMED_UNIT(*)
SI_UNIT(.KILO.,.GRAM.)
);
#659=DERIVED_UNIT((#656,#657));
#660=MEASURE_REPRESENTATION_ITEM('density measure',
POSITIVE_RATIO_MEASURE(7850.),#659);
#661=PROPERTY_DEFINITION_REPRESENTATION(#666,#663);
#662=PROPERTY_DEFINITION_REPRESENTATION(#667,#664);
#663=REPRESENTATION('material name',(#665),#1146);
#664=REPRESENTATION('density',(#660),#1146);
#665=DESCRIPTIVE_REPRESENTATION_ITEM('Steel','Steel');
#666=PROPERTY_DEFINITION('material property','material name',#1156);
#667=PROPERTY_DEFINITION('material property','density of part',#1156);
#668=AXIS2_PLACEMENT_3D('',#964,#754,#755);
#669=AXIS2_PLACEMENT_3D('',#965,#756,#757);
#670=AXIS2_PLACEMENT_3D('',#967,#758,#759);
#671=AXIS2_PLACEMENT_3D('',#970,#761,#762);
#672=AXIS2_PLACEMENT_3D('',#971,#763,#764);
#673=AXIS2_PLACEMENT_3D('',#973,#765,#766);
#674=AXIS2_PLACEMENT_3D('',#974,#767,#768);
#675=AXIS2_PLACEMENT_3D('',#976,#769,#770);
#676=AXIS2_PLACEMENT_3D('',#979,#772,#773);
#677=AXIS2_PLACEMENT_3D('',#980,#774,#775);
#678=AXIS2_PLACEMENT_3D('',#982,#776,#777);
#679=AXIS2_PLACEMENT_3D('',#983,#778,#779);
#680=AXIS2_PLACEMENT_3D('',#985,#780,#781);
#681=AXIS2_PLACEMENT_3D('',#988,#783,#784);
#682=AXIS2_PLACEMENT_3D('',#989,#785,#786);
#683=AXIS2_PLACEMENT_3D('',#991,#787,#788);
#684=AXIS2_PLACEMENT_3D('',#992,#789,#790);
#685=AXIS2_PLACEMENT_3D('',#994,#791,#792);
#686=AXIS2_PLACEMENT_3D('',#997,#794,#795);
#687=AXIS2_PLACEMENT_3D('',#998,#796,#797);
#688=AXIS2_PLACEMENT_3D('',#1000,#798,#799);
#689=AXIS2_PLACEMENT_3D('',#1001,#800,#801);
#690=AXIS2_PLACEMENT_3D('',#1003,#802,#803);
#691=AXIS2_PLACEMENT_3D('',#1006,#805,#806);
#692=AXIS2_PLACEMENT_3D('',#1007,#807,#808);
#693=AXIS2_PLACEMENT_3D('',#1009,#809,#810);
#694=AXIS2_PLACEMENT_3D('',#1010,#811,#812);
#695=AXIS2_PLACEMENT_3D('',#1013,#814,#815);
#696=AXIS2_PLACEMENT_3D('',#1014,#816,#817);
#697=AXIS2_PLACEMENT_3D('',#1017,#819,#820);
#698=AXIS2_PLACEMENT_3D('',#1018,#821,#822);
#699=AXIS2_PLACEMENT_3D('',#1021,#824,#825);
#700=AXIS2_PLACEMENT_3D('',#1022,#826,#827);
#701=AXIS2_PLACEMENT_3D('',#1025,#829,#830);
#702=AXIS2_PLACEMENT_3D('',#1026,#831,#832);
#703=AXIS2_PLACEMENT_3D('',#1029,#834,#835);
#704=AXIS2_PLACEMENT_3D('',#1030,#836,#837);
#705=AXIS2_PLACEMENT_3D('',#1033,#838,#839);
#706=AXIS2_PLACEMENT_3D('',#1037,#841,#842);
#707=AXIS2_PLACEMENT_3D('',#1039,#844,#845);
#708=AXIS2_PLACEMENT_3D('',#1041,#847,#848);
#709=AXIS2_PLACEMENT_3D('',#1051,#854,#855);
#710=AXIS2_PLACEMENT_3D('',#1053,#856,#857);
#711=AXIS2_PLACEMENT_3D('',#1056,#859,#860);
#712=AXIS2_PLACEMENT_3D('',#1057,#861,#862);
#713=AXIS2_PLACEMENT_3D('',#1059,#863,#864);
#714=AXIS2_PLACEMENT_3D('',#1060,#865,#866);
#715=AXIS2_PLACEMENT_3D('',#1062,#867,#868);
#716=AXIS2_PLACEMENT_3D('',#1065,#870,#871);
#717=AXIS2_PLACEMENT_3D('',#1066,#872,#873);
#718=AXIS2_PLACEMENT_3D('',#1068,#874,#875);
#719=AXIS2_PLACEMENT_3D('',#1069,#876,#877);
#720=AXIS2_PLACEMENT_3D('',#1071,#878,#879);
#721=AXIS2_PLACEMENT_3D('',#1074,#881,#882);
#722=AXIS2_PLACEMENT_3D('',#1075,#883,#884);
#723=AXIS2_PLACEMENT_3D('',#1077,#885,#886);
#724=AXIS2_PLACEMENT_3D('',#1078,#887,#888);
#725=AXIS2_PLACEMENT_3D('',#1080,#889,#890);
#726=AXIS2_PLACEMENT_3D('',#1083,#892,#893);
#727=AXIS2_PLACEMENT_3D('',#1084,#894,#895);
#728=AXIS2_PLACEMENT_3D('',#1086,#896,#897);
#729=AXIS2_PLACEMENT_3D('',#1087,#898,#899);
#730=AXIS2_PLACEMENT_3D('',#1090,#901,#902);
#731=AXIS2_PLACEMENT_3D('',#1091,#903,#904);
#732=AXIS2_PLACEMENT_3D('',#1094,#906,#907);
#733=AXIS2_PLACEMENT_3D('',#1095,#908,#909);
#734=AXIS2_PLACEMENT_3D('',#1098,#911,#912);
#735=AXIS2_PLACEMENT_3D('',#1099,#913,#914);
#736=AXIS2_PLACEMENT_3D('',#1102,#916,#917);
#737=AXIS2_PLACEMENT_3D('',#1103,#918,#919);
#738=AXIS2_PLACEMENT_3D('',#1105,#920,#921);
#739=AXIS2_PLACEMENT_3D('',#1107,#922,#923);
#740=AXIS2_PLACEMENT_3D('',#1109,#925,#926);
#741=AXIS2_PLACEMENT_3D('',#1115,#930,#931);
#742=AXIS2_PLACEMENT_3D('',#1117,#932,#933);
#743=AXIS2_PLACEMENT_3D('',#1119,#934,#935);
#744=AXIS2_PLACEMENT_3D('',#1121,#937,#938);
#745=AXIS2_PLACEMENT_3D('',#1127,#942,#943);
#746=AXIS2_PLACEMENT_3D('',#1129,#944,#945);
#747=AXIS2_PLACEMENT_3D('',#1131,#946,#947);
#748=AXIS2_PLACEMENT_3D('',#1133,#949,#950);
#749=AXIS2_PLACEMENT_3D('',#1139,#954,#955);
#750=AXIS2_PLACEMENT_3D('',#1140,#956,#957);
#751=AXIS2_PLACEMENT_3D('',#1141,#958,#959);
#752=AXIS2_PLACEMENT_3D('',#1142,#960,#961);
#753=AXIS2_PLACEMENT_3D('',#1143,#962,#963);
#754=DIRECTION('axis',(0.,0.,1.));
#755=DIRECTION('refdir',(1.,0.,0.));
#756=DIRECTION('center_axis',(0.,0.,1.));
#757=DIRECTION('ref_axis',(1.,0.,0.));
#758=DIRECTION('center_axis',(0.,0.,1.));
#759=DIRECTION('ref_axis',(1.,0.,0.));
#760=DIRECTION('',(0.,0.,1.));
#761=DIRECTION('center_axis',(0.,0.,1.));
#762=DIRECTION('ref_axis',(1.,0.,0.));
#763=DIRECTION('center_axis',(0.,0.,-1.));
#764=DIRECTION('ref_axis',(1.,0.,0.));
#765=DIRECTION('center_axis',(0.,0.,-1.));
#766=DIRECTION('ref_axis',(1.,0.,0.));
#767=DIRECTION('center_axis',(0.,0.,1.));
#768=DIRECTION('ref_axis',(1.,0.,0.));
#769=DIRECTION('center_axis',(0.,0.,1.));
#770=DIRECTION('ref_axis',(1.,0.,0.));
#771=DIRECTION('',(0.,0.,1.));
#772=DIRECTION('center_axis',(0.,0.,1.));
#773=DIRECTION('ref_axis',(1.,0.,0.));
#774=DIRECTION('center_axis',(0.,0.,-1.));
#775=DIRECTION('ref_axis',(1.,0.,0.));
#776=DIRECTION('center_axis',(0.,0.,-1.));
#777=DIRECTION('ref_axis',(1.,0.,0.));
#778=DIRECTION('center_axis',(0.,0.,1.));
#779=DIRECTION('ref_axis',(1.,0.,0.));
#780=DIRECTION('center_axis',(0.,0.,1.));
#781=DIRECTION('ref_axis',(1.,0.,0.));
#782=DIRECTION('',(0.,0.,1.));
#783=DIRECTION('center_axis',(0.,0.,1.));
#784=DIRECTION('ref_axis',(1.,0.,0.));
#785=DIRECTION('center_axis',(0.,0.,-1.));
#786=DIRECTION('ref_axis',(1.,0.,0.));
#787=DIRECTION('center_axis',(0.,0.,-1.));
#788=DIRECTION('ref_axis',(1.,0.,0.));
#789=DIRECTION('center_axis',(0.,0.,1.));
#790=DIRECTION('ref_axis',(1.,0.,0.));
#791=DIRECTION('center_axis',(0.,0.,1.));
#792=DIRECTION('ref_axis',(1.,0.,0.));
#793=DIRECTION('',(0.,0.,1.));
#794=DIRECTION('center_axis',(0.,0.,1.));
#795=DIRECTION('ref_axis',(1.,0.,0.));
#796=DIRECTION('center_axis',(0.,0.,-1.));
#797=DIRECTION('ref_axis',(1.,0.,0.));
#798=DIRECTION('center_axis',(0.,0.,-1.));
#799=DIRECTION('ref_axis',(1.,0.,0.));
#800=DIRECTION('center_axis',(0.,0.,1.));
#801=DIRECTION('ref_axis',(1.,0.,0.));
#802=DIRECTION('center_axis',(0.,0.,1.));
#803=DIRECTION('ref_axis',(1.,0.,0.));
#804=DIRECTION('',(0.,0.,1.));
#805=DIRECTION('center_axis',(0.,0.,1.));
#806=DIRECTION('ref_axis',(1.,0.,0.));
#807=DIRECTION('center_axis',(0.,0.,-1.));
#808=DIRECTION('ref_axis',(1.,0.,0.));
#809=DIRECTION('center_axis',(0.,0.,-1.));
#810=DIRECTION('ref_axis',(1.,0.,0.));
#811=DIRECTION('center_axis',(0.,0.,1.));
#812=DIRECTION('ref_axis',(1.,0.,0.));
#813=DIRECTION('',(0.,0.,1.));
#814=DIRECTION('center_axis',(0.,0.,-1.));
#815=DIRECTION('ref_axis',(1.,0.,0.));
#816=DIRECTION('center_axis',(0.,0.,1.));
#817=DIRECTION('ref_axis',(1.,0.,0.));
#818=DIRECTION('',(0.,0.,1.));
#819=DIRECTION('center_axis',(0.,0.,-1.));
#820=DIRECTION('ref_axis',(1.,0.,0.));
#821=DIRECTION('center_axis',(0.,0.,1.));
#822=DIRECTION('ref_axis',(1.,0.,0.));
#823=DIRECTION('',(0.,0.,1.));
#824=DIRECTION('center_axis',(0.,0.,-1.));
#825=DIRECTION('ref_axis',(1.,0.,0.));
#826=DIRECTION('center_axis',(0.,0.,1.));
#827=DIRECTION('ref_axis',(1.,0.,0.));
#828=DIRECTION('',(0.,0.,1.));
#829=DIRECTION('center_axis',(0.,0.,-1.));
#830=DIRECTION('ref_axis',(1.,0.,0.));
#831=DIRECTION('center_axis',(0.,0.,1.));
#832=DIRECTION('ref_axis',(1.,0.,0.));
#833=DIRECTION('',(0.,0.,1.));
#834=DIRECTION('center_axis',(0.,0.,-1.));
#835=DIRECTION('ref_axis',(1.,0.,0.));
#836=DIRECTION('center_axis',(-1.,0.,0.));
#837=DIRECTION('ref_axis',(0.,-0.622900831007423,-0.782300808340539));
#838=DIRECTION('center_axis',(-1.,0.,0.));
#839=DIRECTION('ref_axis',(0.,-0.622900831007423,-0.782300808340539));
#840=DIRECTION('',(-1.,0.,0.));
#841=DIRECTION('center_axis',(-1.,0.,0.));
#842=DIRECTION('ref_axis',(0.,-0.622900831007423,-0.782300808340539));
#843=DIRECTION('',(1.,0.,0.));
#844=DIRECTION('center_axis',(1.,0.,0.));
#845=DIRECTION('ref_axis',(0.,1.,0.));
#846=DIRECTION('',(0.,1.,0.));
#847=DIRECTION('center_axis',(1.,0.,0.));
#848=DIRECTION('ref_axis',(0.,-1.,0.));
#849=DIRECTION('',(0.,-1.,0.));
#850=DIRECTION('',(0.,0.,-1.));
#851=DIRECTION('',(0.,-1.,0.));
#852=DIRECTION('',(0.,0.,-1.));
#853=DIRECTION('',(0.,-1.,0.));
#854=DIRECTION('center_axis',(0.,0.,1.));
#855=DIRECTION('ref_axis',(1.,0.,0.));
#856=DIRECTION('center_axis',(0.,0.,1.));
#857=DIRECTION('ref_axis',(1.,0.,0.));
#858=DIRECTION('',(0.,0.,1.));
#859=DIRECTION('center_axis',(0.,0.,1.));
#860=DIRECTION('ref_axis',(1.,0.,0.));
#861=DIRECTION('center_axis',(0.,0.,-1.));
#862=DIRECTION('ref_axis',(1.,0.,0.));
#863=DIRECTION('center_axis',(0.,0.,-1.));
#864=DIRECTION('ref_axis',(1.,0.,0.));
#865=DIRECTION('center_axis',(0.,0.,1.));
#866=DIRECTION('ref_axis',(1.,0.,0.));
#867=DIRECTION('center_axis',(0.,0.,1.));
#868=DIRECTION('ref_axis',(1.,0.,0.));
#869=DIRECTION('',(0.,0.,1.));
#870=DIRECTION('center_axis',(0.,0.,1.));
#871=DIRECTION('ref_axis',(1.,0.,0.));
#872=DIRECTION('center_axis',(0.,0.,-1.));
#873=DIRECTION('ref_axis',(1.,0.,0.));
#874=DIRECTION('center_axis',(0.,0.,-1.));
#875=DIRECTION('ref_axis',(1.,0.,0.));
#876=DIRECTION('center_axis',(0.,0.,1.));
#877=DIRECTION('ref_axis',(1.,0.,0.));
#878=DIRECTION('center_axis',(0.,0.,1.));
#879=DIRECTION('ref_axis',(1.,0.,0.));
#880=DIRECTION('',(0.,0.,1.));
#881=DIRECTION('center_axis',(0.,0.,1.));
#882=DIRECTION('ref_axis',(1.,0.,0.));
#883=DIRECTION('center_axis',(0.,0.,-1.));
#884=DIRECTION('ref_axis',(1.,0.,0.));
#885=DIRECTION('center_axis',(0.,0.,-1.));
#886=DIRECTION('ref_axis',(1.,0.,0.));
#887=DIRECTION('center_axis',(0.,0.,1.));
#888=DIRECTION('ref_axis',(1.,0.,0.));
#889=DIRECTION('center_axis',(0.,0.,1.));
#890=DIRECTION('ref_axis',(1.,0.,0.));
#891=DIRECTION('',(0.,0.,1.));
#892=DIRECTION('center_axis',(0.,0.,1.));
#893=DIRECTION('ref_axis',(1.,0.,0.));
#894=DIRECTION('center_axis',(0.,0.,-1.));
#895=DIRECTION('ref_axis',(1.,0.,0.));
#896=DIRECTION('center_axis',(0.,0.,-1.));
#897=DIRECTION('ref_axis',(1.,0.,0.));
#898=DIRECTION('center_axis',(0.,0.,1.));
#899=DIRECTION('ref_axis',(1.,0.,0.));
#900=DIRECTION('',(0.,0.,1.));
#901=DIRECTION('center_axis',(0.,0.,-1.));
#902=DIRECTION('ref_axis',(1.,0.,0.));
#903=DIRECTION('center_axis',(0.,0.,1.));
#904=DIRECTION('ref_axis',(1.,0.,0.));
#905=DIRECTION('',(0.,0.,1.));
#906=DIRECTION('center_axis',(0.,0.,-1.));
#907=DIRECTION('ref_axis',(1.,0.,0.));
#908=DIRECTION('center_axis',(0.,0.,1.));
#909=DIRECTION('ref_axis',(1.,0.,0.));
#910=DIRECTION('',(0.,0.,1.));
#911=DIRECTION('center_axis',(0.,0.,-1.));
#912=DIRECTION('ref_axis',(1.,0.,0.));
#913=DIRECTION('center_axis',(0.,0.,1.));
#914=DIRECTION('ref_axis',(1.,0.,0.));
#915=DIRECTION('',(0.,0.,1.));
#916=DIRECTION('center_axis',(0.,0.,-1.));
#917=DIRECTION('ref_axis',(1.,0.,0.));
#918=DIRECTION('center_axis',(0.,0.,-1.));
#919=DIRECTION('ref_axis',(0.,1.,0.));
#920=DIRECTION('center_axis',(0.,0.,-1.));
#921=DIRECTION('ref_axis',(0.,1.,0.));
#922=DIRECTION('center_axis',(0.,0.,-1.));
#923=DIRECTION('ref_axis',(0.,1.,0.));
#924=DIRECTION('',(0.,0.,-1.));
#925=DIRECTION('center_axis',(0.,1.,0.));
#926=DIRECTION('ref_axis',(1.,0.,0.));
#927=DIRECTION('',(1.,0.,0.));
#928=DIRECTION('',(1.,0.,0.));
#929=DIRECTION('',(0.,0.,-1.));
#930=DIRECTION('center_axis',(0.,0.,-1.));
#931=DIRECTION('ref_axis',(-1.,0.,0.));
#932=DIRECTION('center_axis',(0.,0.,-1.));
#933=DIRECTION('ref_axis',(-1.,0.,0.));
#934=DIRECTION('center_axis',(0.,0.,-1.));
#935=DIRECTION('ref_axis',(-1.,0.,0.));
#936=DIRECTION('',(0.,0.,-1.));
#937=DIRECTION('center_axis',(-1.,0.,0.));
#938=DIRECTION('ref_axis',(0.,1.,0.));
#939=DIRECTION('',(0.,1.,0.));
#940=DIRECTION('',(0.,1.,0.));
#941=DIRECTION('',(0.,0.,-1.));
#942=DIRECTION('center_axis',(0.,0.,-1.));
#943=DIRECTION('ref_axis',(0.,-1.,0.));
#944=DIRECTION('center_axis',(0.,0.,-1.));
#945=DIRECTION('ref_axis',(0.,-1.,0.));
#946=DIRECTION('center_axis',(0.,0.,-1.));
#947=DIRECTION('ref_axis',(0.,-1.,0.));
#948=DIRECTION('',(0.,0.,-1.));
#949=DIRECTION('center_axis',(0.,-1.,0.));
#950=DIRECTION('ref_axis',(-1.,0.,0.));
#951=DIRECTION('',(-1.,0.,0.));
#952=DIRECTION('',(-1.,0.,0.));
#953=DIRECTION('',(0.,0.,-1.));
#954=DIRECTION('center_axis',(0.,0.,-1.));
#955=DIRECTION('ref_axis',(1.,0.,0.));
#956=DIRECTION('center_axis',(0.,0.,-1.));
#957=DIRECTION('ref_axis',(1.,0.,0.));
#958=DIRECTION('center_axis',(0.,0.,-1.));
#959=DIRECTION('ref_axis',(1.,0.,0.));
#960=DIRECTION('center_axis',(0.,0.,-1.));
#961=DIRECTION('ref_axis',(1.,0.,0.));
#962=DIRECTION('center_axis',(0.,0.,-1.));
#963=DIRECTION('ref_axis',(1.,0.,0.));
#964=CARTESIAN_POINT('',(0.,0.,0.));
#965=CARTESIAN_POINT('Origin',(78.,-18.46089952,20.));
#966=CARTESIAN_POINT('',(73.85,-18.46089952,20.));
#967=CARTESIAN_POINT('Origin',(78.,-18.46089952,20.));
#968=CARTESIAN_POINT('',(73.85,-18.46089952,25.));
#969=CARTESIAN_POINT('',(73.85,-18.46089952,20.));
#970=CARTESIAN_POINT('Origin',(78.,-18.46089952,25.));
#971=CARTESIAN_POINT('Origin',(78.,-18.46089952,25.));
#972=CARTESIAN_POINT('',(75.65,-18.46089952,25.));
#973=CARTESIAN_POINT('Origin',(78.,-18.46089952,25.));
#974=CARTESIAN_POINT('Origin',(78.,26.13910048,20.));
#975=CARTESIAN_POINT('',(73.85,26.13910048,20.));
#976=CARTESIAN_POINT('Origin',(78.,26.13910048,20.));
#977=CARTESIAN_POINT('',(73.85,26.13910048,25.));
#978=CARTESIAN_POINT('',(73.85,26.13910048,20.));
#979=CARTESIAN_POINT('Origin',(78.,26.13910048,25.));
#980=CARTESIAN_POINT('Origin',(78.,26.13910048,25.));
#981=CARTESIAN_POINT('',(75.65,26.13910048,25.));
#982=CARTESIAN_POINT('Origin',(78.,26.13910048,25.));
#983=CARTESIAN_POINT('Origin',(50.4200933984312,-7.65044976137214,20.));
#984=CARTESIAN_POINT('',(47.1700933984312,-7.65044976137214,20.));
#985=CARTESIAN_POINT('Origin',(50.4200933984312,-7.65044976137214,20.));
#986=CARTESIAN_POINT('',(47.1700933984312,-7.65044976137214,24.));
#987=CARTESIAN_POINT('',(47.1700933984312,-7.65044976137214,20.));
#988=CARTESIAN_POINT('Origin',(50.4200933984312,-7.65044976137214,24.));
#989=CARTESIAN_POINT('Origin',(50.4200933984312,-7.65044976137214,24.));
#990=CARTESIAN_POINT('',(48.6200933984312,-7.65044976137214,24.));
#991=CARTESIAN_POINT('Origin',(50.4200933984312,-7.65044976137214,24.));
#992=CARTESIAN_POINT('Origin',(50.4200933984312,13.3495502386279,20.));
#993=CARTESIAN_POINT('',(47.1700933984312,13.3495502386279,20.));
#994=CARTESIAN_POINT('Origin',(50.4200933984312,13.3495502386279,20.));
#995=CARTESIAN_POINT('',(47.1700933984312,13.3495502386279,24.));
#996=CARTESIAN_POINT('',(47.1700933984312,13.3495502386279,20.));
#997=CARTESIAN_POINT('Origin',(50.4200933984312,13.3495502386279,24.));
#998=CARTESIAN_POINT('Origin',(50.4200933984312,13.3495502386279,24.));
#999=CARTESIAN_POINT('',(48.6200933984312,13.3495502386279,24.));
#1000=CARTESIAN_POINT('Origin',(50.4200933984312,13.3495502386279,24.));
#1001=CARTESIAN_POINT('Origin',(18.920093398431,2.84955023862789,20.));
#1002=CARTESIAN_POINT('',(15.670093398431,2.84955023862789,20.));
#1003=CARTESIAN_POINT('Origin',(18.920093398431,2.84955023862789,20.));
#1004=CARTESIAN_POINT('',(15.670093398431,2.84955023862789,24.));
#1005=CARTESIAN_POINT('',(15.670093398431,2.84955023862789,20.));
#1006=CARTESIAN_POINT('Origin',(18.920093398431,2.84955023862789,24.));
#1007=CARTESIAN_POINT('Origin',(18.920093398431,2.84955023862789,24.));
#1008=CARTESIAN_POINT('',(17.120093398431,2.84955023862789,24.));
#1009=CARTESIAN_POINT('Origin',(18.920093398431,2.84955023862789,24.));
#1010=CARTESIAN_POINT('Origin',(18.920093398431,2.84955023862789,20.));
#1011=CARTESIAN_POINT('',(17.120093398431,2.84955023862789,30.));
#1012=CARTESIAN_POINT('',(17.120093398431,2.84955023862789,20.));
#1013=CARTESIAN_POINT('Origin',(18.920093398431,2.84955023862789,30.));
#1014=CARTESIAN_POINT('Origin',(50.4200933984312,-7.65044976137214,20.));
#1015=CARTESIAN_POINT('',(48.6200933984312,-7.65044976137214,30.));
#1016=CARTESIAN_POINT('',(48.6200933984312,-7.65044976137214,20.));
#1017=CARTESIAN_POINT('Origin',(50.4200933984312,-7.65044976137214,30.));
#1018=CARTESIAN_POINT('Origin',(78.,-18.46089952,20.));
#1019=CARTESIAN_POINT('',(75.65,-18.46089952,30.));
#1020=CARTESIAN_POINT('',(75.65,-18.46089952,20.));
#1021=CARTESIAN_POINT('Origin',(78.,-18.46089952,30.));
#1022=CARTESIAN_POINT('Origin',(50.4200933984312,13.3495502386279,20.));
#1023=CARTESIAN_POINT('',(48.6200933984312,13.3495502386279,30.));
#1024=CARTESIAN_POINT('',(48.6200933984312,13.3495502386279,20.));
#1025=CARTESIAN_POINT('Origin',(50.4200933984312,13.3495502386279,30.));
#1026=CARTESIAN_POINT('Origin',(78.,26.13910048,20.));
#1027=CARTESIAN_POINT('',(75.65,26.13910048,30.));
#1028=CARTESIAN_POINT('',(75.65,26.13910048,20.));
#1029=CARTESIAN_POINT('Origin',(78.,26.13910048,30.));
#1030=CARTESIAN_POINT('Origin',(89.5700006484985,3.83951530484048,44.3277718276508));
#1031=CARTESIAN_POINT('',(89.5700006484985,15.230818949814,30.));
#1032=CARTESIAN_POINT('',(89.5700006484985,-7.55178834013306,30.));
#1033=CARTESIAN_POINT('Origin',(89.5700006484985,3.83951530484048,44.3277718276508));
#1034=CARTESIAN_POINT('',(59.5700006484985,15.230818949814,30.));
#1035=CARTESIAN_POINT('',(89.5700006484985,15.230818949814,30.));
#1036=CARTESIAN_POINT('',(59.5700006484985,-7.55178834013306,30.));
#1037=CARTESIAN_POINT('Origin',(59.5700006484985,3.83951530484048,44.3277718276508));
#1038=CARTESIAN_POINT('',(89.5700006484985,-7.55178834013306,30.));
#1039=CARTESIAN_POINT('Origin',(59.5700006484985,5.6999999999999,25.));
#1040=CARTESIAN_POINT('',(59.5700006484985,5.6999999999999,30.));
#1041=CARTESIAN_POINT('Origin',(89.5700006484985,42.1999999999999,30.));
#1042=CARTESIAN_POINT('',(89.5700006484985,-36.5000000000001,30.));
#1043=CARTESIAN_POINT('',(89.5700006484985,42.1999999999999,30.));
#1044=CARTESIAN_POINT('',(89.5700006484985,-36.5000000000001,20.));
#1045=CARTESIAN_POINT('',(89.5700006484985,-36.5000000000001,30.));
#1046=CARTESIAN_POINT('',(89.5700006484985,42.1999999999999,20.));
#1047=CARTESIAN_POINT('',(89.5700006484985,42.1999999999999,20.));
#1048=CARTESIAN_POINT('',(89.5700006484985,42.1999999999999,30.));
#1049=CARTESIAN_POINT('',(89.5700006484985,42.1999999999999,30.));
#1050=CARTESIAN_POINT('',(89.5700006484985,42.1999999999999,30.));
#1051=CARTESIAN_POINT('Origin',(-43.,49.1999999999999,20.));
#1052=CARTESIAN_POINT('',(-46.25,49.1999999999999,20.));
#1053=CARTESIAN_POINT('Origin',(-43.,49.1999999999999,20.));
#1054=CARTESIAN_POINT('',(-46.25,49.1999999999999,25.));
#1055=CARTESIAN_POINT('',(-46.25,49.1999999999999,20.));
#1056=CARTESIAN_POINT('Origin',(-43.,49.1999999999999,25.));
#1057=CARTESIAN_POINT('Origin',(-43.,49.1999999999999,25.));
#1058=CARTESIAN_POINT('',(-44.8,49.1999999999999,25.));
#1059=CARTESIAN_POINT('Origin',(-43.,49.1999999999999,25.));
#1060=CARTESIAN_POINT('Origin',(81.0700006484984,-43.5000000000001,20.));
#1061=CARTESIAN_POINT('',(77.8200006484985,-43.5000000000001,20.));
#1062=CARTESIAN_POINT('Origin',(81.0700006484984,-43.5000000000001,20.));
#1063=CARTESIAN_POINT('',(77.8200006484985,-43.5000000000001,25.));
#1064=CARTESIAN_POINT('',(77.8200006484985,-43.5000000000001,20.));
#1065=CARTESIAN_POINT('Origin',(81.0700006484984,-43.5000000000001,25.));
#1066=CARTESIAN_POINT('Origin',(81.0700006484984,-43.5000000000001,25.));
#1067=CARTESIAN_POINT('',(79.2700006484985,-43.5000000000001,25.));
#1068=CARTESIAN_POINT('Origin',(81.0700006484984,-43.5000000000001,25.));
#1069=CARTESIAN_POINT('Origin',(-43.,-43.5000000000001,20.));
#1070=CARTESIAN_POINT('',(-46.25,-43.5000000000001,20.));
#1071=CARTESIAN_POINT('Origin',(-43.,-43.5000000000001,20.));
#1072=CARTESIAN_POINT('',(-46.25,-43.5000000000001,25.));
#1073=CARTESIAN_POINT('',(-46.25,-43.5000000000001,20.));
#1074=CARTESIAN_POINT('Origin',(-43.,-43.5000000000001,25.));
#1075=CARTESIAN_POINT('Origin',(-43.,-43.5000000000001,25.));
#1076=CARTESIAN_POINT('',(-44.8,-43.5000000000001,25.));
#1077=CARTESIAN_POINT('Origin',(-43.,-43.5000000000001,25.));
#1078=CARTESIAN_POINT('Origin',(81.0700006484985,49.1999999999999,20.));
#1079=CARTESIAN_POINT('',(77.8200006484985,49.1999999999999,20.));
#1080=CARTESIAN_POINT('Origin',(81.0700006484985,49.1999999999999,20.));
#1081=CARTESIAN_POINT('',(77.8200006484985,49.1999999999999,25.));
#1082=CARTESIAN_POINT('',(77.8200006484985,49.1999999999999,20.));
#1083=CARTESIAN_POINT('Origin',(81.0700006484985,49.1999999999999,25.));
#1084=CARTESIAN_POINT('Origin',(81.0700006484985,49.1999999999999,25.));
#1085=CARTESIAN_POINT('',(79.2700006484985,49.1999999999999,25.));
#1086=CARTESIAN_POINT('Origin',(81.0700006484985,49.1999999999999,25.));
#1087=CARTESIAN_POINT('Origin',(-43.,49.1999999999999,20.));
#1088=CARTESIAN_POINT('',(-44.8,49.1999999999999,30.));
#1089=CARTESIAN_POINT('',(-44.8,49.1999999999999,20.));
#1090=CARTESIAN_POINT('Origin',(-43.,49.1999999999999,30.));
#1091=CARTESIAN_POINT('Origin',(81.0700006484984,-43.5000000000001,20.));
#1092=CARTESIAN_POINT('',(79.2700006484985,-43.5000000000001,30.));
#1093=CARTESIAN_POINT('',(79.2700006484985,-43.5000000000001,20.));
#1094=CARTESIAN_POINT('Origin',(81.0700006484984,-43.5000000000001,30.));
#1095=CARTESIAN_POINT('Origin',(81.0700006484985,49.1999999999999,20.));
#1096=CARTESIAN_POINT('',(79.2700006484985,49.1999999999999,30.));
#1097=CARTESIAN_POINT('',(79.2700006484985,49.1999999999999,20.));
#1098=CARTESIAN_POINT('Origin',(81.0700006484985,49.1999999999999,30.));
#1099=CARTESIAN_POINT('Origin',(-43.,-43.5000000000001,20.));
#1100=CARTESIAN_POINT('',(-44.8,-43.5000000000001,30.));
#1101=CARTESIAN_POINT('',(-44.8,-43.5000000000001,20.));
#1102=CARTESIAN_POINT('Origin',(-43.,-43.5000000000001,30.));
#1103=CARTESIAN_POINT('Origin',(74.5700006484985,42.1999999999999,30.));
#1104=CARTESIAN_POINT('',(74.5700006484985,57.1999999999999,30.));
#1105=CARTESIAN_POINT('Origin',(74.5700006484985,42.1999999999999,30.));
#1106=CARTESIAN_POINT('',(74.5700006484985,57.1999999999999,20.));
#1107=CARTESIAN_POINT('Origin',(74.5700006484985,42.1999999999999,20.));
#1108=CARTESIAN_POINT('',(74.5700006484985,57.1999999999999,30.));
#1109=CARTESIAN_POINT('Origin',(-36.5,57.1999999999999,30.));
#1110=CARTESIAN_POINT('',(-36.5,57.1999999999999,30.));
#1111=CARTESIAN_POINT('',(-36.5,57.1999999999999,30.));
#1112=CARTESIAN_POINT('',(-36.5,57.1999999999999,20.));
#1113=CARTESIAN_POINT('',(-36.5,57.1999999999999,20.));
#1114=CARTESIAN_POINT('',(-36.5,57.1999999999999,30.));
#1115=CARTESIAN_POINT('Origin',(-36.5,42.1999999999999,30.));
#1116=CARTESIAN_POINT('',(-51.5,42.1999999999999,30.));
#1117=CARTESIAN_POINT('Origin',(-36.5,42.1999999999999,30.));
#1118=CARTESIAN_POINT('',(-51.5,42.1999999999999,20.));
#1119=CARTESIAN_POINT('Origin',(-36.5,42.1999999999999,20.));
#1120=CARTESIAN_POINT('',(-51.5,42.1999999999999,30.));
#1121=CARTESIAN_POINT('Origin',(-51.5,-36.5000000000001,30.));
#1122=CARTESIAN_POINT('',(-51.5,-36.5000000000001,30.));
#1123=CARTESIAN_POINT('',(-51.5,-36.5000000000001,30.));
#1124=CARTESIAN_POINT('',(-51.5,-36.5000000000001,20.));
#1125=CARTESIAN_POINT('',(-51.5,-36.5000000000001,20.));
#1126=CARTESIAN_POINT('',(-51.5,-36.5000000000001,30.));
#1127=CARTESIAN_POINT('Origin',(-36.5,-36.5000000000001,30.));
#1128=CARTESIAN_POINT('',(-36.5,-51.5000000000001,30.));
#1129=CARTESIAN_POINT('Origin',(-36.5,-36.5000000000001,30.));
#1130=CARTESIAN_POINT('',(-36.5,-51.5000000000001,20.));
#1131=CARTESIAN_POINT('Origin',(-36.5,-36.5000000000001,20.));
#1132=CARTESIAN_POINT('',(-36.5,-51.5000000000001,30.));
#1133=CARTESIAN_POINT('Origin',(74.5700006484985,-51.5000000000001,30.));
#1134=CARTESIAN_POINT('',(74.5700006484985,-51.5000000000001,30.));
#1135=CARTESIAN_POINT('',(74.5700006484985,-51.5000000000001,30.));
#1136=CARTESIAN_POINT('',(74.5700006484985,-51.5000000000001,20.));
#1137=CARTESIAN_POINT('',(74.5700006484985,-51.5000000000001,20.));
#1138=CARTESIAN_POINT('',(74.5700006484985,-51.5000000000001,30.));
#1139=CARTESIAN_POINT('Origin',(74.5700006484985,-36.5000000000001,30.));
#1140=CARTESIAN_POINT('Origin',(74.5700006484985,-36.5000000000001,30.));
#1141=CARTESIAN_POINT('Origin',(74.5700006484985,-36.5000000000001,20.));
#1142=CARTESIAN_POINT('Origin',(19.0350003242492,2.8499999999999,20.));
#1143=CARTESIAN_POINT('Origin',(19.0350003242492,2.8499999999999,30.));
#1144=UNCERTAINTY_MEASURE_WITH_UNIT(LENGTH_MEASURE(0.01),#1148,
'DISTANCE_ACCURACY_VALUE',
'Maximum model space distance between geometric entities at asserted c
onnectivities');
#1145=UNCERTAINTY_MEASURE_WITH_UNIT(LENGTH_MEASURE(0.01),#1148,
'DISTANCE_ACCURACY_VALUE',
'Maximum model space distance between geometric entities at asserted c
onnectivities');
#1146=(
GEOMETRIC_REPRESENTATION_CONTEXT(3)
GLOBAL_UNCERTAINTY_ASSIGNED_CONTEXT((#1144))
GLOBAL_UNIT_ASSIGNED_CONTEXT((#1148,#1150,#1151))
REPRESENTATION_CONTEXT('','3D')
);
#1147=(
GEOMETRIC_REPRESENTATION_CONTEXT(3)
GLOBAL_UNCERTAINTY_ASSIGNED_CONTEXT((#1145))
GLOBAL_UNIT_ASSIGNED_CONTEXT((#1148,#1150,#1151))
REPRESENTATION_CONTEXT('','3D')
);
#1148=(
LENGTH_UNIT()
NAMED_UNIT(*)
SI_UNIT(.MILLI.,.METRE.)
);
#1149=(
LENGTH_UNIT()
NAMED_UNIT(*)
SI_UNIT($,.METRE.)
);
#1150=(
NAMED_UNIT(*)
PLANE_ANGLE_UNIT()
SI_UNIT($,.RADIAN.)
);
#1151=(
NAMED_UNIT(*)
SI_UNIT($,.STERADIAN.)
SOLID_ANGLE_UNIT()
);
#1152=SHAPE_DEFINITION_REPRESENTATION(#1153,#1154);
#1153=PRODUCT_DEFINITION_SHAPE('',$,#1156);
#1154=SHAPE_REPRESENTATION('',(#668),#1146);
#1155=PRODUCT_DEFINITION_CONTEXT('part definition',#1160,'design');
#1156=PRODUCT_DEFINITION('2026-03-15-10-35-25-822',
'sensors_module_bottom',#1157,#1155);
#1157=PRODUCT_DEFINITION_FORMATION('',$,#1162);
#1158=PRODUCT_RELATED_PRODUCT_CATEGORY('sensors_module_bottom',
'sensors_module_bottom',(#1162));
#1159=APPLICATION_PROTOCOL_DEFINITION('international standard',
'automotive_design',2009,#1160);
#1160=APPLICATION_CONTEXT(
'Core Data for Automotive Mechanical Design Process');
#1161=PRODUCT_CONTEXT('part definition',#1160,'mechanical');
#1162=PRODUCT('2026-03-15-10-35-25-822','sensors_module_bottom',$,(#1161));
#1163=PRESENTATION_STYLE_ASSIGNMENT((#1164));
#1164=SURFACE_STYLE_USAGE(.BOTH.,#1165);
#1165=SURFACE_SIDE_STYLE('',(#1166));
#1166=SURFACE_STYLE_FILL_AREA(#1167);
#1167=FILL_AREA_STYLE('Steel - Satin',(#1168));
#1168=FILL_AREA_STYLE_COLOUR('Steel - Satin',#1169);
#1169=COLOUR_RGB('Steel - Satin',0.627450980392157,0.627450980392157,0.627450980392157);
ENDSEC;
END-ISO-10303-21;
