ISO-10303-21;
HEADER;
/* Generated by software containing ST-Developer
 * from STEP Tools, Inc. (www.steptools.com) 
 */

FILE_DESCRIPTION(
/* description */ (''),
/* implementation_level */ '2;1');

FILE_NAME(
/* name */ 'sensors_modul_top_v3.step',
/* time_stamp */ '2026-04-18T17:21:59+02:00',
/* author */ (''),
/* organization */ (''),
/* preprocessor_version */ 'ST-DEVELOPER v20.1',
/* originating_system */ 'Autodesk Translation Framework v15.8.0.0',
/* authorisation */ '');

FILE_SCHEMA (('AUTOMOTIVE_DESIGN { 1 0 10303 214 3 1 1 }'));
ENDSEC;

DATA;
#10=MECHANICAL_DESIGN_GEOMETRIC_PRESENTATION_REPRESENTATION('',(#13),#2237);
#11=SHAPE_REPRESENTATION_RELATIONSHIP('SRR','None',#2244,#12);
#12=ADVANCED_BREP_SHAPE_REPRESENTATION('',(#14),#2236);
#13=STYLED_ITEM('',(#2253),#14);
#14=MANIFOLD_SOLID_BREP('Body2',#1329);
#15=CONICAL_SURFACE('',#1424,2.45,0.785398163397459);
#16=CONICAL_SURFACE('',#1438,2.45,0.785398163397459);
#17=CONICAL_SURFACE('',#1441,2.45,0.785398163397459);
#18=CONICAL_SURFACE('',#1444,2.45,0.785398163397459);
#19=CONICAL_SURFACE('',#1447,1.,0.785398163397459);
#20=CONICAL_SURFACE('',#1451,1.,0.785398163397459);
#21=CONICAL_SURFACE('',#1457,1.3,0.785398163397459);
#22=CONICAL_SURFACE('',#1462,1.3,0.785398163397459);
#23=CYLINDRICAL_SURFACE('',#1386,3.00000000000002);
#24=CYLINDRICAL_SURFACE('',#1390,3.00000000000001);
#25=CYLINDRICAL_SURFACE('',#1394,2.99999999999999);
#26=CYLINDRICAL_SURFACE('',#1398,2.99999999999998);
#27=CYLINDRICAL_SURFACE('',#1400,3.24999999999999);
#28=CYLINDRICAL_SURFACE('',#1404,3.25);
#29=CYLINDRICAL_SURFACE('',#1408,3.24999999999999);
#30=CYLINDRICAL_SURFACE('',#1412,3.25);
#31=CYLINDRICAL_SURFACE('',#1416,1.8);
#32=CYLINDRICAL_SURFACE('',#1418,1.80000000000001);
#33=CYLINDRICAL_SURFACE('',#1420,1.80000000000001);
#34=CYLINDRICAL_SURFACE('',#1422,1.8);
#35=CYLINDRICAL_SURFACE('',#1437,2.35);
#36=CYLINDRICAL_SURFACE('',#1440,2.35);
#37=CYLINDRICAL_SURFACE('',#1443,2.35);
#38=CYLINDRICAL_SURFACE('',#1446,2.35);
#39=CYLINDRICAL_SURFACE('',#1449,0.900000000000001);
#40=CYLINDRICAL_SURFACE('',#1453,0.900000000000001);
#41=CYLINDRICAL_SURFACE('',#1460,1.5);
#42=CYLINDRICAL_SURFACE('',#1465,1.5);
#43=CYLINDRICAL_SURFACE('',#1467,15.);
#44=CYLINDRICAL_SURFACE('',#1469,15.);
#45=CYLINDRICAL_SURFACE('',#1471,15.);
#46=CYLINDRICAL_SURFACE('',#1473,15.);
#47=FACE_BOUND('',#211,.T.);
#48=FACE_BOUND('',#212,.T.);
#49=FACE_BOUND('',#213,.T.);
#50=FACE_BOUND('',#214,.T.);
#51=FACE_BOUND('',#215,.T.);
#52=FACE_BOUND('',#216,.T.);
#53=FACE_BOUND('',#217,.T.);
#54=FACE_BOUND('',#218,.T.);
#55=FACE_BOUND('',#219,.T.);
#56=FACE_BOUND('',#220,.T.);
#57=FACE_BOUND('',#221,.T.);
#58=FACE_BOUND('',#257,.T.);
#59=FACE_BOUND('',#260,.T.);
#60=FACE_BOUND('',#263,.T.);
#61=FACE_BOUND('',#266,.T.);
#62=FACE_BOUND('',#273,.T.);
#63=FACE_BOUND('',#274,.T.);
#64=FACE_BOUND('',#275,.T.);
#65=FACE_BOUND('',#276,.T.);
#66=FACE_BOUND('',#277,.T.);
#67=FACE_BOUND('',#278,.T.);
#68=FACE_BOUND('',#279,.T.);
#69=FACE_BOUND('',#280,.T.);
#70=FACE_BOUND('',#281,.T.);
#71=FACE_BOUND('',#282,.T.);
#72=FACE_BOUND('',#283,.T.);
#73=FACE_BOUND('',#284,.T.);
#74=FACE_BOUND('',#285,.T.);
#75=FACE_BOUND('',#286,.T.);
#76=FACE_BOUND('',#287,.T.);
#77=CIRCLE('',#1345,15.);
#78=CIRCLE('',#1346,15.);
#79=CIRCLE('',#1347,15.);
#80=CIRCLE('',#1348,15.);
#81=CIRCLE('',#1349,3.24999999999999);
#82=CIRCLE('',#1350,3.25);
#83=CIRCLE('',#1351,3.24999999999999);
#84=CIRCLE('',#1352,3.25);
#85=CIRCLE('',#1353,1.5);
#86=CIRCLE('',#1354,1.5);
#87=CIRCLE('',#1355,2.35);
#88=CIRCLE('',#1356,2.35);
#89=CIRCLE('',#1357,2.35);
#90=CIRCLE('',#1358,2.35);
#91=CIRCLE('',#1359,3.00000000000001);
#92=CIRCLE('',#1360,3.00000000000002);
#93=CIRCLE('',#1383,2.99999999999999);
#94=CIRCLE('',#1384,2.99999999999995);
#95=CIRCLE('',#1387,3.00000000000002);
#96=CIRCLE('',#1391,3.00000000000001);
#97=CIRCLE('',#1395,2.99999999999999);
#98=CIRCLE('',#1399,2.99999999999998);
#99=CIRCLE('',#1401,3.24999999999999);
#100=CIRCLE('',#1403,1.80000000000001);
#101=CIRCLE('',#1405,3.25);
#102=CIRCLE('',#1407,1.80000000000001);
#103=CIRCLE('',#1409,3.24999999999999);
#104=CIRCLE('',#1411,1.8);
#105=CIRCLE('',#1413,3.25);
#106=CIRCLE('',#1415,1.8);
#107=CIRCLE('',#1417,1.8);
#108=CIRCLE('',#1419,1.80000000000001);
#109=CIRCLE('',#1421,1.80000000000001);
#110=CIRCLE('',#1423,1.8);
#111=CIRCLE('',#1425,2.55);
#112=CIRCLE('',#1426,2.35);
#113=CIRCLE('',#1428,15.);
#114=CIRCLE('',#1429,15.);
#115=CIRCLE('',#1430,15.);
#116=CIRCLE('',#1431,15.);
#117=CIRCLE('',#1432,2.55);
#118=CIRCLE('',#1433,1.1);
#119=CIRCLE('',#1434,1.1);
#120=CIRCLE('',#1435,2.55);
#121=CIRCLE('',#1436,2.55);
#122=CIRCLE('',#1439,2.35);
#123=CIRCLE('',#1442,2.35);
#124=CIRCLE('',#1445,2.35);
#125=CIRCLE('',#1448,0.900000000000001);
#126=CIRCLE('',#1450,0.900000000000001);
#127=CIRCLE('',#1452,0.900000000000001);
#128=CIRCLE('',#1454,0.900000000000001);
#129=CIRCLE('',#1458,1.1);
#130=CIRCLE('',#1459,1.5);
#131=CIRCLE('',#1463,1.1);
#132=CIRCLE('',#1464,1.5);
#133=FACE_OUTER_BOUND('',#209,.T.);
#134=FACE_OUTER_BOUND('',#210,.T.);
#135=FACE_OUTER_BOUND('',#222,.T.);
#136=FACE_OUTER_BOUND('',#223,.T.);
#137=FACE_OUTER_BOUND('',#224,.T.);
#138=FACE_OUTER_BOUND('',#225,.T.);
#139=FACE_OUTER_BOUND('',#226,.T.);
#140=FACE_OUTER_BOUND('',#227,.T.);
#141=FACE_OUTER_BOUND('',#228,.T.);
#142=FACE_OUTER_BOUND('',#229,.T.);
#143=FACE_OUTER_BOUND('',#230,.T.);
#144=FACE_OUTER_BOUND('',#231,.T.);
#145=FACE_OUTER_BOUND('',#232,.T.);
#146=FACE_OUTER_BOUND('',#233,.T.);
#147=FACE_OUTER_BOUND('',#234,.T.);
#148=FACE_OUTER_BOUND('',#235,.T.);
#149=FACE_OUTER_BOUND('',#236,.T.);
#150=FACE_OUTER_BOUND('',#237,.T.);
#151=FACE_OUTER_BOUND('',#238,.T.);
#152=FACE_OUTER_BOUND('',#239,.T.);
#153=FACE_OUTER_BOUND('',#240,.T.);
#154=FACE_OUTER_BOUND('',#241,.T.);
#155=FACE_OUTER_BOUND('',#242,.T.);
#156=FACE_OUTER_BOUND('',#243,.T.);
#157=FACE_OUTER_BOUND('',#244,.T.);
#158=FACE_OUTER_BOUND('',#245,.T.);
#159=FACE_OUTER_BOUND('',#246,.T.);
#160=FACE_OUTER_BOUND('',#247,.T.);
#161=FACE_OUTER_BOUND('',#248,.T.);
#162=FACE_OUTER_BOUND('',#249,.T.);
#163=FACE_OUTER_BOUND('',#250,.T.);
#164=FACE_OUTER_BOUND('',#251,.T.);
#165=FACE_OUTER_BOUND('',#252,.T.);
#166=FACE_OUTER_BOUND('',#253,.T.);
#167=FACE_OUTER_BOUND('',#254,.T.);
#168=FACE_OUTER_BOUND('',#255,.T.);
#169=FACE_OUTER_BOUND('',#256,.T.);
#170=FACE_OUTER_BOUND('',#258,.T.);
#171=FACE_OUTER_BOUND('',#259,.T.);
#172=FACE_OUTER_BOUND('',#261,.T.);
#173=FACE_OUTER_BOUND('',#262,.T.);
#174=FACE_OUTER_BOUND('',#264,.T.);
#175=FACE_OUTER_BOUND('',#265,.T.);
#176=FACE_OUTER_BOUND('',#267,.T.);
#177=FACE_OUTER_BOUND('',#268,.T.);
#178=FACE_OUTER_BOUND('',#269,.T.);
#179=FACE_OUTER_BOUND('',#270,.T.);
#180=FACE_OUTER_BOUND('',#271,.T.);
#181=FACE_OUTER_BOUND('',#272,.T.);
#182=FACE_OUTER_BOUND('',#288,.T.);
#183=FACE_OUTER_BOUND('',#289,.T.);
#184=FACE_OUTER_BOUND('',#290,.T.);
#185=FACE_OUTER_BOUND('',#291,.T.);
#186=FACE_OUTER_BOUND('',#292,.T.);
#187=FACE_OUTER_BOUND('',#293,.T.);
#188=FACE_OUTER_BOUND('',#294,.T.);
#189=FACE_OUTER_BOUND('',#295,.T.);
#190=FACE_OUTER_BOUND('',#296,.T.);
#191=FACE_OUTER_BOUND('',#297,.T.);
#192=FACE_OUTER_BOUND('',#298,.T.);
#193=FACE_OUTER_BOUND('',#299,.T.);
#194=FACE_OUTER_BOUND('',#300,.T.);
#195=FACE_OUTER_BOUND('',#301,.T.);
#196=FACE_OUTER_BOUND('',#302,.T.);
#197=FACE_OUTER_BOUND('',#303,.T.);
#198=FACE_OUTER_BOUND('',#304,.T.);
#199=FACE_OUTER_BOUND('',#305,.T.);
#200=FACE_OUTER_BOUND('',#306,.T.);
#201=FACE_OUTER_BOUND('',#307,.T.);
#202=FACE_OUTER_BOUND('',#308,.T.);
#203=FACE_OUTER_BOUND('',#309,.T.);
#204=FACE_OUTER_BOUND('',#310,.T.);
#205=FACE_OUTER_BOUND('',#311,.T.);
#206=FACE_OUTER_BOUND('',#312,.T.);
#207=FACE_OUTER_BOUND('',#313,.T.);
#208=FACE_OUTER_BOUND('',#314,.T.);
#209=EDGE_LOOP('',(#853,#854,#855,#856));
#210=EDGE_LOOP('',(#857,#858,#859,#860,#861,#862,#863,#864));
#211=EDGE_LOOP('',(#865));
#212=EDGE_LOOP('',(#866));
#213=EDGE_LOOP('',(#867));
#214=EDGE_LOOP('',(#868));
#215=EDGE_LOOP('',(#869));
#216=EDGE_LOOP('',(#870));
#217=EDGE_LOOP('',(#871));
#218=EDGE_LOOP('',(#872));
#219=EDGE_LOOP('',(#873));
#220=EDGE_LOOP('',(#874));
#221=EDGE_LOOP('',(#875,#876,#877,#878,#879,#880,#881,#882,#883,#884));
#222=EDGE_LOOP('',(#885,#886,#887,#888));
#223=EDGE_LOOP('',(#889,#890,#891,#892));
#224=EDGE_LOOP('',(#893,#894,#895,#896));
#225=EDGE_LOOP('',(#897,#898,#899,#900));
#226=EDGE_LOOP('',(#901,#902,#903,#904));
#227=EDGE_LOOP('',(#905,#906,#907,#908));
#228=EDGE_LOOP('',(#909,#910,#911,#912));
#229=EDGE_LOOP('',(#913,#914,#915,#916));
#230=EDGE_LOOP('',(#917,#918,#919,#920));
#231=EDGE_LOOP('',(#921,#922,#923,#924));
#232=EDGE_LOOP('',(#925,#926,#927,#928));
#233=EDGE_LOOP('',(#929,#930,#931,#932));
#234=EDGE_LOOP('',(#933,#934,#935,#936));
#235=EDGE_LOOP('',(#937,#938,#939,#940));
#236=EDGE_LOOP('',(#941,#942,#943,#944));
#237=EDGE_LOOP('',(#945,#946,#947,#948));
#238=EDGE_LOOP('',(#949,#950,#951,#952));
#239=EDGE_LOOP('',(#953,#954,#955,#956));
#240=EDGE_LOOP('',(#957,#958,#959,#960));
#241=EDGE_LOOP('',(#961,#962,#963,#964));
#242=EDGE_LOOP('',(#965,#966,#967,#968,#969,#970,#971,#972));
#243=EDGE_LOOP('',(#973,#974,#975,#976,#977,#978));
#244=EDGE_LOOP('',(#979,#980,#981,#982));
#245=EDGE_LOOP('',(#983,#984,#985,#986));
#246=EDGE_LOOP('',(#987,#988,#989,#990));
#247=EDGE_LOOP('',(#991,#992,#993,#994));
#248=EDGE_LOOP('',(#995,#996,#997,#998));
#249=EDGE_LOOP('',(#999,#1000,#1001,#1002,#1003,#1004));
#250=EDGE_LOOP('',(#1005,#1006,#1007,#1008));
#251=EDGE_LOOP('',(#1009,#1010,#1011,#1012));
#252=EDGE_LOOP('',(#1013,#1014,#1015,#1016,#1017,#1018));
#253=EDGE_LOOP('',(#1019,#1020,#1021,#1022,#1023,#1024));
#254=EDGE_LOOP('',(#1025,#1026,#1027,#1028));
#255=EDGE_LOOP('',(#1029,#1030,#1031,#1032));
#256=EDGE_LOOP('',(#1033));
#257=EDGE_LOOP('',(#1034));
#258=EDGE_LOOP('',(#1035,#1036,#1037,#1038));
#259=EDGE_LOOP('',(#1039));
#260=EDGE_LOOP('',(#1040));
#261=EDGE_LOOP('',(#1041,#1042,#1043,#1044));
#262=EDGE_LOOP('',(#1045));
#263=EDGE_LOOP('',(#1046));
#264=EDGE_LOOP('',(#1047,#1048,#1049,#1050));
#265=EDGE_LOOP('',(#1051));
#266=EDGE_LOOP('',(#1052));
#267=EDGE_LOOP('',(#1053,#1054,#1055,#1056));
#268=EDGE_LOOP('',(#1057,#1058,#1059,#1060));
#269=EDGE_LOOP('',(#1061,#1062,#1063,#1064));
#270=EDGE_LOOP('',(#1065,#1066,#1067,#1068));
#271=EDGE_LOOP('',(#1069,#1070,#1071,#1072));
#272=EDGE_LOOP('',(#1073,#1074,#1075,#1076,#1077,#1078,#1079,#1080));
#273=EDGE_LOOP('',(#1081,#1082,#1083,#1084,#1085,#1086));
#274=EDGE_LOOP('',(#1087,#1088,#1089,#1090));
#275=EDGE_LOOP('',(#1091,#1092,#1093,#1094));
#276=EDGE_LOOP('',(#1095));
#277=EDGE_LOOP('',(#1096));
#278=EDGE_LOOP('',(#1097));
#279=EDGE_LOOP('',(#1098));
#280=EDGE_LOOP('',(#1099));
#281=EDGE_LOOP('',(#1100));
#282=EDGE_LOOP('',(#1101));
#283=EDGE_LOOP('',(#1102));
#284=EDGE_LOOP('',(#1103));
#285=EDGE_LOOP('',(#1104));
#286=EDGE_LOOP('',(#1105,#1106,#1107,#1108));
#287=EDGE_LOOP('',(#1109,#1110,#1111,#1112));
#288=EDGE_LOOP('',(#1113,#1114,#1115,#1116));
#289=EDGE_LOOP('',(#1117,#1118,#1119,#1120));
#290=EDGE_LOOP('',(#1121,#1122,#1123,#1124));
#291=EDGE_LOOP('',(#1125,#1126,#1127,#1128));
#292=EDGE_LOOP('',(#1129,#1130,#1131,#1132));
#293=EDGE_LOOP('',(#1133,#1134,#1135,#1136));
#294=EDGE_LOOP('',(#1137,#1138,#1139,#1140));
#295=EDGE_LOOP('',(#1141,#1142,#1143,#1144));
#296=EDGE_LOOP('',(#1145,#1146,#1147,#1148));
#297=EDGE_LOOP('',(#1149,#1150,#1151,#1152));
#298=EDGE_LOOP('',(#1153,#1154,#1155,#1156));
#299=EDGE_LOOP('',(#1157));
#300=EDGE_LOOP('',(#1158));
#301=EDGE_LOOP('',(#1159,#1160,#1161,#1162));
#302=EDGE_LOOP('',(#1163,#1164,#1165,#1166));
#303=EDGE_LOOP('',(#1167));
#304=EDGE_LOOP('',(#1168,#1169,#1170,#1171));
#305=EDGE_LOOP('',(#1172,#1173,#1174,#1175));
#306=EDGE_LOOP('',(#1176));
#307=EDGE_LOOP('',(#1177,#1178,#1179,#1180));
#308=EDGE_LOOP('',(#1181,#1182,#1183,#1184));
#309=EDGE_LOOP('',(#1185,#1186,#1187,#1188));
#310=EDGE_LOOP('',(#1189,#1190,#1191,#1192));
#311=EDGE_LOOP('',(#1193,#1194,#1195,#1196));
#312=EDGE_LOOP('',(#1197,#1198,#1199,#1200));
#313=EDGE_LOOP('',(#1201,#1202,#1203,#1204));
#314=EDGE_LOOP('',(#1205,#1206,#1207,#1208));
#315=LINE('',#1867,#437);
#316=LINE('',#1869,#438);
#317=LINE('',#1871,#439);
#318=LINE('',#1872,#440);
#319=LINE('',#1876,#441);
#320=LINE('',#1880,#442);
#321=LINE('',#1884,#443);
#322=LINE('',#1888,#444);
#323=LINE('',#1911,#445);
#324=LINE('',#1913,#446);
#325=LINE('',#1915,#447);
#326=LINE('',#1919,#448);
#327=LINE('',#1923,#449);
#328=LINE('',#1925,#450);
#329=LINE('',#1926,#451);
#330=LINE('',#1930,#452);
#331=LINE('',#1932,#453);
#332=LINE('',#1934,#454);
#333=LINE('',#1935,#455);
#334=LINE('',#1938,#456);
#335=LINE('',#1940,#457);
#336=LINE('',#1941,#458);
#337=LINE('',#1944,#459);
#338=LINE('',#1946,#460);
#339=LINE('',#1947,#461);
#340=LINE('',#1949,#462);
#341=LINE('',#1951,#463);
#342=LINE('',#1955,#464);
#343=LINE('',#1957,#465);
#344=LINE('',#1959,#466);
#345=LINE('',#1960,#467);
#346=LINE('',#1963,#468);
#347=LINE('',#1965,#469);
#348=LINE('',#1966,#470);
#349=LINE('',#1969,#471);
#350=LINE('',#1971,#472);
#351=LINE('',#1972,#473);
#352=LINE('',#1974,#474);
#353=LINE('',#1976,#475);
#354=LINE('',#1980,#476);
#355=LINE('',#1982,#477);
#356=LINE('',#1984,#478);
#357=LINE('',#1985,#479);
#358=LINE('',#1988,#480);
#359=LINE('',#1990,#481);
#360=LINE('',#1991,#482);
#361=LINE('',#1994,#483);
#362=LINE('',#1996,#484);
#363=LINE('',#1997,#485);
#364=LINE('',#1999,#486);
#365=LINE('',#2001,#487);
#366=LINE('',#2005,#488);
#367=LINE('',#2007,#489);
#368=LINE('',#2009,#490);
#369=LINE('',#2010,#491);
#370=LINE('',#2013,#492);
#371=LINE('',#2015,#493);
#372=LINE('',#2016,#494);
#373=LINE('',#2019,#495);
#374=LINE('',#2021,#496);
#375=LINE('',#2022,#497);
#376=LINE('',#2024,#498);
#377=LINE('',#2026,#499);
#378=LINE('',#2029,#500);
#379=LINE('',#2031,#501);
#380=LINE('',#2032,#502);
#381=LINE('',#2034,#503);
#382=LINE('',#2036,#504);
#383=LINE('',#2037,#505);
#384=LINE('',#2040,#506);
#385=LINE('',#2042,#507);
#386=LINE('',#2046,#508);
#387=LINE('',#2050,#509);
#388=LINE('',#2052,#510);
#389=LINE('',#2053,#511);
#390=LINE('',#2057,#512);
#391=LINE('',#2059,#513);
#392=LINE('',#2062,#514);
#393=LINE('',#2063,#515);
#394=LINE('',#2069,#516);
#395=LINE('',#2071,#517);
#396=LINE('',#2072,#518);
#397=LINE('',#2075,#519);
#398=LINE('',#2078,#520);
#399=LINE('',#2081,#521);
#400=LINE('',#2082,#522);
#401=LINE('',#2087,#523);
#402=LINE('',#2094,#524);
#403=LINE('',#2101,#525);
#404=LINE('',#2108,#526);
#405=LINE('',#2115,#527);
#406=LINE('',#2119,#528);
#407=LINE('',#2123,#529);
#408=LINE('',#2127,#530);
#409=LINE('',#2133,#531);
#410=LINE('',#2138,#532);
#411=LINE('',#2142,#533);
#412=LINE('',#2146,#534);
#413=LINE('',#2150,#535);
#414=LINE('',#2163,#536);
#415=LINE('',#2166,#537);
#416=LINE('',#2169,#538);
#417=LINE('',#2172,#539);
#418=LINE('',#2175,#540);
#419=LINE('',#2178,#541);
#420=LINE('',#2181,#542);
#421=LINE('',#2184,#543);
#422=LINE('',#2188,#544);
#423=LINE('',#2192,#545);
#424=LINE('',#2196,#546);
#425=LINE('',#2204,#547);
#426=LINE('',#2207,#548);
#427=LINE('',#2213,#549);
#428=LINE('',#2216,#550);
#429=LINE('',#2219,#551);
#430=LINE('',#2220,#552);
#431=LINE('',#2222,#553);
#432=LINE('',#2224,#554);
#433=LINE('',#2226,#555);
#434=LINE('',#2228,#556);
#435=LINE('',#2230,#557);
#436=LINE('',#2232,#558);
#437=VECTOR('',#1479,10.);
#438=VECTOR('',#1480,10.);
#439=VECTOR('',#1481,10.);
#440=VECTOR('',#1482,10.);
#441=VECTOR('',#1485,10.);
#442=VECTOR('',#1488,10.);
#443=VECTOR('',#1491,10.);
#444=VECTOR('',#1494,10.);
#445=VECTOR('',#1517,10.);
#446=VECTOR('',#1518,10.);
#447=VECTOR('',#1519,10.);
#448=VECTOR('',#1522,10.);
#449=VECTOR('',#1525,10.);
#450=VECTOR('',#1526,10.);
#451=VECTOR('',#1527,10.);
#452=VECTOR('',#1530,10.);
#453=VECTOR('',#1531,10.);
#454=VECTOR('',#1532,10.);
#455=VECTOR('',#1533,10.);
#456=VECTOR('',#1536,10.);
#457=VECTOR('',#1537,10.);
#458=VECTOR('',#1538,10.);
#459=VECTOR('',#1541,10.);
#460=VECTOR('',#1542,10.);
#461=VECTOR('',#1543,10.);
#462=VECTOR('',#1546,10.);
#463=VECTOR('',#1549,10.);
#464=VECTOR('',#1552,10.);
#465=VECTOR('',#1553,10.);
#466=VECTOR('',#1554,10.);
#467=VECTOR('',#1555,10.);
#468=VECTOR('',#1558,10.);
#469=VECTOR('',#1559,10.);
#470=VECTOR('',#1560,10.);
#471=VECTOR('',#1563,10.);
#472=VECTOR('',#1564,10.);
#473=VECTOR('',#1565,10.);
#474=VECTOR('',#1568,10.);
#475=VECTOR('',#1571,10.);
#476=VECTOR('',#1574,10.);
#477=VECTOR('',#1575,10.);
#478=VECTOR('',#1576,10.);
#479=VECTOR('',#1577,10.);
#480=VECTOR('',#1580,10.);
#481=VECTOR('',#1581,10.);
#482=VECTOR('',#1582,10.);
#483=VECTOR('',#1585,10.);
#484=VECTOR('',#1586,10.);
#485=VECTOR('',#1587,10.);
#486=VECTOR('',#1590,10.);
#487=VECTOR('',#1593,10.);
#488=VECTOR('',#1596,10.);
#489=VECTOR('',#1597,10.);
#490=VECTOR('',#1598,10.);
#491=VECTOR('',#1599,10.);
#492=VECTOR('',#1602,10.);
#493=VECTOR('',#1603,10.);
#494=VECTOR('',#1604,10.);
#495=VECTOR('',#1607,10.);
#496=VECTOR('',#1608,10.);
#497=VECTOR('',#1609,10.);
#498=VECTOR('',#1612,10.);
#499=VECTOR('',#1615,10.);
#500=VECTOR('',#1618,10.);
#501=VECTOR('',#1619,10.);
#502=VECTOR('',#1620,10.);
#503=VECTOR('',#1621,10.);
#504=VECTOR('',#1622,10.);
#505=VECTOR('',#1623,10.);
#506=VECTOR('',#1626,10.);
#507=VECTOR('',#1627,10.);
#508=VECTOR('',#1630,10.);
#509=VECTOR('',#1635,10.);
#510=VECTOR('',#1636,10.);
#511=VECTOR('',#1637,10.);
#512=VECTOR('',#1642,10.);
#513=VECTOR('',#1645,10.);
#514=VECTOR('',#1648,10.);
#515=VECTOR('',#1649,10.);
#516=VECTOR('',#1658,10.);
#517=VECTOR('',#1659,10.);
#518=VECTOR('',#1660,10.);
#519=VECTOR('',#1663,10.);
#520=VECTOR('',#1668,10.);
#521=VECTOR('',#1671,10.);
#522=VECTOR('',#1672,10.);
#523=VECTOR('',#1679,3.24999999999999);
#524=VECTOR('',#1688,3.25);
#525=VECTOR('',#1697,3.24999999999999);
#526=VECTOR('',#1706,3.25);
#527=VECTOR('',#1715,1.8);
#528=VECTOR('',#1720,1.80000000000001);
#529=VECTOR('',#1725,1.80000000000001);
#530=VECTOR('',#1730,1.8);
#531=VECTOR('',#1737,2.45);
#532=VECTOR('',#1742,10.);
#533=VECTOR('',#1745,10.);
#534=VECTOR('',#1748,10.);
#535=VECTOR('',#1751,10.);
#536=VECTOR('',#1766,2.35);
#537=VECTOR('',#1769,2.45);
#538=VECTOR('',#1774,2.35);
#539=VECTOR('',#1777,2.45);
#540=VECTOR('',#1782,2.35);
#541=VECTOR('',#1785,2.45);
#542=VECTOR('',#1790,2.35);
#543=VECTOR('',#1793,1.);
#544=VECTOR('',#1798,0.900000000000001);
#545=VECTOR('',#1803,1.);
#546=VECTOR('',#1808,0.900000000000001);
#547=VECTOR('',#1819,1.3);
#548=VECTOR('',#1824,1.5);
#549=VECTOR('',#1831,1.3);
#550=VECTOR('',#1836,1.5);
#551=VECTOR('',#1841,10.);
#552=VECTOR('',#1842,10.);
#553=VECTOR('',#1845,10.);
#554=VECTOR('',#1848,10.);
#555=VECTOR('',#1851,10.);
#556=VECTOR('',#1854,10.);
#557=VECTOR('',#1857,10.);
#558=VECTOR('',#1860,10.);
#559=VERTEX_POINT('',#1865);
#560=VERTEX_POINT('',#1866);
#561=VERTEX_POINT('',#1868);
#562=VERTEX_POINT('',#1870);
#563=VERTEX_POINT('',#1874);
#564=VERTEX_POINT('',#1875);
#565=VERTEX_POINT('',#1877);
#566=VERTEX_POINT('',#1879);
#567=VERTEX_POINT('',#1881);
#568=VERTEX_POINT('',#1883);
#569=VERTEX_POINT('',#1885);
#570=VERTEX_POINT('',#1887);
#571=VERTEX_POINT('',#1890);
#572=VERTEX_POINT('',#1892);
#573=VERTEX_POINT('',#1894);
#574=VERTEX_POINT('',#1896);
#575=VERTEX_POINT('',#1898);
#576=VERTEX_POINT('',#1900);
#577=VERTEX_POINT('',#1902);
#578=VERTEX_POINT('',#1904);
#579=VERTEX_POINT('',#1906);
#580=VERTEX_POINT('',#1908);
#581=VERTEX_POINT('',#1910);
#582=VERTEX_POINT('',#1912);
#583=VERTEX_POINT('',#1914);
#584=VERTEX_POINT('',#1916);
#585=VERTEX_POINT('',#1918);
#586=VERTEX_POINT('',#1920);
#587=VERTEX_POINT('',#1922);
#588=VERTEX_POINT('',#1924);
#589=VERTEX_POINT('',#1928);
#590=VERTEX_POINT('',#1929);
#591=VERTEX_POINT('',#1931);
#592=VERTEX_POINT('',#1933);
#593=VERTEX_POINT('',#1937);
#594=VERTEX_POINT('',#1939);
#595=VERTEX_POINT('',#1943);
#596=VERTEX_POINT('',#1945);
#597=VERTEX_POINT('',#1953);
#598=VERTEX_POINT('',#1954);
#599=VERTEX_POINT('',#1956);
#600=VERTEX_POINT('',#1958);
#601=VERTEX_POINT('',#1962);
#602=VERTEX_POINT('',#1964);
#603=VERTEX_POINT('',#1968);
#604=VERTEX_POINT('',#1970);
#605=VERTEX_POINT('',#1978);
#606=VERTEX_POINT('',#1979);
#607=VERTEX_POINT('',#1981);
#608=VERTEX_POINT('',#1983);
#609=VERTEX_POINT('',#1987);
#610=VERTEX_POINT('',#1989);
#611=VERTEX_POINT('',#1993);
#612=VERTEX_POINT('',#1995);
#613=VERTEX_POINT('',#2003);
#614=VERTEX_POINT('',#2004);
#615=VERTEX_POINT('',#2006);
#616=VERTEX_POINT('',#2008);
#617=VERTEX_POINT('',#2012);
#618=VERTEX_POINT('',#2014);
#619=VERTEX_POINT('',#2018);
#620=VERTEX_POINT('',#2020);
#621=VERTEX_POINT('',#2028);
#622=VERTEX_POINT('',#2030);
#623=VERTEX_POINT('',#2033);
#624=VERTEX_POINT('',#2035);
#625=VERTEX_POINT('',#2039);
#626=VERTEX_POINT('',#2041);
#627=VERTEX_POINT('',#2043);
#628=VERTEX_POINT('',#2045);
#629=VERTEX_POINT('',#2049);
#630=VERTEX_POINT('',#2051);
#631=VERTEX_POINT('',#2055);
#632=VERTEX_POINT('',#2061);
#633=VERTEX_POINT('',#2068);
#634=VERTEX_POINT('',#2070);
#635=VERTEX_POINT('',#2074);
#636=VERTEX_POINT('',#2080);
#637=VERTEX_POINT('',#2086);
#638=VERTEX_POINT('',#2090);
#639=VERTEX_POINT('',#2093);
#640=VERTEX_POINT('',#2097);
#641=VERTEX_POINT('',#2100);
#642=VERTEX_POINT('',#2104);
#643=VERTEX_POINT('',#2107);
#644=VERTEX_POINT('',#2111);
#645=VERTEX_POINT('',#2114);
#646=VERTEX_POINT('',#2118);
#647=VERTEX_POINT('',#2122);
#648=VERTEX_POINT('',#2126);
#649=VERTEX_POINT('',#2130);
#650=VERTEX_POINT('',#2132);
#651=VERTEX_POINT('',#2136);
#652=VERTEX_POINT('',#2137);
#653=VERTEX_POINT('',#2139);
#654=VERTEX_POINT('',#2141);
#655=VERTEX_POINT('',#2143);
#656=VERTEX_POINT('',#2145);
#657=VERTEX_POINT('',#2147);
#658=VERTEX_POINT('',#2149);
#659=VERTEX_POINT('',#2152);
#660=VERTEX_POINT('',#2154);
#661=VERTEX_POINT('',#2156);
#662=VERTEX_POINT('',#2158);
#663=VERTEX_POINT('',#2160);
#664=VERTEX_POINT('',#2165);
#665=VERTEX_POINT('',#2171);
#666=VERTEX_POINT('',#2177);
#667=VERTEX_POINT('',#2183);
#668=VERTEX_POINT('',#2187);
#669=VERTEX_POINT('',#2191);
#670=VERTEX_POINT('',#2195);
#671=VERTEX_POINT('',#2201);
#672=VERTEX_POINT('',#2203);
#673=VERTEX_POINT('',#2210);
#674=VERTEX_POINT('',#2212);
#675=EDGE_CURVE('',#559,#560,#315,.T.);
#676=EDGE_CURVE('',#559,#561,#316,.T.);
#677=EDGE_CURVE('',#562,#561,#317,.T.);
#678=EDGE_CURVE('',#560,#562,#318,.T.);
#679=EDGE_CURVE('',#563,#564,#319,.T.);
#680=EDGE_CURVE('',#565,#564,#77,.T.);
#681=EDGE_CURVE('',#565,#566,#320,.T.);
#682=EDGE_CURVE('',#567,#566,#78,.T.);
#683=EDGE_CURVE('',#567,#568,#321,.T.);
#684=EDGE_CURVE('',#569,#568,#79,.T.);
#685=EDGE_CURVE('',#569,#570,#322,.T.);
#686=EDGE_CURVE('',#563,#570,#80,.T.);
#687=EDGE_CURVE('',#571,#571,#81,.T.);
#688=EDGE_CURVE('',#572,#572,#82,.T.);
#689=EDGE_CURVE('',#573,#573,#83,.T.);
#690=EDGE_CURVE('',#574,#574,#84,.T.);
#691=EDGE_CURVE('',#575,#575,#85,.T.);
#692=EDGE_CURVE('',#576,#576,#86,.T.);
#693=EDGE_CURVE('',#577,#577,#87,.T.);
#694=EDGE_CURVE('',#578,#578,#88,.T.);
#695=EDGE_CURVE('',#579,#579,#89,.T.);
#696=EDGE_CURVE('',#580,#580,#90,.T.);
#697=EDGE_CURVE('',#561,#581,#323,.T.);
#698=EDGE_CURVE('',#581,#582,#324,.T.);
#699=EDGE_CURVE('',#582,#583,#325,.T.);
#700=EDGE_CURVE('',#583,#584,#91,.T.);
#701=EDGE_CURVE('',#584,#585,#326,.T.);
#702=EDGE_CURVE('',#585,#586,#92,.T.);
#703=EDGE_CURVE('',#586,#587,#327,.T.);
#704=EDGE_CURVE('',#587,#588,#328,.T.);
#705=EDGE_CURVE('',#588,#562,#329,.T.);
#706=EDGE_CURVE('',#589,#590,#330,.T.);
#707=EDGE_CURVE('',#590,#591,#331,.T.);
#708=EDGE_CURVE('',#591,#592,#332,.T.);
#709=EDGE_CURVE('',#589,#592,#333,.T.);
#710=EDGE_CURVE('',#590,#593,#334,.T.);
#711=EDGE_CURVE('',#594,#593,#335,.T.);
#712=EDGE_CURVE('',#594,#591,#336,.T.);
#713=EDGE_CURVE('',#595,#589,#337,.T.);
#714=EDGE_CURVE('',#592,#596,#338,.T.);
#715=EDGE_CURVE('',#595,#596,#339,.T.);
#716=EDGE_CURVE('',#593,#595,#340,.T.);
#717=EDGE_CURVE('',#596,#594,#341,.T.);
#718=EDGE_CURVE('',#597,#598,#342,.T.);
#719=EDGE_CURVE('',#597,#599,#343,.T.);
#720=EDGE_CURVE('',#599,#600,#344,.T.);
#721=EDGE_CURVE('',#598,#600,#345,.T.);
#722=EDGE_CURVE('',#601,#597,#346,.T.);
#723=EDGE_CURVE('',#601,#602,#347,.T.);
#724=EDGE_CURVE('',#602,#599,#348,.T.);
#725=EDGE_CURVE('',#603,#601,#349,.T.);
#726=EDGE_CURVE('',#604,#603,#350,.T.);
#727=EDGE_CURVE('',#604,#602,#351,.T.);
#728=EDGE_CURVE('',#603,#598,#352,.T.);
#729=EDGE_CURVE('',#600,#604,#353,.T.);
#730=EDGE_CURVE('',#605,#606,#354,.T.);
#731=EDGE_CURVE('',#605,#607,#355,.T.);
#732=EDGE_CURVE('',#607,#608,#356,.T.);
#733=EDGE_CURVE('',#606,#608,#357,.T.);
#734=EDGE_CURVE('',#609,#605,#358,.T.);
#735=EDGE_CURVE('',#610,#609,#359,.T.);
#736=EDGE_CURVE('',#610,#607,#360,.T.);
#737=EDGE_CURVE('',#611,#606,#361,.T.);
#738=EDGE_CURVE('',#608,#612,#362,.T.);
#739=EDGE_CURVE('',#611,#612,#363,.T.);
#740=EDGE_CURVE('',#609,#611,#364,.T.);
#741=EDGE_CURVE('',#612,#610,#365,.T.);
#742=EDGE_CURVE('',#613,#614,#366,.T.);
#743=EDGE_CURVE('',#614,#615,#367,.T.);
#744=EDGE_CURVE('',#615,#616,#368,.T.);
#745=EDGE_CURVE('',#613,#616,#369,.T.);
#746=EDGE_CURVE('',#617,#614,#370,.T.);
#747=EDGE_CURVE('',#617,#618,#371,.T.);
#748=EDGE_CURVE('',#618,#615,#372,.T.);
#749=EDGE_CURVE('',#619,#617,#373,.T.);
#750=EDGE_CURVE('',#620,#619,#374,.T.);
#751=EDGE_CURVE('',#620,#618,#375,.T.);
#752=EDGE_CURVE('',#619,#613,#376,.T.);
#753=EDGE_CURVE('',#616,#620,#377,.T.);
#754=EDGE_CURVE('',#581,#621,#378,.T.);
#755=EDGE_CURVE('',#621,#622,#379,.T.);
#756=EDGE_CURVE('',#622,#588,#380,.T.);
#757=EDGE_CURVE('',#587,#623,#381,.T.);
#758=EDGE_CURVE('',#623,#624,#382,.T.);
#759=EDGE_CURVE('',#624,#582,#383,.T.);
#760=EDGE_CURVE('',#622,#625,#384,.T.);
#761=EDGE_CURVE('',#626,#621,#385,.T.);
#762=EDGE_CURVE('',#627,#626,#93,.T.);
#763=EDGE_CURVE('',#628,#627,#386,.T.);
#764=EDGE_CURVE('',#625,#628,#94,.T.);
#765=EDGE_CURVE('',#584,#629,#387,.T.);
#766=EDGE_CURVE('',#630,#629,#388,.T.);
#767=EDGE_CURVE('',#585,#630,#389,.T.);
#768=EDGE_CURVE('',#631,#630,#95,.T.);
#769=EDGE_CURVE('',#586,#631,#390,.T.);
#770=EDGE_CURVE('',#631,#623,#391,.T.);
#771=EDGE_CURVE('',#632,#624,#392,.T.);
#772=EDGE_CURVE('',#583,#632,#393,.T.);
#773=EDGE_CURVE('',#629,#632,#96,.T.);
#774=EDGE_CURVE('',#627,#633,#394,.T.);
#775=EDGE_CURVE('',#634,#633,#395,.T.);
#776=EDGE_CURVE('',#634,#628,#396,.T.);
#777=EDGE_CURVE('',#626,#635,#397,.T.);
#778=EDGE_CURVE('',#633,#635,#97,.T.);
#779=EDGE_CURVE('',#635,#559,#398,.T.);
#780=EDGE_CURVE('',#625,#636,#399,.T.);
#781=EDGE_CURVE('',#560,#636,#400,.T.);
#782=EDGE_CURVE('',#636,#634,#98,.T.);
#783=EDGE_CURVE('',#571,#637,#401,.T.);
#784=EDGE_CURVE('',#637,#637,#99,.T.);
#785=EDGE_CURVE('',#638,#638,#100,.T.);
#786=EDGE_CURVE('',#572,#639,#402,.T.);
#787=EDGE_CURVE('',#639,#639,#101,.T.);
#788=EDGE_CURVE('',#640,#640,#102,.T.);
#789=EDGE_CURVE('',#573,#641,#403,.T.);
#790=EDGE_CURVE('',#641,#641,#103,.T.);
#791=EDGE_CURVE('',#642,#642,#104,.T.);
#792=EDGE_CURVE('',#574,#643,#404,.T.);
#793=EDGE_CURVE('',#643,#643,#105,.T.);
#794=EDGE_CURVE('',#644,#644,#106,.T.);
#795=EDGE_CURVE('',#644,#645,#405,.T.);
#796=EDGE_CURVE('',#645,#645,#107,.T.);
#797=EDGE_CURVE('',#638,#646,#406,.T.);
#798=EDGE_CURVE('',#646,#646,#108,.T.);
#799=EDGE_CURVE('',#640,#647,#407,.T.);
#800=EDGE_CURVE('',#647,#647,#109,.T.);
#801=EDGE_CURVE('',#642,#648,#408,.T.);
#802=EDGE_CURVE('',#648,#648,#110,.T.);
#803=EDGE_CURVE('',#649,#649,#111,.T.);
#804=EDGE_CURVE('',#649,#650,#409,.T.);
#805=EDGE_CURVE('',#650,#650,#112,.T.);
#806=EDGE_CURVE('',#651,#652,#410,.T.);
#807=EDGE_CURVE('',#652,#653,#113,.T.);
#808=EDGE_CURVE('',#653,#654,#411,.T.);
#809=EDGE_CURVE('',#654,#655,#114,.T.);
#810=EDGE_CURVE('',#655,#656,#412,.T.);
#811=EDGE_CURVE('',#656,#657,#115,.T.);
#812=EDGE_CURVE('',#657,#658,#413,.T.);
#813=EDGE_CURVE('',#658,#651,#116,.T.);
#814=EDGE_CURVE('',#659,#659,#117,.T.);
#815=EDGE_CURVE('',#660,#660,#118,.T.);
#816=EDGE_CURVE('',#661,#661,#119,.T.);
#817=EDGE_CURVE('',#662,#662,#120,.T.);
#818=EDGE_CURVE('',#663,#663,#121,.T.);
#819=EDGE_CURVE('',#650,#577,#414,.T.);
#820=EDGE_CURVE('',#663,#664,#415,.T.);
#821=EDGE_CURVE('',#664,#664,#122,.T.);
#822=EDGE_CURVE('',#664,#578,#416,.T.);
#823=EDGE_CURVE('',#659,#665,#417,.T.);
#824=EDGE_CURVE('',#665,#665,#123,.T.);
#825=EDGE_CURVE('',#665,#579,#418,.T.);
#826=EDGE_CURVE('',#662,#666,#419,.T.);
#827=EDGE_CURVE('',#666,#666,#124,.T.);
#828=EDGE_CURVE('',#666,#580,#420,.T.);
#829=EDGE_CURVE('',#660,#667,#421,.T.);
#830=EDGE_CURVE('',#667,#667,#125,.T.);
#831=EDGE_CURVE('',#667,#668,#422,.T.);
#832=EDGE_CURVE('',#668,#668,#126,.T.);
#833=EDGE_CURVE('',#661,#669,#423,.T.);
#834=EDGE_CURVE('',#669,#669,#127,.T.);
#835=EDGE_CURVE('',#669,#670,#424,.T.);
#836=EDGE_CURVE('',#670,#670,#128,.T.);
#837=EDGE_CURVE('',#671,#671,#129,.T.);
#838=EDGE_CURVE('',#671,#672,#425,.T.);
#839=EDGE_CURVE('',#672,#672,#130,.T.);
#840=EDGE_CURVE('',#672,#575,#426,.T.);
#841=EDGE_CURVE('',#673,#673,#131,.T.);
#842=EDGE_CURVE('',#673,#674,#427,.T.);
#843=EDGE_CURVE('',#674,#674,#132,.T.);
#844=EDGE_CURVE('',#674,#576,#428,.T.);
#845=EDGE_CURVE('',#564,#651,#429,.T.);
#846=EDGE_CURVE('',#565,#658,#430,.T.);
#847=EDGE_CURVE('',#566,#657,#431,.T.);
#848=EDGE_CURVE('',#567,#656,#432,.T.);
#849=EDGE_CURVE('',#568,#655,#433,.T.);
#850=EDGE_CURVE('',#569,#654,#434,.T.);
#851=EDGE_CURVE('',#570,#653,#435,.T.);
#852=EDGE_CURVE('',#563,#652,#436,.T.);
#853=ORIENTED_EDGE('',*,*,#675,.F.);
#854=ORIENTED_EDGE('',*,*,#676,.T.);
#855=ORIENTED_EDGE('',*,*,#677,.F.);
#856=ORIENTED_EDGE('',*,*,#678,.F.);
#857=ORIENTED_EDGE('',*,*,#679,.T.);
#858=ORIENTED_EDGE('',*,*,#680,.F.);
#859=ORIENTED_EDGE('',*,*,#681,.T.);
#860=ORIENTED_EDGE('',*,*,#682,.F.);
#861=ORIENTED_EDGE('',*,*,#683,.T.);
#862=ORIENTED_EDGE('',*,*,#684,.F.);
#863=ORIENTED_EDGE('',*,*,#685,.T.);
#864=ORIENTED_EDGE('',*,*,#686,.F.);
#865=ORIENTED_EDGE('',*,*,#687,.T.);
#866=ORIENTED_EDGE('',*,*,#688,.T.);
#867=ORIENTED_EDGE('',*,*,#689,.T.);
#868=ORIENTED_EDGE('',*,*,#690,.T.);
#869=ORIENTED_EDGE('',*,*,#691,.T.);
#870=ORIENTED_EDGE('',*,*,#692,.T.);
#871=ORIENTED_EDGE('',*,*,#693,.F.);
#872=ORIENTED_EDGE('',*,*,#694,.F.);
#873=ORIENTED_EDGE('',*,*,#695,.F.);
#874=ORIENTED_EDGE('',*,*,#696,.F.);
#875=ORIENTED_EDGE('',*,*,#677,.T.);
#876=ORIENTED_EDGE('',*,*,#697,.T.);
#877=ORIENTED_EDGE('',*,*,#698,.T.);
#878=ORIENTED_EDGE('',*,*,#699,.T.);
#879=ORIENTED_EDGE('',*,*,#700,.T.);
#880=ORIENTED_EDGE('',*,*,#701,.T.);
#881=ORIENTED_EDGE('',*,*,#702,.T.);
#882=ORIENTED_EDGE('',*,*,#703,.T.);
#883=ORIENTED_EDGE('',*,*,#704,.T.);
#884=ORIENTED_EDGE('',*,*,#705,.T.);
#885=ORIENTED_EDGE('',*,*,#706,.T.);
#886=ORIENTED_EDGE('',*,*,#707,.T.);
#887=ORIENTED_EDGE('',*,*,#708,.T.);
#888=ORIENTED_EDGE('',*,*,#709,.F.);
#889=ORIENTED_EDGE('',*,*,#710,.T.);
#890=ORIENTED_EDGE('',*,*,#711,.F.);
#891=ORIENTED_EDGE('',*,*,#712,.T.);
#892=ORIENTED_EDGE('',*,*,#707,.F.);
#893=ORIENTED_EDGE('',*,*,#713,.T.);
#894=ORIENTED_EDGE('',*,*,#709,.T.);
#895=ORIENTED_EDGE('',*,*,#714,.T.);
#896=ORIENTED_EDGE('',*,*,#715,.F.);
#897=ORIENTED_EDGE('',*,*,#713,.F.);
#898=ORIENTED_EDGE('',*,*,#716,.F.);
#899=ORIENTED_EDGE('',*,*,#710,.F.);
#900=ORIENTED_EDGE('',*,*,#706,.F.);
#901=ORIENTED_EDGE('',*,*,#714,.F.);
#902=ORIENTED_EDGE('',*,*,#708,.F.);
#903=ORIENTED_EDGE('',*,*,#712,.F.);
#904=ORIENTED_EDGE('',*,*,#717,.F.);
#905=ORIENTED_EDGE('',*,*,#718,.F.);
#906=ORIENTED_EDGE('',*,*,#719,.T.);
#907=ORIENTED_EDGE('',*,*,#720,.T.);
#908=ORIENTED_EDGE('',*,*,#721,.F.);
#909=ORIENTED_EDGE('',*,*,#722,.F.);
#910=ORIENTED_EDGE('',*,*,#723,.T.);
#911=ORIENTED_EDGE('',*,*,#724,.T.);
#912=ORIENTED_EDGE('',*,*,#719,.F.);
#913=ORIENTED_EDGE('',*,*,#725,.F.);
#914=ORIENTED_EDGE('',*,*,#726,.F.);
#915=ORIENTED_EDGE('',*,*,#727,.T.);
#916=ORIENTED_EDGE('',*,*,#723,.F.);
#917=ORIENTED_EDGE('',*,*,#728,.F.);
#918=ORIENTED_EDGE('',*,*,#725,.T.);
#919=ORIENTED_EDGE('',*,*,#722,.T.);
#920=ORIENTED_EDGE('',*,*,#718,.T.);
#921=ORIENTED_EDGE('',*,*,#729,.F.);
#922=ORIENTED_EDGE('',*,*,#720,.F.);
#923=ORIENTED_EDGE('',*,*,#724,.F.);
#924=ORIENTED_EDGE('',*,*,#727,.F.);
#925=ORIENTED_EDGE('',*,*,#730,.F.);
#926=ORIENTED_EDGE('',*,*,#731,.T.);
#927=ORIENTED_EDGE('',*,*,#732,.T.);
#928=ORIENTED_EDGE('',*,*,#733,.F.);
#929=ORIENTED_EDGE('',*,*,#734,.F.);
#930=ORIENTED_EDGE('',*,*,#735,.F.);
#931=ORIENTED_EDGE('',*,*,#736,.T.);
#932=ORIENTED_EDGE('',*,*,#731,.F.);
#933=ORIENTED_EDGE('',*,*,#737,.T.);
#934=ORIENTED_EDGE('',*,*,#733,.T.);
#935=ORIENTED_EDGE('',*,*,#738,.T.);
#936=ORIENTED_EDGE('',*,*,#739,.F.);
#937=ORIENTED_EDGE('',*,*,#737,.F.);
#938=ORIENTED_EDGE('',*,*,#740,.F.);
#939=ORIENTED_EDGE('',*,*,#734,.T.);
#940=ORIENTED_EDGE('',*,*,#730,.T.);
#941=ORIENTED_EDGE('',*,*,#738,.F.);
#942=ORIENTED_EDGE('',*,*,#732,.F.);
#943=ORIENTED_EDGE('',*,*,#736,.F.);
#944=ORIENTED_EDGE('',*,*,#741,.F.);
#945=ORIENTED_EDGE('',*,*,#742,.T.);
#946=ORIENTED_EDGE('',*,*,#743,.T.);
#947=ORIENTED_EDGE('',*,*,#744,.T.);
#948=ORIENTED_EDGE('',*,*,#745,.F.);
#949=ORIENTED_EDGE('',*,*,#746,.F.);
#950=ORIENTED_EDGE('',*,*,#747,.T.);
#951=ORIENTED_EDGE('',*,*,#748,.T.);
#952=ORIENTED_EDGE('',*,*,#743,.F.);
#953=ORIENTED_EDGE('',*,*,#749,.F.);
#954=ORIENTED_EDGE('',*,*,#750,.F.);
#955=ORIENTED_EDGE('',*,*,#751,.T.);
#956=ORIENTED_EDGE('',*,*,#747,.F.);
#957=ORIENTED_EDGE('',*,*,#752,.F.);
#958=ORIENTED_EDGE('',*,*,#749,.T.);
#959=ORIENTED_EDGE('',*,*,#746,.T.);
#960=ORIENTED_EDGE('',*,*,#742,.F.);
#961=ORIENTED_EDGE('',*,*,#753,.F.);
#962=ORIENTED_EDGE('',*,*,#744,.F.);
#963=ORIENTED_EDGE('',*,*,#748,.F.);
#964=ORIENTED_EDGE('',*,*,#751,.F.);
#965=ORIENTED_EDGE('',*,*,#698,.F.);
#966=ORIENTED_EDGE('',*,*,#754,.T.);
#967=ORIENTED_EDGE('',*,*,#755,.T.);
#968=ORIENTED_EDGE('',*,*,#756,.T.);
#969=ORIENTED_EDGE('',*,*,#704,.F.);
#970=ORIENTED_EDGE('',*,*,#757,.T.);
#971=ORIENTED_EDGE('',*,*,#758,.T.);
#972=ORIENTED_EDGE('',*,*,#759,.T.);
#973=ORIENTED_EDGE('',*,*,#760,.F.);
#974=ORIENTED_EDGE('',*,*,#755,.F.);
#975=ORIENTED_EDGE('',*,*,#761,.F.);
#976=ORIENTED_EDGE('',*,*,#762,.F.);
#977=ORIENTED_EDGE('',*,*,#763,.F.);
#978=ORIENTED_EDGE('',*,*,#764,.F.);
#979=ORIENTED_EDGE('',*,*,#701,.F.);
#980=ORIENTED_EDGE('',*,*,#765,.T.);
#981=ORIENTED_EDGE('',*,*,#766,.F.);
#982=ORIENTED_EDGE('',*,*,#767,.F.);
#983=ORIENTED_EDGE('',*,*,#702,.F.);
#984=ORIENTED_EDGE('',*,*,#767,.T.);
#985=ORIENTED_EDGE('',*,*,#768,.F.);
#986=ORIENTED_EDGE('',*,*,#769,.F.);
#987=ORIENTED_EDGE('',*,*,#703,.F.);
#988=ORIENTED_EDGE('',*,*,#769,.T.);
#989=ORIENTED_EDGE('',*,*,#770,.T.);
#990=ORIENTED_EDGE('',*,*,#757,.F.);
#991=ORIENTED_EDGE('',*,*,#699,.F.);
#992=ORIENTED_EDGE('',*,*,#759,.F.);
#993=ORIENTED_EDGE('',*,*,#771,.F.);
#994=ORIENTED_EDGE('',*,*,#772,.F.);
#995=ORIENTED_EDGE('',*,*,#700,.F.);
#996=ORIENTED_EDGE('',*,*,#772,.T.);
#997=ORIENTED_EDGE('',*,*,#773,.F.);
#998=ORIENTED_EDGE('',*,*,#765,.F.);
#999=ORIENTED_EDGE('',*,*,#773,.T.);
#1000=ORIENTED_EDGE('',*,*,#771,.T.);
#1001=ORIENTED_EDGE('',*,*,#758,.F.);
#1002=ORIENTED_EDGE('',*,*,#770,.F.);
#1003=ORIENTED_EDGE('',*,*,#768,.T.);
#1004=ORIENTED_EDGE('',*,*,#766,.T.);
#1005=ORIENTED_EDGE('',*,*,#774,.T.);
#1006=ORIENTED_EDGE('',*,*,#775,.F.);
#1007=ORIENTED_EDGE('',*,*,#776,.T.);
#1008=ORIENTED_EDGE('',*,*,#763,.T.);
#1009=ORIENTED_EDGE('',*,*,#777,.T.);
#1010=ORIENTED_EDGE('',*,*,#778,.F.);
#1011=ORIENTED_EDGE('',*,*,#774,.F.);
#1012=ORIENTED_EDGE('',*,*,#762,.T.);
#1013=ORIENTED_EDGE('',*,*,#779,.F.);
#1014=ORIENTED_EDGE('',*,*,#777,.F.);
#1015=ORIENTED_EDGE('',*,*,#761,.T.);
#1016=ORIENTED_EDGE('',*,*,#754,.F.);
#1017=ORIENTED_EDGE('',*,*,#697,.F.);
#1018=ORIENTED_EDGE('',*,*,#676,.F.);
#1019=ORIENTED_EDGE('',*,*,#780,.T.);
#1020=ORIENTED_EDGE('',*,*,#781,.F.);
#1021=ORIENTED_EDGE('',*,*,#678,.T.);
#1022=ORIENTED_EDGE('',*,*,#705,.F.);
#1023=ORIENTED_EDGE('',*,*,#756,.F.);
#1024=ORIENTED_EDGE('',*,*,#760,.T.);
#1025=ORIENTED_EDGE('',*,*,#776,.F.);
#1026=ORIENTED_EDGE('',*,*,#782,.F.);
#1027=ORIENTED_EDGE('',*,*,#780,.F.);
#1028=ORIENTED_EDGE('',*,*,#764,.T.);
#1029=ORIENTED_EDGE('',*,*,#687,.F.);
#1030=ORIENTED_EDGE('',*,*,#783,.T.);
#1031=ORIENTED_EDGE('',*,*,#784,.T.);
#1032=ORIENTED_EDGE('',*,*,#783,.F.);
#1033=ORIENTED_EDGE('',*,*,#784,.F.);
#1034=ORIENTED_EDGE('',*,*,#785,.F.);
#1035=ORIENTED_EDGE('',*,*,#688,.F.);
#1036=ORIENTED_EDGE('',*,*,#786,.T.);
#1037=ORIENTED_EDGE('',*,*,#787,.T.);
#1038=ORIENTED_EDGE('',*,*,#786,.F.);
#1039=ORIENTED_EDGE('',*,*,#787,.F.);
#1040=ORIENTED_EDGE('',*,*,#788,.F.);
#1041=ORIENTED_EDGE('',*,*,#689,.F.);
#1042=ORIENTED_EDGE('',*,*,#789,.T.);
#1043=ORIENTED_EDGE('',*,*,#790,.T.);
#1044=ORIENTED_EDGE('',*,*,#789,.F.);
#1045=ORIENTED_EDGE('',*,*,#790,.F.);
#1046=ORIENTED_EDGE('',*,*,#791,.F.);
#1047=ORIENTED_EDGE('',*,*,#690,.F.);
#1048=ORIENTED_EDGE('',*,*,#792,.T.);
#1049=ORIENTED_EDGE('',*,*,#793,.T.);
#1050=ORIENTED_EDGE('',*,*,#792,.F.);
#1051=ORIENTED_EDGE('',*,*,#793,.F.);
#1052=ORIENTED_EDGE('',*,*,#794,.F.);
#1053=ORIENTED_EDGE('',*,*,#794,.T.);
#1054=ORIENTED_EDGE('',*,*,#795,.T.);
#1055=ORIENTED_EDGE('',*,*,#796,.F.);
#1056=ORIENTED_EDGE('',*,*,#795,.F.);
#1057=ORIENTED_EDGE('',*,*,#785,.T.);
#1058=ORIENTED_EDGE('',*,*,#797,.T.);
#1059=ORIENTED_EDGE('',*,*,#798,.F.);
#1060=ORIENTED_EDGE('',*,*,#797,.F.);
#1061=ORIENTED_EDGE('',*,*,#788,.T.);
#1062=ORIENTED_EDGE('',*,*,#799,.T.);
#1063=ORIENTED_EDGE('',*,*,#800,.F.);
#1064=ORIENTED_EDGE('',*,*,#799,.F.);
#1065=ORIENTED_EDGE('',*,*,#791,.T.);
#1066=ORIENTED_EDGE('',*,*,#801,.T.);
#1067=ORIENTED_EDGE('',*,*,#802,.F.);
#1068=ORIENTED_EDGE('',*,*,#801,.F.);
#1069=ORIENTED_EDGE('',*,*,#803,.T.);
#1070=ORIENTED_EDGE('',*,*,#804,.T.);
#1071=ORIENTED_EDGE('',*,*,#805,.T.);
#1072=ORIENTED_EDGE('',*,*,#804,.F.);
#1073=ORIENTED_EDGE('',*,*,#806,.T.);
#1074=ORIENTED_EDGE('',*,*,#807,.T.);
#1075=ORIENTED_EDGE('',*,*,#808,.T.);
#1076=ORIENTED_EDGE('',*,*,#809,.T.);
#1077=ORIENTED_EDGE('',*,*,#810,.T.);
#1078=ORIENTED_EDGE('',*,*,#811,.T.);
#1079=ORIENTED_EDGE('',*,*,#812,.T.);
#1080=ORIENTED_EDGE('',*,*,#813,.T.);
#1081=ORIENTED_EDGE('',*,*,#781,.T.);
#1082=ORIENTED_EDGE('',*,*,#782,.T.);
#1083=ORIENTED_EDGE('',*,*,#775,.T.);
#1084=ORIENTED_EDGE('',*,*,#778,.T.);
#1085=ORIENTED_EDGE('',*,*,#779,.T.);
#1086=ORIENTED_EDGE('',*,*,#675,.T.);
#1087=ORIENTED_EDGE('',*,*,#715,.T.);
#1088=ORIENTED_EDGE('',*,*,#717,.T.);
#1089=ORIENTED_EDGE('',*,*,#711,.T.);
#1090=ORIENTED_EDGE('',*,*,#716,.T.);
#1091=ORIENTED_EDGE('',*,*,#726,.T.);
#1092=ORIENTED_EDGE('',*,*,#728,.T.);
#1093=ORIENTED_EDGE('',*,*,#721,.T.);
#1094=ORIENTED_EDGE('',*,*,#729,.T.);
#1095=ORIENTED_EDGE('',*,*,#803,.F.);
#1096=ORIENTED_EDGE('',*,*,#814,.F.);
#1097=ORIENTED_EDGE('',*,*,#815,.F.);
#1098=ORIENTED_EDGE('',*,*,#816,.F.);
#1099=ORIENTED_EDGE('',*,*,#817,.F.);
#1100=ORIENTED_EDGE('',*,*,#818,.F.);
#1101=ORIENTED_EDGE('',*,*,#802,.T.);
#1102=ORIENTED_EDGE('',*,*,#800,.T.);
#1103=ORIENTED_EDGE('',*,*,#798,.T.);
#1104=ORIENTED_EDGE('',*,*,#796,.T.);
#1105=ORIENTED_EDGE('',*,*,#750,.T.);
#1106=ORIENTED_EDGE('',*,*,#752,.T.);
#1107=ORIENTED_EDGE('',*,*,#745,.T.);
#1108=ORIENTED_EDGE('',*,*,#753,.T.);
#1109=ORIENTED_EDGE('',*,*,#739,.T.);
#1110=ORIENTED_EDGE('',*,*,#741,.T.);
#1111=ORIENTED_EDGE('',*,*,#735,.T.);
#1112=ORIENTED_EDGE('',*,*,#740,.T.);
#1113=ORIENTED_EDGE('',*,*,#805,.F.);
#1114=ORIENTED_EDGE('',*,*,#819,.T.);
#1115=ORIENTED_EDGE('',*,*,#693,.T.);
#1116=ORIENTED_EDGE('',*,*,#819,.F.);
#1117=ORIENTED_EDGE('',*,*,#818,.T.);
#1118=ORIENTED_EDGE('',*,*,#820,.T.);
#1119=ORIENTED_EDGE('',*,*,#821,.T.);
#1120=ORIENTED_EDGE('',*,*,#820,.F.);
#1121=ORIENTED_EDGE('',*,*,#821,.F.);
#1122=ORIENTED_EDGE('',*,*,#822,.T.);
#1123=ORIENTED_EDGE('',*,*,#694,.T.);
#1124=ORIENTED_EDGE('',*,*,#822,.F.);
#1125=ORIENTED_EDGE('',*,*,#814,.T.);
#1126=ORIENTED_EDGE('',*,*,#823,.T.);
#1127=ORIENTED_EDGE('',*,*,#824,.T.);
#1128=ORIENTED_EDGE('',*,*,#823,.F.);
#1129=ORIENTED_EDGE('',*,*,#824,.F.);
#1130=ORIENTED_EDGE('',*,*,#825,.T.);
#1131=ORIENTED_EDGE('',*,*,#695,.T.);
#1132=ORIENTED_EDGE('',*,*,#825,.F.);
#1133=ORIENTED_EDGE('',*,*,#817,.T.);
#1134=ORIENTED_EDGE('',*,*,#826,.T.);
#1135=ORIENTED_EDGE('',*,*,#827,.T.);
#1136=ORIENTED_EDGE('',*,*,#826,.F.);
#1137=ORIENTED_EDGE('',*,*,#827,.F.);
#1138=ORIENTED_EDGE('',*,*,#828,.T.);
#1139=ORIENTED_EDGE('',*,*,#696,.T.);
#1140=ORIENTED_EDGE('',*,*,#828,.F.);
#1141=ORIENTED_EDGE('',*,*,#815,.T.);
#1142=ORIENTED_EDGE('',*,*,#829,.T.);
#1143=ORIENTED_EDGE('',*,*,#830,.T.);
#1144=ORIENTED_EDGE('',*,*,#829,.F.);
#1145=ORIENTED_EDGE('',*,*,#830,.F.);
#1146=ORIENTED_EDGE('',*,*,#831,.T.);
#1147=ORIENTED_EDGE('',*,*,#832,.T.);
#1148=ORIENTED_EDGE('',*,*,#831,.F.);
#1149=ORIENTED_EDGE('',*,*,#816,.T.);
#1150=ORIENTED_EDGE('',*,*,#833,.T.);
#1151=ORIENTED_EDGE('',*,*,#834,.T.);
#1152=ORIENTED_EDGE('',*,*,#833,.F.);
#1153=ORIENTED_EDGE('',*,*,#834,.F.);
#1154=ORIENTED_EDGE('',*,*,#835,.T.);
#1155=ORIENTED_EDGE('',*,*,#836,.T.);
#1156=ORIENTED_EDGE('',*,*,#835,.F.);
#1157=ORIENTED_EDGE('',*,*,#836,.F.);
#1158=ORIENTED_EDGE('',*,*,#832,.F.);
#1159=ORIENTED_EDGE('',*,*,#837,.T.);
#1160=ORIENTED_EDGE('',*,*,#838,.T.);
#1161=ORIENTED_EDGE('',*,*,#839,.T.);
#1162=ORIENTED_EDGE('',*,*,#838,.F.);
#1163=ORIENTED_EDGE('',*,*,#839,.F.);
#1164=ORIENTED_EDGE('',*,*,#840,.T.);
#1165=ORIENTED_EDGE('',*,*,#691,.F.);
#1166=ORIENTED_EDGE('',*,*,#840,.F.);
#1167=ORIENTED_EDGE('',*,*,#837,.F.);
#1168=ORIENTED_EDGE('',*,*,#841,.T.);
#1169=ORIENTED_EDGE('',*,*,#842,.T.);
#1170=ORIENTED_EDGE('',*,*,#843,.T.);
#1171=ORIENTED_EDGE('',*,*,#842,.F.);
#1172=ORIENTED_EDGE('',*,*,#843,.F.);
#1173=ORIENTED_EDGE('',*,*,#844,.T.);
#1174=ORIENTED_EDGE('',*,*,#692,.F.);
#1175=ORIENTED_EDGE('',*,*,#844,.F.);
#1176=ORIENTED_EDGE('',*,*,#841,.F.);
#1177=ORIENTED_EDGE('',*,*,#680,.T.);
#1178=ORIENTED_EDGE('',*,*,#845,.T.);
#1179=ORIENTED_EDGE('',*,*,#813,.F.);
#1180=ORIENTED_EDGE('',*,*,#846,.F.);
#1181=ORIENTED_EDGE('',*,*,#681,.F.);
#1182=ORIENTED_EDGE('',*,*,#846,.T.);
#1183=ORIENTED_EDGE('',*,*,#812,.F.);
#1184=ORIENTED_EDGE('',*,*,#847,.F.);
#1185=ORIENTED_EDGE('',*,*,#682,.T.);
#1186=ORIENTED_EDGE('',*,*,#847,.T.);
#1187=ORIENTED_EDGE('',*,*,#811,.F.);
#1188=ORIENTED_EDGE('',*,*,#848,.F.);
#1189=ORIENTED_EDGE('',*,*,#683,.F.);
#1190=ORIENTED_EDGE('',*,*,#848,.T.);
#1191=ORIENTED_EDGE('',*,*,#810,.F.);
#1192=ORIENTED_EDGE('',*,*,#849,.F.);
#1193=ORIENTED_EDGE('',*,*,#684,.T.);
#1194=ORIENTED_EDGE('',*,*,#849,.T.);
#1195=ORIENTED_EDGE('',*,*,#809,.F.);
#1196=ORIENTED_EDGE('',*,*,#850,.F.);
#1197=ORIENTED_EDGE('',*,*,#685,.F.);
#1198=ORIENTED_EDGE('',*,*,#850,.T.);
#1199=ORIENTED_EDGE('',*,*,#808,.F.);
#1200=ORIENTED_EDGE('',*,*,#851,.F.);
#1201=ORIENTED_EDGE('',*,*,#686,.T.);
#1202=ORIENTED_EDGE('',*,*,#851,.T.);
#1203=ORIENTED_EDGE('',*,*,#807,.F.);
#1204=ORIENTED_EDGE('',*,*,#852,.F.);
#1205=ORIENTED_EDGE('',*,*,#679,.F.);
#1206=ORIENTED_EDGE('',*,*,#852,.T.);
#1207=ORIENTED_EDGE('',*,*,#806,.F.);
#1208=ORIENTED_EDGE('',*,*,#845,.F.);
#1209=PLANE('',#1343);
#1210=PLANE('',#1344);
#1211=PLANE('',#1361);
#1212=PLANE('',#1362);
#1213=PLANE('',#1363);
#1214=PLANE('',#1364);
#1215=PLANE('',#1365);
#1216=PLANE('',#1366);
#1217=PLANE('',#1367);
#1218=PLANE('',#1368);
#1219=PLANE('',#1369);
#1220=PLANE('',#1370);
#1221=PLANE('',#1371);
#1222=PLANE('',#1372);
#1223=PLANE('',#1373);
#1224=PLANE('',#1374);
#1225=PLANE('',#1375);
#1226=PLANE('',#1376);
#1227=PLANE('',#1377);
#1228=PLANE('',#1378);
#1229=PLANE('',#1379);
#1230=PLANE('',#1380);
#1231=PLANE('',#1381);
#1232=PLANE('',#1382);
#1233=PLANE('',#1385);
#1234=PLANE('',#1388);
#1235=PLANE('',#1389);
#1236=PLANE('',#1392);
#1237=PLANE('',#1393);
#1238=PLANE('',#1396);
#1239=PLANE('',#1397);
#1240=PLANE('',#1402);
#1241=PLANE('',#1406);
#1242=PLANE('',#1410);
#1243=PLANE('',#1414);
#1244=PLANE('',#1427);
#1245=PLANE('',#1455);
#1246=PLANE('',#1456);
#1247=PLANE('',#1461);
#1248=PLANE('',#1466);
#1249=PLANE('',#1468);
#1250=PLANE('',#1470);
#1251=PLANE('',#1472);
#1252=PLANE('',#1474);
#1253=ADVANCED_FACE('',(#133),#1209,.F.);
#1254=ADVANCED_FACE('',(#134,#47,#48,#49,#50,#51,#52,#53,#54,#55,#56,#57),
#1210,.F.);
#1255=ADVANCED_FACE('',(#135),#1211,.F.);
#1256=ADVANCED_FACE('',(#136),#1212,.F.);
#1257=ADVANCED_FACE('',(#137),#1213,.F.);
#1258=ADVANCED_FACE('',(#138),#1214,.F.);
#1259=ADVANCED_FACE('',(#139),#1215,.F.);
#1260=ADVANCED_FACE('',(#140),#1216,.F.);
#1261=ADVANCED_FACE('',(#141),#1217,.F.);
#1262=ADVANCED_FACE('',(#142),#1218,.F.);
#1263=ADVANCED_FACE('',(#143),#1219,.F.);
#1264=ADVANCED_FACE('',(#144),#1220,.F.);
#1265=ADVANCED_FACE('',(#145),#1221,.F.);
#1266=ADVANCED_FACE('',(#146),#1222,.F.);
#1267=ADVANCED_FACE('',(#147),#1223,.F.);
#1268=ADVANCED_FACE('',(#148),#1224,.F.);
#1269=ADVANCED_FACE('',(#149),#1225,.F.);
#1270=ADVANCED_FACE('',(#150),#1226,.F.);
#1271=ADVANCED_FACE('',(#151),#1227,.F.);
#1272=ADVANCED_FACE('',(#152),#1228,.F.);
#1273=ADVANCED_FACE('',(#153),#1229,.F.);
#1274=ADVANCED_FACE('',(#154),#1230,.F.);
#1275=ADVANCED_FACE('',(#155),#1231,.T.);
#1276=ADVANCED_FACE('',(#156),#1232,.F.);
#1277=ADVANCED_FACE('',(#157),#1233,.T.);
#1278=ADVANCED_FACE('',(#158),#23,.T.);
#1279=ADVANCED_FACE('',(#159),#1234,.T.);
#1280=ADVANCED_FACE('',(#160),#1235,.T.);
#1281=ADVANCED_FACE('',(#161),#24,.T.);
#1282=ADVANCED_FACE('',(#162),#1236,.T.);
#1283=ADVANCED_FACE('',(#163),#1237,.F.);
#1284=ADVANCED_FACE('',(#164),#25,.F.);
#1285=ADVANCED_FACE('',(#165),#1238,.F.);
#1286=ADVANCED_FACE('',(#166),#1239,.F.);
#1287=ADVANCED_FACE('',(#167),#26,.F.);
#1288=ADVANCED_FACE('',(#168),#27,.F.);
#1289=ADVANCED_FACE('',(#169,#58),#1240,.T.);
#1290=ADVANCED_FACE('',(#170),#28,.F.);
#1291=ADVANCED_FACE('',(#171,#59),#1241,.T.);
#1292=ADVANCED_FACE('',(#172),#29,.F.);
#1293=ADVANCED_FACE('',(#173,#60),#1242,.T.);
#1294=ADVANCED_FACE('',(#174),#30,.F.);
#1295=ADVANCED_FACE('',(#175,#61),#1243,.T.);
#1296=ADVANCED_FACE('',(#176),#31,.F.);
#1297=ADVANCED_FACE('',(#177),#32,.F.);
#1298=ADVANCED_FACE('',(#178),#33,.F.);
#1299=ADVANCED_FACE('',(#179),#34,.F.);
#1300=ADVANCED_FACE('',(#180),#15,.F.);
#1301=ADVANCED_FACE('',(#181,#62,#63,#64,#65,#66,#67,#68,#69,#70,#71,#72,
#73,#74,#75,#76),#1244,.T.);
#1302=ADVANCED_FACE('',(#182),#35,.F.);
#1303=ADVANCED_FACE('',(#183),#16,.F.);
#1304=ADVANCED_FACE('',(#184),#36,.F.);
#1305=ADVANCED_FACE('',(#185),#17,.F.);
#1306=ADVANCED_FACE('',(#186),#37,.F.);
#1307=ADVANCED_FACE('',(#187),#18,.F.);
#1308=ADVANCED_FACE('',(#188),#38,.F.);
#1309=ADVANCED_FACE('',(#189),#19,.F.);
#1310=ADVANCED_FACE('',(#190),#39,.F.);
#1311=ADVANCED_FACE('',(#191),#20,.F.);
#1312=ADVANCED_FACE('',(#192),#40,.F.);
#1313=ADVANCED_FACE('',(#193),#1245,.T.);
#1314=ADVANCED_FACE('',(#194),#1246,.T.);
#1315=ADVANCED_FACE('',(#195),#21,.T.);
#1316=ADVANCED_FACE('',(#196),#41,.T.);
#1317=ADVANCED_FACE('',(#197),#1247,.T.);
#1318=ADVANCED_FACE('',(#198),#22,.T.);
#1319=ADVANCED_FACE('',(#199),#42,.T.);
#1320=ADVANCED_FACE('',(#200),#1248,.T.);
#1321=ADVANCED_FACE('',(#201),#43,.T.);
#1322=ADVANCED_FACE('',(#202),#1249,.T.);
#1323=ADVANCED_FACE('',(#203),#44,.T.);
#1324=ADVANCED_FACE('',(#204),#1250,.T.);
#1325=ADVANCED_FACE('',(#205),#45,.T.);
#1326=ADVANCED_FACE('',(#206),#1251,.T.);
#1327=ADVANCED_FACE('',(#207),#46,.T.);
#1328=ADVANCED_FACE('',(#208),#1252,.T.);
#1329=CLOSED_SHELL('',(#1253,#1254,#1255,#1256,#1257,#1258,#1259,#1260,
#1261,#1262,#1263,#1264,#1265,#1266,#1267,#1268,#1269,#1270,#1271,#1272,
#1273,#1274,#1275,#1276,#1277,#1278,#1279,#1280,#1281,#1282,#1283,#1284,
#1285,#1286,#1287,#1288,#1289,#1290,#1291,#1292,#1293,#1294,#1295,#1296,
#1297,#1298,#1299,#1300,#1301,#1302,#1303,#1304,#1305,#1306,#1307,#1308,
#1309,#1310,#1311,#1312,#1313,#1314,#1315,#1316,#1317,#1318,#1319,#1320,
#1321,#1322,#1323,#1324,#1325,#1326,#1327,#1328));
#1330=DERIVED_UNIT_ELEMENT(#1332,1.);
#1331=DERIVED_UNIT_ELEMENT(#2239,-3.);
#1332=(
MASS_UNIT()
NAMED_UNIT(*)
SI_UNIT(.KILO.,.GRAM.)
);
#1333=DERIVED_UNIT((#1330,#1331));
#1334=MEASURE_REPRESENTATION_ITEM('density measure',
POSITIVE_RATIO_MEASURE(7850.),#1333);
#1335=PROPERTY_DEFINITION_REPRESENTATION(#1340,#1337);
#1336=PROPERTY_DEFINITION_REPRESENTATION(#1341,#1338);
#1337=REPRESENTATION('material name',(#1339),#2236);
#1338=REPRESENTATION('density',(#1334),#2236);
#1339=DESCRIPTIVE_REPRESENTATION_ITEM('Steel','Steel');
#1340=PROPERTY_DEFINITION('material property','material name',#2246);
#1341=PROPERTY_DEFINITION('material property','density of part',#2246);
#1342=AXIS2_PLACEMENT_3D('',#1863,#1475,#1476);
#1343=AXIS2_PLACEMENT_3D('',#1864,#1477,#1478);
#1344=AXIS2_PLACEMENT_3D('',#1873,#1483,#1484);
#1345=AXIS2_PLACEMENT_3D('',#1878,#1486,#1487);
#1346=AXIS2_PLACEMENT_3D('',#1882,#1489,#1490);
#1347=AXIS2_PLACEMENT_3D('',#1886,#1492,#1493);
#1348=AXIS2_PLACEMENT_3D('',#1889,#1495,#1496);
#1349=AXIS2_PLACEMENT_3D('',#1891,#1497,#1498);
#1350=AXIS2_PLACEMENT_3D('',#1893,#1499,#1500);
#1351=AXIS2_PLACEMENT_3D('',#1895,#1501,#1502);
#1352=AXIS2_PLACEMENT_3D('',#1897,#1503,#1504);
#1353=AXIS2_PLACEMENT_3D('',#1899,#1505,#1506);
#1354=AXIS2_PLACEMENT_3D('',#1901,#1507,#1508);
#1355=AXIS2_PLACEMENT_3D('',#1903,#1509,#1510);
#1356=AXIS2_PLACEMENT_3D('',#1905,#1511,#1512);
#1357=AXIS2_PLACEMENT_3D('',#1907,#1513,#1514);
#1358=AXIS2_PLACEMENT_3D('',#1909,#1515,#1516);
#1359=AXIS2_PLACEMENT_3D('',#1917,#1520,#1521);
#1360=AXIS2_PLACEMENT_3D('',#1921,#1523,#1524);
#1361=AXIS2_PLACEMENT_3D('',#1927,#1528,#1529);
#1362=AXIS2_PLACEMENT_3D('',#1936,#1534,#1535);
#1363=AXIS2_PLACEMENT_3D('',#1942,#1539,#1540);
#1364=AXIS2_PLACEMENT_3D('',#1948,#1544,#1545);
#1365=AXIS2_PLACEMENT_3D('',#1950,#1547,#1548);
#1366=AXIS2_PLACEMENT_3D('',#1952,#1550,#1551);
#1367=AXIS2_PLACEMENT_3D('',#1961,#1556,#1557);
#1368=AXIS2_PLACEMENT_3D('',#1967,#1561,#1562);
#1369=AXIS2_PLACEMENT_3D('',#1973,#1566,#1567);
#1370=AXIS2_PLACEMENT_3D('',#1975,#1569,#1570);
#1371=AXIS2_PLACEMENT_3D('',#1977,#1572,#1573);
#1372=AXIS2_PLACEMENT_3D('',#1986,#1578,#1579);
#1373=AXIS2_PLACEMENT_3D('',#1992,#1583,#1584);
#1374=AXIS2_PLACEMENT_3D('',#1998,#1588,#1589);
#1375=AXIS2_PLACEMENT_3D('',#2000,#1591,#1592);
#1376=AXIS2_PLACEMENT_3D('',#2002,#1594,#1595);
#1377=AXIS2_PLACEMENT_3D('',#2011,#1600,#1601);
#1378=AXIS2_PLACEMENT_3D('',#2017,#1605,#1606);
#1379=AXIS2_PLACEMENT_3D('',#2023,#1610,#1611);
#1380=AXIS2_PLACEMENT_3D('',#2025,#1613,#1614);
#1381=AXIS2_PLACEMENT_3D('',#2027,#1616,#1617);
#1382=AXIS2_PLACEMENT_3D('',#2038,#1624,#1625);
#1383=AXIS2_PLACEMENT_3D('',#2044,#1628,#1629);
#1384=AXIS2_PLACEMENT_3D('',#2047,#1631,#1632);
#1385=AXIS2_PLACEMENT_3D('',#2048,#1633,#1634);
#1386=AXIS2_PLACEMENT_3D('',#2054,#1638,#1639);
#1387=AXIS2_PLACEMENT_3D('',#2056,#1640,#1641);
#1388=AXIS2_PLACEMENT_3D('',#2058,#1643,#1644);
#1389=AXIS2_PLACEMENT_3D('',#2060,#1646,#1647);
#1390=AXIS2_PLACEMENT_3D('',#2064,#1650,#1651);
#1391=AXIS2_PLACEMENT_3D('',#2065,#1652,#1653);
#1392=AXIS2_PLACEMENT_3D('',#2066,#1654,#1655);
#1393=AXIS2_PLACEMENT_3D('',#2067,#1656,#1657);
#1394=AXIS2_PLACEMENT_3D('',#2073,#1661,#1662);
#1395=AXIS2_PLACEMENT_3D('',#2076,#1664,#1665);
#1396=AXIS2_PLACEMENT_3D('',#2077,#1666,#1667);
#1397=AXIS2_PLACEMENT_3D('',#2079,#1669,#1670);
#1398=AXIS2_PLACEMENT_3D('',#2083,#1673,#1674);
#1399=AXIS2_PLACEMENT_3D('',#2084,#1675,#1676);
#1400=AXIS2_PLACEMENT_3D('',#2085,#1677,#1678);
#1401=AXIS2_PLACEMENT_3D('',#2088,#1680,#1681);
#1402=AXIS2_PLACEMENT_3D('',#2089,#1682,#1683);
#1403=AXIS2_PLACEMENT_3D('',#2091,#1684,#1685);
#1404=AXIS2_PLACEMENT_3D('',#2092,#1686,#1687);
#1405=AXIS2_PLACEMENT_3D('',#2095,#1689,#1690);
#1406=AXIS2_PLACEMENT_3D('',#2096,#1691,#1692);
#1407=AXIS2_PLACEMENT_3D('',#2098,#1693,#1694);
#1408=AXIS2_PLACEMENT_3D('',#2099,#1695,#1696);
#1409=AXIS2_PLACEMENT_3D('',#2102,#1698,#1699);
#1410=AXIS2_PLACEMENT_3D('',#2103,#1700,#1701);
#1411=AXIS2_PLACEMENT_3D('',#2105,#1702,#1703);
#1412=AXIS2_PLACEMENT_3D('',#2106,#1704,#1705);
#1413=AXIS2_PLACEMENT_3D('',#2109,#1707,#1708);
#1414=AXIS2_PLACEMENT_3D('',#2110,#1709,#1710);
#1415=AXIS2_PLACEMENT_3D('',#2112,#1711,#1712);
#1416=AXIS2_PLACEMENT_3D('',#2113,#1713,#1714);
#1417=AXIS2_PLACEMENT_3D('',#2116,#1716,#1717);
#1418=AXIS2_PLACEMENT_3D('',#2117,#1718,#1719);
#1419=AXIS2_PLACEMENT_3D('',#2120,#1721,#1722);
#1420=AXIS2_PLACEMENT_3D('',#2121,#1723,#1724);
#1421=AXIS2_PLACEMENT_3D('',#2124,#1726,#1727);
#1422=AXIS2_PLACEMENT_3D('',#2125,#1728,#1729);
#1423=AXIS2_PLACEMENT_3D('',#2128,#1731,#1732);
#1424=AXIS2_PLACEMENT_3D('',#2129,#1733,#1734);
#1425=AXIS2_PLACEMENT_3D('',#2131,#1735,#1736);
#1426=AXIS2_PLACEMENT_3D('',#2134,#1738,#1739);
#1427=AXIS2_PLACEMENT_3D('',#2135,#1740,#1741);
#1428=AXIS2_PLACEMENT_3D('',#2140,#1743,#1744);
#1429=AXIS2_PLACEMENT_3D('',#2144,#1746,#1747);
#1430=AXIS2_PLACEMENT_3D('',#2148,#1749,#1750);
#1431=AXIS2_PLACEMENT_3D('',#2151,#1752,#1753);
#1432=AXIS2_PLACEMENT_3D('',#2153,#1754,#1755);
#1433=AXIS2_PLACEMENT_3D('',#2155,#1756,#1757);
#1434=AXIS2_PLACEMENT_3D('',#2157,#1758,#1759);
#1435=AXIS2_PLACEMENT_3D('',#2159,#1760,#1761);
#1436=AXIS2_PLACEMENT_3D('',#2161,#1762,#1763);
#1437=AXIS2_PLACEMENT_3D('',#2162,#1764,#1765);
#1438=AXIS2_PLACEMENT_3D('',#2164,#1767,#1768);
#1439=AXIS2_PLACEMENT_3D('',#2167,#1770,#1771);
#1440=AXIS2_PLACEMENT_3D('',#2168,#1772,#1773);
#1441=AXIS2_PLACEMENT_3D('',#2170,#1775,#1776);
#1442=AXIS2_PLACEMENT_3D('',#2173,#1778,#1779);
#1443=AXIS2_PLACEMENT_3D('',#2174,#1780,#1781);
#1444=AXIS2_PLACEMENT_3D('',#2176,#1783,#1784);
#1445=AXIS2_PLACEMENT_3D('',#2179,#1786,#1787);
#1446=AXIS2_PLACEMENT_3D('',#2180,#1788,#1789);
#1447=AXIS2_PLACEMENT_3D('',#2182,#1791,#1792);
#1448=AXIS2_PLACEMENT_3D('',#2185,#1794,#1795);
#1449=AXIS2_PLACEMENT_3D('',#2186,#1796,#1797);
#1450=AXIS2_PLACEMENT_3D('',#2189,#1799,#1800);
#1451=AXIS2_PLACEMENT_3D('',#2190,#1801,#1802);
#1452=AXIS2_PLACEMENT_3D('',#2193,#1804,#1805);
#1453=AXIS2_PLACEMENT_3D('',#2194,#1806,#1807);
#1454=AXIS2_PLACEMENT_3D('',#2197,#1809,#1810);
#1455=AXIS2_PLACEMENT_3D('',#2198,#1811,#1812);
#1456=AXIS2_PLACEMENT_3D('',#2199,#1813,#1814);
#1457=AXIS2_PLACEMENT_3D('',#2200,#1815,#1816);
#1458=AXIS2_PLACEMENT_3D('',#2202,#1817,#1818);
#1459=AXIS2_PLACEMENT_3D('',#2205,#1820,#1821);
#1460=AXIS2_PLACEMENT_3D('',#2206,#1822,#1823);
#1461=AXIS2_PLACEMENT_3D('',#2208,#1825,#1826);
#1462=AXIS2_PLACEMENT_3D('',#2209,#1827,#1828);
#1463=AXIS2_PLACEMENT_3D('',#2211,#1829,#1830);
#1464=AXIS2_PLACEMENT_3D('',#2214,#1832,#1833);
#1465=AXIS2_PLACEMENT_3D('',#2215,#1834,#1835);
#1466=AXIS2_PLACEMENT_3D('',#2217,#1837,#1838);
#1467=AXIS2_PLACEMENT_3D('',#2218,#1839,#1840);
#1468=AXIS2_PLACEMENT_3D('',#2221,#1843,#1844);
#1469=AXIS2_PLACEMENT_3D('',#2223,#1846,#1847);
#1470=AXIS2_PLACEMENT_3D('',#2225,#1849,#1850);
#1471=AXIS2_PLACEMENT_3D('',#2227,#1852,#1853);
#1472=AXIS2_PLACEMENT_3D('',#2229,#1855,#1856);
#1473=AXIS2_PLACEMENT_3D('',#2231,#1858,#1859);
#1474=AXIS2_PLACEMENT_3D('',#2233,#1861,#1862);
#1475=DIRECTION('axis',(0.,0.,1.));
#1476=DIRECTION('refdir',(1.,0.,0.));
#1477=DIRECTION('center_axis',(-1.,0.,0.));
#1478=DIRECTION('ref_axis',(0.,-1.,0.));
#1479=DIRECTION('',(0.,-1.,0.));
#1480=DIRECTION('',(0.,0.,1.));
#1481=DIRECTION('',(0.,1.,0.));
#1482=DIRECTION('',(0.,0.,1.));
#1483=DIRECTION('center_axis',(0.,0.,-1.));
#1484=DIRECTION('ref_axis',(1.,0.,0.));
#1485=DIRECTION('',(-1.,6.125368411725E-17,0.));
#1486=DIRECTION('center_axis',(0.,0.,-1.));
#1487=DIRECTION('ref_axis',(-1.,0.,0.));
#1488=DIRECTION('',(0.,-1.,0.));
#1489=DIRECTION('center_axis',(0.,0.,-1.));
#1490=DIRECTION('ref_axis',(0.,-1.,0.));
#1491=DIRECTION('',(1.,0.,0.));
#1492=DIRECTION('center_axis',(0.,0.,-1.));
#1493=DIRECTION('ref_axis',(1.,0.,0.));
#1494=DIRECTION('',(-6.7713729583237E-16,1.,0.));
#1495=DIRECTION('center_axis',(0.,0.,-1.));
#1496=DIRECTION('ref_axis',(0.,1.,0.));
#1497=DIRECTION('center_axis',(0.,0.,-1.));
#1498=DIRECTION('ref_axis',(-1.,0.,0.));
#1499=DIRECTION('center_axis',(0.,0.,-1.));
#1500=DIRECTION('ref_axis',(-1.,0.,0.));
#1501=DIRECTION('center_axis',(0.,0.,-1.));
#1502=DIRECTION('ref_axis',(-1.,0.,0.));
#1503=DIRECTION('center_axis',(0.,0.,-1.));
#1504=DIRECTION('ref_axis',(-1.,0.,0.));
#1505=DIRECTION('center_axis',(0.,0.,-1.));
#1506=DIRECTION('ref_axis',(-1.,0.,0.));
#1507=DIRECTION('center_axis',(0.,0.,-1.));
#1508=DIRECTION('ref_axis',(-1.,0.,0.));
#1509=DIRECTION('center_axis',(0.,0.,1.));
#1510=DIRECTION('ref_axis',(1.,0.,0.));
#1511=DIRECTION('center_axis',(0.,0.,1.));
#1512=DIRECTION('ref_axis',(1.,0.,0.));
#1513=DIRECTION('center_axis',(0.,0.,1.));
#1514=DIRECTION('ref_axis',(1.,0.,0.));
#1515=DIRECTION('center_axis',(0.,0.,1.));
#1516=DIRECTION('ref_axis',(1.,0.,0.));
#1517=DIRECTION('',(-1.,0.,0.));
#1518=DIRECTION('',(0.,1.,0.));
#1519=DIRECTION('',(1.,0.,0.));
#1520=DIRECTION('center_axis',(0.,0.,-1.));
#1521=DIRECTION('ref_axis',(1.,-7.40148683083436E-16,0.));
#1522=DIRECTION('',(0.,-1.,0.));
#1523=DIRECTION('center_axis',(0.,0.,-1.));
#1524=DIRECTION('ref_axis',(0.,-1.,0.));
#1525=DIRECTION('',(-1.,0.,0.));
#1526=DIRECTION('',(0.,1.,0.));
#1527=DIRECTION('',(1.,0.,0.));
#1528=DIRECTION('center_axis',(0.,0.,1.));
#1529=DIRECTION('ref_axis',(0.,-1.,0.));
#1530=DIRECTION('',(0.,1.,0.));
#1531=DIRECTION('',(1.,0.,0.));
#1532=DIRECTION('',(0.,-1.,0.));
#1533=DIRECTION('',(1.,0.,0.));
#1534=DIRECTION('center_axis',(0.,0.998752338877845,0.0499376169438914));
#1535=DIRECTION('ref_axis',(0.,-0.0499376169438914,0.998752338877845));
#1536=DIRECTION('',(0.,0.0499376169438914,-0.998752338877845));
#1537=DIRECTION('',(-1.,0.,0.));
#1538=DIRECTION('',(0.,-0.0499376169438914,0.998752338877845));
#1539=DIRECTION('center_axis',(0.,-0.998752338877845,0.0499376169438914));
#1540=DIRECTION('ref_axis',(0.,-0.0499376169438914,-0.998752338877845));
#1541=DIRECTION('',(0.,0.0499376169438914,0.998752338877845));
#1542=DIRECTION('',(0.,-0.0499376169438914,-0.998752338877845));
#1543=DIRECTION('',(1.,0.,0.));
#1544=DIRECTION('center_axis',(-1.,0.,0.));
#1545=DIRECTION('ref_axis',(0.,-1.,0.));
#1546=DIRECTION('',(0.,-1.,0.));
#1547=DIRECTION('center_axis',(1.,0.,0.));
#1548=DIRECTION('ref_axis',(0.,0.,-1.));
#1549=DIRECTION('',(0.,1.,0.));
#1550=DIRECTION('center_axis',(0.,-0.998752338877845,0.0499376169438914));
#1551=DIRECTION('ref_axis',(0.,-0.0499376169438914,-0.998752338877845));
#1552=DIRECTION('',(0.,-0.0499376169438914,-0.998752338877845));
#1553=DIRECTION('',(1.,0.,0.));
#1554=DIRECTION('',(0.,-0.0499376169438914,-0.998752338877845));
#1555=DIRECTION('',(1.,0.,0.));
#1556=DIRECTION('center_axis',(0.,0.,1.));
#1557=DIRECTION('ref_axis',(0.,-1.,0.));
#1558=DIRECTION('',(0.,-1.,0.));
#1559=DIRECTION('',(1.,0.,0.));
#1560=DIRECTION('',(0.,-1.,0.));
#1561=DIRECTION('center_axis',(0.,0.998752338877845,0.0499376169438914));
#1562=DIRECTION('ref_axis',(0.,-0.0499376169438914,0.998752338877845));
#1563=DIRECTION('',(0.,-0.0499376169438914,0.998752338877845));
#1564=DIRECTION('',(-1.,0.,0.));
#1565=DIRECTION('',(0.,-0.0499376169438914,0.998752338877845));
#1566=DIRECTION('center_axis',(-1.,0.,0.));
#1567=DIRECTION('ref_axis',(0.,-1.,0.));
#1568=DIRECTION('',(0.,-1.,0.));
#1569=DIRECTION('center_axis',(1.,0.,0.));
#1570=DIRECTION('ref_axis',(0.,0.,-1.));
#1571=DIRECTION('',(0.,1.,0.));
#1572=DIRECTION('center_axis',(1.61486985400024E-14,0.,1.));
#1573=DIRECTION('ref_axis',(1.,0.,-1.61486985400024E-14));
#1574=DIRECTION('',(1.,0.,-1.61486985400024E-14));
#1575=DIRECTION('',(0.,1.,0.));
#1576=DIRECTION('',(1.,0.,-1.61486985400024E-14));
#1577=DIRECTION('',(0.,1.,0.));
#1578=DIRECTION('center_axis',(-0.998752338877845,0.,0.0499376169438905));
#1579=DIRECTION('ref_axis',(0.0499376169438905,0.,0.998752338877845));
#1580=DIRECTION('',(0.0499376169438905,0.,0.998752338877845));
#1581=DIRECTION('',(0.,-1.,0.));
#1582=DIRECTION('',(0.0499376169438905,0.,0.998752338877845));
#1583=DIRECTION('center_axis',(0.998752338877845,0.,0.0499376169438922));
#1584=DIRECTION('ref_axis',(0.0499376169438922,0.,-0.998752338877845));
#1585=DIRECTION('',(-0.0499376169438922,0.,0.998752338877845));
#1586=DIRECTION('',(0.0499376169438922,0.,-0.998752338877845));
#1587=DIRECTION('',(0.,1.,0.));
#1588=DIRECTION('center_axis',(0.,-1.,0.));
#1589=DIRECTION('ref_axis',(-1.,0.,0.));
#1590=DIRECTION('',(1.,0.,0.));
#1591=DIRECTION('center_axis',(0.,1.,0.));
#1592=DIRECTION('ref_axis',(0.,0.,1.));
#1593=DIRECTION('',(-1.,0.,0.));
#1594=DIRECTION('center_axis',(0.998752338877845,0.,0.0499376169438914));
#1595=DIRECTION('ref_axis',(0.0499376169438914,0.,-0.998752338877845));
#1596=DIRECTION('',(-0.0499376169438914,0.,0.998752338877845));
#1597=DIRECTION('',(0.,1.,0.));
#1598=DIRECTION('',(0.0499376169438914,0.,-0.998752338877845));
#1599=DIRECTION('',(0.,1.,0.));
#1600=DIRECTION('center_axis',(0.,0.,1.));
#1601=DIRECTION('ref_axis',(1.,0.,0.));
#1602=DIRECTION('',(1.,0.,0.));
#1603=DIRECTION('',(0.,1.,0.));
#1604=DIRECTION('',(1.,0.,0.));
#1605=DIRECTION('center_axis',(-0.998752338877845,0.,0.0499376169438914));
#1606=DIRECTION('ref_axis',(0.0499376169438914,0.,0.998752338877845));
#1607=DIRECTION('',(0.0499376169438914,0.,0.998752338877845));
#1608=DIRECTION('',(0.,-1.,0.));
#1609=DIRECTION('',(0.0499376169438914,0.,0.998752338877845));
#1610=DIRECTION('center_axis',(0.,-1.,0.));
#1611=DIRECTION('ref_axis',(-1.,0.,0.));
#1612=DIRECTION('',(1.,0.,0.));
#1613=DIRECTION('center_axis',(0.,1.,0.));
#1614=DIRECTION('ref_axis',(0.,0.,1.));
#1615=DIRECTION('',(-1.,0.,0.));
#1616=DIRECTION('center_axis',(-1.,0.,0.));
#1617=DIRECTION('ref_axis',(0.,0.,1.));
#1618=DIRECTION('',(0.,0.,1.));
#1619=DIRECTION('',(0.,-1.,0.));
#1620=DIRECTION('',(0.,0.,-1.));
#1621=DIRECTION('',(0.,0.,1.));
#1622=DIRECTION('',(0.,1.,0.));
#1623=DIRECTION('',(0.,0.,-1.));
#1624=DIRECTION('center_axis',(0.,0.,1.));
#1625=DIRECTION('ref_axis',(-1.,0.,0.));
#1626=DIRECTION('',(1.,7.40148683083438E-17,0.));
#1627=DIRECTION('',(-1.,0.,0.));
#1628=DIRECTION('center_axis',(0.,0.,1.));
#1629=DIRECTION('ref_axis',(1.,-7.4014868308344E-16,0.));
#1630=DIRECTION('',(0.,1.,0.));
#1631=DIRECTION('center_axis',(0.,0.,1.));
#1632=DIRECTION('ref_axis',(-5.92118946466759E-15,-1.,0.));
#1633=DIRECTION('center_axis',(1.,0.,0.));
#1634=DIRECTION('ref_axis',(0.,1.,0.));
#1635=DIRECTION('',(0.,0.,1.));
#1636=DIRECTION('',(0.,1.,0.));
#1637=DIRECTION('',(0.,0.,1.));
#1638=DIRECTION('center_axis',(0.,0.,1.));
#1639=DIRECTION('ref_axis',(0.,-1.,0.));
#1640=DIRECTION('center_axis',(0.,0.,1.));
#1641=DIRECTION('ref_axis',(0.,-1.,0.));
#1642=DIRECTION('',(0.,0.,1.));
#1643=DIRECTION('center_axis',(0.,-1.,0.));
#1644=DIRECTION('ref_axis',(1.,0.,0.));
#1645=DIRECTION('',(-1.,0.,0.));
#1646=DIRECTION('center_axis',(-3.70074341541719E-16,1.,0.));
#1647=DIRECTION('ref_axis',(-1.,-3.70074341541719E-16,0.));
#1648=DIRECTION('',(-1.,-3.70074341541719E-16,0.));
#1649=DIRECTION('',(0.,0.,1.));
#1650=DIRECTION('center_axis',(0.,0.,1.));
#1651=DIRECTION('ref_axis',(1.,-7.40148683083436E-16,0.));
#1652=DIRECTION('center_axis',(0.,0.,1.));
#1653=DIRECTION('ref_axis',(1.,-7.40148683083436E-16,0.));
#1654=DIRECTION('center_axis',(0.,0.,1.));
#1655=DIRECTION('ref_axis',(-1.,0.,0.));
#1656=DIRECTION('center_axis',(1.,0.,0.));
#1657=DIRECTION('ref_axis',(0.,-1.,0.));
#1658=DIRECTION('',(0.,0.,-1.));
#1659=DIRECTION('',(0.,1.,0.));
#1660=DIRECTION('',(0.,0.,1.));
#1661=DIRECTION('center_axis',(0.,0.,-1.));
#1662=DIRECTION('ref_axis',(1.,0.,0.));
#1663=DIRECTION('',(0.,0.,-1.));
#1664=DIRECTION('center_axis',(0.,0.,1.));
#1665=DIRECTION('ref_axis',(1.,0.,0.));
#1666=DIRECTION('center_axis',(0.,1.,0.));
#1667=DIRECTION('ref_axis',(1.,0.,0.));
#1668=DIRECTION('',(-1.,0.,0.));
#1669=DIRECTION('center_axis',(7.40148683083438E-17,-1.,0.));
#1670=DIRECTION('ref_axis',(-1.,-7.40148683083438E-17,0.));
#1671=DIRECTION('',(0.,0.,-1.));
#1672=DIRECTION('',(1.,0.,0.));
#1673=DIRECTION('center_axis',(0.,0.,-1.));
#1674=DIRECTION('ref_axis',(0.,-1.,0.));
#1675=DIRECTION('center_axis',(0.,0.,1.));
#1676=DIRECTION('ref_axis',(0.,-1.,0.));
#1677=DIRECTION('center_axis',(0.,0.,-1.));
#1678=DIRECTION('ref_axis',(-1.,0.,0.));
#1679=DIRECTION('',(0.,0.,-1.));
#1680=DIRECTION('center_axis',(0.,0.,-1.));
#1681=DIRECTION('ref_axis',(-1.,0.,0.));
#1682=DIRECTION('center_axis',(0.,0.,1.));
#1683=DIRECTION('ref_axis',(-1.,0.,0.));
#1684=DIRECTION('center_axis',(0.,0.,1.));
#1685=DIRECTION('ref_axis',(-1.,0.,0.));
#1686=DIRECTION('center_axis',(0.,0.,-1.));
#1687=DIRECTION('ref_axis',(-1.,0.,0.));
#1688=DIRECTION('',(0.,0.,-1.));
#1689=DIRECTION('center_axis',(0.,0.,-1.));
#1690=DIRECTION('ref_axis',(-1.,0.,0.));
#1691=DIRECTION('center_axis',(0.,0.,1.));
#1692=DIRECTION('ref_axis',(-1.,0.,0.));
#1693=DIRECTION('center_axis',(0.,0.,1.));
#1694=DIRECTION('ref_axis',(-1.,0.,0.));
#1695=DIRECTION('center_axis',(0.,0.,-1.));
#1696=DIRECTION('ref_axis',(-1.,0.,0.));
#1697=DIRECTION('',(0.,0.,-1.));
#1698=DIRECTION('center_axis',(0.,0.,-1.));
#1699=DIRECTION('ref_axis',(-1.,0.,0.));
#1700=DIRECTION('center_axis',(0.,0.,1.));
#1701=DIRECTION('ref_axis',(-1.,0.,0.));
#1702=DIRECTION('center_axis',(0.,0.,1.));
#1703=DIRECTION('ref_axis',(-1.,0.,0.));
#1704=DIRECTION('center_axis',(0.,0.,-1.));
#1705=DIRECTION('ref_axis',(-1.,0.,0.));
#1706=DIRECTION('',(0.,0.,-1.));
#1707=DIRECTION('center_axis',(0.,0.,-1.));
#1708=DIRECTION('ref_axis',(-1.,0.,0.));
#1709=DIRECTION('center_axis',(0.,0.,1.));
#1710=DIRECTION('ref_axis',(-1.,0.,0.));
#1711=DIRECTION('center_axis',(0.,0.,1.));
#1712=DIRECTION('ref_axis',(-1.,0.,0.));
#1713=DIRECTION('center_axis',(0.,0.,-1.));
#1714=DIRECTION('ref_axis',(-1.,0.,0.));
#1715=DIRECTION('',(0.,0.,-1.));
#1716=DIRECTION('center_axis',(0.,0.,1.));
#1717=DIRECTION('ref_axis',(-1.,0.,0.));
#1718=DIRECTION('center_axis',(0.,0.,-1.));
#1719=DIRECTION('ref_axis',(-1.,0.,0.));
#1720=DIRECTION('',(0.,0.,-1.));
#1721=DIRECTION('center_axis',(0.,0.,1.));
#1722=DIRECTION('ref_axis',(-1.,0.,0.));
#1723=DIRECTION('center_axis',(0.,0.,-1.));
#1724=DIRECTION('ref_axis',(-1.,0.,0.));
#1725=DIRECTION('',(0.,0.,-1.));
#1726=DIRECTION('center_axis',(0.,0.,1.));
#1727=DIRECTION('ref_axis',(-1.,0.,0.));
#1728=DIRECTION('center_axis',(0.,0.,-1.));
#1729=DIRECTION('ref_axis',(-1.,0.,0.));
#1730=DIRECTION('',(0.,0.,-1.));
#1731=DIRECTION('center_axis',(0.,0.,1.));
#1732=DIRECTION('ref_axis',(-1.,0.,0.));
#1733=DIRECTION('center_axis',(0.,0.,-1.));
#1734=DIRECTION('ref_axis',(1.,0.,0.));
#1735=DIRECTION('center_axis',(0.,0.,-1.));
#1736=DIRECTION('ref_axis',(1.,0.,0.));
#1737=DIRECTION('',(0.707106781186555,-8.65956056235503E-17,0.70710678118654));
#1738=DIRECTION('center_axis',(0.,0.,1.));
#1739=DIRECTION('ref_axis',(1.,0.,0.));
#1740=DIRECTION('center_axis',(0.,0.,-1.));
#1741=DIRECTION('ref_axis',(1.,0.,0.));
#1742=DIRECTION('',(1.,-6.125368411725E-17,0.));
#1743=DIRECTION('center_axis',(0.,0.,-1.));
#1744=DIRECTION('ref_axis',(0.,1.,0.));
#1745=DIRECTION('',(6.7713729583237E-16,-1.,0.));
#1746=DIRECTION('center_axis',(0.,0.,-1.));
#1747=DIRECTION('ref_axis',(1.,0.,0.));
#1748=DIRECTION('',(-1.,0.,0.));
#1749=DIRECTION('center_axis',(0.,0.,-1.));
#1750=DIRECTION('ref_axis',(0.,-1.,0.));
#1751=DIRECTION('',(0.,1.,0.));
#1752=DIRECTION('center_axis',(0.,0.,-1.));
#1753=DIRECTION('ref_axis',(-1.,0.,0.));
#1754=DIRECTION('center_axis',(0.,0.,-1.));
#1755=DIRECTION('ref_axis',(1.,0.,0.));
#1756=DIRECTION('center_axis',(0.,0.,-1.));
#1757=DIRECTION('ref_axis',(1.,0.,0.));
#1758=DIRECTION('center_axis',(0.,0.,-1.));
#1759=DIRECTION('ref_axis',(1.,0.,0.));
#1760=DIRECTION('center_axis',(0.,0.,-1.));
#1761=DIRECTION('ref_axis',(1.,0.,0.));
#1762=DIRECTION('center_axis',(0.,0.,-1.));
#1763=DIRECTION('ref_axis',(1.,0.,0.));
#1764=DIRECTION('center_axis',(0.,0.,-1.));
#1765=DIRECTION('ref_axis',(1.,0.,0.));
#1766=DIRECTION('',(0.,0.,1.));
#1767=DIRECTION('center_axis',(0.,0.,-1.));
#1768=DIRECTION('ref_axis',(1.,0.,0.));
#1769=DIRECTION('',(0.707106781186555,-8.65956056235503E-17,0.70710678118654));
#1770=DIRECTION('center_axis',(0.,0.,1.));
#1771=DIRECTION('ref_axis',(1.,0.,0.));
#1772=DIRECTION('center_axis',(0.,0.,-1.));
#1773=DIRECTION('ref_axis',(1.,0.,0.));
#1774=DIRECTION('',(0.,0.,1.));
#1775=DIRECTION('center_axis',(0.,0.,-1.));
#1776=DIRECTION('ref_axis',(1.,0.,0.));
#1777=DIRECTION('',(0.707106781186555,-8.65956056235503E-17,0.70710678118654));
#1778=DIRECTION('center_axis',(0.,0.,1.));
#1779=DIRECTION('ref_axis',(1.,0.,0.));
#1780=DIRECTION('center_axis',(0.,0.,-1.));
#1781=DIRECTION('ref_axis',(1.,0.,0.));
#1782=DIRECTION('',(0.,0.,1.));
#1783=DIRECTION('center_axis',(0.,0.,-1.));
#1784=DIRECTION('ref_axis',(1.,0.,0.));
#1785=DIRECTION('',(0.707106781186555,-8.65956056235503E-17,0.70710678118654));
#1786=DIRECTION('center_axis',(0.,0.,1.));
#1787=DIRECTION('ref_axis',(1.,0.,0.));
#1788=DIRECTION('center_axis',(0.,0.,-1.));
#1789=DIRECTION('ref_axis',(1.,0.,0.));
#1790=DIRECTION('',(0.,0.,1.));
#1791=DIRECTION('center_axis',(0.,0.,-1.));
#1792=DIRECTION('ref_axis',(1.,0.,0.));
#1793=DIRECTION('',(0.707106781186555,-8.65956056235503E-17,0.70710678118654));
#1794=DIRECTION('center_axis',(0.,0.,1.));
#1795=DIRECTION('ref_axis',(1.,0.,0.));
#1796=DIRECTION('center_axis',(0.,0.,1.));
#1797=DIRECTION('ref_axis',(1.,0.,0.));
#1798=DIRECTION('',(0.,0.,1.));
#1799=DIRECTION('center_axis',(0.,0.,1.));
#1800=DIRECTION('ref_axis',(1.,0.,0.));
#1801=DIRECTION('center_axis',(0.,0.,-1.));
#1802=DIRECTION('ref_axis',(1.,0.,0.));
#1803=DIRECTION('',(0.707106781186555,-8.65956056235503E-17,0.70710678118654));
#1804=DIRECTION('center_axis',(0.,0.,1.));
#1805=DIRECTION('ref_axis',(1.,0.,0.));
#1806=DIRECTION('center_axis',(0.,0.,1.));
#1807=DIRECTION('ref_axis',(1.,0.,0.));
#1808=DIRECTION('',(0.,0.,1.));
#1809=DIRECTION('center_axis',(0.,0.,1.));
#1810=DIRECTION('ref_axis',(1.,0.,0.));
#1811=DIRECTION('center_axis',(0.,0.,-1.));
#1812=DIRECTION('ref_axis',(1.,0.,0.));
#1813=DIRECTION('center_axis',(0.,0.,-1.));
#1814=DIRECTION('ref_axis',(1.,0.,0.));
#1815=DIRECTION('center_axis',(0.,0.,-1.));
#1816=DIRECTION('ref_axis',(-1.,0.,0.));
#1817=DIRECTION('center_axis',(0.,0.,-1.));
#1818=DIRECTION('ref_axis',(-1.,0.,0.));
#1819=DIRECTION('',(0.707106781186555,8.65956056235503E-17,-0.70710678118654));
#1820=DIRECTION('center_axis',(0.,0.,1.));
#1821=DIRECTION('ref_axis',(-1.,0.,0.));
#1822=DIRECTION('center_axis',(0.,0.,1.));
#1823=DIRECTION('ref_axis',(-1.,0.,0.));
#1824=DIRECTION('',(0.,0.,-1.));
#1825=DIRECTION('center_axis',(0.,0.,1.));
#1826=DIRECTION('ref_axis',(-1.,0.,0.));
#1827=DIRECTION('center_axis',(0.,0.,-1.));
#1828=DIRECTION('ref_axis',(-1.,0.,0.));
#1829=DIRECTION('center_axis',(0.,0.,-1.));
#1830=DIRECTION('ref_axis',(-1.,0.,0.));
#1831=DIRECTION('',(0.707106781186555,8.65956056235503E-17,-0.70710678118654));
#1832=DIRECTION('center_axis',(0.,0.,1.));
#1833=DIRECTION('ref_axis',(-1.,0.,0.));
#1834=DIRECTION('center_axis',(0.,0.,1.));
#1835=DIRECTION('ref_axis',(-1.,0.,0.));
#1836=DIRECTION('',(0.,0.,-1.));
#1837=DIRECTION('center_axis',(0.,0.,1.));
#1838=DIRECTION('ref_axis',(-1.,0.,0.));
#1839=DIRECTION('center_axis',(0.,0.,-1.));
#1840=DIRECTION('ref_axis',(-1.,0.,0.));
#1841=DIRECTION('',(0.,0.,-1.));
#1842=DIRECTION('',(0.,0.,-1.));
#1843=DIRECTION('center_axis',(-1.,0.,0.));
#1844=DIRECTION('ref_axis',(0.,1.,0.));
#1845=DIRECTION('',(0.,0.,-1.));
#1846=DIRECTION('center_axis',(0.,0.,-1.));
#1847=DIRECTION('ref_axis',(0.,-1.,0.));
#1848=DIRECTION('',(0.,0.,-1.));
#1849=DIRECTION('center_axis',(0.,-1.,0.));
#1850=DIRECTION('ref_axis',(-1.,0.,0.));
#1851=DIRECTION('',(0.,0.,-1.));
#1852=DIRECTION('center_axis',(0.,0.,-1.));
#1853=DIRECTION('ref_axis',(1.,0.,0.));
#1854=DIRECTION('',(0.,0.,-1.));
#1855=DIRECTION('center_axis',(1.,6.7713729583237E-16,0.));
#1856=DIRECTION('ref_axis',(6.7713729583237E-16,-1.,0.));
#1857=DIRECTION('',(0.,0.,-1.));
#1858=DIRECTION('center_axis',(0.,0.,-1.));
#1859=DIRECTION('ref_axis',(0.,1.,0.));
#1860=DIRECTION('',(0.,0.,-1.));
#1861=DIRECTION('center_axis',(6.125368411725E-17,1.,0.));
#1862=DIRECTION('ref_axis',(1.,-6.125368411725E-17,0.));
#1863=CARTESIAN_POINT('',(0.,0.,0.));
#1864=CARTESIAN_POINT('Origin',(61.5,12.8499999999999,95.));
#1865=CARTESIAN_POINT('',(61.5,12.8499999999999,95.));
#1866=CARTESIAN_POINT('',(61.5,-7.15000000000008,95.));
#1867=CARTESIAN_POINT('',(61.5000000000001,7.84999999999992,95.));
#1868=CARTESIAN_POINT('',(61.5,12.8499999999999,105.));
#1869=CARTESIAN_POINT('',(61.5,12.8499999999999,95.));
#1870=CARTESIAN_POINT('',(61.5,-7.15000000000008,105.));
#1871=CARTESIAN_POINT('',(61.5000000000001,7.84999999999992,105.));
#1872=CARTESIAN_POINT('',(61.5,-7.15000000000008,95.));
#1873=CARTESIAN_POINT('Origin',(36.,2.84999999999991,105.));
#1874=CARTESIAN_POINT('',(108.5,57.1999999999999,105.));
#1875=CARTESIAN_POINT('',(-36.5,57.1999999999999,105.));
#1876=CARTESIAN_POINT('',(108.5,57.1999999999999,105.));
#1877=CARTESIAN_POINT('',(-51.5,42.1999999999999,105.));
#1878=CARTESIAN_POINT('Origin',(-36.5,42.1999999999999,105.));
#1879=CARTESIAN_POINT('',(-51.5,-36.5000000000001,105.));
#1880=CARTESIAN_POINT('',(-51.5,42.1999999999999,105.));
#1881=CARTESIAN_POINT('',(-36.5,-51.5000000000001,105.));
#1882=CARTESIAN_POINT('Origin',(-36.5,-36.5000000000001,105.));
#1883=CARTESIAN_POINT('',(108.5,-51.5000000000001,105.));
#1884=CARTESIAN_POINT('',(-36.5,-51.5000000000001,105.));
#1885=CARTESIAN_POINT('',(123.5,-36.5000000000001,105.));
#1886=CARTESIAN_POINT('Origin',(108.5,-36.5000000000001,105.));
#1887=CARTESIAN_POINT('',(123.5,42.1999999999999,105.));
#1888=CARTESIAN_POINT('',(123.5,-36.5000000000001,105.));
#1889=CARTESIAN_POINT('Origin',(108.5,42.1999999999999,105.));
#1890=CARTESIAN_POINT('',(118.25,-43.5000000000001,105.));
#1891=CARTESIAN_POINT('Origin',(115.,-43.5000000000001,105.));
#1892=CARTESIAN_POINT('',(-39.75,-43.5000000000001,105.));
#1893=CARTESIAN_POINT('Origin',(-43.,-43.5000000000001,105.));
#1894=CARTESIAN_POINT('',(118.25,49.1999999999999,105.));
#1895=CARTESIAN_POINT('Origin',(115.,49.1999999999999,105.));
#1896=CARTESIAN_POINT('',(-39.75,49.1999999999999,105.));
#1897=CARTESIAN_POINT('Origin',(-43.,49.1999999999999,105.));
#1898=CARTESIAN_POINT('',(1.50000000000001,50.3499999999999,105.));
#1899=CARTESIAN_POINT('Origin',(8.14450096334608E-15,50.3499999999999,105.));
#1900=CARTESIAN_POINT('',(1.5,-44.6500000000001,105.));
#1901=CARTESIAN_POINT('Origin',(5.47764726840744E-16,-44.6500000000001,
105.));
#1902=CARTESIAN_POINT('',(-35.3500000000018,35.8499999999952,105.));
#1903=CARTESIAN_POINT('Origin',(-33.0000000000018,35.8499999999952,105.));
#1904=CARTESIAN_POINT('',(-35.35,-30.1500000000048,105.));
#1905=CARTESIAN_POINT('Origin',(-33.,-30.1500000000048,105.));
#1906=CARTESIAN_POINT('',(30.65,-30.1500000000023,105.));
#1907=CARTESIAN_POINT('Origin',(33.,-30.1500000000023,105.));
#1908=CARTESIAN_POINT('',(30.6500000000001,35.8499999999977,105.));
#1909=CARTESIAN_POINT('Origin',(33.,35.8499999999977,105.));
#1910=CARTESIAN_POINT('',(56.5,12.8499999999999,105.));
#1911=CARTESIAN_POINT('',(63.25,12.8499999999999,105.));
#1912=CARTESIAN_POINT('',(56.5,15.8499999999999,105.));
#1913=CARTESIAN_POINT('',(56.5,2.84999999999991,105.));
#1914=CARTESIAN_POINT('',(108.5,15.8499999999999,105.));
#1915=CARTESIAN_POINT('',(63.25,15.8499999999999,105.));
#1916=CARTESIAN_POINT('',(111.5,12.8499999999999,105.));
#1917=CARTESIAN_POINT('Origin',(108.5,12.8499999999999,105.));
#1918=CARTESIAN_POINT('',(111.5,-7.15000000000006,105.));
#1919=CARTESIAN_POINT('',(111.5,-2.15000000000007,105.));
#1920=CARTESIAN_POINT('',(108.5,-10.1500000000001,105.));
#1921=CARTESIAN_POINT('Origin',(108.5,-7.15000000000006,105.));
#1922=CARTESIAN_POINT('',(56.5,-10.1500000000001,105.));
#1923=CARTESIAN_POINT('',(63.25,-10.1500000000001,105.));
#1924=CARTESIAN_POINT('',(56.5,-7.15000000000008,105.));
#1925=CARTESIAN_POINT('',(56.5,2.84999999999991,105.));
#1926=CARTESIAN_POINT('',(63.25,-7.15000000000008,105.));
#1927=CARTESIAN_POINT('Origin',(-38.5,54.2999999999999,97.));
#1928=CARTESIAN_POINT('',(-38.5,52.0999999999999,97.));
#1929=CARTESIAN_POINT('',(-38.5,54.2999999999999,97.));
#1930=CARTESIAN_POINT('',(-38.5,52.0999999999999,97.));
#1931=CARTESIAN_POINT('',(110.5,54.2999999999999,97.));
#1932=CARTESIAN_POINT('',(-38.5,54.2999999999999,97.));
#1933=CARTESIAN_POINT('',(110.5,52.0999999999999,97.));
#1934=CARTESIAN_POINT('',(110.5,52.0999999999999,97.));
#1935=CARTESIAN_POINT('',(-38.5,52.0999999999999,97.));
#1936=CARTESIAN_POINT('Origin',(-38.5,54.3999999999999,95.));
#1937=CARTESIAN_POINT('',(-38.5,54.3999999999999,95.));
#1938=CARTESIAN_POINT('',(-38.5,54.2999999999999,97.));
#1939=CARTESIAN_POINT('',(110.5,54.3999999999999,95.));
#1940=CARTESIAN_POINT('',(-1.24999999999999,54.3999999999999,95.));
#1941=CARTESIAN_POINT('',(110.5,54.2999999999999,97.));
#1942=CARTESIAN_POINT('Origin',(-38.5,52.0999999999999,97.));
#1943=CARTESIAN_POINT('',(-38.5,51.9999999999999,95.));
#1944=CARTESIAN_POINT('',(-38.5,51.9999999999999,95.));
#1945=CARTESIAN_POINT('',(110.5,51.9999999999999,95.));
#1946=CARTESIAN_POINT('',(110.5,51.9999999999999,95.));
#1947=CARTESIAN_POINT('',(-1.24999999999999,51.9999999999999,95.));
#1948=CARTESIAN_POINT('Origin',(-38.5,53.1999999999999,96.));
#1949=CARTESIAN_POINT('',(-38.5,28.0249999999999,95.));
#1950=CARTESIAN_POINT('Origin',(110.5,53.1999999999999,96.));
#1951=CARTESIAN_POINT('',(110.5,28.0249999999999,95.));
#1952=CARTESIAN_POINT('Origin',(-38.5,-48.6000000000001,97.));
#1953=CARTESIAN_POINT('',(-38.5,-48.6000000000001,97.));
#1954=CARTESIAN_POINT('',(-38.5,-48.7000000000001,95.));
#1955=CARTESIAN_POINT('',(-38.5,-48.6000000000001,97.));
#1956=CARTESIAN_POINT('',(110.5,-48.6000000000001,97.));
#1957=CARTESIAN_POINT('',(-38.5,-48.6000000000001,97.));
#1958=CARTESIAN_POINT('',(110.5,-48.7000000000001,95.));
#1959=CARTESIAN_POINT('',(110.5,-48.6000000000001,97.));
#1960=CARTESIAN_POINT('',(-1.24999999999999,-48.7000000000001,95.));
#1961=CARTESIAN_POINT('Origin',(-38.5,-46.4000000000001,97.));
#1962=CARTESIAN_POINT('',(-38.5,-46.4000000000001,97.));
#1963=CARTESIAN_POINT('',(-38.5,-46.4000000000001,97.));
#1964=CARTESIAN_POINT('',(110.5,-46.4000000000001,97.));
#1965=CARTESIAN_POINT('',(-38.5,-46.4000000000001,97.));
#1966=CARTESIAN_POINT('',(110.5,-46.4000000000001,97.));
#1967=CARTESIAN_POINT('Origin',(-38.5,-46.3000000000001,95.));
#1968=CARTESIAN_POINT('',(-38.5,-46.3000000000001,95.));
#1969=CARTESIAN_POINT('',(-38.5,-46.3000000000001,95.));
#1970=CARTESIAN_POINT('',(110.5,-46.3000000000001,95.));
#1971=CARTESIAN_POINT('',(-1.24999999999999,-46.3000000000001,95.));
#1972=CARTESIAN_POINT('',(110.5,-46.3000000000001,95.));
#1973=CARTESIAN_POINT('Origin',(-38.5,-47.5000000000001,96.));
#1974=CARTESIAN_POINT('',(-38.5,-22.3250000000001,95.));
#1975=CARTESIAN_POINT('Origin',(110.5,-47.5000000000001,96.));
#1976=CARTESIAN_POINT('',(110.5,-22.3250000000001,95.));
#1977=CARTESIAN_POINT('Origin',(118.4,-38.5000000000001,97.));
#1978=CARTESIAN_POINT('',(118.4,-38.5000000000001,97.));
#1979=CARTESIAN_POINT('',(120.6,-38.5000000000001,97.));
#1980=CARTESIAN_POINT('',(118.4,-38.5000000000001,97.));
#1981=CARTESIAN_POINT('',(118.4,44.1999999999999,97.));
#1982=CARTESIAN_POINT('',(118.4,-38.5000000000001,97.));
#1983=CARTESIAN_POINT('',(120.6,44.1999999999999,97.));
#1984=CARTESIAN_POINT('',(118.4,44.1999999999999,97.));
#1985=CARTESIAN_POINT('',(120.6,-38.5000000000001,97.));
#1986=CARTESIAN_POINT('Origin',(118.3,-38.5000000000001,95.));
#1987=CARTESIAN_POINT('',(118.3,-38.5000000000001,95.));
#1988=CARTESIAN_POINT('',(118.3,-38.5000000000001,95.));
#1989=CARTESIAN_POINT('',(118.3,44.1999999999999,95.));
#1990=CARTESIAN_POINT('',(118.3,-17.8250000000001,95.));
#1991=CARTESIAN_POINT('',(118.3,44.1999999999999,95.));
#1992=CARTESIAN_POINT('Origin',(120.6,-38.5000000000001,97.));
#1993=CARTESIAN_POINT('',(120.7,-38.5000000000001,95.));
#1994=CARTESIAN_POINT('',(120.7,-38.5000000000001,95.));
#1995=CARTESIAN_POINT('',(120.7,44.1999999999999,95.));
#1996=CARTESIAN_POINT('',(120.7,44.1999999999999,95.));
#1997=CARTESIAN_POINT('',(120.7,-17.8250000000001,95.));
#1998=CARTESIAN_POINT('Origin',(119.5,-38.5000000000001,96.));
#1999=CARTESIAN_POINT('',(77.75,-38.5000000000001,95.));
#2000=CARTESIAN_POINT('Origin',(119.5,44.1999999999999,96.));
#2001=CARTESIAN_POINT('',(77.75,44.1999999999999,95.));
#2002=CARTESIAN_POINT('Origin',(-46.4,-38.5000000000001,97.));
#2003=CARTESIAN_POINT('',(-46.3,-38.5000000000001,95.));
#2004=CARTESIAN_POINT('',(-46.4,-38.5000000000001,97.));
#2005=CARTESIAN_POINT('',(-46.3,-38.5000000000001,95.));
#2006=CARTESIAN_POINT('',(-46.4,44.1999999999999,97.));
#2007=CARTESIAN_POINT('',(-46.4,-38.5000000000001,97.));
#2008=CARTESIAN_POINT('',(-46.3,44.1999999999999,95.));
#2009=CARTESIAN_POINT('',(-46.3,44.1999999999999,95.));
#2010=CARTESIAN_POINT('',(-46.3,-17.8250000000001,95.));
#2011=CARTESIAN_POINT('Origin',(-48.6,-38.5000000000001,97.));
#2012=CARTESIAN_POINT('',(-48.6,-38.5000000000001,97.));
#2013=CARTESIAN_POINT('',(-48.6,-38.5000000000001,97.));
#2014=CARTESIAN_POINT('',(-48.6,44.1999999999999,97.));
#2015=CARTESIAN_POINT('',(-48.6,-38.5000000000001,97.));
#2016=CARTESIAN_POINT('',(-48.6,44.1999999999999,97.));
#2017=CARTESIAN_POINT('Origin',(-48.7,-38.5000000000001,95.));
#2018=CARTESIAN_POINT('',(-48.7,-38.5000000000001,95.));
#2019=CARTESIAN_POINT('',(-48.7,-38.5000000000001,95.));
#2020=CARTESIAN_POINT('',(-48.7,44.1999999999999,95.));
#2021=CARTESIAN_POINT('',(-48.7,-17.8250000000001,95.));
#2022=CARTESIAN_POINT('',(-48.7,44.1999999999999,95.));
#2023=CARTESIAN_POINT('Origin',(-47.5,-38.5000000000001,96.));
#2024=CARTESIAN_POINT('',(-5.74999999999998,-38.5000000000001,95.));
#2025=CARTESIAN_POINT('Origin',(-47.5,44.1999999999999,96.));
#2026=CARTESIAN_POINT('',(-5.74999999999998,44.1999999999999,95.));
#2027=CARTESIAN_POINT('Origin',(56.5,2.84999999999991,115.));
#2028=CARTESIAN_POINT('',(56.5,12.8499999999999,123.));
#2029=CARTESIAN_POINT('',(56.5,12.8499999999999,105.));
#2030=CARTESIAN_POINT('',(56.5,-7.15000000000008,123.));
#2031=CARTESIAN_POINT('',(56.5,12.8499999999999,123.));
#2032=CARTESIAN_POINT('',(56.5,-7.15000000000008,123.));
#2033=CARTESIAN_POINT('',(56.5,-10.1500000000001,125.));
#2034=CARTESIAN_POINT('',(56.5,-10.1500000000001,105.));
#2035=CARTESIAN_POINT('',(56.5,15.8499999999999,125.));
#2036=CARTESIAN_POINT('',(56.5,15.8499999999999,125.));
#2037=CARTESIAN_POINT('',(56.5,15.8499999999999,105.));
#2038=CARTESIAN_POINT('Origin',(99.5,2.84999999999992,123.));
#2039=CARTESIAN_POINT('',(105.5,-7.15000000000008,123.));
#2040=CARTESIAN_POINT('',(105.5,-7.15000000000008,123.));
#2041=CARTESIAN_POINT('',(105.5,12.8499999999999,123.));
#2042=CARTESIAN_POINT('',(90.5,12.8499999999999,123.));
#2043=CARTESIAN_POINT('',(108.5,9.84999999999993,123.));
#2044=CARTESIAN_POINT('Origin',(105.5,9.84999999999994,123.));
#2045=CARTESIAN_POINT('',(108.5,-4.1500000000001,123.));
#2046=CARTESIAN_POINT('',(108.5,9.84999999999993,123.));
#2047=CARTESIAN_POINT('Origin',(105.5,-4.15000000000012,123.));
#2048=CARTESIAN_POINT('Origin',(111.5,-7.15000000000006,105.));
#2049=CARTESIAN_POINT('',(111.5,12.8499999999999,125.));
#2050=CARTESIAN_POINT('',(111.5,12.8499999999999,105.));
#2051=CARTESIAN_POINT('',(111.5,-7.15000000000005,125.));
#2052=CARTESIAN_POINT('',(111.5,-7.15000000000006,125.));
#2053=CARTESIAN_POINT('',(111.5,-7.15000000000006,105.));
#2054=CARTESIAN_POINT('Origin',(108.5,-7.15000000000006,105.));
#2055=CARTESIAN_POINT('',(108.5,-10.1500000000001,125.));
#2056=CARTESIAN_POINT('Origin',(108.5,-7.15000000000006,125.));
#2057=CARTESIAN_POINT('',(108.5,-10.1500000000001,105.));
#2058=CARTESIAN_POINT('Origin',(90.5,-10.1500000000001,105.));
#2059=CARTESIAN_POINT('',(90.5,-10.1500000000001,125.));
#2060=CARTESIAN_POINT('Origin',(108.5,15.8499999999999,105.));
#2061=CARTESIAN_POINT('',(108.5,15.8499999999999,125.));
#2062=CARTESIAN_POINT('',(108.5,15.8499999999999,125.));
#2063=CARTESIAN_POINT('',(108.5,15.8499999999999,105.));
#2064=CARTESIAN_POINT('Origin',(108.5,12.8499999999999,105.));
#2065=CARTESIAN_POINT('Origin',(108.5,12.8499999999999,125.));
#2066=CARTESIAN_POINT('Origin',(101.,2.84999999999992,125.));
#2067=CARTESIAN_POINT('Origin',(108.5,9.84999999999993,105.));
#2068=CARTESIAN_POINT('',(108.5,9.84999999999993,95.));
#2069=CARTESIAN_POINT('',(108.5,9.84999999999993,105.));
#2070=CARTESIAN_POINT('',(108.5,-4.1500000000001,95.));
#2071=CARTESIAN_POINT('',(108.5,6.34999999999992,95.));
#2072=CARTESIAN_POINT('',(108.5,-4.1500000000001,105.));
#2073=CARTESIAN_POINT('Origin',(105.5,9.84999999999993,105.));
#2074=CARTESIAN_POINT('',(105.5,12.8499999999999,95.));
#2075=CARTESIAN_POINT('',(105.5,12.8499999999999,105.));
#2076=CARTESIAN_POINT('Origin',(105.5,9.84999999999993,95.));
#2077=CARTESIAN_POINT('Origin',(90.5,12.8499999999999,105.));
#2078=CARTESIAN_POINT('',(63.25,12.8499999999999,95.));
#2079=CARTESIAN_POINT('Origin',(105.5,-7.15000000000008,105.));
#2080=CARTESIAN_POINT('',(105.5,-7.15000000000008,95.));
#2081=CARTESIAN_POINT('',(105.5,-7.15000000000008,105.));
#2082=CARTESIAN_POINT('',(48.75,-7.15000000000008,95.));
#2083=CARTESIAN_POINT('Origin',(105.5,-4.1500000000001,105.));
#2084=CARTESIAN_POINT('Origin',(105.5,-4.1500000000001,95.));
#2085=CARTESIAN_POINT('Origin',(115.,-43.5000000000001,105.));
#2086=CARTESIAN_POINT('',(118.25,-43.5000000000001,101.6));
#2087=CARTESIAN_POINT('',(118.25,-43.5000000000001,105.));
#2088=CARTESIAN_POINT('Origin',(115.,-43.5000000000001,101.6));
#2089=CARTESIAN_POINT('Origin',(115.,-43.5000000000001,101.6));
#2090=CARTESIAN_POINT('',(116.8,-43.5000000000001,101.6));
#2091=CARTESIAN_POINT('Origin',(115.,-43.5000000000001,101.6));
#2092=CARTESIAN_POINT('Origin',(-43.,-43.5000000000001,105.));
#2093=CARTESIAN_POINT('',(-39.75,-43.5000000000001,101.6));
#2094=CARTESIAN_POINT('',(-39.75,-43.5000000000001,105.));
#2095=CARTESIAN_POINT('Origin',(-43.,-43.5000000000001,101.6));
#2096=CARTESIAN_POINT('Origin',(-43.,-43.5000000000001,101.6));
#2097=CARTESIAN_POINT('',(-41.2,-43.5000000000001,101.6));
#2098=CARTESIAN_POINT('Origin',(-43.,-43.5000000000001,101.6));
#2099=CARTESIAN_POINT('Origin',(115.,49.1999999999999,105.));
#2100=CARTESIAN_POINT('',(118.25,49.1999999999999,101.6));
#2101=CARTESIAN_POINT('',(118.25,49.1999999999999,105.));
#2102=CARTESIAN_POINT('Origin',(115.,49.1999999999999,101.6));
#2103=CARTESIAN_POINT('Origin',(115.,49.1999999999999,101.6));
#2104=CARTESIAN_POINT('',(116.8,49.1999999999999,101.6));
#2105=CARTESIAN_POINT('Origin',(115.,49.1999999999999,101.6));
#2106=CARTESIAN_POINT('Origin',(-43.,49.1999999999999,105.));
#2107=CARTESIAN_POINT('',(-39.75,49.1999999999999,101.6));
#2108=CARTESIAN_POINT('',(-39.75,49.1999999999999,105.));
#2109=CARTESIAN_POINT('Origin',(-43.,49.1999999999999,101.6));
#2110=CARTESIAN_POINT('Origin',(-43.,49.1999999999999,101.6));
#2111=CARTESIAN_POINT('',(-41.2,49.1999999999999,101.6));
#2112=CARTESIAN_POINT('Origin',(-43.,49.1999999999999,101.6));
#2113=CARTESIAN_POINT('Origin',(-43.,49.1999999999999,105.));
#2114=CARTESIAN_POINT('',(-41.2,49.1999999999999,95.));
#2115=CARTESIAN_POINT('',(-41.2,49.1999999999999,105.));
#2116=CARTESIAN_POINT('Origin',(-43.,49.1999999999999,95.));
#2117=CARTESIAN_POINT('Origin',(115.,-43.5000000000001,105.));
#2118=CARTESIAN_POINT('',(116.8,-43.5000000000001,95.));
#2119=CARTESIAN_POINT('',(116.8,-43.5000000000001,105.));
#2120=CARTESIAN_POINT('Origin',(115.,-43.5000000000001,95.));
#2121=CARTESIAN_POINT('Origin',(-43.,-43.5000000000001,105.));
#2122=CARTESIAN_POINT('',(-41.2,-43.5000000000001,95.));
#2123=CARTESIAN_POINT('',(-41.2,-43.5000000000001,105.));
#2124=CARTESIAN_POINT('Origin',(-43.,-43.5000000000001,95.));
#2125=CARTESIAN_POINT('Origin',(115.,49.1999999999999,105.));
#2126=CARTESIAN_POINT('',(116.8,49.1999999999999,95.));
#2127=CARTESIAN_POINT('',(116.8,49.1999999999999,105.));
#2128=CARTESIAN_POINT('Origin',(115.,49.1999999999999,95.));
#2129=CARTESIAN_POINT('Origin',(-33.0000000000018,35.8499999999952,95.1));
#2130=CARTESIAN_POINT('',(-35.5500000000018,35.8499999999952,95.));
#2131=CARTESIAN_POINT('Origin',(-33.0000000000018,35.8499999999952,95.));
#2132=CARTESIAN_POINT('',(-35.3500000000018,35.8499999999952,95.2));
#2133=CARTESIAN_POINT('',(-35.4500000000018,35.8499999999952,95.1));
#2134=CARTESIAN_POINT('Origin',(-33.0000000000018,35.8499999999952,95.2));
#2135=CARTESIAN_POINT('Origin',(36.,2.84999999999991,95.));
#2136=CARTESIAN_POINT('',(-36.5,57.1999999999999,95.));
#2137=CARTESIAN_POINT('',(108.5,57.1999999999999,95.));
#2138=CARTESIAN_POINT('',(108.5,57.1999999999999,95.));
#2139=CARTESIAN_POINT('',(123.5,42.1999999999999,95.));
#2140=CARTESIAN_POINT('Origin',(108.5,42.1999999999999,95.));
#2141=CARTESIAN_POINT('',(123.5,-36.5000000000001,95.));
#2142=CARTESIAN_POINT('',(123.5,-36.5000000000001,95.));
#2143=CARTESIAN_POINT('',(108.5,-51.5000000000001,95.));
#2144=CARTESIAN_POINT('Origin',(108.5,-36.5000000000001,95.));
#2145=CARTESIAN_POINT('',(-36.5,-51.5000000000001,95.));
#2146=CARTESIAN_POINT('',(-36.5,-51.5000000000001,95.));
#2147=CARTESIAN_POINT('',(-51.5,-36.5000000000001,95.));
#2148=CARTESIAN_POINT('Origin',(-36.5,-36.5000000000001,95.));
#2149=CARTESIAN_POINT('',(-51.5,42.1999999999999,95.));
#2150=CARTESIAN_POINT('',(-51.5,42.1999999999999,95.));
#2151=CARTESIAN_POINT('Origin',(-36.5,42.1999999999999,95.));
#2152=CARTESIAN_POINT('',(30.45,-30.1500000000023,95.));
#2153=CARTESIAN_POINT('Origin',(33.,-30.1500000000023,95.));
#2154=CARTESIAN_POINT('',(14.8872018625657,2.4484173399999,95.));
#2155=CARTESIAN_POINT('Origin',(15.9872018625657,2.4484173399999,95.));
#2156=CARTESIAN_POINT('',(-21.5127981374344,2.4484173399999,95.));
#2157=CARTESIAN_POINT('Origin',(-20.4127981374344,2.4484173399999,95.));
#2158=CARTESIAN_POINT('',(30.4500000000001,35.8499999999977,95.));
#2159=CARTESIAN_POINT('Origin',(33.,35.8499999999977,95.));
#2160=CARTESIAN_POINT('',(-35.55,-30.1500000000048,95.));
#2161=CARTESIAN_POINT('Origin',(-33.,-30.1500000000048,95.));
#2162=CARTESIAN_POINT('Origin',(-33.0000000000018,35.8499999999952,105.));
#2163=CARTESIAN_POINT('',(-35.3500000000018,35.8499999999952,105.));
#2164=CARTESIAN_POINT('Origin',(-33.,-30.1500000000048,95.1));
#2165=CARTESIAN_POINT('',(-35.35,-30.1500000000048,95.2));
#2166=CARTESIAN_POINT('',(-35.45,-30.1500000000048,95.1));
#2167=CARTESIAN_POINT('Origin',(-33.,-30.1500000000048,95.2));
#2168=CARTESIAN_POINT('Origin',(-33.,-30.1500000000048,105.));
#2169=CARTESIAN_POINT('',(-35.35,-30.1500000000048,105.));
#2170=CARTESIAN_POINT('Origin',(33.,-30.1500000000023,95.1));
#2171=CARTESIAN_POINT('',(30.65,-30.1500000000023,95.2));
#2172=CARTESIAN_POINT('',(30.55,-30.1500000000023,95.1));
#2173=CARTESIAN_POINT('Origin',(33.,-30.1500000000023,95.2));
#2174=CARTESIAN_POINT('Origin',(33.,-30.1500000000023,105.));
#2175=CARTESIAN_POINT('',(30.65,-30.1500000000023,105.));
#2176=CARTESIAN_POINT('Origin',(33.,35.8499999999977,95.1));
#2177=CARTESIAN_POINT('',(30.6500000000001,35.8499999999977,95.2));
#2178=CARTESIAN_POINT('',(30.5500000000001,35.8499999999977,95.1));
#2179=CARTESIAN_POINT('Origin',(33.,35.8499999999977,95.2));
#2180=CARTESIAN_POINT('Origin',(33.,35.8499999999977,105.));
#2181=CARTESIAN_POINT('',(30.6500000000001,35.8499999999977,105.));
#2182=CARTESIAN_POINT('Origin',(15.9872018625657,2.4484173399999,95.1));
#2183=CARTESIAN_POINT('',(15.0872018625657,2.4484173399999,95.2));
#2184=CARTESIAN_POINT('',(14.9872018625657,2.4484173399999,95.1));
#2185=CARTESIAN_POINT('Origin',(15.9872018625657,2.4484173399999,95.2));
#2186=CARTESIAN_POINT('Origin',(15.9872018625657,2.4484173399999,95.));
#2187=CARTESIAN_POINT('',(15.0872018625657,2.4484173399999,102.));
#2188=CARTESIAN_POINT('',(15.0872018625657,2.4484173399999,95.));
#2189=CARTESIAN_POINT('Origin',(15.9872018625657,2.4484173399999,102.));
#2190=CARTESIAN_POINT('Origin',(-20.4127981374344,2.4484173399999,95.1));
#2191=CARTESIAN_POINT('',(-21.3127981374344,2.4484173399999,95.2));
#2192=CARTESIAN_POINT('',(-21.4127981374344,2.4484173399999,95.1));
#2193=CARTESIAN_POINT('Origin',(-20.4127981374344,2.4484173399999,95.2));
#2194=CARTESIAN_POINT('Origin',(-20.4127981374344,2.4484173399999,95.));
#2195=CARTESIAN_POINT('',(-21.3127981374344,2.4484173399999,102.));
#2196=CARTESIAN_POINT('',(-21.3127981374344,2.4484173399999,95.));
#2197=CARTESIAN_POINT('Origin',(-20.4127981374344,2.4484173399999,102.));
#2198=CARTESIAN_POINT('Origin',(-20.4127981374344,2.8499999999999,102.));
#2199=CARTESIAN_POINT('Origin',(15.9872018625657,2.8499999999999,102.));
#2200=CARTESIAN_POINT('Origin',(8.14450096334608E-15,50.3499999999999,108.3));
#2201=CARTESIAN_POINT('',(1.10000000000001,50.3499999999999,108.5));
#2202=CARTESIAN_POINT('Origin',(8.14450096334608E-15,50.3499999999999,108.5));
#2203=CARTESIAN_POINT('',(1.50000000000001,50.3499999999999,108.1));
#2204=CARTESIAN_POINT('',(1.30000000000001,50.3499999999999,108.3));
#2205=CARTESIAN_POINT('Origin',(8.14450096334608E-15,50.3499999999999,108.1));
#2206=CARTESIAN_POINT('Origin',(8.14450096334608E-15,50.3499999999999,105.));
#2207=CARTESIAN_POINT('',(1.50000000000001,50.3499999999999,105.));
#2208=CARTESIAN_POINT('Origin',(8.04911692853238E-15,50.3499999999999,108.5));
#2209=CARTESIAN_POINT('Origin',(5.47764726840744E-16,-44.6500000000001,
108.3));
#2210=CARTESIAN_POINT('',(1.1,-44.6500000000001,108.5));
#2211=CARTESIAN_POINT('Origin',(5.47764726840744E-16,-44.6500000000001,
108.5));
#2212=CARTESIAN_POINT('',(1.5,-44.6500000000001,108.1));
#2213=CARTESIAN_POINT('',(1.3,-44.6500000000001,108.3));
#2214=CARTESIAN_POINT('Origin',(5.47764726840744E-16,-44.6500000000001,
108.1));
#2215=CARTESIAN_POINT('Origin',(5.47764726840744E-16,-44.6500000000001,
105.));
#2216=CARTESIAN_POINT('',(1.5,-44.6500000000001,105.));
#2217=CARTESIAN_POINT('Origin',(5.55111512312578E-16,-44.6500000000001,
108.5));
#2218=CARTESIAN_POINT('Origin',(-36.5,42.1999999999999,105.));
#2219=CARTESIAN_POINT('',(-36.5,57.1999999999999,105.));
#2220=CARTESIAN_POINT('',(-51.5,42.1999999999999,105.));
#2221=CARTESIAN_POINT('Origin',(-51.5,-36.5000000000001,105.));
#2222=CARTESIAN_POINT('',(-51.5,-36.5000000000001,105.));
#2223=CARTESIAN_POINT('Origin',(-36.5,-36.5000000000001,105.));
#2224=CARTESIAN_POINT('',(-36.5,-51.5000000000001,105.));
#2225=CARTESIAN_POINT('Origin',(108.5,-51.5000000000001,105.));
#2226=CARTESIAN_POINT('',(108.5,-51.5000000000001,105.));
#2227=CARTESIAN_POINT('Origin',(108.5,-36.5000000000001,105.));
#2228=CARTESIAN_POINT('',(123.5,-36.5000000000001,105.));
#2229=CARTESIAN_POINT('Origin',(123.5,42.1999999999999,105.));
#2230=CARTESIAN_POINT('',(123.5,42.1999999999999,105.));
#2231=CARTESIAN_POINT('Origin',(108.5,42.1999999999999,105.));
#2232=CARTESIAN_POINT('',(108.5,57.1999999999999,105.));
#2233=CARTESIAN_POINT('Origin',(-36.5,57.1999999999999,105.));
#2234=UNCERTAINTY_MEASURE_WITH_UNIT(LENGTH_MEASURE(0.01),#2238,
'DISTANCE_ACCURACY_VALUE',
'Maximum model space distance between geometric entities at asserted c
onnectivities');
#2235=UNCERTAINTY_MEASURE_WITH_UNIT(LENGTH_MEASURE(0.01),#2238,
'DISTANCE_ACCURACY_VALUE',
'Maximum model space distance between geometric entities at asserted c
onnectivities');
#2236=(
GEOMETRIC_REPRESENTATION_CONTEXT(3)
GLOBAL_UNCERTAINTY_ASSIGNED_CONTEXT((#2234))
GLOBAL_UNIT_ASSIGNED_CONTEXT((#2238,#2240,#2241))
REPRESENTATION_CONTEXT('','3D')
);
#2237=(
GEOMETRIC_REPRESENTATION_CONTEXT(3)
GLOBAL_UNCERTAINTY_ASSIGNED_CONTEXT((#2235))
GLOBAL_UNIT_ASSIGNED_CONTEXT((#2238,#2240,#2241))
REPRESENTATION_CONTEXT('','3D')
);
#2238=(
LENGTH_UNIT()
NAMED_UNIT(*)
SI_UNIT(.MILLI.,.METRE.)
);
#2239=(
LENGTH_UNIT()
NAMED_UNIT(*)
SI_UNIT($,.METRE.)
);
#2240=(
NAMED_UNIT(*)
PLANE_ANGLE_UNIT()
SI_UNIT($,.RADIAN.)
);
#2241=(
NAMED_UNIT(*)
SI_UNIT($,.STERADIAN.)
SOLID_ANGLE_UNIT()
);
#2242=SHAPE_DEFINITION_REPRESENTATION(#2243,#2244);
#2243=PRODUCT_DEFINITION_SHAPE('',$,#2246);
#2244=SHAPE_REPRESENTATION('',(#1342),#2236);
#2245=PRODUCT_DEFINITION_CONTEXT('part definition',#2250,'design');
#2246=PRODUCT_DEFINITION('2026-03-14-23-06-42-400',
'sensors_modul_top_v3',#2247,#2245);
#2247=PRODUCT_DEFINITION_FORMATION('',$,#2252);
#2248=PRODUCT_RELATED_PRODUCT_CATEGORY('sensors_modul_top_v3',
'sensors_modul_top_v3',(#2252));
#2249=APPLICATION_PROTOCOL_DEFINITION('international standard',
'automotive_design',2009,#2250);
#2250=APPLICATION_CONTEXT(
'Core Data for Automotive Mechanical Design Process');
#2251=PRODUCT_CONTEXT('part definition',#2250,'mechanical');
#2252=PRODUCT('2026-03-14-23-06-42-400','sensors_modul_top_v3',$,(#2251));
#2253=PRESENTATION_STYLE_ASSIGNMENT((#2254));
#2254=SURFACE_STYLE_USAGE(.BOTH.,#2255);
#2255=SURFACE_SIDE_STYLE('',(#2256));
#2256=SURFACE_STYLE_FILL_AREA(#2257);
#2257=FILL_AREA_STYLE('Steel - Satin',(#2258));
#2258=FILL_AREA_STYLE_COLOUR('Steel - Satin',#2259);
#2259=COLOUR_RGB('Steel - Satin',0.627450980392157,0.627450980392157,0.627450980392157);
ENDSEC;
END-ISO-10303-21;
